<mxfile host="app.diagrams.net" modified="2023-10-05T04:44:30.363Z" agent="Mozilla/5.0 (Windows NT 10.0; Win64; x64) AppleWebKit/537.36 (KHTML, like Gecko) Chrome/118.0.0.0 Safari/537.36 Edg/118.0.2088.27" etag="jhU2C2IJO9L26zYYaPLT" version="22.0.2" type="github">
  <diagram name="Page-1" id="9Qz79YPHmJmEQIA8ucIr">
    <mxGraphModel dx="1072" dy="465" grid="1" gridSize="10" guides="1" tooltips="1" connect="1" arrows="1" fold="1" page="1" pageScale="1" pageWidth="850" pageHeight="1100" math="0" shadow="0">
      <root>
        <mxCell id="0" />
        <mxCell id="1" parent="0" />
        <mxCell id="dtEqAcXGCRU7ycoyWSir-1" value="&lt;b&gt;E1&lt;/b&gt;" style="text;html=1;strokeColor=none;fillColor=none;align=center;verticalAlign=middle;whiteSpace=wrap;rounded=0;" vertex="1" parent="1">
          <mxGeometry x="130.3" y="360" width="60" height="30" as="geometry" />
        </mxCell>
        <mxCell id="dtEqAcXGCRU7ycoyWSir-3" value="&lt;u&gt;A1&lt;/u&gt;" style="rounded=0;whiteSpace=wrap;html=1;" vertex="1" parent="1">
          <mxGeometry x="135.3" y="390" width="50" height="30" as="geometry" />
        </mxCell>
        <mxCell id="dtEqAcXGCRU7ycoyWSir-7" value="A2" style="rounded=0;whiteSpace=wrap;html=1;" vertex="1" parent="1">
          <mxGeometry x="185.3" y="390" width="50" height="30" as="geometry" />
        </mxCell>
        <mxCell id="dtEqAcXGCRU7ycoyWSir-8" value="A3" style="rounded=0;whiteSpace=wrap;html=1;" vertex="1" parent="1">
          <mxGeometry x="235.3" y="390" width="50" height="30" as="geometry" />
        </mxCell>
        <mxCell id="dtEqAcXGCRU7ycoyWSir-9" value="&lt;u&gt;A7&lt;/u&gt;" style="rounded=0;whiteSpace=wrap;html=1;" vertex="1" parent="1">
          <mxGeometry x="135.3" y="459.56999999999994" width="50" height="30" as="geometry" />
        </mxCell>
        <mxCell id="dtEqAcXGCRU7ycoyWSir-10" value="&lt;u&gt;A8&lt;/u&gt;" style="rounded=0;whiteSpace=wrap;html=1;" vertex="1" parent="1">
          <mxGeometry x="185.3" y="459.56999999999994" width="50" height="30" as="geometry" />
        </mxCell>
        <mxCell id="dtEqAcXGCRU7ycoyWSir-11" value="A4" style="rounded=0;whiteSpace=wrap;html=1;" vertex="1" parent="1">
          <mxGeometry x="235.3" y="459.56999999999994" width="50" height="30" as="geometry" />
        </mxCell>
        <mxCell id="dtEqAcXGCRU7ycoyWSir-12" value="&lt;b&gt;E2&lt;br&gt;&lt;/b&gt;" style="text;html=1;strokeColor=none;fillColor=none;align=center;verticalAlign=middle;whiteSpace=wrap;rounded=0;" vertex="1" parent="1">
          <mxGeometry x="75.3" y="459.57" width="60" height="30" as="geometry" />
        </mxCell>
        <mxCell id="dtEqAcXGCRU7ycoyWSir-13" value="&lt;u&gt;A9&lt;/u&gt;" style="rounded=0;whiteSpace=wrap;html=1;" vertex="1" parent="1">
          <mxGeometry x="135.3" y="540" width="50" height="30" as="geometry" />
        </mxCell>
        <mxCell id="dtEqAcXGCRU7ycoyWSir-14" value="A10" style="rounded=0;whiteSpace=wrap;html=1;" vertex="1" parent="1">
          <mxGeometry x="185.3" y="540" width="50" height="30" as="geometry" />
        </mxCell>
        <mxCell id="dtEqAcXGCRU7ycoyWSir-15" value="A11" style="rounded=0;whiteSpace=wrap;html=1;" vertex="1" parent="1">
          <mxGeometry x="235.3" y="540" width="50" height="30" as="geometry" />
        </mxCell>
        <mxCell id="dtEqAcXGCRU7ycoyWSir-16" value="&lt;b&gt;E3&lt;br&gt;&lt;/b&gt;" style="text;html=1;strokeColor=none;fillColor=none;align=center;verticalAlign=middle;whiteSpace=wrap;rounded=0;" vertex="1" parent="1">
          <mxGeometry x="120.3" y="510" width="60" height="30" as="geometry" />
        </mxCell>
        <mxCell id="dtEqAcXGCRU7ycoyWSir-17" value="&lt;u&gt;A14&lt;/u&gt;" style="rounded=0;whiteSpace=wrap;html=1;" vertex="1" parent="1">
          <mxGeometry x="135.3" y="610" width="50" height="30" as="geometry" />
        </mxCell>
        <mxCell id="dtEqAcXGCRU7ycoyWSir-18" value="A13" style="rounded=0;whiteSpace=wrap;html=1;" vertex="1" parent="1">
          <mxGeometry x="185.3" y="610" width="50" height="30" as="geometry" />
        </mxCell>
        <mxCell id="dtEqAcXGCRU7ycoyWSir-20" value="&lt;b&gt;E4&lt;br&gt;&lt;/b&gt;" style="text;html=1;strokeColor=none;fillColor=none;align=center;verticalAlign=middle;whiteSpace=wrap;rounded=0;" vertex="1" parent="1">
          <mxGeometry x="120.3" y="580" width="60" height="30" as="geometry" />
        </mxCell>
        <mxCell id="dtEqAcXGCRU7ycoyWSir-22" value="" style="shape=image;verticalLabelPosition=bottom;labelBackgroundColor=default;verticalAlign=top;aspect=fixed;imageAspect=0;image=data:image/png,iVBORw0KGgoAAAANSUhEUgAAAg8AAAFVCAYAAABo2AyuAAAAAXNSR0IArs4c6QAAAARnQU1BAACxjwv8YQUAAAAJcEhZcwAADsMAAA7DAcdvqGQAAP+lSURBVHhe7J0FgFVVE8cHlu7ulpAQAbFQLFAREETswsDuRP1swcQuBBQbFQxEUQkBQUpEke7ubpbd5X7zm3vP27vL24IFifdfLve+GyfnzJkzZ86cHJ5CYoghhhhiiCGGGDKBalWrSc7gOoYYYoghhhhiiCFTiAkPMcQQQwwxxBBDlhATHmKIIYYYYoghhiwhJjzEEEMMMcQQQwxZQkx4iCGGGGKIIYYYsoSY8BBDDDHEEEMMMWQJMeEhhhhiiCGGGGLIEmLCQwwxxBBDDDHEkCXEhIcYYoghhhhiiCFLiAkPMcQQQwwxxBBDlhBzTx1DDDHEEMM+w9vtSY6cOSJn0Z6F7iVHDr3HWf+2b98u69evly1bt8iO7Ttkx86dkpCQILt37w5C0U5J38+TJ7fky5dPChYoKEWLFZVixYrp7/z6zL0UnGP4T4B76pjwEEMMMcQQwz4jMSFRcuXO5f9QWSAxKVESdiXI33//LaP/GC0LFyyU1atXy9JlSyUpKUny5s0r+fMXkHx6zpM3j33GfYSJ+Ph42bVrl+zcsVNyxuWU8uXKS6VKlaR2ndrSpHETadq0qeTNn9e+AV5SILDEhIoDgpjwEEMMMcQQQ7bAOvC4HCowJMr06dOkd+/e0rdvX9m4caPUr99AO/3GcsaZZ8ppzZtLlapVg69SImegWkAQQBvBsXjxYhk1arT8+ecE+X3k77Jo8SIVOvLLVVdeJTd0vkGOqnGUCS05c+SMTcQfIPxnwoOLEDJBW5WTCudmaqlR75G6HJKk/8X59w5BydLTPELXEQR5DZfDfwEUha7Y3UF577YL/c1D1x7/68TGEEMMBw9gHiG+nZSYJBMnTpShQ4bKDwMH2vTCscc2krPOOkuaNWsm5cqVldy5cwdMRv8xtaGCRgSOvzgE79nh4uE7ZVDzF8yX8ePHy+jRo2XWrFmmqTjvvPPk7LPPloYNG/paDNIXCj7Gt7IX/4nwEO6wXMRcu77VFxaCa72wDsxL0P9y6UsqjepvtFORj8NwHx4ECCcPASnOZVCRFBA2nTS3SbY79kS0jGYHdISg/xO6xasXufTC1Q/KR868YwpF1xijJzKGGGI4UqCMAY0AAkCSnufMmS3du3eXPyf8KaefcYZ06HCB1KlTR8qVLSe586rAACNxyAz/4P2M3oMfKfNcumSpzJw5SwYO/EGGDx8uxzU5Th544AGL36ZQYvxqv+CACw9E5I6kJJHNW7ZLrrx5JS53nOyM36nEmGRHTh2q06nmzJlPO11Ptm5dJyWKlZQ8+fJLghJNXh5GS/VBRCjh5JGsJL2xcfN22blzh+Y3t5QqUcQEIxMe0k13tIzuK5IjJHSORD12qaSwfcdOSdTHxQrkk/xxIeHBJeMgKuMYYojhACHorAFCA8eq1avlxx8HyjPPPCMnnniSPPdcN6lZs6a+gWmkvqddS85c+tHeDDz4xiGINwJ4kYaFRpfRJvFwzJk7Rx555BGZPHmyPP7Y46aJqFSlkn0SQ/bigAsPVtd6QEMrVq6Tr775TtZv2Snx2ouiwsqlvWgcgoMemjDZkagSRs5cShhJ0vnKi6RalSpGR0xgGB2mTnlWiHM/I5I0veAajcmd99wvC1ctl9x58skD994nJzc5xheS9DANS9T0R0LKXng5TPNhadNj5YYE+XXocPl91ChNRrzcd9ttcuzR1WSXPosJDzHEcGQjbJDIFMUsHe0/99xzZvx49933SPt27ewZxo0gKXG3Dvz8a4PjG5nhH/CaMNtL9W3K1Rwc/gecExMT5ceBP8prr78m1apVkycef8KMLA2ZiTuGTAHhIVS7BwZUM3VYqlRJOanZaTJj3hL5Z+YC+fPfObJ+a4LUqttQ6tZvJHUbHCsbE3bL2Onz9Fgiqzdute8Pufp3CdaMJyQmSI68uWV3Lu24teRVNIoIVAcMTlbUdBG/FrmMHDdVHu/aXb4eMERWbYhXQQeBLfJaMg65wo8hhhj2CfABPayDDtr/ooWLpNO1naRU6VLSv39/6XDhBSY0mODAu8rU4vRau3P/AxCEk6kjNVI9Zymnwd5VQUL/R9cRlzNO8ubJKx07drR0FS9eXK697lpZvGixCRy7Uf/GkG04oMKDq3+QK5fIUTVrSaGixSVh+y7JnzOXVC9fVtqdc4pc0OoEPZrKs4/fK0fXqi659RmkSGL3S4JdwrJMW9pKXC+bDqB1hITjjz9OWjVvLmce31RKFS5gdgURLUrQHtJFOI2ReP2mkwJ7pMm9w0EDZ731Tlm5IUne/fAbea3Hx7Jo+SqJT0qSRI3A0wT7isc9Qo4hhhiOQLiR/vx586XVea3k9NNPl27dupkA4b/gn0wrYBf2c09E+FfyYYJJ6Lcd0cBrduh/MNR0UK58OXnxhRflxBNONKPNhQsXSk4zloshu3BApy3cSJsOk/OGrYnyv26vy4JlyyV3XA4554xT5JpLz5eCeXRkrh1ZfFxeGTv+bxk9cpRcq/ePql7d1P90xpZo/Q+DXa6dUEG4CJhG6/yAXvTg0r3HrUinreA9C5OzPsDAkYMVEgjTxEl4u7ivv3PpOVcOrAR8A04VuS18Fx5h85R7SN9xWsS7NbBdSbslvwaYpB/lMULmqfvKB8FRTjn1IjyV4dO9PdHGg9MV3x4BzSB54gAYY+YiFCedg9Clq+1Vq1bLY11fluKly8nxJzaTyTPmyKhxE80GpXyxvPLgrTdKo7pVLUbyYwlLmdQYYojhSIHylQ0bN8itt9wqBQoWlO7dX5YSJUv4fEER7kYYePicLRXD4CevKbP6pv83smbNGrn55pvtW1tmqdiyZYv0/qC3GUI6nxGEs1uZcy4dcT799NN2joYU8eklSdqyebPccustduvdd96VYiWK2XUM+4YDbvPghAefTDwVHuJVeHhT5qrwkEs71VannyJXXXKhFMyXw4wit+vLcXwQv1Xy58sry1aukXGTJmtHnE/DyaMh5NRONkmaNjpaKlcsJYN+HmKjZz6BjJqfeLyULlPSDAA3681ffx0nk8aMkB1b1snuhCQ59tjjpM1550oV/ZZeF7Xb35Ony8Kly1RwQHXvz6GdccaZMn3mHPll+CiZtWSVVC6cIE8/fLeUKF5M4lWa2J6QQ0aO/lN+/32YbNqgYe9KkuJlKkilKuXl3LObS4VSJWX4qDGa/9ySEJ+gedstx9StLbVrVrcmRnopm2kzF8rgwcNkscYfr0RPmRTXb8uodH9hu1ZStUpZfddvOJiD/DxiqvwxbpisXD5XCufKJ9Vq1JIWLVpIw6OPEuyUIm2JhhRcJqlk5WlDJG/jJvwp9Rs0lAKFC8p3P/8uH/b9RnbH5ZGyRfNJl9s6S6OjqybXFwG48GKIIYYjDv379ZdXX31Vhg4datMDGLqnAMwiA8B3sG+rXauObNu6VabPmC4FVRjJFefztZWrVknr1ufJtm3bpFy5cuY0Kleu3LJ40SI5tfmp8smnn+jAcreyooAZmZY0fWzbvs344lNPPiWtWrcK7sawL/jPbB5cR+YqnVG2JUQJIW9epFaRv2cslvd7fSbLVqySvPkKKF16kqBEM3nabOnx5Q/y7lcD7TxkzCRJzFlQPA1g/rJ10qffj/Jh/x9l/NRZKkgoNWsk0+eukIceeUM+7/uDeDkKyHltO0jZarVl0OiJcv/TL8hv4/+VeJV8eX/Ntp3yzZDR8t7n30rPr36Qnl8OkC8GDtb4NMwF62T+1jiZumyjbNil6VHBZeaSNfLIc2/IGx98IRsT4qRZy3ZSvmZDmT5/jQweMUmmzV4l8QkFZdbstfLJF79In29/k95f/yqzl2+SXZo4tAc7VBD49Nsh8vgLr8novyZLtSrVpcOFHaR+4yYyb9U6GTZmnAo0K7Tg4qysFi1ZL11f7i09evWRjVu2S5v2HaRKzToyetI06dL1Nfnyx+GyTcN0BpGuvEGcNtycOeO0EeeQZs1OlmJFC5pWI2echq33TbiwN/3/M2qYMcQQwxEAZQcf9flIbrrpJimQv8CegkNmoTz+119+lQIF8kvBQgXNX0PEhkGxc+dOm2qYOmWq/DbsNxmmR79+/aTJcU2kS5cu5sUyqyCeyy+/XN7r8V5wJ4bswAEXHkC4MwM5tYvazVCarkppcssukR9+HSYj/xgrGzZtkV1m6ZtbKlWuJNffgEexykpwiSowJErhYoWkUOH8plqvcVQNya05OuX4JnL3LZ2laoXSsm79Nun71beyeNlyU7NdccXlcnaLZnLxJRdLkRKlZP22eOn/46+ybusubRA55dRTm8g5555r0w4JmtBElZR37Ngm99x4mVxz/ilSNMdmyeUlSs5cBWT5+kR5+/0PZMmSRVKmZGHpcu9tckHb06TT1ZeIl7RVcng7JC5nghQukkMu7NhOcubJKTtV4Ni2O16S4hJVcEjQeHbKitXLZdDgIRZnkWLF5NJLOkqrc06Rq666VJo0aaR3sRHJrf9jq5Ao/b4dKJP+nS6F8xeUyy7oIBecc5ZcdeWVUqV6HdmVs4B89+vvMn3eStNmROv9aasICkz5uGkgpokYFaRWRNnnqSsshhhiOKKwbNkycy19wgknJPcaWeULykzQevbq2UvuvvtuqVu3nnzwwYcSl0u5N4xGjwrly8vjTzwuufPkNjuLvPnyyD///COFCxe20S5TGSZsBO9zygzOPPNMcyi1cMEi+41tRgz7hgMuPAR1ngIJ8fEmPCBlXn7NHXJN5ztk1IS/tPPLabYCHPRwaMVKlyokt3S6UorkzSl5c+eQ2fNmy4S/JsqGbSpw/DRQ6lSvJE/ceb1UK1HQaHvGnHkyc/Z8vU6SYsUK6Ki+tOTVBJQpUVwKF8ynI+7cMn/RUpk1d4Hfkeo3xYrotzoy3603UKm1OruFnFyvilx+7slyfYeW2mG3lTz5CsqQsVNk0dKVSolJUqNSWalYupDgbb1s8YJycftW0rHdOVKlkm9QlId5GBV4dqvgweHpdS5NU5wKEHPmTZf1mzeZrUaCduLbtDwQhgpoQm+57gr55oteKo0fawS/esNGGT/pb9mZsFtKFC0qdVVgIs7iRfOrcFTKpjXWbd4h02fPk+3x+iCNNuLqIFwfu01w0F/uRgwxxBCDYtTvo6RY8WJSpUqV4I5iL/jEvHnzZP6CBXLllVfpwKix/DxokGzdsjXCiPKosFChYgV7lykL8O4775iBZsHCBe03YLIi4wmLANpxVK9eQ4oWKSrTpk21W2YAGsM+4YAKDwF9RA5Ad5Undx5bE1y5cmVp36GjnNumrZQoW06fMYXhT2MAGzHrUadCWWl31tmSuCNBNmyOly/6/ySvvt1TcmtHf/tNN0QytV0//H3iPyYEyO5tUrliESldQIQxfPF8OaVwzt2C9UTOxESZOW26qCxiFgU5VXDI4eXUI052ayddrHAR0f5e8ufKI1e0O1uuvLiNePripHlLZfsuDVqPahWrSn79Nr9Gnk97/s6XtZNOF3eQY+vUsbz6kwGe5Nmt0vTuOMmtRy7Jo2nNJaXLlJe4fPlJiazdtFVe7fWhDJs4QzZt3C7FNLF59VOz/dCwh/8xWjbt3ClJcTkkd944KVo0j37HPKJIofy5JV8OT3LuTpJpU6cJ+8Y4IX0PBPd5DjTLCrsTpDSGGGKIwcfadWslv/IoczG9N1DWwtgEIeSiiy4yo8fTTjvNGNCIESOCl0LQ94mL9xeosIHmwCHTQoODvs40CdoLjDRjyB7sH+EhWu+jv/2uyT94TH+YpJ3dzhw6Bs+VX2rUqC2Xtz9TbruslbRu2sg649z6dl7tKHmXjj2fXhRQ+u3QtoU0qF1dCSyHbNm6TaZOnS6XdThfypQubRoEgFp+7cqV+m0OHdXnkMlTpsoTL74sj77wtjz78ruycvlKFRCSJI92vKuXL7XVFsQRJ/GSoMIMBptJKq3kyRGPryorLQwR8+ll7l0J4m1YqsJMkuyO0wDiSKlfoLh5BiaM7E5UESEBU0k9MPEMHtr1br2XS+pVqy0nNWqsAgKGCrtl7vxF8kaPPvJs93dk1Lh/rcC8nIgfnqxas0lyxuWV3CqhL964Vp56tYf877k35blub8o/f/+l727T+HfIujVLZN2G7VZuqasC5NByN0WDHq4u7Kc25rDA5s4xxBDDkYsSJUpI/C7li7ihzQocU9Tz9u3bZOJfE80gkkFL48aNzRfD9999HwkXHgzwycCOmiy3bNO2jVStEmykZfwqi3/K6HbgOTcpUUqWLOmHE8M+Y/8ID2kAOnIH/zPa3a2dWKJ20Im25lDvKQ3lVQK6oGVzuaxjW6lUvowRVJISAJ2dr21CG5BT7r3zVsmjo2/CwTZyuo62IRboD/sB+nt/Zza9yBknJUuVlnr160qdBsdI/WOOkQvbny9XXXaxXHnZJXLmac0lh76nsoQWSqIKNZomPZI08pzeLg01ZUea24uX/Lu3S5xKCkma9qQcvljAkYsX0bhpYDk1UMJDyLAuWRPrDBl9CTqXFMyTW+66qZOcesJxUiifihhJSbJ1Z4LMWrRcur3WQz7//hfZkbjb4kjKkUd258wt8doQChUvJg2PO04aNT5OjmvUSC5oc7Zcf1VHueHqi6S9XhcrWkB2aUFQNmHQcIHN+wVp8ZuZLzjwuq+JiCGGGGLAR83xsm7detNAZAnKXBIT/OkHpieGDBkiHS/sKGXKlJFjlAdv3rRJB35TIxoBx5ty6sjvz4l/2nbe999/P0zZRjgRmyyfaWXqYIpizZrVsnbtWtvzwu7HsM84oMKDVWTypR786TmHjuJ1dO/l2Ck54jztsBOlRKmC0qF9CyWiXTJr3lzZvnO7jt1FdmkAu3UUvmlzvAz+dbDk1JE9FOflyiu/j/1bJk+Zom8lSg6VQgg7R868Jjjkzp1HKlUoYxqLjm1PlY5tmkvH1mfIha1Pk/atT5dTT2lkaYN47Tv9D3GAe/xOCwgp8SqdxCck+HnjZeusufBziLDActFERvukVUPGjoOO2pVIyXwi997aSR6861Zpfc5ZUiBfHrP5iM+ZX/oO+FVmLV4jmDCgv4jX+6zUKJIvn7Rvcbxc2OpUadvmZOlw3mlyyTmny0XnniHnnnGaJYEVUMhlqUE+LXaEMj2bsGAtV9OlJydvuLYaQwwxHLmoVbuWFC1aRP75+5/gTiahvCQXKzOUofT/pr906NDB9qBYuXKVLFq0SD7+5GNZsnSpzJ4921434UD/xe+Ml/79v5FLL7vUtBPcc8/syCLG/DHGBBZcVseQPTiwwkMIEEIO7dWggx07d0ri7iTZjuEkd9BAaEe2S0fXY/+aLG/0/ESmzZhlhIgMu03i5Mcho2To0JFyzcVt5KQmDQhR1q7fKJ980U+27EyU7TrkpgOsXq2S7E6K134xl6xctV62bNsheTXbcdqRW1fJf4pgxsC+wWgxTuOP04dY9jK1kqThh2kWq98SpUrp6B3DSpF5ixbbkkuTJgBTLTlzqZCQV4ULtA25JNHLKUlxecRTQWabpg8BgE92JHj2GUbHxx9bS667oqPcceuNkkcbna2y0HDmzl9g8VetWFZzv1vYzY598leu3KR3Pdtwi71ByM6u+CQtW71LfvQICwDW/vitB3njiE/YJXnz5PHrQx8mqiAEtpnFpQ/PVsPEEEMMRyISlV9dcskl8sGHHwR3Mg/8MsCver7fU46uc7TxmJzKd/Crc/ppp8sm5WNsZgXQEqARxYnduHFj5brrrjdfOymYbwawIZvGwR/hsRfHF32/kOuvv97npwHPj2Hf8J8JDxBPolYq50KFi+qNPFKwiEqYNiLX7jFHnGzYkiCDR06QxWs22y6cdOxblYhG/DlFBg4ZIee1bi0XntdSrrionZQqUcgk3KUr18pb738kCV5uW7FwQpNjJF+eHCqg7JIFi1fJxH9my+Zd2m1rvNt2iUyevkh69PxUO+KdkiuP9vlaInG5culoPacVDnNxTJkAR7+cc2qHflTNoySffpQjKYfMV+Hhz6mLVDDQdCpxLl+zRXp+/IXMWrRE4uLySb58RfSbvJYvPFV6+FQIhIc33+0ht9z3pAoIy22qpVBekROPqynFCxcUL2GnNr4EKV60sE2rnHr8sVKisIaXO7ds2LxZxkz8WzZtT5K8Gv6WXZ4sWbNJ3v/oY5kzf5GwG65m047UIA8mwOmZZZsswwKUC3e3bdsu+bC4BPpyjr1d1x1DDDEc8siVJ5e0atXKnDc9+cST/lSEY4ggfB0CPIZBzltvvSmzZs+Wrdu2mi+HJB2t7YrfJYsWL1IhIk6++uorWbd2vQkOPOvfv59UqFDBtA44kEoj+KhgCMVunggnGMt37drV+Pm5556r55jkkF2Ie0oRXGc/XD2Faz64l6iVOnPufPntjwmyPTGXJOjou6COfndt2SYL9P7cuYvkx6FjZMrspTbP3+bMk6RI0WIycPBI+aDvANmlkvDVl3aUKiWwos0nS5cvk9mzZ6nQkFOWr1inceaU6lUqSMkSRWTxspUyd+lqjTOnLFqwSJYsXSUz5yyR30eNk5+G/qYdZk45+fimUih/LtmiQsYPv/wqcxevkTx58umIe6ccfVR5qVyxvK0IoWO1DleJs3Dx0jJjxkJZv2Gzhp0oU6ZNlgVLV8rfU6bLryN+l9nzF0qDYxpJuTLFZboKKaPG/CU7NA0Iv3E5EuX4Y+pJ7ty5ZNS4v2XqgtUSv3O7VKpYWYoVzi9Tpi+WEb8NlxyJ8VK+XEm54pILpGjeXFK8SF5Zt26zzFu8VHZ5STJ73kJZvHilLJ63Un4bM16++eVnWbFmrRyv+SlToqhpVkivq4ow8FO/UMMZN3GSDBs1RrZsT9AXc6uQEi8J2zahwjDhqVBBFcxUwPjvRM0YYojhvwRazGLFi9qKuGeeeVY79WLSoH4D30dDOmAwslkHOewt0fzU5lKxYkU5+uijbSUFGoVJkyZpOPWlfoP6klsHbdWq+9MKy5ctty21a9eqZYKL9SHRmFgaQNvA1EfPnu/Le++9Jy+/9LLUq18vS2HEkDZef/11pryDYXV2Ip0QGZXzeN7SpdL1xRdlzYatEo9WQYmT1Ql59GAVAnW8M0mlUB2p8+uNl7tqBzxdvviqn2zTD7BHKFwgn3zS+y3tQJdIt+eelx2b2XlTnyjB5s+bV6684hI5t9VZOkLfJR9+1ld+//13cyLFlAUrMQrkzSennnqKnN/ufClRrIjkUxr94edh8vW3P8iGLfG+oKAddJkSBeThB+6XWuacyqc/tCD4ZVi7MVE+/vwLmTDxT0t34q6dkkcl3spVKsl113aS6tWrysb1G+TNt9+T+YuWq3DDlIxnqzbOat5MOl9/pXz2xfcyeMQo2bV9q+TLm1vyqEDhqUCza8dOaVjnaLnu+k5SrmxRs8MAm3aIDPj5V+n/3bfWn6OtyIUWIVcOady4kVx+ycUqcJQyF9+pYbWtB6cXX31VpqnAtXXbdtm1G3ffKtVInApJnrAANL+GV7xIYbn15huk7tG1VWAi5zHEkA6UsFifj6FyHF5LUeUFdGvngCZ3bN9ha/43bNggxx7bSIoULqyPPRk9arTMnDVTChUqZB0NfgUYgebJaxvD+yCcMCmm/h3D/oMyvrHjxsrVV18td911l9x55516UwsfxqInf2ilSM170qozzpzsrDwMBhvci7zv3nP3FVG7Lf2Wz913Lzz/gvTp08emS04/83T/ZgzZgv23t0UGISJA7FDJMJdKrXTCifq+q3Or/ODaERQooA+Ygcfjo2/d54On7B1fME9OCwe4b3claCeYN4d1rtgUrFy5TpYsXSLxO3ZI/vz5pHq1alKmVHE+SYF4XtbvWdJMOKbp0oRysms9LBnc1v/Iw4oVa2TV6tVmL1C6VCllepUkpzYgTZYJR1zjWdXSFhzs74IQw/0Nm7bK6lWrbTnTTpWY86gQUbZkSalZrZLZL/AdcfEdZcR0x5atibYGGh/x+fLkVmZbQSqWK6FPooAPQ2dOu/Qg7VbO7rmCSwQV4kReQNAhDTHEkC6McPxLg/5euXKlJGibqFylsngqbWOt365dO9m0aZPkyZNHSmlbgcFXqlRJ6dCT3r17yzfffCs7dmy3IKpWrSpvvP6GlChVwkaSqLeLFytu3mQZBbN2P+bw58AC+4ffhv8mjz/+uK2YuO/e+6R2nTqmmaX+TYCAX6Smh9RwzzlzpAbP3PfueXCO1m2xeRZa5DlzZsvzzz+v5zny8svdpdkpJ/sv8El66Ykh0/hvhIegAu2V4GwdmB6uf3I0Yzs/oC8DObSnZWUFw33ryYK3IFh9he8T6eUC8DRR382lvXNSYqKNghgNMfdlTqOACiEwHjc4osOM8CG7oUFrGNhlWCnpb/c4Ar7V8HxDHwwV4yLfYmOIVo8zHT7xpEaSCjhI2xav0wDyPSc98x1h2TYdXPs//bO7CAHbIttjJkgDsFMQZiRsPawY3Xuh+64+DPrDFA7uiCGG9KCEw5I4Nk8aPXq0LcNr2aKlPPLoI9b2aCdDBg+xTY9KFC+hQnx+KVasmNEWrIh2ijobQYG58YTEBClbtqy1hXj9/fbbb8uYsWNk8eLFUrlSZbnyqivlwgsvzFB9HkP2Y8b0GbZTJZoIVlF07tzZVjRkSnhwDMY9D9h8BO6+O7uwgveidVvr1q+Xd5Q+fvrpJznt9NPktttukxo1avjfpZeWGLKMAy88pHE/SSsVbQTg5A44BuZ7eyKZEkg+0ia/o9Gf/z0TH5xdWDzBfiFlb54iJj94Y1oWTnCOBnvHDzISiLvHmQMgVyRDU2v3UdYq9GUXvl8lpNjdSY6ZKzd9YUj1ShLqF2XQxO2EixTv6zU/7dD/KDqu3buA34BbkRIK3zxU4AiCNP/X6Q4TZ5jstFxR89P5semPGeqGpEzu0aFGG12b0KoV5+oxAupKD2dt7sDInx0Nswu+XO+ZMM6eBaQTLcOtt94q3333nXkSvOH6G6TJcceZljHSqaQBE9QzkT6s97dv3y4DBw6UWrVqSaNGjWz1EwZ4bnqDtJEmyvOQotmDFdBUUI5oeuN0oLZh/QZ5uMvD8ulnn0q+fPmMHp9+5mm5sfONVh+sbAgPULBDiAtsp7ClMm+Vma0bF7+e3SAQPpmktJCQsEuFyneke/fuUrlyJXnrzbfMvqFosaL26SEB8scB0mkjBwv+O81D+KxI0sJCgHBwHbUrwwzpK5347NscKPmNmwR3XOgpaymSNH0cDjJa/BZK6njDL4aeuWiTGbzesJv+SyY+hHpvJzwkB5h8bVehb5MlhOCst7Vta+PSQ29ZSMGrBr12P1HARBMeHPy4uHJfAL0b5d0YMkBawkMARtpMQa1atUpWrlgpc+fOldlzZst6HU3hXIflzGjQWPIGfcSpgIHggOofxp0vX35T/R91VA3z489ovnr16lKz1lEWPh0zoJ5tXjkb6hCL+6SkRFmyeIl12lWqVjEBBTuGvPnyGonjFjhi9xCO0/0O3c+McOMEJr6hXAoWKOgLSPqvd8/e8tXXX8lll10m7dtfIMWKFvWN7WLYZ1DurqtYs3qNfPPtN/LBBx9IuXLl5aabbjQnUoMG/Sw//PCDLFu2VBod20jOPOtMqVe3ntJgTSlStIh964+ZCIsfWpf8OUYForSNCPRbvFwy5cWUxJzZc2TosGEyV6/ZNBHtB1NiCBYFoAsN1tHWfodL/4GK7z/Gf2bzYOCd4L3dSjB07w6uzq0e9J096IkHWUm1uY4MRWghRmLYA/Zmqkepo+Mx22NHwHU4yNQfAJeRcJHrNQaUNoIMPsqU8ECvbq8F77izwnmUDE/HRBC6pj9xAk3o8wjslr0f+ijaizFkjDSEhwnjJsivg3+VkSN/l1UrV0rpMqXNDgCL9Lp165qxIJuz5c2b15aspRhJa7XEx8fbsWPHDpk3f77MnDFDZs2eZVMHmzdvUQGimi1Ra3VuK2OwKQwP9xFbNm/VDqS3dSI33XiT3Hb7bZa+aFoSG3VGm1qAtILX3fRfhgi+QbsQ1rgwEv5r4l/y5JNPSqHChaRb127S9ISmwdMDgFAzidRRWsjKuwcSaaSLukEL9v2AAfLaq6+qcJhPLurYUU46+SRbTomwyqoshNy5c+dYPUDXs2bOMuPXxk2aqEBxrBxdF7qup++rYJcrl0aBljQUUag+SQvxYjcDTbO7JlMl/06ZYp4pGxzTwPbHaNasmdSqVVvjKRihC3ioLcvcl7IN6CxToH3z7r7Edwhh/wkPqWAqqjxY8itCTJSobaShKVAasdFygo5mTE2rtznSUmUmJgQqSQUExjsRRuIqnbMerBtmLwd+MMWBXcKWTVssfoid0R5bznLgghWf6sy1AlRrJUqUlIqVKkj5cuXMgCtf/ny2mRfEH/aFkISKWUc6jMjMq5pKRLs1btYxpyAs43qomwOhwc45tQz8bbFBHA6meE+RU59x133O9tnWMOxVT99DfUc8uazsdsbvkq1bt+r7OXSUsFr+nTxZJv8z2Zay4tVtvTLZXfEJsnHLZoufb/Lly2Nzy+XKl5M6tetI06bHm+/5CuXLWqdFp0MHRrqZk6bsXUdG3WnC7Zn+i6QzSR8QPr/5hmWpADW33XcvKlxHsDtxt54ZVetNPawsQ52Oqfi1/vwofQaxa9cuqw+LiCNcWGnBvaNn69i0vqzz0ohdHXBt71ANAW2hGocm6ORIq5VB8IzvCc+NnlN3bo4uMIzt2/dLefmll6zjb3hsQ+mojJiRE3VgNBp8E8nPXgCvfV9++aWNEuerYHGsMu9HHn5ETj/jdMsD2gFrX0GHHc63XeltniRo+Zhxs+YPx2lkk3pgW+VhQ4fKu+++K6c1b25tnLI0AcJ97AedNogoeMfKP0jLHnDv+Un0z5Qt5+AazQWg/LG0ZyfGk086OZIOV/5Me0SmhvgkHKX+NlIO1ZshRAMp4L7nbN/6Q4AIz+KHgjjJWzh/1sntxoGSpkvbWFjrwvsgPIUVgYszFSh7VPoRXhsC9QzfIH7aO9+bpof0uPC4pHIDuLRiILlm7RozkPz111/l2muvNYG0fLnyNj1RpEgRM1wN8wRDEO7XX30tgwYNMoFi/Yb1RvNFixY1WsdGggPeUqBAAbNzYUpq69Ztsnz5Mj2Wy6aNmyzNRVVAOenEEy3udu3bmVBt5U08Vu6aHyK0f0FZk5ZU5ZUWnSEckR/eJ1wLS7OTgl4U/MZHEUbtwNg074frXC9Tt3+LNwjTvWM8hLCDT4FLX+p4DyYcMOEBOEK1Tk4JjFjhzUQPwVNpEDhqUJin80AGMeW2uTMjB79SqCgYnBYy/hacgGGNRwucEQ7f8tvFg3OT2bNmyZSpU82bGdIsjpHoeFD7sl1r4SKFTd1FR+QaAXO4bKqyZfMm2aId8g4lbADhsib5qKOOkoYNG8oxxzSUMmVL27MIsWq6bO5A0wmD4HYu0qtXCcFctsWjQEAAiUkJxqRh6KSdd+xbCEozQjn4REi+9DflpJ3p+g3rTJU3e7ZK/X9Nsr3rWV+dV/OC0ENDZ+kbqlxr6MqsChQsYIIH5c8qDxxDsXJjmTbaZUv10IbLfCJzl7Vr15ImjZtIk+OaSIMGx9iabFToBk0TgoFlWdNGB8OZcEl/yjlKX0DiN4cTRHJrnUUal8IYARXn/zS4udYkBEw6M61rK4NQo7V7lDk/iSdofNAfG+MYY+U9jYsLV4Z8RzmHGS/xQYfh8HiXPBidUX9B+Py2uuTVUJqBo8PJk/+x1QLDh48wH/uMmljLzqoBEzYDQM/Aggn+SxVk5uAnTeJ37jIBEgv5ESNGWltg1Ni2bVupWq2q5QtBmPInb+Q3J/WhyaB9kE+jQ55p/sGMGTNshM9xbMNj7Fvep7wi4DJawv3sJZ+DdEZ+R/nGTWkYQ+Y57/Id5+A78gGoRwRM8gGT5300M2gj7LnSD++Y8yH9BiHdjYIJgekh4x8BrwJWRsH7fAt4Rt1ameg/+63fcDCdRHgJGhYJdAKnH/du63igGfgLYebNm0+f+7Ti0yTtRWmS3/qdzx/1t4ZNWoGlRX/DH4nfoGfXaVEnfEMBmI8afZ8/8hZ5pnCCM2HFaR7hwbxLJ84UwUcffWRCKMLnlVdcKdVrVDdDV3glo334JzyIb2ifgPAi7cZow49v46aNsmD+AlmyZImsW79OB2vrbNkubVNf0fhzmiDBgYBRunRp074xaCtVqrTRoYUa5M/iIBt+tEYnVkZaXsRJgSTTMIMSbevwo6DdAt+uyLcyhx9Rb7zveJDLh5W/1gffwq+hG5+3KR+ABhSONqgjFy9h8A0DD0BclBP1RFmbwKIgbOA0dK6OqB/OpM3Ph1/Wjr9agWhYlpag/Pc3DojwsGnjZtmyZYstjSyiHTTzoXRIxYuXMJfIzOlSyCVKlrACX7t2nRUozykTJFUaUrlyZU0Nu0VHy7yHtMp3qCppqCVLlbKwt23bapVTtmwZEw6YFxv08yAZ/ttwDWuD1KpVU5o3P00bQkOpUqWq+Wtn3tTUwtrA6QRhAhAMUiGJgLh2aSNnGSZ52aXpR0NBZ4DlOGo0KvHEE0+QSy6+RM448wxZv2at3SurHTejC5ZxbtUOulKlCsZQVq9ZY40DIYT30H6YEKPp2aiSNpoPX+tRQtZqWAhRGAAVLlTYnwfXTh71Nm6pv+7XTz777DNZsXyF7YV/vnYKZ551lpQqUVLfLyTFixbXUWZ+bVjKiCBMJUo6fGutAdGHAdHu0HCZh0cAIe4xY8dIP41n5syZJmh1uNC3rt6powg8clIflBtCmeVbRxUwbDa8YWRCPkgzHRcjDASXLVqfqNdReZYoVtxGGhQ4wk681i11TYMqVbqUJXXFiuVWXoS1TUcmRlcaVonixc1z3XYVfmh4lAt1z5LXkvouwtKKlSssH87CnyWDPC9Rorj+LqDvr1J6SjCbge3KzDZoGVP3LAuEScBE6TzKKh3C7DZs3GDh8Jy63LUr3lfdanlTl9AmZQDtrFy1Uvp82Efr6Wtzx3vPPfdYp019R1Xlg3Cr3NsWStVyuO/1ep22r7///kdee+1VWbRosdx2663mqbWKCjCUGQwqf4H82h5LWdujA0EtDS3iKRDGTB5JO+VfUtstURhTpd3YrwAu/tQgPeE8hfkd96N8A60gHNOBGcPkPb4LheVYmXXm7ple/jzoF5mmg4abb7lFaaGQaRipF+iE8qdMeLU0dKa0T6dGPphC4j1+k/9SWiaMmlevWW3bU1Pf0B107Ubf0CX3+E0ZsYcD2kc6QeiHznLL1i22CoDvaOskt0KFilr2CdZe8qkgQVi0QQR6nhM35c+3pbUTLVa8mKxXHkQY8E54IPyPvBMvAv86bVvwLegQzREaL9c2sR3YuGGj5Z+00S6h8QLaFqh/eMyPP/5oqynKly8vrc5rZa6lsWuBB/E9nRW7XdJh0rbQMEMrPEN7S7shbNoTfIQKISxsJhAiaIvFtf3BA6Az3sV2h02srE/QtoutxJJFS6xuiZv3yAdhV6pYyfgk9YcWDX7KQI8pjXzaNmn7lCF0XaRwEe0jSlpc0CrlR32gUYFPwb+o4w1aJght1C2DyMUq5NB3la9QXjau3yiblSdR1qSdsKm/gsqD4M2Ew/cFNO5CWn/rlW4oI3byhN8xIIOuoDv6lxUrVlib4TftytUfZeR4DPVYTusLHrNZB7BukLtli/I77U+gM9ojdUnZVK0e7D66n4HwsN/FFAjfqZ1z0eiVgChQGgoFaFIwD/U/CMQkPT2Q5FCVU7gIGz5jSn4HcEZiJRzWhXMbCY3r31RYwBf7lVdeaR3eNZ066YjvNxnw/QB59NFHpE2bNnLMMQ2MIEuWLimFiihDzJ/XGpOTNJ2L0zz58igxFJRiJYpJ5aqVzS31CSceLzfedKP0/bKvTPrrL3nuuW7WGT3w4AM2v/x+z54yf8ECG1nAcBhtoE2g8dpoQUe4MGpjeBodZ9O6aD55BynVSZs0FL7ht18eCbZUrWu3rtKiRUv5+KOPLa/Dhg0zIenhhx+RE44/QWrWrGlL4pifBDkc06WgrNCDc6qDER7EXrxkcSPGOkfXkeuuu04G/TRIRo0aJffee68MGTJUTj21uTz91FPmvIu6sLworF403aSVhubywHPq3o4gbzRYDhsRqZBI0kgWowTehzlgUU2Ddt9budmfvRqEHSRfmb+9p99w08pOmZtPM4ws/T9+w9QB77upAsLnNz/sG/3Hb+JEaCXc7Upf1AHfhFsQwgfvG61a+LuN9hCyfhr0k7z55pvy9jtv27xvQR2xpSs4kBh3EMfeHHwL3FkBA215dgszbLv9ttuk+yvd5cknn5DlKphRDwi25FOzYOmH7igG7pFnpj+4z7u2YVEAaze8GC3+KPhh4A9KYwWj7pUwY9oMqXlUTZtDh0nD+OnwaLuuTix8ELrmWeS53fBPtLsXX3pR2/9woyXq0rVx8oHwy2eAuqb+/BGk1qHSj9Ev3wW8hjgoDwYbXENz9q2eeZcyc1oK6NhpFeFnHLRvSIzn0LV7l/cc7RAiQgQaAzoQNITwBuIlbfAHo2QLwxGMWCdOnniPfMF74bv2nv7BdwgfzRvhEDdpRuih82dgxHTXPffcK6++8qp0vKijlR3TP9AOwjsdPp0WcRAmgwwESfJF+TAY4z6gs6T8E1QYIF4OhG4Ga5SFpVNH7ggNpFsTamerF9IdtGfeg/7gJ0wDc3btXgO1eLhn02t6H2Ge8iJtbIpIXH7btkRZuJQFgpZpfYIw6JeIz02tomG1dqADSaarjSb0N2GQRZvyC8LzeYKYIJMfnqvPLVS9mRDPYDCPlbnVpd4jHvLup8vnQdQHIO3cIxDojjO0wQGgC/fb/9bvSw8kDti0hYMx9QBETYMxItYRPxIhTMgt40lOGqrilPPsRpvB2RU+nTQd3CeffmKNq7WOqE5tfqrUr1/fiI+4eI8DIt8fhY3lOZ34MO1ckaARJK655hopoaMavwNC3UXTomNDFYoaTsvAUyatf6TNVxsqEebJaw3Bge/X6YgZLcO3335nRnXt27c3TQejAQjIlQXlBCFj6kH4fmFlEmkVC/2x/hEPzGLcuHEyQDuhPydONBX8zTffbCMq0pArKFttU0F6yJ0P7jnQ9hxogPaWi5/3Qs8ZBVKPhB+hg9QgPsJhKoOiC+XFTZ3xHJqjjGFQXFhj1r8UNBGk3XU0/Damopd2z8Wv96E9aNbSBfTZsCHDbOnaCSecqAJdF9OgGPT9qGnfnwjHGeSL81+T/jJXs3QeCBIIxtgGKBX5DCnID9dTpkyRZ555xpbEoUZOXa+ZzReM9Pobrpe/VOiGbnq83yN4otAwpk+bbs/vuvMuY+5O2MYorn6DesGLqZDcTHyQjlB+n322q4wdO8aMO5nCM7rQb2hfVvcBDfjgTGb8k6N5q3P9bfQHnfBMv/MPBCi/rKAv3gFWOlaOnP1nAB6H8OFsI5ztSSQd/m2D+8ZCC9036G94qsWvaeJd/vhHeiO0G8C1Absm3YStgSJIz5wx08pn2G/DpFmzU+TCCzuYLw0EXYQGhDn4swn5QdiOZ1t4GpYrQ5dmFxcda3hK0MHSG7zL/3yfwl4kZfLtHummfP13g/YWRug7wkaoz6sDQAfSbOkM3uPapTtafHvcSw2tahOyKRP+9OxoxMqHKR3+qCQF7/hXyYiWZ+rV2p+7p2fCIa2WfwvH5/XumwOFA2fz4GLQDLrCTNFBhEByrCKDwnAEaXYA3A/RCv0qtyhIbAiuv/46GTNmjDz44INy1VVXWedrDD08D+QqYl9BRUYaH5WfHAeGkxgn4Wr33vvu0/d2S29tlKx3t5GGzXH5iaATg/DoxCAC8sJvQNr5beWl+HfKv3LFFVeYmuvVV1+15VCOuTNCJz10rg7EYLF4kavMIVRcGQEhbdqMGXKf5nP9unWWLqZM4BnMN1Pc2DMAq0N9AMWZAKWHeaVTUI8GeG44uWnVl95nFGk2ECEGlib0faOtgJlZuArKmvSYzUEQlxNwXeMHJmTwafCdIZQuY+DkDzrQd0b/8YfW1eXy2P8ek6tVeCxQML+9Z/YaIfuG/wwwPKOtnKYOf/jhh83Zz6+//GpGs1YNmj+XRWxYmG5ZunSpfP311/6oUAvOOkVFqCgyBFOJbK508skny6cqCP84cKCUKVfGf6hlh/Bwy623yO+jfo/UiT3SNIR5Qwr4VZYM3gm9R7kf1/Q4M/pjNA0Iz+pa33P1a3E4GgnDpUPPRkcRglWELhECaONheiRMa9OEAYJwoBXHN5xgHA4LQH+usza45y4soNe0Jwg5TOMu7BR5opwgUdKkYTvhqUePHtp2XzNbnHvvvceW/TIggVcVVKGhSJHCBO/Xt0uDImIcHgXOFg0gtJBk9xu1PNMjKWA06ZdTijbCh+7sZ0nTr8nQazM4VB4QEYr0HWJy16nLE+NPpiyXL18hK5Yvt2mibdu3WflTXmi5sI1B08X0EFpX4y9ptVmNg0EdfDi5vP0HdO7kh2eR8o8CaNDoScOyQU/qdAd15hCpz1T3DyQOqMFkunCFlbrQgEude+4Q/GbODy92OCaB8FHloxZOwUxcAYfDCiMcblaQOhwHC89nGJs2bZQ33njD9qY3oebKqySXSuBGAAEj5Nok1aAjpUpMstTnHBDld99+J8+bBflpxuhRITo4YgW876rUEWS2w+WbsIOyZU4a18KffPKJPPLIo9Ku3fmm5osQur5LskhSmuV2qCBcplHyMnfOXLnpppukTZu2tiLBpu0oAsqCC/cN57TqR5+hcmVKCOZVt15dGwGmBea/p0+fIfXq1jVXzplGwICYz2UaDkbW+4PeNmcbVufjvY+NjZ577jnpcEF7FVZ9puiEh2hI8UTj8bsPkb5f9DUh5OJLLjHNQ/9+/eTEk0+0sqCMbKrnxs7yx5g/kssn7Wh8hNs74P1U3/zy8y+mvTiqZo3gTgDiyCj81Ij2DemHyF2aFb6Rp9/W/XbNQ4QuFUyt09Dip3PhIr00uDB5JxS+IfXv9EB71fdJCx04XkDROGGHcOlll9pKBjpQaI25dH8qAI1akLj00pgapCsr72eEaOEFeXGdM0IE78B7obGlS5fJP//8LfPmzjMjzbnz5lp92NRC/gKmrcHgkYCoOs4MROPjd5rGgukW7B0qlK8g9Rs0kCaNG0uVqlWlvArY2KX432iUoXRZekhEuN/hcL8PAxzcwkP4Hkh1jVSLqm3kyJHSpcvDcv1119moHEMYEKlAwCl1WPsdGpkSKX+otHHXi/Bw2aVXWOePVgGKc5I8AgAjFtfh851jNAMGDJAXX3hRbrzxRrmOPemdFMx79or+Z8GkkTFu814UEE+a36UHFyZnPeh0mG8dMWKE3H///XL77bfLDTd0NrUzIwQDDD54/3AFI5guXbrYtM4777yjzInpMr/jsLrNAgMhLDaNypc3rxmvYb9iI5NUQLhAw4H9QP9+/eW0M04LnkSBdeJaBUE6qDeEUxgqhp6XX3a53KZ1h0Esc8uOKU6fMUPOPedcm2oogyFhVoUHR396RoNB+HiG7NDhQmne/FSb3nHA5uHa664V3E7jOIsR8FlnnSXnaMfmpgb2QCaEB+JGfc4I3+oCpJV8l16Q1jvRoN8ZS3Xf67euTadOk3V0ClenVhdUTOgdA7/1VTrEDDVs6YA6Jhy0DfhMeP2112XqtKlyzjnnSMuWLW0qCmHBpihUcEBz60bTe6QpM3B5zi6kEZ6b8gHs3vnzzz+bUIR9DvynXr16tiqOTdbKlS1nhrAsv8fQkfwhPFgVEb5GgrEmhpe4Q8fQGoPLVStX2UZurNbDEBLjTox3z255ti21xojR0hGmK5dWwuXIQts/2IHwAKEfPNgdnAHXSWkcwXvr1673ah5V03u/R0+7r8zWfwBSvXvgQcThw/NWLF/mqQTrvf/e+97O7Ts9ZRYp06fXCbsSvd2JekHaFb+P/N3TkYD34Qd9/PdT54lrl9e0jmjvBPciYe7t4dKi58SEJDumT53ulS9Xwfvu2++8LZu3BC8EcO8fpli+bLlXsUJFb+SIkcEdReqyygSUEWndj/IaHtPQK1mipDfmjzHBkz0x6vdR3rENG3nFihTzhgweEtyNAg1TBY0U6bD6D8Czvl/09dq0buMl6DVPOHhl2/Yd3qjRf3iJwfucuHbvRDtSILgJPbRp3dZbumSpt33bDu9/j/7PO+H4E7ydO3Yq7SdYGjas2+C9+8673tg/xnrTpk7zbr3lVk87Va8n7XyPgAO4MnZHtPfcvfTeCcO9l1XoN7RhO9z3qeJyz+FhQ4cM9fp91c/r8V4P7/nnno8c/P74o0+8r7/82ps/d37a6eW+S2sGB3G+0v1Vr1jR4p4Kg0Y7U6dM8xYtXOStXrXG27Rxk7dr5y7//UMACfEJdp4/b7535RVXeSrweNWrVfeeeOwJb+q/U71d+jxJeZKBE2WlB7SWLvQd2kai8mNXFtAmdAp9fvzRx9rmjvXy5M7jHdfkOG/Ir0OS301dT65+DiNUrVLVOzg0D9GQhpRp0GcsecJYEEdGL7/8cmAJG8BJeiAsAaaGjlaQ5kf/Mdr8of/vscdsS2v3PiM6lvaMGD5CFi9ZbFMkLMdp0KCB+e1H7RUZVe+B6MX6Tb9v5PkXXpBvv/3W5hVNsnd5DadZwZIkHLLgR+IF/SaNIDOGRrFwwSIbXbRv305eeuklfx41kJKZA2TPe6R2yAHHLIxAWFVx5hln2juZQlAWSOC9e/eS/v37Wz4ZxUTqwOV1X5F6pHkgQLozSHvXZ7vKkCFDZPDgwaYaNaSq18xAGbjcfsftctJJJ1k5NmrUWOnmueBpMnDRjEYLHxwPPvSgfP/9ADkjre2HM9D8aMci8+bPk0svvVQG/fKLjtLKWNJR46KVQPOFcWWdOrUtCAaybqAVDSkeBfX+2quvycAfBpoRMbQ2fsIE+eyzT82J2VG40tY0areqryZ/jUarVatWZqHft29fWx21BzKhefh38hRt74miAplv4wCivLfPCNO4XsM30KAwHYN/DJac4oKcuXbaIOpv32+C8hNtlyy/pv3xrS2ZjvddMjOViW8Flq3XqllLjml4jBko4wLaaE3j1I7KRtBOo+nSAp2gvXrv3fdsHv7iiy42bQ4rXgoWLOCvOsjDcnVW2gSjcdJ/sI6WKRvlxTie+urrr2X8+PHKl+vLBe0vsGWlrK7YawRlFjmnARUuzIMmS7B/0fbC6qNrO10r57Y6N7KvBu9QnhbWwVqWe4GDT/MQRmrpLQQkQm0EnjYaHc2vCO6GgJTnjnTCAZs3bvbuufseG9k8+MCDwV0fxKPMzmt8bGNv4ICB3oL5C7yXX3rZK1WylPfGa29kEDYP9zy2bd3m3XnHnV7r81r7mhJuh+FeVfz0409eyxYtvQ3rN/o3wvnKyqHhffH5FyotVjPNByO+cLxjx4zzypct7/37z7+WpsWLlnjntz3fq3d0vejhpXU46LUKPp4KHl73l7unzGco3n0C4fwXRwZocWYL7+EuD2f6/bQwb848o5Etm7Z4jzz8iFf36LrJIygQXL7x+htGt78N+80rXKiwjWLTREZp0mfbt233Wp3byvvm2+/s1cTdu03LsFXvn9zsFO/l7q9EguCc3hEGbWnThk02YnlVR76kd+Twkd7nn37ulStbznvh+ReCNwOEAuJbRuIN6jXwlihtRoWjQXeEE6C/KbtbbrpF+UYP/1m097IJaN/AnxMmeo8/9ri1AzRIaHSefOIp0yT8PuJ3b8rkKd6CeQu89evWm0aGUS3gTHoJh/pAG6DCvzd1ylTTQPH9k0886bVt09bKBB7x6COPeuPHTbDvTLsE9MTI+4/RY+xdFTCtnP8Y9YdpdJYsXuKtW7vO4kDbQDvlW9OWuOMgBOncsnmraa0Y/T/68KPe9GnTjU5Mo7Cvdcr37oiGVM/QOCxetNg0RY0bNfYu7HCh1W0K7cZBWpZ7C9rxwSk8pFdxilUrV2nn1s5UrHuA76goF0Y64QCED9Sip5x8itegfgNvszJrQ/Bt12e7ec88/YxNJ0AMa1evtamSk09q5neKWYWG+fekv718efN548eON4JPAf1JA4YJ3HH7Hd6br78ZuR9p0Jk53PtB8AgDdEKFCxXxVdsu2uC8fet2/0JB/AhUuXPlSRlmRodDEOabb7zpVa5U2du2Zdse8R2uqF+vvvfWm2/5+dyHvH7Z90vvsUcfszC+/eZbL3++/N6kvyZFwoXBQ0cIsvPmzvN+/ulnr2iRot6wocP8APYS0N0Vl1/hvfXW215CiL65fuHFl7wG2glu0M7MZS+9IzW+7f+tV7pUab9zTPTf2KZ0d+wxx3pNj2vq06Dejt8Z7+1AwA2Aqv3+++73TjzhRG/Z0mXB3VRITYuhBNDGNqzfYHWjI9XgZujYF6QKh8HBL4N+8Vqc1cIrW6ac1/zU5tYOli5eas93xfudtGsvpuoOQDoRGOAzlEE4bOo7MgXioPfhR2+/+bZ31hlnaXxlvdNPO90bPmy4CQQMOrp17eaVL1feu/iii1WI+MObNXO2HStXrDTBlLogTurdplLC5cdxsCBIC+lbuGChd+opp2pez7A2kUJgygiZyVMm80/dcUQEFj22btlqQmqtmrVUkNe2qPeMx2cQ1qEGhIeDU5GCqigddRG+zlkWeFrzVIZhqIaA+z69cHhXj7///tu8ieGjANXg9GnT7LESoy3B6dLlIXnkkUfMOBOVHp7YQLVqVX11VFah6WHao3at2mZNHjHcCgGVLWFrwzAre4PLW2ahwWod23ninxPNOycrAIoXL2YGmNwPIzzts2TJUvn333/lzjvuCO5kEqiO9cCKXBuMGRNRpuwOGcGe2T2sgMdJln9Z2e8FoDuAOvasFmdZeTE1V6Z0GVsiCR2gvsZo65Xur8jbb78tNY6qYUaA0Iw5cpq3QLZu8ek0S9CwcRKEp07yYctog2ywYqTz9debcyCMfzGYzAh8Ch0ApmG+/c73TYLnPiN7fZQ3bx5peOyx5h+FpcgA1Xqna68VHc1ZeUyaNMmcWjF1wTLlrEI7SLnrrrvMd0G9evX9m8Tvjr0FWQvKBw+KKuTJ1VdfLS+8+IKcdtrp8ssvP8uvvw424+GKlSvae/g6MKPHgHWElwCyYgCDUPiMqd1DaaS89mAV+pspHKa3fh082JbZNm/e3IxPMTY977zzZNSo0fLSiy+ZG3HcPBdXXlexYgXzesiKCqY7bMWBHsRvcYSPgwVBOf+ttND5hs7SpEkT+fLLvqIjfXuU2eamnbgfljsCnhUGRuSGDPJP3VGX5thJP6FdUqasXunyUBfjn7j2VuHi4CrL7IKJEYcYJoyf4J3d8hxv3Zp1EYlvjyOT6NC+g/fjwB+9tWvWeiWKl/BefeVVk8QNqcJDMv+q71eeMvJ0DdjShYaFJHrH7Xd6d991TyTsCIhaD0YnTMv89ac/UjLpNXiWqQNw1s9u7HyT1+PdHpb+yy69zKR2VKUGF7++y2gHQz/U5ahFN27YmDLMTB5u9KQdmGlYhg5OR5V+mOHee+7zWrdqbfm3OssiUB9jRFelclVTSTc6tpGpm9EqMDrfsV1H5FrGX3/1talIMSxEFQ8tFS1c1Lv5ppu9k048yTRqWY0f+sDgEwOwmTNm7kmbigU66luio/+wQWVahwqRfnoVb7/1tle6ZGnLB2l39MzorHLFysbKO1zQwdu8abOp2S/s0NHy3qhhIzPsY5qSZ2kiRH92kIAAqP3R4qlQFdzJPqBJQP1/0YUX2Wisd68PvGVLl0cfCYfSlK0IhUu5Llm81Hv91de9EsVKeKedeppND1Gva5Vf7kjDUPughUubntesXuOdfNLJxpuYjuEefHKP/KQD3keLjMG6fePoJRUwxOSAJ4a1Q3sgHAaHpUn5n37L1NTRdY42Y1jo5HDCwat5yAB58uS1fTHcRjcRKTKLmDd3vkyZOkW0M7W1zew7wIZSuMM2OOlbDyUMWbJ0iXl3ZGdCDNn2Jk7AUiCWQ+GbnLB37ogPnihcnBo2Rkz4ic8y+F6BBL10yVL5++9JcvHFF9uSsKuvvkaUkZjRliF4F+OtBx54wEZJCxcuEna1U2adnJ4sU0oO22RL6cwMwY4UXHrpJTJ33jyZO3duVK1SRkDb9eNPP9ryuYl/TTSt0YQJE2wpJvsN4NOEesX1+K233hp85S9VwxAOmrn6qqvNrbNb+54uQqNn6INN42gLaMYcbUSg77HGnSWjGDViSInBcVqxkCan0YKu2BOCPQ2MFvlK/2G0R1nhbIzdFzEebNbsZDMS/fufv+XPiX/KTz/9JDfccIMth3NpTQ0bLQY0Ghk5BmB/BHytVK9WzX4rg7fzvgJPmdRNxws7mjt3tEU3dL5eKpQvn7zEkajcES4ol4TU57Tgwoj2XhDubuVR0FylShWtvEb+PtL8weBwC0PNAgXyS57cvntqQ1rhHQxIlV+MTq+79jrbRA7fKbnz+M7wMHy1/ITLNh2gKRgz5g/532P/87XIfMcRim/+vPm2Edhzzz9nO8birAxtt0tL5Az4lqrmCMJCe0S6mp/eXLp1e840ERihH27IcpdwMCBPnty2+YxKnMGdAI4QODKCEsAHH/SW2rVry7jx481fBOuAx44dZ9bdqbFp8yb53//+Z9MInW+8MXOMOQ0g/LDOumyZstbgI9t6O2jQMGc6AKzceYdOONPQV3UUaWkcO87PD54fH37oYRk48AdZtXqVOR8KA3Xbm2+9acIUKyXGjRtrPiWw9E7RWDIJOg4EMazGK1WuFNw9/HHiSSfKCccfL599+pnRJ0JnVoC6mu2kTzjhePMF4m9PnkNat2ljQh/CBJ0fa8zZM+PWW26VW26+xVT6vI9LdjaA8r2YZgzozJFWvAqxPXv2tK3BU9A3z4N3oEOe5cmVy/bq6NPnI/+BIt2mF+2h/obvs3cM6vxcdAjBe24VE/mA4UdcG6cOIxUsP1o+bH7V54M+vsoYkH7C1PO+tF1XDkyFfPf997bny1VXX2XeGZ3jNnsleC8jOEFmD16WFtIJ13gEzzV7rHBiI6t33n7Hpivvvvsec92Paj3ynsM+FMf+hqVX2xCriObMnWPu0W1PFdKf+sgEEFLZ2ZbVdQgIhE/+EYI546eGFW5sZnfWmWdpXCVslRHTPvhuMaRVXqH75hxM043TLbZHwLladgmtBw2UkA45oBbUirXVD1ohaaqeoiJQb6HWRQ380IMPeV2f7eo9+8yztgqiUMHC5lsBtTNA/Yja6sbON9o64j38FmQWQbyozbBwjssZ533/7ff+zTB4Tw/if/rJp70H73/QN54CYfVYBgfq73g9SPdXX35l0zIYm3FgTd/5hs6RNKUG8b326uvWJGfNmGX3TO0WJZ5oB2o71IpdHupiBlxHGrC0RuX+5/g/U04dBHWbHj795FMvd67cXr+v+5l6lXqEFjau32grgtq3a291wf1I2Hr68osvvYL5C5oRcYReMoMgCOj8icefMJ8LGNOlQCjNzrcD+GXwYK9e/Qbe+ZqmebTFEEKfpI9Mv5gx3FQBKwmYujnn7HPMcJByMtUzcfmv7D0IQ4/x48Z7dWrX8X795Ve/HgiXkxnv8VLmwXSR326CNKaDFPSUCpb/IB2R9Og9po5+HvSzTYNBmyCrafzPoMmEd13Q/gKbunJ1bPkLH5nMzrq1671rr7nWq1almk3P8q0rU4xqj659tBmX2oo0BfF1ebCLd1SNmmagnCkQnB6WVj2PHPG7tekp//plfzjgwE9bpBa80hLErNvyL6OBbYCPb3q8PPHEkzay0Lzo6+l8kBr66pQpU039yo5xGLc89vhjGt4T0rhRI5VIv1KJ1LPRAEZoH/b50FRcjMiZbgDsSa+EYdcZAc0BcbIzG2nVjkEqVqxoG1rtgUB6ZcTV9vzzZcTIkeZWlbiUDm1klabkGwKjNVxj8+2JJ5xoBlJs142HtbPPPluGDx9hxnVg6ZJlMm7seH/0o/9MFaj32QjH+Z9n9EtuM8yxfshocvasWTJyxEh5+ulkz4FHCvCHf+ONN8nFl1xsIxmMBYHRSzp1xxQTZYYWAb8HGAVDf2zz+9prr0nLlmdbnf3666+SOy9aCT8wVKJsUsaeIkxrMC1mdZlhZflQYUPeektHYn2/lGeffTbZKNFVeCjNcRqn+3mu0tEXn38uRYsUkWuuvtraFFMZNrDV6DOFdMojq2Bzr4e7PCzt2rU3Dcw333xj/hMoJ9qDxbWvHE/DWLNmrRlgonVocVYLK2umjMzdtMblvB1mBBUWzDj0tttvsykdSyPlTdm5slegRfx38r/y4Qd9zKeNCijJz4N3QNg3hkGf4c+F3TkxXu7UqZNpTdesWuM/TPW9wd1LffxX0CwxXcf+K0x3MR1ktE1W3UGdpsp6Crg86Ge//z7SPGmy2zKa0YWLFkbaEd6J5y+YbzSTv0A+K3douXyFCjZtgvF3psoiSJczqG9+6qlSqVJl5QUj7fdhAxMjsgFaocEVEtduW+ePlIuXuBHDR9hSsgHfD/AG/jDQjKQwepwxfYZJgkhndgCkyEzgn7//8SpVrOx99ulnFnemDFI0Dt7FWOb+e+/37rz9zuR49YzkeeXlV9pyMudbgfW7pzQ7xfum/zfeTB2FT582w/vpx0E2ArQliJmAG1GQRkbypzY71fvh+x98YzIXfxSwjOrBBx7ymp3czKRvYGE5aTudg9Hqa6+8ZgZGGJa68uH+99997+WOy231wbv4YsD/wyDNF6Mg6kWZjXf7bXdYfGgSOFN2Vs+p4nKHe86IGYPQ2269zUZiRxw0y9Tdhx986DU97nivd8/edjtTNOoQKtNsB0EGwWJM+JDSGL4I8L3gDBwNQRpSIFpy9B6GvbQf2j7GYiN+G2FLqiMj/jS+yxKihIO3P7fMGC0DxpgsgSYNKrT76XffuO9ThZFVMBJF84lHRr9t+EsFOay+MhE+aZs7Z65pevAgGzHADqWZstu4YZP5cLj6qqv9vI0bH2hTCCMUF5f8dvl14YQO0oux9GP/e8zSau+57x3S+PaAI5Q2lmNiIA+tRtKdFej7tD14H/4uhv823Pv7r7/NeHfAd8oDQ+9cesmlprXCCJbyZDnrJRdd4p3d4mxv5fJUGrks4KYbb/LuUH56uGCf/DzQyVAZFDrEjKofhzVUTrmy5U3Ww1VorrhcnkrETvZLceTMEeflzZ3XO6r6UbYKgPXxOCqCgUUaQhrgea+evbwqlat4KpVbA84QEJ0ekwLCaXNemwhDp3NEpY/DFaYUnnnqGe0A4o2YcmlHG6dpJc2ccUmKBXyEMWYAwqYzAZdcfIkS0s12neG3+pwVDzWq1/BuuO6GlNbmrlGnceACm/Tm0fLFV4W5w9Y60xGtd0yDY/y8aD5pSLi+vevOu2x1R/68+b2jahxlroB5nzw6Bhktnj0OTTNld1yTpt6smbOOTOEBBNn+XplTtarVvGs7XWuCcqbLI1SeWUYm6Ip0zJk9xzv5xJO13utbuwMp0ufSEEa0sFO9R6cIjbG64uKOF/u+J0Lf0XYz23ZSIIgHXyyosOl4KVus2oEJ1ooUeSAOl77wsZegrdQ6qpYJWpYPjYv4aCt2wLcyma8fBvzgPXD/A8YncRmdIq16zfQTz8knA5UUHX7qPOi9CM9M4+A56aadR115EuWbyHGgoXGSXsp04oSJ3rlnn2s+NPi9V9DPGLBWr1bDhFzCx8HUw10eidAN7zAdeOEFF9qUNi6uWemDcy/4sJXvXgJHbtdfd33w69AHwkOW3VNrAZt6lb39Z86aKSo0mHEJRiwcuEuteVRNqXHUUaYqL1asqFnbo+7HeA5rcqYAUENhwYphE6qixYsXy6KFi2TN2jWmdq1WrZqccMIJto4Xg5PiJYpb/BGDHwVqvm5dn5NRo0bJE088LieeeKLvdtapsHjNXYeAe1zfF0GS1K5TWxoc08DuoypevJgpAn+97sknN5OJf/5p6/ZRQTE1gvtYvitRsoSceeaZGavLgufkrVvXbmYA+fobr1v+nLosKvRb8smhxC5XX3O1WcDffc/dUr1GdX8aQ9NJuvZQVyq02fnPSa+GwTp9vmFOIUnrwMVt+dLnqAO1EemdHLa+n+/dMxd+xEpbYfcJQ//ZTEpOsZ35XnzxRfn991HySvfuZjzIGmhT3/Fp8udHDLRzsV39cMvMLn9XXHmFbTBVrXq1SP0ZKBufrFNeg6yWG2rvINgwDXJN25o6ZaoMHjJYvvvuO2szOrK1bbhTvBtG+F5a7+h9JQmfLvQ5bfy334bL8OG/mXr4+uuvl4suvsheZYfDPyf8aW0a3oBxHwag0CqGawsWLjQ/Ftu3bzefE1WrVTUeANiuG58spUqXth0Omfo7/vjjk/2UaN7xVYHhqXY0RqPR2kempi/IawDyxcGmS0xv4g7ZwtXMMk0RicNFFSXKFNB0sroJV8ZMGeF6u3ev3lK0qO/WmO/haxjE/vzLL1KxQoXICg63QZYKE/5UByCtLr1pxE39JCYmWJ137dpVWp/X2n+Xw32fVrrdO+4cDWl9u7cI0sRUHKt1Bv08yPjyXkHDYcM+ph9uv/0OMy5+4fnnbbqoX7/+UqiwhqvvzJg+Q57t+qztosmKOmi3X79+cu9998lFF3X0408r/9EQlMkF7TvI0XXqmA+QbC+n/wAqtKezq2b4bpDZ6dNmyIcffmDz5TCIM844w/ZLYB69YqWKxghsWZ5+mxUbBDolGjmdF/NbCBQQDPsD4DucBnJeq/Pkmk7XGNNVqdH/Li6HrF+73raC7tW7l6h0Z85l8ubLYx2ldXb/VUWRxCBuhJL77rtfSpYoIU89/ZTUrVvPOtt0ERQfQg5LfyiHp59+RhnvXHMC06JFC98CnfcyWdS8hm9/BCArc//2HuCZ1V+qcMPCgwkXbjmaglUATz7xpDHtl156WapWrWKdAe+k6CCPUGzauFk702Hafj6UFctXmAOfK6+60gRCVlRQ2Fa+lHlGtJEBdIRk4USENoXt4TJ6tHz80ccydtxYE3yZQ26mArJbmRHZzwBkNQ2kO0r90g5h2Awa3ABg/Njx8tbbb8m6tetky9YtNqhgb4BRKnSyEohOE3qCUTNfz2oGDuLYpsLEzJkzpE7tOj6v0TiNlgNhGEQ6VdLEEQ0Z5S/0rbHIIPiePXuZHUvfvl8EAxnKLZXwkJyUNMFqDfbH6dGjh/zxxx/y1FNPyU8//mSDL4OGccP1N8j2Hdvlvff0Ha27nfE7bUBVuUple8V4nMt3KL1ppoHnep+OrF69ulb/zP8zEALQjZUldMj3QZjk3w0UDAin0bCPdJsablCCA7GrrrpKPv74Y+P/ewMGvDjOYgt4BDRs2papMP/Nt9/IxIkTbUBG/pse19ScrrFaKl+BfGYP9Pjjj5v9DDvWNm7SOEXZRIUrJz1j57Zly2arV4REbC0izw9hIDxAGOmC+Wv2Orjt1tttt0DmRof/NsJUPIbgbCq1vQTTHtHAvOWaVWu8Ph/2sWmC2rXqeK+/9rrdY8rEVFjEr8fgXwabQw4saZctWRaovfxw/gug4sIR00svvuRVKF/R5i2ZjsHtLs8ypX7jFc2DqUVRmek/3M1WrlTFu/fue83xi1nWk8/wwXfBt+GDOCOHS0OUZ/Y7eJ76vh2ErSBuyvrZp5/1ihcrbm6+nfMp6MHUgcG7MfhtiWkybE7YA6Nk8ZLe6c1PNxfkzLGaWpZyp4z3EtAKZU+bwlUuKw9YtYOKFidoV1x2he02aPQUgGvaWqR+9yH+aNiDNwQ/aQvEC52wMqjbs9087dj86bkw3XCth83zQ4f8dPQbfi81eObyk/rICKFvSR8rpHq+39OrXrW6d/lll1t63XSelaULN730hPB+j/fNBTz1RT0VK1rMVm6EwylbuqytjMLmyVzoNzvFy5Mrj63SctOgEYTzmk4aSCtTp7RXjiKFi3o1qtXwTlM6vP22273uL3X3+n3d35yErVi2wlT8qOyxvYjfEbjMdvGkPrIbGhe0A9+8+867vc7Xd7byzirgU0wRkW9AmNQf+8fQp2AbBrCfwRaMFXgRaBreeesdcwNPH5MCqfMfPhTG/xR9PvzIK1SwkDl/O1yQ4bQF68q/+OILU+ugVsT16kknnWgqHyc9OenQSbV7BZcCvtdrU+e6UW3wjDW2uMX9/PPPRTsoW3uLNTujKzfymDF9prnrHT9unKkDsbhu2rSp7w43LDlbHKjqdYQdlt7TA9I2r7lX+R2StJWxWXhKmLaP/OBfB5tzmzx588r1111nroYLFixkZRWJM6Myc89Jr0rF/MTa/rHH/mdrlFktgjOhFi1ayok6InEqNcImDv4io08+5qT3DXovMlpSGBkE9/iOMo3UQ/AJz6nvXbviZdKkv2XQoJ9k+G/DpVLlynLttZ1sNUCuYNrIwiNIN4rhOBIRKjurQ6O7nDYax9cGo07KctGihbZL61FHHWVOfnCGU7FiJdtBEffpBQvoKDxfPt+9sZYxdICmjpEpDr0Y3aCxY/qP8/LlK8z5EtNVuGQ+XtvB8UojtWrWNI0dID1h7ZGl1aU3dHufQZjh+g/9hp6gFdTpvXr1th02hw8fbu62oT+3OyJ53cN3hUsriEZf4eepEe39NACNs9qFaaeqOuLavHmTuYJGu2F8RNtbpC25cNMJH38aTY5rYlM5qMZpKg8++IBNk7762iv2jnaY5jDrlltuMR8S1CNO2+Br5cuVl94ffCClwruLkleXX+KOFr8+hz+d1/o801zCG1euXCmrV6+xlVlMz7Jb8SaNBw0wH7DygLooVaq00WVpPaOpKFHCP8qWLRuZsmZXTuKNtH3KJeBFmeKx4fQHSNyVaPQ+ZuxYufSSS0zDTPqzijtuv8NWET315FOWPtrAxvUbTfu3ds1aGTNmjE3pUS84YEPzULR4UXMExnQHNPn5F59L3aPrGh2GeWdU6GPKesWKFXL9DTdIxwsvlJtvuTl6vRyCSHPaQkdHRlSdOl0rhbRDeuyxx+SYYxqac6a4OC04CuAAF4IRoEaMEDFs2G/SrVtXs63AsVF4aRkeGWGaeAYbMniIqaCuv+56adO2jak5UzDLvYCOFIKGkMOEBaAjIFPjT5jwp/Tp08fUmpUrV7KpitNOa277AezalaCMMHB0Ey7xTJQjeTcmpfnHpoClo48++qjtE4AwxdI9GE2bNm2kbZu2cmyjY03AI6+ozSLMTbMOQZuwZZVI9P7ZNaioIL36aNaMWabmIz5sN0455RRzUITdCKpAwoCa/PAJM8ge/6UR9GEPyk4PmwYy+GXjgDqfjhEnZGyJPuXfKTJj5gyZNm26TVFt37FD6aewLyRTiPoxzBy7nJ3x8XbNFs6UPUJGlcpVVFiopzTQSOmjjlSvVt06YObUI4Kcg0uSQ/h3dgoPGQD6xhkZquEuXbpo3qeZjVRYeDjQQLBivwqWrmIbcn7b8+XyKy5Xul8td991l3ZmY6zjpE6skwwXLJfhck4FhBEGYjgjyps3n72KN0hsQWbPmaOdU5ysWb1Wwy9jU7IssURQoZxwNkQ5kSZsQSII6MyQTvws02zWrJl5PTyuyXFmH+JPv/g2VPHK+3dpXdCRxuuBt12uWZrO1v20e/YcYXqJbcWNrjT/TFHCBxB+q1evoR3wUdYJY9vllntH0hikLcXgxKU39TWHYrem7xVN8xeffyFf9P3C3/Mn/G46+E37C7bqvvzyy+WNN98w+xgEOPo46pRlzng37XBhB5se5j2mMZhaxJnf2DFj5fkXnpczzzjT6NHnnSlqfE/4r8iNnW80Qb937w+sXg8XRBUekPQm/DnBBIdzzz3HJLVSZUop4WpZwFAyWWH7C6QDzJs316RyOq133nnHN/hyCNIIIfTo8b6MUKmRkd4JJ54gbdu2lVq1apkEzaYwZcqUtQ/C88NpgbJJTEo0YmAejlEg+/R///33MnrUaDPwaqRMG3ewZ53VIiJcGIIRFnFEyI5TWnEGtcI3zFeztrz7yy/b3vG4KmbP+jJlyljDXL1ytd0f8P0AWbR4kQkr557bSho3bmSNF8GCkUzlKlVUqMhlgkVcTmVGQSSkx+Vr5854O2/fts1GITSwyf/+a1oGJHTCuKB9e7mgwwXWwAwaDIyNvKQYYRB8Wvk7UkAZUD6hZhZ1FKa3TEDWZ9AZDCpJmetKHbkwelm/Yb0JznRoM2bMlMEqwMHMy5cvb0Z1bIiEfwniMu92GhZRRmgwOXr/2rXl8P0wDqDwgEDL3PJvw3+Ta665Rv7880+pXKmylckBER7gKRRTUAcYe44fP0GeeeZpM1a+62421WoWzJXvtvn3U5qdYt4O6fysPds/AkkOKzXIJ+HfdffdUqpkSXnyqSetnqmnHwYM0BHq9SaYH3fccfYefllo68RPeNx74YUX5MeBP0q//v1NKxUZDIXrMo34oSu85NKeP/3kEytbR5eEja8K/HSgBUJgAAi38AOAoMrBpmh8Rx+Klgv65Jg9e7Ztqrd06RL7HrsOhBN82kCnbMxVs2YtEyrKK79G2IUvYS+H1iJf/vzGn6IagWo2EbKxa5s3b548/MjD0uyUZsHD9PH6a28EA984OfXUU81eBjuj4b/9Zl4rqTcGoK1UWEBo3bp1iwkcy5YvM6/DbFuAkAS/j9RxFJjGNnjOYADD2jEqeHz+2WfGKyNeUg8DJAsPVFBQJkhZD9z/gE0JMDXgnCKlU2Zpw1U8SOt7905mwg+lkwa/Vju3xx/H5/8Gef/9HlKsaDGf6cEMQswPwyx2z8RvPyO71WvWGIMoWKCAVKpUScqohI8KrnTp0pZfnCMh6dKq0WTg3nnjho22EoTOFOl77dq1xkhoAAgM7PJGo6eRkEgbKWoaaJS+pEpwycRlp/TyrNEz+qEzYbTz6KOPmPR/6223WlykkTTj2tfi0PcSdiXYqICVMFN19LZw4QJr3HQ6NBzcXaNeNFWkNtJIevQfjX2HjnKxbl++YrmlGQM6GnndunWtwTF1dZQ2/IgGBYFI/yx/6eXlSESY9iGl0I0UDAg65VG4/NyrnMPPtbx3KC3u2LHdpsboZP/66y/5e9LfZoyIO92zzzlHjmnQwIwQc+aCAINvA3gYG+tvE2B4xhENofaT7QjHqcmgU6WNMco7//zzbQdNVlBAVwdCeLCBkZ7RHs6dM9dcdCPIoNrv2LGjtbNChQqbFpapo2FDh8kdd95hBnx0Rq6dAtee7IgC2vCll1wqPXv1lEYq3AM6RVaRENfZ55xtWlM0jXcE+4GwMyNtduPGTab+pj2+9fbb2n53J3dI4boMx889rvX8+++/mxb2vR7v2VQnN8O8yR3wNfKEMOGuKZuwIIEhN6u2uO9/439Hmohr46ZNtmIGvsl+Jhs2bLAVdvBdeCjXJoToN7l0MFNC6dfxJ4QmtDoMjuDJDPDo3NGg8m337t1Nu4shY5s2bZP5EQiXQXBNutLUOAc8zBWYGyAjRCHI+Df1VkAj0UC54Frd6EDLc968+fL000/Z4Kvrs12lSdMmflrSCuAQRFTNA9tct2vXTu69917rcPYmw3RmNCxG90wXRArOhaW/GU1DcGz9XLt2LX/Tm8xCK9Jh9erVcuNNN9lo+uuvv7J7e2gRiF8PTvHxO42AyTbLJ9GysHRtQdDRoqFgbjFBCSK3Stmkq0D+AlKqdCkl6HIqIDSRhg0bSp06dZRB5zWGUrRYsLwqDNJIGog0GtJhzjBTJ30vWrhYOlxwgc0zsjV4jeo1TO1mgoPGH7R9H6FrCBlVMAIFghBz4nOUMS5XaRpPaTRq27cC6HfYY6AmxY4C5lSgQEHbRIdy9bftDY0GwmkPytbiDqflSIcrlyhI0eS0zDIUvoLX+Qz6pbOBIcO0EAypyylTp9oIh22tmU6677775IzTz7C2QCdgdj+mkbCQIp1dmulMhz73GeE4NR4nPGBTwAouNrFCiIDmDojwoALVZm0frEZh0yUY4wMPPmADC6Y6aWuMjGkLjFjpIPFuy4Zzn3zyqZQuUyplnijaKPVJPl966SXTWLC3AnvH0CHSuWEjxWoyhD6mJRiIYIOAdT5ts2HDY2zenXQgTFSrkWrVQVrx6z347Lp1a+WKK66Uk08+WZ5+6qlkmkudziAcOlSfTJOFCgQj/z42KklGf7sRMALhAp5uS+DxtqnP+c27yVMjpMXn+yx3R9sJqPtlS5fJzFmzzFsqmgs64DUqOCGsoDllOa8/HVJTqlSpLP/8/Y+MVGHoiisut6mc3LlyG51H7GKCfBgyQ8vBu65tck4hcITDCyNUhpRD//5MvT1ktmgsh2VwSdr2a3v6D5AsPMBQNHNdn+0mo0b9bh1/immALOKfSf9Iu/btzM8DhkVIkABisRGvNtZp06dJr569TOXPfF+WluCEhAfSzbIumA3Lntpf0N6/H+TJEKp0KthGZIqwVsAIICAQBId//v7b1pM//PDDGuYFgsGSLWXT9yiyCPNNC+E0huE+S+tzjd+kfT0YWT7x+BNWbmzMUrFCRVOdItAwAkoxguUyHKbLs95zmgkaNN9Yo0gdf6iMIvkLysMQfj91PBzcSx3mkYxw2aUC5RuBllmmhIfgE75lOiNeGa75QdADponWiLqlXQ0Y8INMU2ECobZ9+/Y2gqYjdEvyCCsyGguFnQKu7ewPhOPUeGiTpH/rlq1y/AnHm/+Dm268ydK334UHTQeun/G9MuaPMXLJpZfYEsp8+fKbG3xQtGgxFWR8w2yDntatWSf36AALARz7K6ZCI3nitSj1ybLyIUOH2HtoNKkb6gjVPcbgWzT/PKSTZEkmS7R5xmZ9a9euseV+TY9v6g8uEOaJz9UT11Hip2yxAcNujenM119/3Za/2iZk0RAOJ4QIvaTOl75r/Aqhga4kJExw3wkUCFyQPWfsv9BaQLcIBxa2CmVMiVDGlCm2dWjYGBziYp8pU7QO7GyMUIXmgmmRHTt3SMkSJeX2O243twFoLLAjwT4sBTKiZ/JBOvWPtNDOMhQeNAryhBv5SSpIYvDLbsU33XSjXNvpWslfMLD1OAwRER7ozBcuWmQE2/P9960DjjCW1MSSCbz91tumgvxFBYfPP/9MTj21uTkesvJXQvlM7zFvy9wS/vQZ/UfmzzMD7ZipZEAlc7z04ku2hW+fD/vY9rjpdu5hwQK4fPpB2jXGQH2/6GsqMgx0mPNMoSLMqFxcWKmRwXcYX9KABvwwQF555VVbj41RIg2fXfuQwnluggP/wo3EXYbjjhZfZtKW+p1o4ThkpjyONKRVxgro1SHcIaUJ93ooTGPMynwJCwaM/wO2QE9I9NXK0C++UsZPGG/aPeab2eEPmx86Ib4LC4i0pxTCaEbMdl8QygdRwn/wYcDeFAwCTj/jdJsvpjPJbuEhPGBAa/O+8jtWk6H9vPiii83oD60bU5po3EhDxNjUgTQrD1m5coV1yhg6kt4zzzrTL1faZ/h9B711Xafr7JLO1TopRuHWseLIzV9hwj3rxHLAMyksphAJDy2F3+GSJnY0jdihcdIw+D5sM4Bx+bPPPmPCzbPPdtVBYVlLu30XDYTl6iechSjZSQH3jZ79NOtZ06P/7KbjVzxytIvmwmmgnbbClYWbIuEev/mWE8IH35iGePNmq0M0qT+owLxC64Mp3Q4XdJDmpzW3+nPxEYaVi+ad751W3U8fIK1EoLe17rid2l7InivIC3mkfbFTKYLf1m3b5KKOHeX8ducbDR3uQHigQAzsxsea330F6/xxxTt92nTbIwIX0qzPTmTNq4qmQBubrfEeN3acV7hQYXP5miWE1tMqcdmZdc9NmzT1pk6ZGokn03DvB2Gyfpy1zXNnz/VuuP4G250P3xLAre3mIG7eVYk163FGg4bB3gCff/a5rclnl0/8ui9ZtMTbunlrsm+LIJ3pxpkd6Ylh/8DVH0dmQX2Gv0t1sIspNLJ29Vqjl9mz5mg7m+/9O3mKN2HcBPP1gC8B1ptD07YjbWqE4ziAoP3g/4I9WDpccKG58cX3gfkwyUb4Phn8a3xd4D+hTOky3nvv9vD+mfSPN3/efNuPAz8T+DTAB4MhXC6p25Xew09HqZKlvUceftTcGzuX9wb3nR6Ju/z9YfYJ+rnxAIVtDxACYTs/CFu3bPOeefoZSxc75FKWxoN5nF4SeObSvI9JTQ/UA/wzwk+1bHChj38SXHGze/GmDZt8HxPrN3qrV672li5Z6i1euNhbtHCRt3DBIqNh/KPg9p38TRj/p21zgC+MYkWK2c7Bf4z6wy8nyk3jzHT5h1/Ta/gyYI+hF1940Tu6Tl0kCfOfwr5HwN6h3I4ApPDzgHocV5z4D8hQJR8NGgpBTZs6zVY/vPraq3LbbbeZKgjjIOZcI1JxEDzGmW3bnh94+Nq7aQviJL1Iqvh1wEDlhJNOCJ5mEpQAaQrCRfrFVmAdBj8bN5pr1LPOOkseevAhyZtfpdnsBvFq/KgomTLq1auXXHbZZdKufXspWLCAGQvZGmpeC6/gcOmOhvSexfDfIkS/mR7hWyvNAPoOU1zO0t1Gb3owxYF6l/aH9TdW5riExwpeBWNThTc8pqGNZiPYn5qHVFDmbGlnBNntuW42jcCSYGfhnl2gTTOnzqok/CRglHndddeabRbxoN1jbh1bIhvpu/ZD2bvy515w343gWdo+bNgweeWVV2y03OmaTmZIyfx8RIPL+/q3V7zVIZwGwO/QNfWLQebwEcPlo48+liKFC8s999wjLVq2sDJO4ScjrWQQZjiefUhuukgvHi1XeDAaCR/+2RQDgWbCaSu4RoPDVAVTS/xeunSZeXOlX5mq/dH27dukWDG2TqgerPQoLyVLljLeSr+EdoswnHYEbQaaDbR5aJdYtcd0iQqWZr/BipETTjjepgNZFk2fRvmatomkurbDdThfhxFSGEzed+/9VjGoylMsMcwCWG6F3QGFyPIilhTdffc9MnbsGLN/QA3nlpFRUTjmwDiTSt7DACg9hJgvySc+jG4uvexSc+iBC9IUyGx2fBo1wvSXKyXIZmVoWF7jPhZDpyuuuCL7CULzs2HjBosDNeOdd95hRm8YahUtUtR3/kSchzExHlEI6MyQ3fVJ2HqYAKwdGev2mUN2y+/oQLdu22rzxjNmzJARw0eYXwn2jsB9L9uBY+RFwlLzAddZZjs0vbRjmPYHH3woX331pamhsdFI0eFlEgxYUsxXB/h50M/Srdtzgov22269zVTcqLaLa8fCVGdu7UjMtoFKIevh7Keus+A36XY8CMPVYSqYsQwS4QyDVXwHIEhgCGkIvnXfkU5Lr3ZeKeKLBvhe6o5JzxjQIjBgP4ZRZfXq1eW6a6+T1m1aW74MfMv7GcWROp/7Ey6uaPFk4hnl52B1FiobEzz0OSvrWO6MQSw0P2H8BKsbVsthOM+0CO0EwWu3heeZYSzCBsbw+K3AOB6hg5UgrP5A+MDmjG8i9ebK1yFaug8jpJi2eLjLw16na6711TW+hibLQM3XoH4D22ET9d3fk/62Xe/GjPa3m7UpBgWqI1RIo0eN9koUL+ktiLbDW3ogmNDhwmUHtD9G/2HXked7kRfShxoN9SPqs4ULFto2tuwSyHQMz7MDhIPLYlzAsmVrndp1TAU2e+Zscz2NGjqS/uyJMobDHdCJo5WgbezYvsPbtnW7uRhGLb9w/kJvzqw53szpM22XVXalxDUxLnjZpfapJ5+2rehR30dUvoHadr/QIeFrW2C3zC/7fuU1OraR7fhpce8jCIOtlG++8Wbbdv6B+x7wJv45UcOfa2pwpkp4x01nRMovM/kM3iPtlLNNc+g/ppDGjhnrdbywo7mmp0zvuese2057+dLlkW3E+cbxEuMF+l2KQ9NFmE7dDq9ArY96H3fZxIHb6sqVKntly5T1Lup4kTdyxMhImmJICeqFqQVXNpQh0zsGvcW0jitjB96l/UTKkxO0Eu04goo8xbQFxoFMXbDUK+IRLCtQyatf/37y0EMPyWWXXW5LnLZs3mzSMJJ37w96R6Q0LWT9AM3DH9KuXXv5ax80D0ibjIg2bFhvHhZR++NVD+nRgASYVSkQoVXTSCoZsa1du87Cf/qpp82o6c233krpGnYfgEvt57p1s51JWV7HqIFpisKFClse3MqQGGLIFKw1K8I07zc3M8b1l815gotxNBIczgCNkb92cDJq9CgzAsTw6+yzzzYXyrVq1Zb8budKkNU2lR5ob8qG8DHyz+TJcuONneWzzz4zvyJ7u1wc4EWQ6Q+8NDJSxLlT48aNjTflz5ffRuW058iOnGEEZZYlBPlwUxMqHNhKAVZNoWXFcyarSljtwGo2ZcDm2r1o0SLmmhw1unPxDBgRMzpmOpORMgaBbBnAsnK0DWhNGjVqLCeeeIIt7cSlOfGjhidueFiKpYuEu5dleUSAMgrXO9ew39T3HMLX4Agq3xTTFjgXOu64ptKrV0/zHqiSVlTVXzRApMyvXnrppXLiCSfKddf7FsUwJVT9ffv2Nde7xYqjDlVoZ4/Kh939sHmYNGmSb/MQrqT0EBYegCbzle6v2Hzup59+agwnb1hNuDcV6ghDv6WhYr0+e85syw9CyoMPPmj3rXFmJfwgj5TZlClT5eabbrK5Vpan4YCpWNGiykQK2jwa+dinOdIYjjyE6DYq3HMFTR/hgSk/VjqwfBDnOCyRw9fJHyrcI/yz9wH+TW6/7XY5tfmppqIPTydAy/s6l09aWHaKapmtot9+5x0ddJziq/szGzR8QXkBLtlZMsceMPgDYMl189NOkzJlfCdwCA/YU+BllXRHnTII2mmWwDfuOw53rWf4IzYdrBAgn1jqs+IMF+RLly218meHUZ45IOAUKlzI0ov/FXZ8rFqtmm3tzHJt5vmZ2synQgR1QhlydrDf4Uy4dMWQEtSTgyufgJYM7nm47MLfOBxBZZti2gI8/tgTpvrHojSipkwPoVf+mjjJq3t0XVMR2v3g2Qe9P/S0EZg63lQ/+g+VHKsjmLYoU6qMWYZnCWFVkWLG9BleuTLlvP79+lscqJ+yU5VEmEwtoMplhzVUhEzNmGXzXoRP+pjSOemEk7xOV3fy/p38r1kPY1XMdI+vRs2GhMdw5AGyyQrp6LtM0aGaRV1L22e1xpLFS21HTlYvffftd97FF13i1ahewzvl5FO8d99516bWWFkVUdenRhbTAL2jyqeNHd/0eG/A9wNMPe/aeEbgew6mWj75+BPjRRdecKG1U/JAuOSNqUB4jz9lwIf+99kCwstMmDzXI6JCd9/p4fLBQb24sJhCjdwPpkfgE1HjCsKPehypyGr+w+8eyeWWBpi2SKFauPfee0y9h3vUNDdJCkOlL6YMsDb+7rtvTbuAD340DjxT4lZJWGwEjRoSF6Xcx20n7qJxQ7th40bp1+9rmfrvVBvtZBXs69DloS6201rr1m1M8jZVZzYC6R3nTKgUGcGwcQo+1ufq6Car0iYqSNaVX3hhRznxpBPlrrvu0tFQIWHzI9SQaHtiGocYDhhon7njrN0zXVmkSFHTEGIsxvQZqw8aHdvIvBKyCuiCCy6QwYMHy2XaBm655VZ58823bOScHYDmmapjxM00Cog2wIsGvsVY8OqrrjZHSJ1v6GwGyKwoKV26jBmB4imW8HFAZMbb/1UTI149MEi1dg4XDg5+u4N6MSiPZTVI5D5TmfovTa1nEH7U40hFVvN/oMoKAs8skR9kiNMG9hQXCAEsUcK69MUXXrT5z1NOPcUEAOuMo2VQCxjra1SDWLAyn8jSxjp1jjZVGi5HERLq129gm7iw4gK/5ey9wM5yKkWbRzmEDaYFUMH5PsxpSWlDJUG/cvV0p3a+27ZvM+HElpo5InHpdb+zAag5VfaXY5WZ/v77SNtSmf0EWO6TbhykRZ+zGuXDDz80b5GsCmnfrr2ULlPa7BtQp5qNA0xNGUR2pTmGIxRZpZ/gfZy52b4Yeqbd58qVW48467wQoOmMsWE69ZRTta1vkE8++Vg76zdsTwizSC9WPHm606VB6Z9pyrBKPQWsObMRWJLZPQwdNlQqVKgoTZSf5HaeEMPtWa/xWshySqYON2/eYp5gcQfMttZsb924UWNLLxbytC3sDMgDeSKPkbD2Bml9x/1oz/Y2HpBWmA7hcolh/2B/le0hXHcI6BGbB0CnzE+2smYOnmVG+GowV9XMAaWCW6qyfcd2MwhCGMB1Lpu4sBzKzcOFCwkXzxgh+rFGoo4wFphIy3NapjuPiuEXy8vw7sbys9dfe908VEbmYcNpJYh9rRySqcduTTTzwQhWM2fMNONQhBeWuBUsVCBFPg385lrTww6IvXv1lh7v91Dm9pC0anWuaRwY4TGnSTlRlmnl+aCCy1cMBx9S0+A+gPbMXL3bBAkfEhjisU04WzXTRtljY/z48fL99wNk8aJFNvi47PLLzIcCBnzwAmg7zQFICBhzon3Enoit9O+/734zZvQ9LQZZCo0rGNj8PvJ3ef75580ny5133iUnnniiafHQpHDgLZLll/ZxED+8Z6+Lhw8z+ph4XF4z8/7+RJAWTsZi/8u0xHDYIIXBpAMMA2DEiMMl9nRnow/WLO8BGrJ+jRHQN998ayMBVI4YXmHFjGWxaQOCGFi/wH0YUjhatz00AgQGXGzLa/tIBOEbQkT/2SefyXs9ekiDBvXNCQobOcHgTJ3H+8lBZ0/jdeHpGc0DwgNTL999971KYK+ZYy226I3E4858p9fr162XRx95VP6Z/I9tI37C8SeYq2lUqYzsePGgFRxc3sNJC/IVw0GIaPWVHdBw0RDSLrdt22oaAqLauXOHGfkhxC9cuEhmzZopI0eMlJWrVkn9evXMXW+rc1vZ9EcKzQOXLq0B4As4s8IXA662cRiF8MHGQvAL9z1CBruK4pTpr4l/2SZE+DRAW5FP+Q0aB4SOHMpAciG0AP3UeE4QZ4q0ZAV8ltGnxOHylpn39yeCtMC3TKP7X6YlhsMGUYUHQ0BwjCpQSbIT3LXXdpJuXbuZla8/X5jDt4uIopGI2mCCMO0yVZSpGzLPYSQ5UTHqqIHfHEwTsM8DS5aeeeZZufKqKyQxgZ3UAgYRiiOCaGnZF2j4MEo28WHPdoSCRTri6v9Nf6lQvkJkZARzZSkYG7rgcY797rEgL1G8uM0p266Y+O3X8BB8EBx8//XJsOykzo/CosjOPGWAxF3+lrNYhI8cOdI8eR7I+GPIJGiLAf0BpiJNAM8uQIuheofGaQu0VYR+fjNwwDZo8eLFNpX43fff2+609z9wvzkuKlW6tC/kAw2Pdu2EZjSKCOaffPqpTQuycorBB8+9JIYXPh9wtg1H1TzKpgDLlytvQga8qSC7wQYeA+FTmUGY/xB+erB3MwrWGq5/me38Zy+Atsh4dmbs2GKIIRPIUHjgxGhj2rSp8uqrr5qtAp4PGUlg31ASt8naUH03oi4YFSqURpl+CMN/GgSaCuHGm2ijG7zb5TSinzdvno0ufv7lF/OI1+Kss2wL7hrVq/uNgfDCUfE7HEfKZGQb8Ny3aeNGWbZ8mTz0UBdp1OhYsxXBLwPaG0p1qpbXPRih5s0nd9x5h9SqWUuKFC1iGgdjippvmyrS8DxNJ79dUaTHw3glVGT7FbuVabOBGaPJ555/zgzqfvnl54NTS3IkwdFHqBpoL+vWrdeONJ91pNkO4gxXu/5GcECAAJxpFwl65ho/BSy9HP3HaBk1apQsXbJUjtV2wlLM45oeZ5s18Q7aSOjJhAelNXbixTboy6++tGXMjhewwRcbWf3223C55JKL9bjE7IRoT0UKF4nYNFg7ykLDD/Ofw054cHXmzocCDqW0HqHIUHgwVVdg/LRtyzbb7pd953/Rjpwu7+ij65o725YtW9i8vanFFH5jTFn7dodGHWqoDuF7CA+sYmB08f2A72X9+vWmhuzQoYPtLwHDsVEF6YpGZEHaI+B5+Hc2AMMu0sy0DNvEMufLvGu3bt2MMWJ78eeEP+Xue+4xoy/26WedNtberNvGII1idyMjBAcN0L/W+9HKKIzQ6/sdK5atkO6vdJfatWrLV199Zepg1v5n926HMWQRjqZDdPDdt9/ZaP+FF14w40WjowNBJ4HGw2yetP0CtFQYMuNDAgGZdrx8xQpzlDR0yBDT2jVq1Mg0CCeffLKtNIL20V6MGDnC3832iy9s3wmmTnv0eE8++eQT8yPTpm0byx87zMJ3OCNEuMzusR1zBoi0Nz0ZO0yHX9i7frNNG3wfrp+sJSfbgW3IuLHjpPnpzYM7Bzkou/+4zGJIHxkKD47wGRFYZx2q0EkTJ5nXyEGDBtmyqgb1G0jDhg1tZEEDZ1UFnTyMg54ut3aovvV2LlPTYzTJqAU1JWp/tvCeMGGCTJ48WVasWCmVKlY0Z0w4rGJ1AxbfpAmhxUYV+s862vAIOFW6DdGmVfYBpicgjgC+z/S10qdPH+ndu5eNmlavWW12G5dfdrlcd911pm3Ag1yBAvnN8js1XLIzi3D2nMBmN1zesxHYawA0DnfffZfNNbMNbZjhZnec+wWhssGJEKrz9IxyD3qE8rNm1Rp57rnn5MM+H2qbEBVmx5kdUHbVC0KB0VlWw9O0IGCzPJkttxEknEdLtIiffPKpCtkTpFr16tK58w1ydsuzpXiJ4rbXTZcuXWx/i8VLFtvU4Ny5c6XLw13k9NNPt9VNCBvsM4ANxt7CZQfeZsbWyitSt2+DvriHJoNmx3up300NPstquWUTdsUnyPx58+TGG280G5TZs2cdGvROmQbJpO9Bi8Uqvp9//lk++PADWbZsmQ0mb7vtdttqvkDBvfCIHMM+IUvCgxvFWCOi4QSjjU0bN8lff/0lCxYsMD8PHKuUUGESuVhPrQ3TRtj6PRbbrNDAaptnBIXaEpVjWR2ZV61SRWrWqikNGjQwDYMtXVSm5YSFyBymXkcQvgYuN3p/5oxZskFHPKySiI607mceCEAQNj4sXnjhRVuiikc+RlPnt21r9g3Mx8LwUKti/JUaVtyp85EOeDVHkHSYARbuLIPdQ5jKBpjwp6D+2V30kBUeosA6xUCzdkhCq4b2880335gNDXV15ZVXmnvp7BQeIrxgb2Bp9FdpYA+BT5gE26Qr3lwvs0SbTZ0m/jnRtBNoI+AFaB3YWRYtxdF1j5arrrxKKlaqaBvF2UqK/PlMk7dnuvwbQfNIF2ESNuhH0dghLxxqwgPlOkCFr9mzZ9tGYxiszpw1M3h6ECOoA/jYyhWrbLprhNIHvkUQQhs3aWzLb9l5ddHixeaF9LzzzpPmzU+TevXqmmfeGPY/si48BLAOip/uHaDXZvinl4zGUVvC2NwWwVs2b5EhQ4fIG6+/YZ0oS0A7dLjQVI74dC9U0FfnY8cAg7H12IG2wV8jjhARIJP8vk3rtuYC2rfJiALXA2cK0d+FKVI2JhQFggSAwIEJP/qc4iMPaTGnrKQEJCfds51LWTbKdXZ3hrb6RuPKofm4445DQHhw5RIlTTu277Qpt/79+8vRRx8t1157rVSuUil4mgqEczDlKxo0jYzioUGmkZg+a9O6TbYLD336fGQ2T/62+hppViRdoK/zBUXKoMLzdkcMod2Sbt918xbZtn2r5M3DXhOePc+lA4gK5cvb2XXgtKmIxs3eCy4DoJvkyAx4K2cOFSK1baI1/Ujzugcs/anCO5iFB00TAzi0NfXq1Zc2bVqbwTb2Ywe7sIwAjODDluk4D1y0cJFpbjt37mw2Lti3MADDueCkSX/J22+/I//887cKzyXllFOaSadOnWx6mz4mhv2HtIWH7AChBo2GDgimgXqfZV5sVPPjjz9K0aLF5J577jbJ0fzNM++pfZUpGNx0g2t4e9EA69ZtIDfddLNcf0Pn4E4yyLapKDMJ2FF0KANU5p2ggsPSJUtMWGLpaZGiRXVklN9GSWHBKxo8fZ4TLY0yRNLF++lVi88a/QLC2hwNTfeXX7J0ELchdZR7UX6pwd4GEeHhAFpuZ4VAExN8FTvllytXDhVkt9vmRD8PGiSffvaZGfPVq19fFi9eZAy2ZYuz5LrrrzftTdmyZbXsg4A0Uq6phgyq779HoAWcMG6C2QMwWmMb4ezSQj3wwIMy+d9/5fzz20OsVibhWkmmWftl99IH7/jv7dIBRvzOneYfBs0kv3fu2GFCEQOI/MoXaEcMLDAyZnrBdeR+G94TJt9kguB5QylFX94tE/+coHmcbA7v0oO15YO7/00BOmOWkbO0fNbsWdnCB/YZrtKCtOzaucvSh5aEjQ3ZzIy6Zhqc6V/86GxYv0GmTptqWjb2Lbmo40XSokULmx6HJ+EVedTvo2TV6lVSrVp15VW3SfPmzaVa9WoR4/Q9ECaeQ6hODwbsX+EhFTDa2bJlqxLJWuvklq9YLuPGjTe1JBoGRkwXXXyRMXCkxsh8NKnbS4I34eHmW+T662/Yg5mY6JCFrPvCw57vGwPTA80DS1utA1emh5qQTt1Zf6cHQt0djOYIK/x+dOUIGh7fMA3hAca6h/AQBsGln4S04eLX7w8F4YEqRYDA7oQ582G//WZTahiunn7G6ea8CBpjLh47m1GjRspvvw0zh12sJDr//PNt2qxA/nySpIHFZVB3BwWc8DD+T7MTGjXq92wVHu69736lrd3y1NPPKG1qRNCqlosLnfoxgT8LyBEQNkICGjvaDzYR2E+hhUBbieCNx1kGFthKcSRrHKjr6JRBW8oMzZB+3iTEzz79WPr0+dBWdqWHmPCwj9CKod62b99hmxeOGzfOpq3QCE6dMtV2Um3RsoV5MUV4mDlzptk6/DH6D9udtOGxDZUmSssff4yWkiVKmot/NA3nntvK7OcmTBhvRv0DBw6UsuXKSrOTm9nS8pObNZPiuF0vUFBpFRrWhITb9iFUpwcDEB4OWJHR8AsVLGhz8yVKlpCqVavacqsXXnzB3DR/9NFHVtHmGnvTFr+RgmwjdthE8pHVgGFGaR0QYU4VgIoVKy5FlUCLolqz9ek5zd7CRlXpHip8aEi8S3ic7dp+7/kXxHrgcICj2xfMnTvflsU2adJE3nr7LTlDBYa+X3whL3d/2TpWX7uQw4S7xo0bmSfV/v2/sT1GcKXO6iHUvAN//Mk6NkaxhyyyKe0m0Kog4qYLzI5Jz9A3h2l6eC/TR0DveuDLJY+2FQ5WIrH8u2KlSlJF+UO5CuWlcJEikg9HUdrRxCkPEQSi4Mih6dinw9LO9Ggum2KlQ4thP0Orjqmv4SrUIyS0adtWXnvtNSlXrrxpzAb8MEDuvvtuWb58hVxwQQcT5nmOAMl0I/3Eu++8Y+92vKijCR133XmXDgqaygcffCDNT20uPd5/X+bpIAetxa+Df5XLrrhMhYeTzfkY0zc++88a/49hTxyQaQuD/rbOUA9sGjCeYqSxc8dOs5FgpIFRzLfffmvScucbO5v0ydw0zN5G1C68TNZ7Ss2Dz+Ac/G7YzY1kBj7bSxMQY6goLa/BdcZQRpjG0C1aVnN4u/U4cJoH8kIdsBHS/Pnz5OdBP1t4aFX2OtxsACpu0jZ37jzTInz99dcmPBzT4BhbpdNMRxv4CUAIcMIo42WXH1Pr6OHu8R7zwoQDc+Ie86xY+Nu+DSoYEgr1+h9me0/sZ83DPffeZwz/2We7aZnoDdOShcLWy93Z2ZbSgF+FyfFSP9HgaVvKTOgqPtjoKafSwEcffiC9evU0Q7w9oFEm61kCHCIj1f9S82D8KDBg3Lhhozn5QyuA8y9Wf9SpXVvatW8n7dtfIJUqVTTHYgO+H2AO9+jkaXO0vYsvutgcgjnNU6T9KjCyRYBgk0X8gGC43lYFko4XXSTHNGxohsQ//fijfKP9CvFv0HLg+ZVXXCl169WVqlWqmuBoS32pZ+MLFnQM6WD/2zwAVxH8Du5Zx61EjZtZbCG2bdsuu5Vxo0rGRz3qq4E/DjRGjj3EtZ2ulfoN6htzj7itzgQyEh6yk+FBdHsUZeSnu0DrES0MCHbPTKVFwzlDwsNTT2Hz4ISH3So8RCkcAtrLBoF3SaYq5i9YIA8/3MU8Zr773rtSq1ZtqV2rli9AHCBGmpjkSa64HKYNiN+5S4b9Nsx8TuBKvZKOVpkDbdL4OBM4I1bX+m6K6S89R5gP/4Jy4bcTMjhYLvzvv5NNZYpGgvDbtWsnF198sQoRRf1v7P//GC4/msfDXXjILGLCQzL+S+EhUfnRypUrpF+/fjYwpJ2iQbqgfXtp2bKlTUsA3PwPHTrE2hn8vb0KFKyeOPbYhqaRwLgWoYGprTCP5dK1XwafODEcPXp0pM3WrVfPVr21bdtGmjY9XhYoH5swfrzG951M1no+qkYNm6psrW0GX0UMvFhSzEqeGNLH/p22SE2k/A5ioyGi+sTzIqstSpQobha1uK6tWLGSND+tubzyyqvmTY65rgYNG5hl/IrlK/Tr/cd0sh3k2Q79zw5OfueU+sgIFkxwgOTvkr/NRDBZBpueTfxroowdM8YMl2697VZrpCyfwsbjQDJRBIftOxLky75fS7XqNeTyy69UodOTHu+9L336fGxC4jENjzHBgdGElZHrQMOFk6LY3A/e9XeRpKNkeo151Jde7i6DBv1szAyX6FV0pHLffQ8qU1xjX//nOISaQwxHDqZNnyHX33C91FYh9r7777dllV27dTNjx2e7drX7/MZ4+eFHHpYZM2fK7XfcIX9O/FNeePFFaXVeK5u+wkAWDSMG6UbqtGNr1/70GatwuM/5uKZN5a6775ZBKjz8Nny4lC9fXnr27GlL5rF7QNvRSfuRYcOGyfDhv0nVatXkvR7v2dTIiSedJN99/51pN2LIHPbUPPArwlgPEDROpEoYPmvCWQPub7bDPOQ2cx418IeBsmDhAmXo59q89Ela2fkL5Ldv3cgrNbJT8+AFXiWJi9E2HRTaEiRiPOB5mn6k6oiKPChHloDZ1sF6n2c2Ut8DpD39QjcNe3DNOM9pHp5++mkL85XuL9uqlogvjDAyDt5XfTscDKOqoPzAqlXrZOLEScoQfpMRw0fYLq9nnnmm0QK2MyAxMcnqCHfpaLTCgCFAX9SVCRX8GQPSCPQeBnu286Le5x1+A1ffDtu3bVNhdrSpVmfPmW1qVUb6jRo1tjXmVDtA+GClR0ZFnh1gZDlnzlwbuaG+xc9Kw2MaylktzrIyYrfZfUV2ax5oD15Av2YXxHJgBWVNPaFC3q11GReHQznaDfXj+4WxWKkXTY+DtTeXHL2t8mQG8F/GEyW1nqHmIQSL62BoH+lB8w8NL126VFavXi033niTudL/ut/XpkHD2+0+LdnU8Cl/ax/6x5l2NWPWLNtdmSkEpv1om4z8aaennXaaGS6znHjAgAHmGwgHTyeddKK0aNFSzjjjDAsHnzjQgPFYPbimuuBrrGTD8N75/4E2jPdTJwraOf0GUxfkkWczZ84wzQaGmf9OnizlypaViy66WE4//TQzjEYjgz+M4SNHWJpwPNa+fXtrOyedeKKULFEiBW1FvT4CcUBXW2QKmpJkIcI3YEJ4cI5l8Er3y8+/GGHiLOS2W2+Tk04+ydRN1imnag/ZKTzAwNgxEBfULC3DoNFoRwmXP9J3zdVXS8eOF2laIHQ2o8khCxctkrfffltOPOEElXDb2XLUPUFI6VNimsLDMyo8aP4RHtg8yDWkFEgr+HADCBdFtHdBWvf3E+bOni8ff/aZ/PrrYM1XnLRs0UJatGwpNQOnWNQB6soIA9Fz91deViYw0erL3cfYqu7RdeW81ueZEyJjfNqBwYByKsNh6oz50vfee1cuv/xym2eNlll2aERIJE46aZb1wQgXLV4kxx13nFyt9c/ysDx59D0t2yjybLaDOsfKnLlfgEt58kx7KFG8hBQqUsju7wuyW3jAzwOtjw7Bp1dtjRou9UWdOEEPr7IMJmyqL6BVaN0X9hDC/e8sDJcc/e0LD+5G2jichQdoFJ8VK1aulEWLFlqZVq9W3YzVb731VhvR7y3YjBAeh00DHfhPP/0kfb/8UiZM/FO2btsqzU45RXnhNXLMMcfYapmRv/9uTr9olwgzxzc93hyAsb8JS6RtwKPFSppJGx26CQuBEE8YjRo3MgdodO7kDzr//LPPzYjSAYGIMGrWrCXPPPOMGehzD+F07bq1MleF7IHaXnETsHNnvNSuXcsGoldccYUZzTJNPnToUEsrU+jYZJx7zrlyzTVXm9BFXnFumKzN9E9HIg4+4cEB4tAKR9KM10pGmsRP/o4dO404Nm/aZOt62f/ijDPPkPvvv1+OrnO0FC3mz0W7Sq1Xr4HceFM22TwosWLkCVH2fPtNKVu5qjnOgbBRg2EBjEHhI488YgS7VRk6I8FH//c/WbNsmdx53/3yyKOP+IY5e4AEp0+JYeHBfDwEwsMzKjwwT2jCA51itHDSCp7sO0aYmaLY30xT84jXQYwfe/R4XxsyqsXqct11N0i79hdIoUIFjWFZp68HAhvfhEl44cL5ctHFHWXB/Dly9TXXyqWXXipDBg+Rd959xwxLP//8cxsF8T1fbVPawrU4+3ds1hFL7w/7mG0Dz1MDexKYMB0IcSLgMtphGue9994zesTWAAZ4ztlnS/GiRZQp7edCC+rNdbC0GfNimo3RZrfwMGbMHzoavkFWLlsiefIXMuEOhkxbh2lfddVV8uKLL5pAxF4dv2vnw6iVZZy1laHfd999cvY5Z/tbdVstpoIKmlHuRuDoJaeeyMXhKDzYSeuMTtbPpS+YkfWcLLPmHW5nFqH3Gf2z4RmCM6vj1qxdq3WYXy674nLpfONNUrV6NVm+fLl8ryN+tB3Tpk41vzfs+3ND5xtMqPAJiUHZbm2XGCvqAEzDZbUFPhrQ4j791NNSo0YNeeONN2T06FFSpmxZW6XB9DYC/0tKI2++9ZYt6XXpIwzsklhdxbS4aVj0GfRlfxovS4HhA9AWPmA2b95sLrxxMEV8aD8wmsah4WIVvBBirrzyKrnttlvN83Fke/mslN9hhgO6VDPTgAj0gNDpaNnWGhfPZUqXkTJlSpsaqXyF8vLY449Lr969zJMj3ipvufUWkxhXrVxl3zMiy+7aZWvhfHnzarBxRrCsSW6sI9mbbrrJOqnKVSpblDCgLl0els+UQBkVamb0a8+2Kg7DRj56GCFmEXzDAVN3zDBNgk4jeL5DSEvSkQRMmN92pPFn/QOHH91ew1TOoTBwO4uDl5defMl81j/66KOmXuzdq5c5haFscRQU7rjROkAj7gjnkdFBXFwe26qZFTvMqSIw0DG9/trr/ksaPwZceOYcO3asbbGuAUfKNRpIMgfjZn3JGBxqd+ZtEU5+GjRIWp7d0qzJO1xwgS0DZYpj3dp1fp4z379mDVQ7zFE7BfOsd5B3bmak1rqN5MydT6pVq2blhRMvBDA8CDJAQNC78647bXdN2jf7XdDxYAhHnU3+Z7LRQTRAJ+kdyXSeSVC+YbrYX/WYXSCZpFnpgelVBFjT1ECClIG2eSu7LOSD19kkr3+//tbRnnDCibaE8vgTjpd33nnbVP73qZDJFPMdd9whLVu01E7/dalSuYo88eSTMnTIUHn77bfk2IbHWnhuKTptlxF9YoLvadQvYb+s0Uqcfsbp8txz3UxwWLFkqfTT+MNodGwjo58+H/UxYYCDPXjyMPWlghODDfJscagQwDV2drfccosJ+yzv5BpDS1ZhoD2EDjHmHDlyhPT7up/cfPMtSneTzCCbgcXrKlTgc4I0R5jCEYiDT/MQpTIcofke6HbZCAVNBDvwMfpbs3aNjBo12ny4szTnnnvukfPbni9NTzxRbri+s1yXTZoH5mEx8nnr1Velas2apq4rU6aMdQxsJQzB5suX39RfqN5KlS5ly4yWLFwgd2qanlJJ2h8J+EBwAOgLMqqF1JoH52HyiSeesK2/r9bRGvP+Ad9ICbuxx10rU2uw2vHArDOCW05qcThGmkXUql1LcJ1csEBBM8ZkvrFXz57md5/GeWGHC22JVfFixZXh5bKc4n2TaQsjDFdOFr//g/K3rkDzs2DBfLnsskttSSkaqUf/96iNUrj+7NNPNP46JizAtDDiWr9hg9SpU1tHQw1lg9LRBx99bAwiWv74BuZDATg2ZzEjGOhPhBbUwSuXr5C1jMy++1Zp5EdjXITJ3iBYj+fKHc3uZS8RKY/gvB+wP6Yt0Ji9+frrUlcFL0aBqIUBHgYZ2XXs2NEYO3XHev2iRYvIL7/8alodyvPNN980A16r91TIrJOoI2G1RQRaINApfmWwOfE7as1TJvMxd/Zc86uwRDvwYkWLym2332a2DBUqVLSNqj797FNzzLR46VIpqPV3qw7mMDiuogMqeCLtBi2A8ZwgTNpw6nIdMOB7aycI5vh0OPWUU82h4CUXXyJz58yW/+mgEc0Ty/zRPDDdyGoOaALAoxCg4YWOCMJtOez0jfZMerCR2LJls0yZ8q/S4hcqNIy0fqS+0ub1na41+we0YNg54R152NBhtoEb9IcAFZnGOIKQ8bQFTw50uaTT6kmpSc7aiTM6MT8ReiBAwNxWrVopffv2lR9+GGhEO33mLOuwr766kwYLQ0nODExnr4UHJZhKVasa08N9Lh33ez16GLFBkMRCZ7xWBQjm1GZPn77vwgNH8E7ytIUnTz75lKndy6kQQ9ns2RwVeiNF8C4cjZ/0QALuMEROKb5K0Qj36Fz1Vf/t0Dep7pEy1nXfeNNNtvvo5198bnugnHPOOebXo5qWqe2SGATtJ0e5mwktqbhcqMC4tLTqxfwF8+SyyxEe5huTeeThR4wucEE9+Z9/bNR6z733WhQIpZoR66AYaazV9zIUHrS8/Cf6f/AK6nOYF+XH6AYhMlFpMp8yMabY8F3yodYRDAqbCOaDUb+nnsJyTMhqUOM3+tAjnBSjr8iN5Gd8gxYkxbtabqaRsJvu3ShnTiByodBrV8L33HOv/p/DVpv4xa51YQKED08JMzWtpAfKsFu3Z+X1V1+To1WQNOGhciVZph1PlSpV/fQSf0goYzrmhwED/LrT5x/0/sA8C4bh6DcrSzXhChS7Ex5899RBOJH//KKxtusC1jQgBMF3DBq3/XEOPvTTQ0Z8TZl9bP9CZ4fgt+sEeZ04ueeHmXyEYVoE/QP+c7sK/gXvcq0PkpR/8X5Q8f4DFwsfum+Sb9sl/zM6x+aMadmbb77ZppLRFn751VcyaNBPxodPUdrudG0nW/qIS2i0HdCrG/GzasLneUH8egpRn4GpEF94yG3Cw2nNT7NdYjt3vlF27Nxhdg44fGIA+dLLL8nUqVOl5/vv60Bkh9F7URVsChUqHNjKgKAdBQhfQ0euP4EGOJMPpjKI+9dfflGaXGa2EbTZiy+52IxAKYfHHntMfhz4o4wdN9a0L0caDk7hITMI9fkQDQaMdACMZFFN42CE0eVrr79pKrPrrrtOs5Ja80AwaWd9DxijCIQHHTHlL1hQWp13nmkZ2AwLomb3PwcIk7m1s1u2lPlz5uyz8BCG8/MA4eMkCskfYyLC29NJlF+JxBRmJinqVX/j6c8u/H92HWFEGYBG674J/qXgTy5eGMn4CX9K7w97W4d7ww03yOVXXC6lSpYyYSs+fqd+h6Fc2JgLoYHAwgnWMMMFRhz6m/7MhIfLLjPhAS+TGDLi4hajMWxfbrr5Jl/Lot/A3KgP/OafcMIJsm71Kund5yOztvY73JQI37PrPV+xdDgtkV8qlKNnUzOMaF559RWZNnWa0Qpz/ZSdA5tbkX9Ghq7j94VRPy6/bOKsjsOjHdLinoXDY6TH97xv1xZ2EG5wTbh2rc+pE/+buLBsYOlu2PBY6dq1W3CHh8kvkMvd+pNzZoDRabdnn5E3XntVKisTYlqJueqe2nn/qKPX4sVLmLBAuik76JwBAtNAX375pVx00UVmE8Hy7miRZlZ4AL7wsFs++uBDzV9Xa0dGr/yDpjRuvTBBhjT53/CVLyhyAJv+03cRKJjH9wULv63zrWv3fpi+MGGGo3pN/fGca+yq7B09rIz1zDPCsnvhjOnjcFuJ0In+8ZrxFz8IPciH/tS6Jz4XPq/4AhDp0HLT+/5n/Oc/57tpOgBau3aNPPjgQ/Loo4/YPkUfqUD88y8/WwdOp33LbbeZ9rBevXqWLhMe9NiVqIM7J+SQBgs0OgYO/EFuU+GB95nCLFiooIweNdoMPZm+YqABELJe6d7dpjHqaltioyzoBXuKK6+6WurWa+CnX//SczHvlwNtlY0NsWGKM3uNESNGyLfffGMCUrFiRW01SOcbOpvAilb5ueefk/fe6yHDhg011wJHGg4L4cEapaYTTQRTGpwRIJjSOK9tW7nzzru007heX8lG4eGVl6XyUbXMqIYRZqdO19o+8yz9caCBpBAedMT01FNPRRgK2BfhQXb70jwGnMwLM7dJpxWnDCAMGixMyWcKMIOgQu3avwRZiX8P8HEkWBdoKHx9TDpo3Oe0OtfWVH/22afawS+wkTidAoaGgI7dlRFheZFeLJRYK6/kBNs1//SVsPCABoGRwptvvmG77qFyZAtfExq0TFznicFU0+Oapis8+GVHXMm/UyQpgJWzvmOPtJ48ZXKbt2yRTz75WI9PjC47XNhBrrj8CpviQKhw37kOhbzsVGEYZmYjqCBSntHJ0onBPM3aXWmS5/xGgKbjcqAtJGiboIOjTCPaEQ2Ta8Jx9/2wlMbd/SAMgAFrq1bnydNPPxPcIXfJmSd1WRIeNI6uXZ+RN197TfKpEH6cCnnse4N6+k8VLvEKCr3wD6t+pq9+++038/aJQPjV11/ZtJd7x+oxhL0RHvpoG+r6bFcTZp2GD9BGc2v8CHZoitxomo7WkQjXbMVvSwi5H3TQTijjG55x6BN7jv2TE+I4k0fyasZ/Cu5TxHzr0yJf2ikC6tLiCOjYyMTRCn96aQKKnlkpFAmAG3by33Xw40RgdZEEcSom/vWX8tI7TAvEMmA0EaxKwqZr9Og/zO6BVRWFChe2tnyv8js6evwzQOcuqtTtijSE7+Fd8s477zRB9q6777JpiZ9//Ekaab1/+dWXtgQTw2WWx8+aNUtm6cCgcePGshSjdP1u4bz5cvqZLeTjTz9T4byghq3lE8lFSvj59w9PaX758qWmfUJTyKqQEsWLyz133a00cYUJRxjBv64DR/xBYDCKING375dSoGB+C+9IQtaEh/D1f41wikPXppZTBohVNoz05Ganyh1KUGznmq3Cw6uvSY3ateT7AQOkcqVKMmToUFN7s/LCf1VZrzYIhAes7ufPni133X+/PPH44ylizA7h4dlnnzVjJeblCC3M+AyhOvPbirEVIo0Ke8aZV4jHrqO/DGsJd3jk2YcLg2f+Ne/CSLFnOK91a2WkuWTMmLE2V4qqGJ8JzCEigFWpUsXXDiic8MD3ftoslynShHBkZ30UFh4efvhhs3/B+prlvTWOqmGe7opq50S6jenqp6gqWcK5dhXCQ5/owgMdQihe6xz0Hj95FSZp95RZsUx0nY7M5s6eZTYPrH3HsBf7lws7Xmgb+kAbW7exbX1KnxSEHxGeyKv+86P043Vw95LfoaztET+D/xz8tPLnj4Dtq1TvAHcjEGSCn68pvTNvzbSF/2VwBM+Jdm+Fh1pHHy1ff/WVpi9OnnjicXn55ZelTJmyJvCQJ8qUkS11yoiWFU7Vq1ezlVd+HQSdZwh7IzwggL/zzjsy8Icf/IwEhemPWv2Mpvbe6tOjD5dW64ADQDOAoOAJTvvgBA/e98P22wnvufsc3CMK4kHYtdeDtLhrTtRV5Lee7a799pEcHr/svyBch9CPIJzUYETOFt8YME9QAQ9nT6w8uPzyy4z3VK5cRdve/GAaY5DtWFu9enWl945y8inNrH0XLlRYoyEuv6xAcr4UeoH3xztuv93o7ZNPP5GjVRA544wzZeXyZXKhtuMeOtp3HiBZwm8JJ3/6x5Q1AxHYweTJU6RU6TJ6V+lDn1s8+nayoOUL3GgklyxeZBujDR78qxnlY5MFD2Dgl6jC+hSlP9oxGwIWVGEXD7aXKj1iW4VwlwJ7Ft1hiUNXeAjDb48pAIEy6qrfoKGpwFCPZ6vw8MorUk0bDo0EL2Ywup69etkoFxsHihRGs3btOjMqWjB7htzz0MPy6COPKENJZi7ZITzgJIq11ffcfY+NGo1xBODKNVJ3zla4IFPRhp+XlBkifjQPhYoUlmLakbK0i9EQDX3atGnmxIU11nT62APg9Q2tRP78BU0FmkymlqvQb6rGv04tPHTp0kXuve9es9DHmROqUIQt5mwtGP0MWqHMEFpgeL179zJ/HKmZQmrhIbnD8hkhGgLoAKOqb/r3lwnjxkseFZDasKPfySfZ2naMwKAhRqAItwgtZrG9F3CqbJcH/hk0X44GUtwPgTy4235+/F90ag6E74SHbl27Sd68+eSZp5+1+xaJPox0jnrsrfBwdL36ZvBWqlRJ8wBYrmw5G32TLsoYw1cEQAzgunfvrh1WTUunWyZL2XOE6UGl1EynRb+MCA90THhOtVwFASSXyN4h3O786+Tf+woLjTD5F8Tj4vB/pQN9L/gkU0AoQqBHi8C08Lix48xfAkaSTCmgETqzRQvjd3TKrLoYMmSIjtK/N7swNq5iSgO31BgNWwKhQ+pZ25qbvvnmm/62MRbC5KcqPODZFYHxxZdeNP5BB4+gjyfYnwb9ZP5bMLaFolkyfdbpZ0hOffbPP/9KxQqVlEZ9Z374cSB82jUGkr+P/N1282TZ8NKli6Vpk8bStm1r23UXzQk8Ax8Sk/6cKHPnzbXpT1ZjnH32Ocrnq9iKDQBPifAKv+iPCBy60xZhRBEeAIy1/jHHyK233SGdOl0Di3D8wMD13gsP3aVitermuQxCWrxkidlV0FHcr5JvfmV+xE8jO+ecc80Ah07s3nvuTeE3PbuEB85MidATp2YIKZlK9gPysU4sFcLx+XnzOwN2T8yr5QPj5zvu8Spvx6uUv2jRInnhhRds2S0Wzyx5vfTSy8wAy++wedPvLCzcUMGlFh7QPCBA4DviyiuvMO+UuLxF+4BLdD5lTTcdESMjNFavqGBoTmMyEB7IH+lH1UxnxtIt9hn5448xtoT35RdflJZnnanf+SOkPLnz+D2RpZlk+yOf5G58H0B4kXCSOwU/qXuGb3kIbtt3wXWkzvTEduQOGJmyfwrGucAeZZPwULN2HX/75LJlTZhiVQzl0rPn+zoASLBlu/h5YGUTmj3KnBU1y5YtN8M5OjXS7erFsJfCQy8dAPyjnUaKaYvgvLcItwP/Ovn3vsJCC4Ufgd6CVtOFfexfpgvKQo9w+VLv/CZu2sxLL71sQveKlStUkChlSznZpZYpBtT7vT78QN5+6227Zkrqsssvk5v0ncoV6dz9Dt23u2Cfi+/MtoGl2R9onbQ46yyZNXu2XHDBBWZrcNmll5q9AcJGU+3omZp84YXnNS05bQMsnAJWr17DBJuixYorz8hlQg9T2WhIWdaJse20Kf9K7nz5pcMF7eXGzp1NwMfrKRoGhFSEh6TEBOl4YUd55JFHTWAx7V1A80zzIcykQGbL9DAAwkOcdjo+R0gLh0JhuEpLdbzX432TJGHm/s2UCPGIjKGfsyT0qy+/NJVdgjI47tFpQJB/qqSNqguDHTxjYg+Big9r3MQdW2X12nWC10lcHFeqXNk6z4yxZ5oBDA9hBmDYw0i2TVvfwjm/jhBxjuIOPFr6Zz04Z/PBXG9+bYSpD0aPHMRPutxBQ7atlRVxMCE9O/4HA2AEioQPA2JEM/jXX6VXz14yffo06zhQGxYs6DtpyQGXD5iade4aztBhw2wbXjyTAuYlWeZHxzRcy2qjjjr4Fv8PaGy+/fYb+eCDD2Wi1p+XlCDLV6y0eEhn2bJlNARfSOEbE/b0H2fc/c6cMcPm3194/nn5VdOJpgQjrmefedJUtk45YZt0uarkTDCaXpsPVwYE88zSoeHt8Tt8pHXfHcpQ3TV0yCiOaST/2j+oI3fNCJLwfM+bDpS3y5TfloKsJR/Jj1NCCxRnP7QZtuBG7Q2tMHJEeGPkh8U+tM1UBvYqTP2wjI929eabb5lgib+ISBrCkaYZ8Z7wP/Gss/h70t9yxx23a179qRB3oEUM/87sQd2aAao77D5TLdlzGM1HO6wMXObSOTKD4F3CtMN++L/RnuGHB7rA102TJsfZfQxsuz77rNUvQsCp2i4e1EEVXoFpW7h4R8tDmWPDA/9iKhGB5KuvvjKfHrzH6iv4acECBcy2YY4KEdjFMK1Zq2YtGaVC5V/67tq1a22wwDLfcuXKmr8JNImkBS0D2gVs0rqoEDxkyGAdKBwlV159ldlCnXvuOSqUrJWPPvrQNv5D28DKH+zksG+49ZZb9HdFvxi0bNlLB+GWdhFBUEYGdz7MQdkc+pqHNIBk2uCYY+WWW2+1deL7rHnQd1l2h2MhN3eZGjA9pG38Ufzxxx/B3ZQorkwPwmY5nwOpiF4NYapMRni1BbIfnTK7alonl/lg/jP4+dUkaZrSoT4DtgEIDkOHDrNlXOS1efPTzXEUDoYYeVIOtlGONu5/Jk+WdRvW28iAUQ7zl6xqIByMr5jO4jdqVqYZYGB8Hy5/rmFQfMs7gHfyqkCB8Nf3C5YD/yCrVq+SZs1OkQsv7GDLdFG5m0AQkhUORvjkS37pEOyULu67/wF9L6c8/vgT9tuKKqR5ANFbhK+RSI1/J/8jd95+uy15oz6Z7qMDgdGzXPN27cAfe+xxE/x4Rws/+FKhCUawee6551TA7ByVfvbW5gGnZP/+OyUoDg1B/0VtTwEoO+tM0wCdl8GpLwgrswnLDAg+7eizHy796cQbvyPeDBn/1E79448/MkGgsral0884w3x3NG7cSJYvX2FOmZiuYnqDtobNGJ5FaXtoeNFE0H65T0fNdt1oJWmPaKlob+zdgTbD1yp4OqgoYPYy7JmxYOEi+fa778z77z//TLapDfxUMHVS9+ijTWj59JNPTKNF2AUK5DON4/nntzX31ginIfK2NpNmUadTHocrDo9pizSQ3cIDmy4xOoN4OaJ9CSOkODGOSiGZhsBzvkd9j5Bh94L7eyI6VSI8sLSIb1iqySj5cBUeeIf57tw6SubVr77qJ+++857ZSTDSZ+klywjz589n5ZCQ5BsuwnycKt8EDC0zOiimEBhFU3a8hyrTwg8JczZ60z9XJ4w02Mvi6y+/tBUTaD8Ymdxx+x1SuEjBCJPRKA2k+SAq7j1gNiKk1dKp/2Wgm89u4YFpi91aT7QR6oJtkJ33VYQ0Rv5otRjZsoLKTU0ARu/AlnIipQVlHkZ2Cw9RsuBDH2QoPPDYvUKiMpuwzCAc9oGAS3t6cfKOPofGEOCnTJtq9grDh48w7R8COTYsaP6oZ1ZcsdUArvx5jsbu5ltulgvaX2BtEodhgKlFAqddo6ViWT7eft10B+1469ZtMmPmDHm/x/vy46BBRp8YN95y8y2mzaQ9sxMw/kUwroRPkx5s4ph2zp8vr9KV8m5N1x5Ir+4OdD0cBDjihYf0sp4ayo8inY0ZPfItzMGC8MMxQtZb6RaZfoM6k/XctnxKwdfhtIQZEvYQIPw/gkMO8T2o4WHyUBQeoiHafdeMfYtyhALmG3fb1r3MlWNoyf1mzZrJ6aefIccc29AczFiWrdL8DomlXyBiaKeMBWNFGBjTSeH5S1btkBj2U0CDxEqNxUsWS4N69eXcc87REXELs5mADFz/SdoPoiJOHyQ2nOAMEn7vffdrXuNMePDplA+USqH/AFkRHuiwESCcIIBwRp0xGuReWC0ciUNPKdqFpoMjnAYHv83seT86CCMpEB56m5dB+5JsKjISHpKRhhjBTfcgCDNbkWbiDg4gQHhaR/jDYfoLeyOmoNAqYDzZpk1radDgGNMe4C4aI3S0ERgkoiVgSuuEE46XUqVKW337U0oqcKqgwXW8DgbQHrLijG+nT59uBtdsznVWyxa2+/LcOXM0zrHmzIqpqXoqMGAAed5559lzXKIzhZoasPMUt9Oqv4O8DvYHjjjhIQyyll7W94CWA30RAkKEX3GRlTDSAZ0jIGjHEGGCLnhYk4tXu1DTPpB+NA9I6IeD8JAVkJ2dOxNtU5558+aaRzh8AVSuWkWuuupqueTii+0lhAY801FGCAj4MqB8KTu/89LRTGAx7deBJ+PHTzCvndizVKxY0Zb6oj5lDrZokULGUKysD6IyzRL8bGZIF66e7kslPOSgLaXKvL0bpUBcGCmhooaG49qfO9vXQRj+KWV47perP75K+YYP35V5ZqHhhIWHqVNSCAyphQeL1U+uPUhDZEgGjzN45bCDKx8Fl+4ndYbRI/YJaBpos9gruNVVt9xyswqNuc3pHbYteB7FIJMddFnFgV0F7ZHBAL5ZEEb6ftlXpk+bbsJE69atbToT48aSpUupsPCz4OIcWxo0jyy9vLZTJzmqxlG2OyfG0k6ABdCcqyrSfKRVW1ZwmAsPosJDw4jwAEMJZ5XLrExbGGHpkbymmqKxMZT/Yx9ACHsjPAA0D0ei8IByIFDcyK4EpiRyyoIFi6WPMiQ8w8EU2re/QNq2bSNly5azkQy79xE3S7cobwRM7CTA8hUrTFjAUyjCCJoMPFI2a3ayjYJz58qhgocWo74eZZByWMLVE26+0QE98cSTAW26gzc4/AJxdJsRYP58l/ylD+rMhAIjZH0SEH9a4fJetGfJacwYpMKLTFtEER44/GSkj8xHedjD35TQB1deqFwY4ScxpFcgAGBUjqEjti0YObOyiilBVj9hn4Q2AudueInlfZZcY1eGFmHjxk1m/4AGgWkHfKkgbGDH8Pa778iGDRulZKmStmLi+uuvk/pHJ3sADmsVLI1BksPkFKvOtHH4Cg+abhhUvXr1zUkUW63C/OgsXHaNaVgGIZw9iyDMlCLXykV4NQq/2meEkxAJX1tdOGUp40XzIPLkU0+a8SVb41pHSPrCHwG+2w9p/q9BH+QGDlYv/qWtmBg7ZqxpIv6a9Jct8WNXTZhM5cqVlWn423nv3LFTfh/1u62UwAEOPjvOPONMe7dmrZomlEXqnjLVS37uj/o/mIHmgfw/rsJDxM5AC4E5Y9qQTQ/5t7SIUgvUyYVlLY5HCL564X+LUJx80EZ9LRC2KMFOi9wPN5AM4Kcns5WkqdAGwwi1T58PzagW8HWaQkO0+6mjy2z0hyNSlU+04qI+4VdoctknA0dxTGnQZhHgMCqnHTK1gXEzhuos2eU5RpJMN2DHgFt5eP3gXwebJmLiXxONXjDQZMqDFTk1alT3q4OEpFcvGT2PIYLDWnhg3hR1GNvDIjzkyR0YMwa5Na+I+qJTVacuBpigUqFl35iXXqR8I/tgcWQhcJcWcoDwABN/6403Sa7lL2fqsCwC//JIAjYNMBrmQnv06GFGj7jMhR5QZeJREPfQqDrZ/pkdUgsXKWzTGKyaAHRmVthaftDBkViODz7woM1dP459Te48Wja+yoc2xgH9QXy+35JQR68/me/2kdz2EB6U8ZjdiVvOCOgE3EG5I0AgSCAMEArChtVFhtC3NV6/9aYPt6kXo19ohJU9IM0viT+jNPBxxlHH4EB5ankl7ko0I1nsmGibbHGPMzkEifvvf0BatDjL33pA22yhggXNrwRLBpkCYX+a6iok3H7b7bb3CUtIMbaEFo0OgkFGDNmDw1p4AMc1Oc78DNSocZQxOJZ4uezy25Zc6s/MMKUMHu8zslLMpMU55cFY6KKLOspz3bpZGGQvJjzsCVZZoGHAyhqjKpZi4XjmkksutS2GMTrFgt+0DdqpGWkojVBubvR7pJYh6+aZp2YpmzUVJTKMTHfu3CElS5by2xSHCQpOSOC/oNwM3LcHiqBb12c7dmy3aSEnLETap54RLBAeVq9ZHVmOlxzGnrBH+p8fjh9GRmCqBDsZ1OMY8mUoPMSQ/QhXU1DwiQlJNlXxpbbXwUMGm28d2iZbgLc7/3x5ttuzkisut1SpXFmOa9pUrrrqSjnvvNaSO0/yKjdoKiY47B9kTXgIXx/sCNI6+JfBsn7D+ghjChvH7MGI0i6FdIHg4cJim9huz3WzTWMg8miI8NJ9AEmNaB803uMaN5EG9etHGHVMeIgCLRPqiI2jli9fZvtLFCxc0FffuLLRM1qHSIdHOerlf86AwvXp0noA8fVXX5vzHrQMdOjJSzT1rGVKeUXaUrT0BeUIrCztGsFC/8+R0zQWaB8Ix4SF1avll19/sblqlsUi+DkNYUbwk+G/55KUEZh8IW72anhO2y+Ilo0Y9gNctWqBOz4KLaDpwkiXGaiVy1fa6qp33n7H/EMULVZUVq5caQaUaBFZOcFqHWwtjDYJT7+z33GxmtwfyJrw4JjsoVAXLkcHIq0al1Oz4ojozLPOlI8//kSObdgweCElIh3TPsAJDuGKC4caEx72ApSZK6OgcK1p6L1gnBwrx9QIyskEK/gDSC1khd9JBzB6BHzsHHAydNWVV6kA4W9URPmHtRJpgbblH75Akpm2Fp6ODL8eq+YDCEcj6QAX88+/8IK5j37sscfk8ssvNy+V13S6xoQMZ/hsJKL/IWyylDNWkfsHCA8ZNOlDFP8RwbAkEOaHOhfidUe2/wVhJrc6d8SQnbCOKMZ9TDD2L/xTClA83NezPea/8OFOqe7tAf2eTt98cOgfGgjskhDMqQeW8DG1lN6BWpvv6TRsBEraMjjsxJkL/1YM/wUyKnh9XqgQDtnw84BwmNMECpZoxsfvDAmW/jkmOOx/ZF54oCIOpcr4D9JqTJZ/EUKOBleQe3/wl1OHTCn+7Lf/Rgx7gdQFl1zcyccRisg0ReoyCJeNHqiYU9+Lej8KjIb1GW2IP+Jk2R1tieu0ws6OA2NlO/QncOcYDhDCBe+OAD416CBMhUimzdBAISg6ukCQ8AVNfcv4rn5s0qD/fQz7D1kTHmJIH5RRpJySBQhjjJG/5Nf26dD/OIPI74AJxrCPsAJN4zjSAX0xReGmKbIZjnzpCGwlh3UICuLbX7RNuO6I4b9BWu0sUi/KO5XJRehB37FVODC+AL6mMOXnMew/ZF54iCFDOML2idwu9do/Zzs0fAQF7BtMYAjiiyGG/Yr9RWep2kkK4cHFydkJLukdMRxWME2UMlJzIoZmSmkiIkTE8J8hJjxkIyBoI3AjbP8wbQMScXBEROP9dcQQw/7E/qK1SHh+m6EJsfIlhiMUAY0Zz1Ra8Pkn+xMlCw0JCbuCqxCC70KvxbCfEBMeshkwPpCmZOyIe38cMcSwv7Ef6c06CALmnx6x0eURDEdj0IH+QQ9mBKkkAVmYBsIZ8jqEvolh/yMmPOxnmOQcQwwxZArOCI52gwvxWE8QA/A1D/6SXZMg7H+kCLtUxOjkQCMmPGQ3oGElaHy2s/44UsLc39+l7eJIfcTaVQyHCEz3oJ0EAgQ2DzQmE8Cj0XVaR1bhvou1k4MPVH1g65AvX749tFHpanhj2K/Ym6a2f5EGLRwKMCYXAXO3McQQw94CARx+EJ7nPmLgsnwEZj0abOoCjhouD2gjEB5SsN4YDggOPuEhhhhiOOKBIG57ixyhiNl7pATlQYlwuEFahkJlrAj3K7JdeNidqA0+eVpq70EY4eMQAARu6tbdSUrgWrQx0SyGGDKPYPRIG+LYtn1bxh3EYQQzAFRexyoTJzyY6/skLYVAC8P+OTxPUj7rjt3uueOVfKpnc/lNWDzXg/0i2CfEhQXcO5HvDlZo2vLnz+dfABUgtm/bbjST2t8DYIdO8PZbb0u+PPmkVs1aMm3qdLtHXieMn2DfcDz15FP+/RiyhKzvqhntHkjrPtBn1giQHvXAhWzk3XDses8IXS/NV3n42cHYEQfpc3tbsEUse8y/9dZbcuKJJ0mevLmDF/Qgv2mVTwwxxGBg8DF7zhy55pqrpWvXrnLqKadK/gL5zZDySED8jnhZt26dLF26VDZs3CgbN26QFStWyKJFi/TeMvO6uXPHDtm1a5cZlLLRmzJVZUW+bQgHglfePHkln3a2bKFevHhxqVq1qlSuUlnKli1rO8oWL1ZcKlasaNeRzaPgU+Ag41Xw1q1bt0m/fv3kpZdelO7du0uHDhfKE48/Lvfdf5/k0bzmzh3qUxRsxx8Xxy7Ku6XZyc1k6rSpctlll9m267l4V/F+j57yxx+jbftvtuKPIfPYuy25o90LISkhSVatXiULFyyUWbNnKeGvlA0b1ttOefghZ+8HttdF2kWIgMBLliwpRYsWNUJmZ7vatWubpIiBTASHgPCwctVKEx7eeOMNOemkk2PCQwwxZBEID3PmzpGrr75ann32WTn11FOlQIECh7XwkBCfIKO1Exs1apSMHTtW1qxeI9t3bJcypctI2XJlpVKlylLzqKOkStUqUqJ4CdvDI09efy8Pdjl1sH102A9EeWu8Chfx8fHmC2Ht2nWyYMF8PRaaILJ8+XLZtm2r8deaNWvK6aedLqeccorUb9DAdwOeAY8/0IC3so/FN998I88995wJDxde2NGEh/vvv19y274mKYWHMFqf19r6nH//nSJ9+34h55x7jt0f9NMgGTpkqLzw4gtWnjFkHvskPEDwW7ZuMYFgxIgRMuaPMTL5339l5swZJiAUKlTIpN8qKvGWLl3KJF6YAAQP0eZSqRDJmUpdtWqVEfgq7XwXLFhg2gkaQNly5aRevbpy7LHHyjnnnCvVq1ezMAoULOCnZX9D80paIF4a5ooVy+XJJ5+Ua6+9Tk47vXnknWTNgy88vPbaq9Ks2SmafyVIys+VYxrEHUMMRyxoGxxA2weq9Xnz58lVVyE8PHPYCA9ML9hOnzrKZ1SMyn2G8so+H/aRb779xjQEtevUNv5xxhln2AAqf/78pkmgYEyrwJX9tlv7BLQbo0eNlqHDhsrQoUNlyZIlUr9+A7ns0kul40UXSalSpZTP5rf6MG0GPhb+Izjh4dtvv7Mt07u/3F0u6NBBHlfh4cEHH9A+JYrwEKKrdu3bScsWLeX777+X5crDJ/45UQoVKSQ//fiT/PLLr/Lqq6/Ylt4xZB5ZEh4gorhccTJrxiwZP368jJ8wXmbPnmM7mpUtW05q1KguVapUkcqVK0uFChVUWq4kJUuWSlcijCCUgh07dsrKlStk2dJlsmDhAlm2bJmp8GbOmGnSeIUKFaVJk8bS9Limcvzxx0ux4sWVuLRh5sp+4oZoYVrr162XHwb8IP2/6S+DBw+Wn3/+RVq0PCuSbic8LFepvt3556vw8Jqc3KxZTHiIIYaMQNsItX+WZyI8XK3Cw9PPPG3CQ8GCBQ9d4cG1fUXCrgQZPXq0DB8+Qn4bNswGQY0bKy9r2lROPvlkqVC+gvES3mfqwX3o5AV+23V28JNQuhBmpk+fLuPGjpNx48fJ1ClTpWKlitKqVSs588wzTQscmdr4D2DCw9Zt8t3330m3rt3kFe3sL7igg/zvf/9T4eFB47M2FRFOYoiuzjzrTLn66mu0j6ohHVToeOKJJ+TOO++QX3/99b8THkLln+I6OxHkf3+EjfDAyDpt6HAbJO5K9Ab+MNC7oP0FXp3adbwzTz/Te/21173J/0z2li5Z5mnFegn6jkrX/gcKFTaCq33Hbg1308bN3pzZc7xfBv3iXX/t9V79evW9xo0ae08+8aSngoZGyIv++9kGDS8pIcnr91U/r3+//t6fE/70SpUs5Q0bOizy3N7RvFJGixct8Rod28j7bdhv3s4d8clp2h9piyGGQwlp0b9rH8FBO5o1c7Z3wvEneD8P+tnbsnmL/+wQBbxr5/ad3l9//uW1bd3Wq1OrjnfzTTd7Our31q1dZ/yFMtidtNvy7q7T5RfuGef03ksPwXe7KdvQ9Yb1G43Pfv3V195ZZ5zl1db0PvrIo8rfE/yX/gNQHtDBpx9/av3PTz/+5OXOldt74rEn9P5W63v2AHkib3qcd+55Xu9eH1g4d991t9ekURNvwfyF3o8Df/TuuP1Ob1f8LvvkgMLVG2d3nd1wZbAfULVKVS/N4frOHTttOgHVTouWLeShh7pI+XLlpW/fvqbquvvuu6Ve3XpSoUJ5U6/liotLNnLUwyRnJ/nsI5B6ixQtLDVr1ZRzzztXPujzgYwcOVLuu+8+U7kxX3fX3XfJtKnTItbEHPsMzQ4ajYsuuUg6duzoq2r0Lx1djcIvA1SUZqexH6S+GGI4FKCMK7jwT3ucU4Omo40LbWXevHlNtZ8t7fgAAx5EHlkFAQ999dVX5aKLL7Kp26/79bMVACedeJIUK1ZMcgR8Er7C1tIZlhFwPIXz3vKX4DuzcQhdFyte1PjsxZdcLMOGD5OXX35Zfv/9d5tG0UGUbN2yVTPmT8NwtvpJL63ZCOwSmBLnKFy4cOCBNBP+dJQXo51m+uXRRx+1qfL3e/Twp2P0MG3PgUKUsrKtxpN2mwbIPcdwdsP6DbJsyTJZOH+hzJo5S6ZPm259HJqhf//5V6ZMniJT/51q9+fMmiMqEMnyZctFhVLZsmmLllPyxnLQItijPZF1jlS3M4Oo0xYsc/nxpx+lT58+skWJ5WIl/PPOa222C+yljt2CJcjzKwRE5uLCyLBW9w4UMsaWzIMl6PWkSX/JDz8MlAkTxstJJ51kgk3ValWtoEzdSQ73NS0axto1a6VevXrS98sv0562aNdOXn3lFVO35o4ZTMZwBAKhgT+bJw9zF67prFKD+xzaPmjbS5YukU6dOsk9d98jLc8+W4pgCX+otR1t878O/lWef+55mwLo3PlGOf3002yVBEbijokb3wyXkSIoiuhldSChCWG6et36dfLzzz/L559/bqs2nnrqKSlfvrw/QDwA9UJZIUj+NOgn6/wRxq677jq5+eab5ZFHHjWbmLjU09YUYlCurdu0kQs7dJDON3ZWXu3Ja/r9y91f1rD+J/PmzbXwmJI/IKAv0KQiLLj2sXnzZlm6ZKnMnDXTVtSs1H5kpQqdK1eulK1bt5hRLO+acGnwhR7aGP92axfu90G7ZVfCLrM1LFGypJQrV85W1GBKUL1aNVuMUKJkiRRGthFQj1moy6jTFirteLfcfItXskRJ743X3vBWr1odUVmhgjOVWqAOCsPuoyZJfaSHtN7J6DuFxWdnTUpikrdj2w7vn78ney3ObOEdVf0ob/hvw+15tk2faHRrVq3xSpcs7Q0dkt60RWPvt6G/ebt2hlRhJCETeYohhsMFb77xple9anXvtOaneWtWr4nwEB05mcqzcqXKXveXu3sqLPjtI2gjCfEJ3vx5873mpzb3vun3jbd50+ZDr+1oegd8P8A7qsZRXs/3e3rbtm7386AHPHQPuPynPg4iJCYkeYsWLPKuuOwK7+g6R3uzZswKnux/wOu3btnqffXlV16N6jWsbEsUL+E93OVho4+oPJ5iDsrxvFatvV7v9/LvKXR0rnmo69WqWcu76867bVrpQMH1W1s2bbF83HB9Z6/WUbW8woUKa7uopmk9z7vt1tu893u8740fN95btXKVtZ+NGzZa38x508ZNlu/NGzfbNfeYAuM93p8xfaZNyXR9tqt3xeVXeA3qNfDKlC7jlStTzqZwPurzkbd181ar0witRSHL9EAbTiE8LJi3wLvowou8c84+x5s1c5Y/BxcO3F1HOVyhGLjMbGL4Phy2IjIPF4SRWQGANOxQQujxXg+vUcNGXq+evbz4nfHB071AOF16ZEZ4OK7xcfp8qLdzhxKkSzbnIC8xxHBYI2gTzEO3ad3Gy5M7j3ffPfelaMOvvfqa17ZN2+CXImhf9l0gPCB0fPrJp8okDy2bB/L57TffehXLV/Q++eiT6MJCenBloQf8bOSIkd5VV17lTfprkj12fBZ+s2b1Wm/I4CEqqL3lPfXkU97/Hv2f9/1331tnEoG+vlr51rtvv2s2At26drOwMstTrT6DtPANNho3dr7RO/ecVt7smbP9d/Y3NA3w8e+/G+DVqFbDzgxuH3rwIes8rZ9KhbD93Rmnn2mdMeGQfvLyw4AfvLy583q333q7L6DuJxCXq7O5c+aZ7dxNnW/yGjdq4p10wkle5xs6G51MnTLVr5OgrK3ck7OwTyC8pYuXWp4fefgR7/TTzjBbltYqVPV4t4cOuv8x4cylMzNIYfMwbco0UxWWK19OVDIxC9u43HG+6iyVRiganDU0akfWF++hAkHDshtbBD0nebJ963Y7bJe0QL0EsKoFmhELgzm2CRMm+L/Tg4aBCjBPntxy4403ysvdu8u7775rKqkd23cELx0oZEH/E0MMhxu0LaLSxhFR8+anyUcffSQjho/wbSD0H8sAG9RvkKLdp4Vos6EHJYK8jB8/QV544QVTi19++eXRp3MzCezOvv7qa7Mz69+/v81bOz6Lmn3Y0KFy3333a3mWlDZt2tqU8pVXXilffPGFvQNQfd966y0ye85sObfVuaa2v+GGG+Sff/4J3sgARKcH+aBOUZ/jVInVdY8/8YRox2v2DzqK9d/fT9D+SuKCaRLtDoOb/ikacsblsCmXAd8NkKlTp9gyzUWLFpsNG3k599xz5fIrLrcVL5RbdsNoXbFt23bRzlnuvutuueqqK6V3795yzDHHyFtvvSkDBw6UXr16ydWdrpb6DepHpoGsjoNyzw6QX6aZVJiX57o9Jz/+OFC+UXoi/3+M+UOuvfZauenGm2TAgAHWV+KGITMwsYCliMxjlSlbRt56+y2bKzGQfz1Usku3ogz6nMp67LHHpGXLlqKjB7/DD76j8iHcpKRE2bptm3mP+/iTj22uJlxIjz7yqDmNwjgmf9785vkLBsSSzXQRFDbEzdHy7BY2R9fz/Z62vBLE79xl5/2FCFHHEMORCtohPDBoj5dffpkUKlxInnr6KZvb5R7MjHl/exdEGZz4Xg38dyPvHcQwuzTtMD76qI+cffbZ0qrVeZIrT66oecssMLbEOLDVua1k7JixWn6bgicKLROc8bH08JJLLpWmxx0n995zr83/O34H8MHD0vqXXnrJvN52eegh2bBho3z99dcZD8gcKP/QwbLGh7s8LFOnTDGDdXh6ohkv7l+YcamCviRT0NfOa32eluNq6xirVK5s98gD/Uuvnr3kpZdfkrz58vrvZyMw8sdh4pNPPqF9UUuZPn2GvP766zJo0CC546475JRTTzGniMDqgapwZZzd0DARmsydgf6jPTZo2ECuuvoq+eTTT2T48OEmXFzb6Vpp0aKFzJ49O/gwfVhtsKJikxImrjvRDkQyQEHrYe6kM4FNmzYZUc6dO9c0Bjkx3yUMkw9ymE+IH3/8Ua5S6fj1N143DQXOosIgrtq1a0m3bt1snfcLz7+ogsaztgbawsoC6tatK08//bS89+57snnjZsmLF7EgT5kJy2iUEtLywDhl7dq1ZpCyft06K6ewcATIL4LL7qTY3hYxxEDHX7RoMeUr78uSJUttpMUo1QYSruOi/QSXri35HhTz2sg7s/3EfwpLo6ed8gb5e9Lf0u78duYxN8wb9gb/aueMV8mbb7nZ3FPjQI9yc8cdd9xhnZMT1PB1gOa2mJa5402jR/8hxzQ4xoztsOqn42dwN2nSpBTW/VlF+Qrl5eprrjahBKN1Ewb3I6AZy2cAfH8kqtACfUQVJvQWecb5FsaFuXPl3kMQNeFuP4C+7/NPP5eTTj7Z6u2rr74y2scvkWnfVcjkcCsSrZ/8D1GseDHp/mp3+WvSXzpQb27GqI8+8j9ZtGCR/0IaNJKTTHz+xedyzTWdpEiRIv6LabycHiBEpDucnlSvVl0G/jjQOk86XYcvv/xS1qxZY+q80qXLBHdTgk2ljm96vHTp0kUeUikZSZlrs4bNYtpoLK1btzY10NBhw3wtRxbCcMT677//yu233W6FihrqyaeelM43dJbBQwbvQbhuxBRDDEc8tGmgjWvZsoWcrR3WW2+/zY3g4Z6AV7intCt4ARbk6XxycECbPOkdMXKE8dDadeqY2nxfMWTwYOWnTeSss1pIQmKiLclzmtXUB2lAC0CHecmll/gB6D0c7GFhT/rMXb7eK6kjXjxMWnlTuHtRvgzy2rVrL/PmzdMOcmGyALifQDrpbE0AUHC2tO9N4vcjtm7eKvfde5/07NXT+q2ePXvqaL6lllecFr3+uU4lNdK4faCAUEO/3bVrN+nxfg/5P3tnAWhF1cTxobtLukMFBVRAaUT8UJEOCUGwUFRCwRYVEOxCBQQEDFQExVZKDEBEKUlp6e52v/nN7t6373Jf0XH/j8Pu3Th7cs6cmTlz/vmH/WVulZm/z7Qln5GQHC+OcLSVKl0V4s78kBQwUKOXY8C/+pqr5asvvzI1RhAdO3W0BLFBS2qWe0YACWV2bw2DJMCUcfRDYuC1JxiOHLlyyDXXXGP7TZhUJSnwvnfZ5ZfJW++8Zb7nDx86JPN0RjB02FDzwBZvOZ1d7TqKKE4raP70D2a7Xe67TycOm+TZPs+6y8rcRyLAv+MuP/vvLBwg4gLi3hw5c0qmjBm9K4qkJl3JCa/g9n/mzJly2WXlJG3aNFKlSmX57bffbJLmhqMWEI1zZKkftgj4vkGfD0OBrwA21kKVkTywPC9X7lwWBzTW6Fdi6WoATMjYLgAmgiXs7kB+6uAzD1Y4GpitowY/4/CToMcN6zdIg5sbyIKFC+StgW9J/fr/czce02QjFQpOpEOg7P3y57aG/Xv3y6G4VOx6H+ndgX0H7DmTHsUDdmFNkLHTOGkHtJlUqVNKxSsqyscffyI1ata0CfPixYu9B2MjOcaI7ENRIH+BJA/U7kxBv6zvzZ4z2xrplVdeJVdUvELmzptreh5uu89q0EzghxwDlYgF6YGOMGzYcHnh+RdkzKdjrHHa45omdICJQiD6MqXLyPLly1wO/QTg6zBNCuKXUSBKKgBiZ390Jsu0ey+KKC5kXHLxxdKqZSsZ0H+ADbL/mVQhcuegH/GHO2d3bEsEMTrDoL+z9n0vu14ePBCiV0lOuj6PtObFl140G7TVq1fb7A+3/Ngy4CcClSgO+RDHY9R+UBmN5wc8L8WLF5fHn3jCHWS9uPxzyhFAgylfmBPiCdGp4wDOiHg3C86u/A+cQuCMEGnUUbOTS5b4seA0YNeu3fLUk0+Z7QCq+0suvcT2cGLXUwZ7V11HcbmFbeVFkYUVG36V2rRtY/VvtoYBoMZD7f90797movvhRx62jcH+mDnLe0LBN7R4UFv9NOUnuf3225WB3OHdjAN+Ovy0aBxMkp944nHpeFtHadDgJtvC3Et6CNoEWaGQJqbywyOKB3CfvvUvOjR0aTjruKrSVbYN7Jgxn4YKKxwhTjXsOy1btjTVR4H8+a0i2ATlnnvukcOHDxuxYZvVRMP7BB3IVBanAWQnlLcooojCAOONF1iMtVh9YQwCtCPQVaBF7sAYI54+V0Da/1e/vm3Lv3LlKhs0jhfbtm2TUaNGGf377tvv5LvvvhN2wdy4aZPt8QP8MZ+ZJYPIzl27pG/ffjrDTWGMgfuMY14st23bbr8Bxbpjx07JnTu3GTlaHSS2qPlgILA3BAxOiRLFY02iTgVikdSzjb5qctgunN1gn3qqt+TLn8/KNWjLYO2dEF7YXln6mDx5kvz444/y+bjPj1kkACPJggQm6Xfcfoc5yeJZNgfbsG5DKB5sC1mQ0L59Bxn90WizDUkqMCgldO3WVZmHm6X/c/1tYUUQyWmgeLHatHlTnDOBuOAvR1m1crWJ9HPlymVcMu4/0f1xDe7QGAir8AjxU5Z+UFSvUU2efOopqVevnlmD0jFopKhBXGbFfS5B2Cf1y5qn1WvWSJkyZbwbpxZG9PTblp1AvqI4DxCh+R6DYDMPngP/d3g4nxDKEzPDw8b0A2ZCLNF86cWXbMbqM9jhkwtm0xBd+jqq0HMFpBfXzkWKFJHp06fZVti+0WJS8fPUn006ixtrBovez/S2HSQvvriMDBo82H1Iyw/pzfuj3jdJzquvvmLqEpgJVrWY1Eb/8Ai59t9/rSyhhZT7v/+uMQ+8SWLQyIdPzzRgM8GSUGzK0qU7TbscA00HSbGtEI6ncE8BkJRjuIqLgJIlS5gqiaT55cshJrhMhJWj3dSgYxr1w1jJ6hjUT3hZXblqpan+/YDxce1atY0Jz5Ezh3k7RrLwzz/LzCMlcWC0i4dlxjtsC5HSJKmeAY8TKF4Nzz3XTzYp4/rT1J+4G7qeHPsEOJlZs2YlmVv2d1qDK8aqFP/bZP6LL8bLZZddZvvHL1261CUU+ihH8uFzZB79MHDPNZDCt32qUNx0RrjkefPnuZ0xMdBXrdC0gcEt/Tx1qjRt2sy7eepAHtABhtx2u1mI4nxDoN3GC+qf4HW2WO/5987DNgIRZO8ZRJ3jxo0zcSsqQ/S+rVu3Nr1wOGNA3/EZCegA/WfX7t32O5zBOBuBZBP9c8eOHW3tPpJYUxkksX6Jg70k2PsC40dc3FN+7CuE/vy7777VAWKblQ/baDPj7dy5s9E5BhyMu1mphmF3mnRppGbNmmbTxnJN6CGz1xnTZ5gb/fRJGfQ1H8Z8eBNM/BVA6xCbnwzj0ITh2meYDYyGtGnS2oB6NjQN3JBnSJ/BDFth2HxX1zbe6ZF0258/JgSDB+5RTxs2bJRmzZpJiRIlrM5wJe2HPDoOsmMz9eZ/A7fdWbNkkQwZ3Gus8hkw4HmLI0uWzFZHpON4wfJO9plp2LChbYnutwFi1D6dQu688y4Tk5G348GwYcOkRo0a0uvhXmaw8+CDDyrH/IRxwAsXLjLCQeH5+jfLuH49+DkjHhpcy86YzJJQlgJRYEmxWUB9cvjQEZkzd478u/ZfadeurXfn1IKUn0hlRXEWw2+wVsnu6TEIEAUjtDznX/OaL+0Dhz8wwxBA/7nQ8+cyNJ8QLLaZ/uXXX2yZZmgZn+YNBgIndI88/EisyYBPYKERsdQW50h5+PsO4OOB2Tgb6WFPltT0//rrr/LpmE91JrlB9u7bZ9eYTG3esln27Nljvh/Yc4hl7gMHviWTp0y22Sd7+lx5xZVyfb3rzcANZ3l8G6PuRo0bSYvmLazMYRrYoprlpCFVQyLSCC2F4UOSNOK9kbZy7rnnnpOcuXJ6T5xqeO1BE+sn147+5TMItlmvruMfzrpg0ID1ZaA/addW1tzyQxgY25iAYxvE3hRIGMbrJDw+sLcTbYH6LF6suEk8iCdr1iyh/nRC8F5nvC5zcRnz62H5c/8hBEgmN910k6kaXnrpZbPiNJB3nvBDHNi2ZZutY2XzDQrMuGUlEJdecomeJ9fZxwzX8EMLzyxDNV7WIqOHgbngHQgoBANxJht54HcCAxMsTuHCMSDCgjhRIN1evWEkiTOTu+/ubM6m4s3ICcHbpIQzPqGn9ttLRxTnAQJ1aadeU6L97t61W5b/s9zW+ONJkTXeffv0NYLNQFKzek0pf3l5C5dddrlccsmlGi42PyRXXVVJqlerLnXrXidtWrcxMfWwd4fJ5ImTZdYff8rSJUtl546d9h0jSHz8+NXppx6aPpiCjJkymC8ACBmwWSLQckPSmTlrZpdJCOuTZA+7B4ifLdN0L5/90GzAGLFi7eGHH5bGjRpLt27dTSft77IZJ/w61SPiYRz2NWncRCdeC1z6qIM23hGxfMdnTamSpWwQh24zePTr18/8LWBEh2fdHj0eDM04Ydzefvtt+WzsZyYNHjp0qLz55puSNn1svwwY2RFCafHhpRsrfLxJvv32O/LIIw9Lr5695PLLL3dvngbQSsgT6SFfOIxyJ2nagrwB+xhwOTycAmzRcQsbPZsc6zesnwI9NyY4kd9FPc/KPoxgYQZZtbFl6xb3feIl89753t17zcYF9QWOFWEazCM00PsxZaJvnYTJLLuY4tyRJKChIC3JtKM7fOjXX34zt6Vt2rSWHt17SPqMAZEW347wfbhjdHHDhw2XFi1bykBtlNlyZDMXlzTqhx58yBxQvP7a69K0eVNZMH+BDB4yRBYsWCDTp083Tq1Bgwa2XvjaOnWMmbi3y73mjAn9KBw3OrzWbdrYspdESR5o+PrYn0p4ieuaq68x73bGPATz4VXCyYDfwVmq07JVK3n00UfMeBQO0jhO0nQSvxfFaUawzQD9jXX1Tz9NMfE8qrl169bZoIjYMFfOXFKkaBEpWrSorWRCapYhYwYbWGjTDDJI2PDMd+jQYTlwYL+18x07d8qGDetNtLx8+XJjGphtsrSudKnScuVVV0od7Sc5NX7bAh+PcaTtXGlXkdLKNb98Faj80Kd37NhJype/XB7UgRD7KV+NeS4AeoDRIivGhg8fJrVq1jI9NQ6fwOZNm+Wxxx4z9Q5ggEFSwQSJWd7Un6Ya/aRt+IBBKFSooKlHPh79sUycNNEYCKSyGCw++cSTpuKASUPqu26da2zHgAtTWqduHUsX9hF9nu1jkzxUu+xYel+X+6RU6VL2/MiRI2XSpMlSrVpVade2nS2zpb2ignpRGRPE5D179TS6yvXT0fZIN5PbZcuWKzNe31aW4P6bVX0wTJkyZjqj7eO2Dh3NSBGPxoylZguoyTHG2E9WAsnbuGGjMoMNpF27dlKgQAGzS4EhxGtojwd7WBmY10qtX7QFeIYcO3as2Udgtxg+NvI8qxUf08kIbQEaciL4fNwX8szTT8ufs/+0/EHb7It8qGq1a+T7776TYUOHSfce3UPGkPHhojwXyZB3h8iR/47Ihx99YIwDYEnNPffeI3v375W1mnAYB0QqLCV69bVX5AflsHbt3inLVyy3BlmrVk2lH45ZYo96f5R8+923diQtH2i8N950Q+IYBwVc1rTfpkuTpk20A1S3JS+u1OEUgCJSxsBmSR535zKaCbSUCwEUR8JN6KwHfQNAqHds3yFLFi+VTjqwscb95oY3m4iYWeKX47+0pXR06KHDh5oEAYPfRo0amcvXypUr2+BfoWIFKXdZOT2WN9H+NVWvljrX1pH6N9aXW1q3knvvvdeIxhfjv5ApU6fI7zNnyt133y3bd2yX+++/X4oVLSbNmjWVn3/52RgO20fmXEEC3cJmVvqPAc81iFOcg12JAYRlevd2uUdG60CPM7k6tetYG0H6ykDIajRsGAhsB5AmjbtNN7N/DBAZEPLmvSgUjsJoaNkwcMCkZs+W3dz4I/HlPLkyA7wLQ4IOPEf2HBaIP42mBWkQ6YJWsX8RWzbn1gGFb1PeTH4I6dKmkyJFCkvGDBll957d1r4e6fWItWGYOOgyfnOol5Mxo00ssJOzbagpo8B3Yw3QZwCk5+oqVUzdhBrhGJC2RKSPCTiOpHbugMYstskDdf3eiPcsv8YckW0NkyZPMsNjf7v3SGNjsFxORjWt0QkNtIv8mlSDf0geuGkXFHPnzFUO4xlbGwoDgA4PYxAbIPXPEuonRo9c8989Bjynt0If9H7DPREfcXEPMQibnoTisXdIk5773wqCx7hO8MqNeJYsXqLMzLsyaeJE6XR7J7N+tU1PvGhD7wCu+dePE5YvItF/DC6IHFu0aGF7zl9X9zpb6mLfuNAkD5HqLFBXhmA9gPDfgGvhZRYe96kqU+/bqM/WrFktEydMlPFfjje9JMZs/6v/P9tzJUfO7EaY6aDY2URMc3wI5IdZZYgQhMUDMw8xR4/OWu9FixZZm0M8jjSiRMmSrjSC93nPj/dUlc/JAunU4DMOAAlk+w4dTPXZs1cvyZzpzM4sjwe0Cb8uUdNiU8YGV0ifmjRpYpIpGEHoEwM/xm1MupBM4eafd/Aq6fpzSC5Zsmax+5TRnr17jD5DQ2EWkHYhVuZdpL68b74mFFyDEYAW8T6GlHt275b9B/bboMT38+TOY/s7wDwQ76aNm2TZ8mU2IGIAz4qNW9vdKvWuv17jc1UH1pc5noZqYSyAiUENjXrvhReel1dfedXUJi+/8opJ94zZPBNNRMuAzcdqKC1Awo0vE9LhLwqIlabw9HnjAu29atVq0rv3U9JUJwY+nnj8CdsyAtVX+QrljRb99def5nsBZ2sNb25oxsWbN2+R9Fq3qAJDdaJxI5155JFHLH1I8o/5flwIq9f169ZLO63/7t27yQ033mD3Wcjg5VBBRhToxdCJ3XHnHbYjJX4XkATQGE2n44PI9ScNOE54t4JMAUA0Zx1Lv8ngC9Ez5gQKTMLtuns0cC0QkGKY3wZ96D8t0HX/rjP1SatbWpn7a0R+d955Z8zgfQoB0YOJ8MG55YNyOcXfPuvh559joOkYuBYsH/88pigjg+cSeuZkQL+Bj/pXXnnZLI3HfT5O2rZtK5+N+UzeevttM0KDcQC0ZWMcQDBPSYG+F2IcQFg89CFmfqjD2GAH3TWW7n/+9Zc5lXnk4Ydl67at9p61R94/3rScAcSaQeqRWSZ2UVwyxuIcQ7AuUVnd3fluW9rIPhWoHNiXAuPyb7/9Vo4oE5heJ2hIAGA68LuDrUJGfS9jxkzGOGDxjpdIaCeSByQXMAZIFmAO3D2Ckpk6AgkubYXAPSQPMA7MZPHsiySWePEBQVxme6Lta+GCheYZEb862F2gNsG6HxfLNza40ewerEL8rPn1dYphpDTsW6b6U2bHuHZ/3Djd8L6JJIfyevPNgaZytLr308szwRCEPgPzx8ZU7AdVqVKlWM8gmdy3b5+tjqFP79fzN15/w9wYlCpVShYuWmhqqCd17GM1ImDsYXz0JUkUDct2bbzU88RoFPy0M7byDgxInjy5bd8Lg3c/RvLAlQDtwsgR2wO4l1EjR5m/dgxlatSoactCfOOQE4LPHHiASFg6EoJ+GiM1nKnA6EDQ6WyvvfqaXFfvOivAEMPCN/x8kVO/7Lh9guk3Im3/XAYCG5DmzZubPvO66+op8+K54CYNJ+F75xIoDzoGDRfG05/V0EnQaaP33bd/n9uoFYhzIXzpM2Sw3e/Q0dnytBzZPcKZ3Aig6VkTAnV8AmWNZfk/S5caA03nffbZPqY6g7CTXhhdWzF0MhDsA4H+FxG0NS1XfxZO58ZGAGkEBmzbtm/XWdkLUqdObROD+5OfsxrUFcEO1plk1+5dcluH26RkqZLalx63QTQWY3WOwupO6RLtCHUXhozsB8TMsWbNGtKoUWM7orKgnaH6SJkylTEVGI1D14y2MZJqOTEbT5U6tfUbu8TAgWGqnkNHeY7vmQGqV3wYofMc0gveR5L23Xffy/jxX9gMkzLH/oIltahFTlo7PxFoXrEhQZSPRBdVN7s/lyxRUl5/43VjhJA8hGj+6QLNlaB1hSTn/vvul/Xr1xuTCIMGs+YjNCYFkogkAffhbNnAio2PPvxIblA6QztBevTWW2+ZrUvVqlVNAoG6q3btOlpvB7R96Ic9oNZi9QtqBfDH73+Y6wX21/j7779t19UmTRrbyptEbWCmUcM44quE8ZVx9bvvvzNjTh94U43NPATLnqva4MgIFt9ff/O1WYMyG2PvcQxm0N3CAUHU4YqNOwzGkRAoePu6/ReCdQ4/Hm7pOQQdj1uLFy+ytcxsUYs9Rdmy5eTGG2+QutfWlcxZMsf+fpBxAMTlf4rngs8eBxCnESFlRGdHbdG8RXNlsh5V7vC6GJXJ+cg8ePUSKk/Fvn37zXhwyZLFZh3OhjmsRUcXiKEVolFmO8yGQgaEqVMp8cOA8LDLbOgsjOd3795tDCKdkvbFe4ULFZa8+fKZgRjroEuXLmOzIZ8ow1Xb0e+oxwGYGIj6iPdGyE0NGsjtt3dSrjuPEWgQaRBjEOd7Sf5mkHEARB1snxFAm0P/HWTeOUf0iWiclU/VqlUzqQSW2Gc9An0yyDzgL6FQoULyzDPP2A6K5wPzYPkM1qvWJQw16/nZLwdDcmaTGegfOkFDNIxNAoM4AX83SBqQKCCpYJdgjLKpfyztYRzoC7iwhjGnTdCXcO/PRJBlnjgDZHaMaoJyRt1RvHgJ20MDdRxL8kxiS1VoCDGgpN3H8XWt44artjggq5Wm1KpdyxjkwYMGmwEqg9sZYx6AlgsDOUMW5cpKG1Zf9O3Tx5Uk6HXoEcFUGcEk6jmeIefMmaPnySSL1isDdHqt+53bd9qWD76PFFZmQQdnz56tEzHPj5CHVMpcsh8F7YI4MT1gcoZKI/RB/X71GtXNpiXeSYqWNWlll21cyTMxQQ1f59prY9qC4ljmwQen1ni8FqO/SezWrdu0gFbJjz9OkM8//9x2bMNat1KlyrZxC8vQ8IKWOZM/iGusHANRRwSf8T4VfHbF8hWme4OLYse4NavXGDdeWb/VqGEjKV2mjHUmPLslCuHfSShd8SEQF4wDlsubNm00NQ8NCMlDGp954LkT/d7ZAr/8FEgTaDcQPPS5kyZNMs4bgmdLEyuUNy9o2bPn0Eab1uqOjkEnYI+TkJ5S42Q2RmOnLJntEy9iazhwLMrXrv3XGBPawsyZf5ijHJiHGtWrmzoBC2U6GfEwWzpeQvLM08/aLAx3rLQzs/dR4uwmEyLhpTkMPgNpTEb4fa/MjKnx3odJQYrCez4g/kELdvISHDRdJsVPC/+53zRGQnFYGTBsITCsZMkz4maYtLMaZMQvH070H4Ma9ko5cuSU558fcP4wD/FBiTbSAGwdsG1B/YoageV6SAdWrlxp16hvtplGZWHqX6172hWzXMrPZ6SZqZu4WkdenmczQiQaMGQVK1Y0a3loJysVMmfJYvHZ4BCoD4Nf7MHrp7kq6AcHDx4y2lK16jVmUIyLc+jMW2+9rcyDa/NwRpgHH1p/lMvmjZtNYsDSWJx3sfuyqaOoo2AbPhVJpX5ONF6N448//jAaAjMCHSxfsXzonh9/3MyDhxDzoKBiGCwgjnbUhrtm9b8y9aefTIf3998LlLnYYgQQS96LdLaGCKxIkaK2BWy27NmMqXAbqRJAJaLEg2iEGfv2bdttTSti7VUrVwm7fcKpMTPNlzefOaGqUbOGcXMhguhVWKILjef8LPH8iRR0TNG4zIM2cHYNxGCSrVjr1bv+vGUe4LQZzPHBQSeGsGFUxZLbRo0a2ozg8MHDMSoGfYf2YwNd+CCg96yd+WUEeD4+Azm9zyDJyoZvv/nWJFAs22rfob2UL19eZ2h57CF/BpWYcofQok985dVX5P333zfPfLxnxNiLwJgHzuMgnizVRe+J9XX9+vXtGsQdwuHyDPafLFem+M8/Z5kIMns2d4WSQe8xQ6Rc8dZKWZXQWWG16tXMKM5X3/Cc5csHv4FeoyjXrV1roufatWtLL2VkzdeC/8zZBvLh5SXIPNx1512m62eWeaaX4p1ykP9YdegViCGZ0UjaMrNQlgSjroVewmTAaMNUsJIDJp5lmejKGVhR/cGA0cZSp9W+4NNLDzCj1h+DRcun/c9zPZCu0PU42v+pgjEPBw6aWhgRfv/+/W1JKYaeSAkznA3MQ6DMGANxG/5c/+dsiTXOEzHuxL4klMZgGQfB9TOQjYMHDtn4hb0gE0EWSvR+qndoBWV4ehNmHgJv+CILI6Zhsy/ExQcPHTTCt3btOpuBI46DU9y+fYfsVmKAz20sgRGpQezZ4AXmomTJUjq7Sy+ZlMvJli2rLTvCAAWGAQtRzrPptYiW7GEZOuZ3OLgffCau55II8o/xzhbtxOylj38LrPHPF7UFYkMIGmHRwoXy0eiPZOLEScowFJJatWqZ5Ik1+dYuNJOxZjAJ5dmrD3vULyP9HpIc49T1d2h2rgc6H7SVb0D8YEDZwRXJ1IQfJ5jao+51daXz3Z1NbM+7/MU3c8Xb44zp082Y7cUXX5J611/n3VGQd0udi4iSB71NOlAZdO3aVcqVKydff/21SVqCwDfEl1+Ol9dff91+j/1srOTLl8/OwaLFi+XBB3vIFVdcoeVaW/bt3Wt76zN4sqdB5iyZvCcTxqyZs6Rb927m575Jk6ah/nvWgaL1i9drNzgjwsAwk042nh8wwNSRZ3RgOB2gDCK0q0j9J9gfODuwf7+sXrNaBg0aZHsAdbmvi0njQu0/wIyEmM8wRiKEmEdjfzuu66cB5GG/Mk5MMq+55mpbovj+B+9L7ly55e13lHnIcBYwD0DLKCgtRHIOk/PNt9/YyhpWKtx44402xlGckBKflpnKVS8w0QhJZE8Ufp15cVGOVkbedX4j3WWywjLzSUrTL730Urm1/a2m+kRiwrO849J2hXeAeSACBwZCE5+4oI+GwHmEZ44ecR9SDsxRjtHRGZmzd89eZ8umLc6mDZscnVU59f93g6OzKmfar9Oc/Xv3O0ownCOHj7hxatCBIXR+TDhe8K6fzhOJJwyk9dDBw866teuc6tWqO+PGjnMOHTjk3VWc5O+dVmi6D2veqMvB7wx2Chcq4tSpVcf5acpUZ8/uvVq/h2Laj/d8qIyDget+CCL8GRCMI3geV1DorMzZvWu388vPvzi1a9V2ChUs5Hz4wYfW/rgXERo3+Vr771rntg63Oc8+86x3w4PeJ2/WFgPfigTad5d7uzj33nOvUyB/AWfu7Lmx06544P4HnHcHv2vPVK5UWb+7zuL2w4svvORUKF/ROXzILW+O8+fNdzKky+D8Pf9vN5JEgvb3ysuvOheXvtjZtnWbd/UsRFgZAWhEq5atnPbt2lvarX1diEgo21pmlM2hg4ecTRs3OfPmznPGfPqZU7xYcadZ0+ZGU4MI9VPiPZeKVNO8b+8+Z/WqNc5FefI6w4YOc+pdV8/ayM4dO3XcOHrWtBH6rX+k/y5auNi55uprnBvqu+Nd4UKFne7dujsL/l4YuQ6oIs3PCdeR/76bHAO02v+9Y9sOZ+CbA52q11SzNHXqeLumdZHSyoNalo6VqeUljnTwjrFIxlVwFokTPQ7AOekHLV7UFBicYaiB5XyuPK5jkhdfeEGuuuoqsw+Y//d8E8kiDuc9DOf8TbKMSwoPcM1+OIuAVTMIMPrnPJjJL1q8SFq1ukVGKBf98ksvycSJE6VGzeqSIWN6W1Fi3CwcKfURV97juu63O4LH1cZCYspSn6H9YERWtVpVGT9+vDz55FO2zAxXvViRxwVmCSyNYyOjm268ya5pB3O/G/7tSOnzwKwIPTM6ToxDESEH36ctP/roY+ZiuFixYvZsOIiD9f7or0kXah9EnVhII8lLVFl4wNsg3mKR+GGjdLb1lUjwy53VOUgoN23ebFKISFLRpJTFOYt42ptB71M2qJLR++PZFLUddgDslIwq79uvv3Xdm1O2Pk522RFfMJxsaD7NSRTjiuMaC/IbNaiOY95DJxF+XwnSsyTmjTRipzFyxAjt01ll0DuDzBstSzoXLlwoLVu2MLf07DfCasE/Zv4hq1euNhsv7FTIm8H/blKDAi+2u/fsEZ0ciU4+bLdX1LItmrWQqypdJR99NFoa3HST/PD9D/Lu0CFSukxpwVHVf5glKP0JqbTiaIfJ4CLsY/4D3odjXQtH+LMJIRiPvoMlPd76bJOX94bL9GnTZcCAAeZpz/TiNAwtQIioMTbhCF6KK41xIZjmpL4bB+iYqC1YgtiiRXPzaX/TjTcaAXcfcA/2vbjK7CSl5WRCOU/57bffbPVI7dq1bElRyZIlXcbQ10GTn0h54nZCeeI9fYaVNDRaflh1a9CZBE8YcfCtlG0Q8e7HGgxhPBTYLWAjY9C4sYtgWRdW7C8p08MOsrHgxfHll1+aT5NPPv3EdMQmNlSECJMerB36346AUSPft9VAPXp0N1UOvun5Js+j9rHXSKfG9dprr8kH738gYz77TAoWKMAdwwcffig9e/aUSZMmmtU7YPkWen/2e0GFlyTRrH6rTZs2JiZlaVtcaT8bcPDgYSs/xKfsxMkqHUTsF12UV6pec4351UBvbNVwFufjtILmqYF2ymQLRh/a6q+wYHXc5198YX2Xtfr4hnCX+Ll96qTZkdCPtG1bOz+ZdePHpUlmIF63fp3ZvLF88TPtOxjSoqM3g1qzo/OeV/hdN870ePeP6RNu8YT6aui+5o2BMkQH/PeD0OtWBvouS2IxWGb30aefftpoDwyeu+zWMSNYmIgFfy8wHw2oOEhsrlw5JXPmLFKkcGEpWKiQu+JGJ9+siqH+sH1BHY5fD1Sl1DsTEVbWsBKS1TQsZFi9eo2tdsNB1A5lHvft26tx57JVatAm6HiZ0mUkY+aMXuIVwfz6CF4L5NlVW8SFExGZ+AiKTTzxByqNA/sOOFs3b3XWrlnr/D3vb+fRhx91cufK7Yz5dIw9qoOJHWOJi4PhLAPpRG2xft0GU1uM/SxMbRGEVw7HhLMJmh5EbvPmznfy5c3nvPHaGyYWNPG6X/5+mjmG148Gnkf0dcSryzjB84p9e/e7J97vY2BpcuMy9VbgWz5Iczh49tFHHnWurHils+7fdd7V2Hhr4NvOzQ1ujp1W/Z6vTgi1Qz/PEdC4URNnwo8T7PylF15yKlaoaGqUSO+8+vKrjs4KnZUrVsX6xrYt25wH7nvASZc2nXP3nXc77W/tYOLB32f8HjFvCUK//UzvZ5xGDRt7F04dyGZigw/Oqcp/lq10Ona600mdJr1TuHBx58UXX3XmzV/oLF6yzBk56kPnqkpXO+nSZ3Lq12/gTP35N3sXieqBA0fsCI6JP3gh1o3zCORJ8++3H8TMqOhQYUBbly1dprRorFO8WAmn/OXltb2tdN9T+O+cEPy+p9HQd1Cf0N+s3ycQEM37aUhMOKzx/rt2nVOgYCFn2PD3nJsbNnJa3dLa2bN3n3NAv3uI70Jzjh61c64dPHw4dP0wagQNfFsZKKNPR6FpHDV+OycfXvp82LNeMelM3p71yz1SQE1KOYz/fLyTOVNm5/VXX3eWLlnq7Ny+0+qGYGoJBd8GlB3Xl/2z3Pnm62+cJ594UulJY6dokaJO+rTpHZ1EW1CGwUkmyRnCjwnKDDopk6e085zZczo1q9d0unft7ox4b4Tz9/wFpo4wGuLlxVS53nl88NNoCOS7cMHCjit5ONUI+wLSBbhkRJNs/APXhOiGrWjNwKtxExPX2pK7cFaIn+Hc0ZmGcpu4ko1T8hBEXKV9FuUJ7vmff5ZKyxYtbVfIJ596SrldzUukNFpzdU+D0K4o8+bOkyuvuko63323DHh+gKRLn86764Llips2bda6H6Oz/k/NFW7IU6PGiSU5RogY8qRMhevdfWY8x2YxrHsOzQSAHpCU0GbCoR3F1iqzX/7Qd4dKds8zpA9m98xgxo373FQxfFs7indXo+YbXrIiAacsrVq1ss1qmAXhmAUPgqhCWBoXbqz52iuv2R4Bn3021hxi+Vi7bp3OqvraLow1a9WS3doviPPaOtfKI5p+dqpMEjQLpAP/G8OGD/UunhpEaAIhQGGCM8Ddu/faJkfTpk0zSQP1gqEWu0SyQgT/H7QfxPFKvEzaQltivw8kYZQxm0ixx0KZMmUkF/UZiD9w6sJP3DE3znGQr7C8QVtR+0JbkUCg7mLTpdffeMPcrGPQ+7//1bfVO7xM27b2TTzEkdgy0ufxbjjrj1nmU4JlfUlVI4T6biKwXfNxUPPUt29fWwnAsm3yeccdLIVMZZIHMwZVkAZf7M83/OtuXrnvPuPf41kC5376/XOe4R5SA5adX3rJxXbf4H4iBKNH2lYXLVgkne/pbGp5PB0jNeB9lqhTbjxDvMQPnbEN7jzowGxHXxWMyondplnGi6sE8oxPHJw4mWohmes8j2/QL1iOC43085ykNu9XXeAd0nfMGKxAIkIGTi887oUZLJzyrp27zXBs7py5zquvvGqGbk89+ZQZwoTgcTsWEsEtnRYE06HncJubN2126l5b1/lk9CeOVq5xrDBuPvNmHGxc4SzC/n37nfu63Od00Jnvnt173IvUl3LMxxjRcAzWjxd47rFHHzMDwKpXV3U2rt+oN2JwUDnhiT9OdNq2buuUK3uZkz9ffjduHxrvqJGjnCKFizg6ONs9DG7vuP0Op+NtHUMzhmBaYr0fAM9hbFWzRk3nicee8K7GYPmy5ZbO5cr5k3baZmjWQ+V58YfD/949ne91/nf9/8zg8pmnn3F6PtjTuSjPRc6Lz79o98Px6iuvOVdecaWzamVsyUPvp3o7VSpXsfLnu7SpX3/51cmZI6czY9oMNy1JAPEw43z5pZe9K6cOfjX4KeR4UPsASSYwE9yxc5cz6v0PnCZNmzuXXnq5zh6bOIMHD3OmTZ/pbNi4xdm2fZeFLVt3OFu37Qwdt22LuY40YtznXzp3393FufiSck7tOtc5L7z4isa9N9TPDMFzEP77fAH5CuTN2q4WBBIA+hh0dPWq1c4fM/9w+vbp55QpXcb6EP0BxJpJh8UVF/bu3uvoAOnUrlXHSZM6rZMmVRondcrUFpTxS3RImSKRQWfUyZKlcJLp7JuQXGfgOn45qVKnYbQ+JiRL7p8ni3XkXf8Z/7eFFLGvuyGZk0LTyLcIadKmcy67/HKTfhi8MqO8fakg9ADD6ebavpEczPrjT5N27t93wOrEr5tQOVPm8cF/jle894PXkozgu+Hvx3Hd0st3wwKSh9PLPJCwQAIgmDRyrIIhpAsXLHTGjf3cKVa0mNO/X3+rCEQ6J1xoJxmIuEyERcEqELkvXrzEeX7A82Zpf9119Zxvv/ve2bxlq7P/wEEL5xL+WfKPrQZYsTxGzOnXV6gufHDu1WcwYDF/w/9ucObMnmODn85QYqkFEKFi7Yt6552333Hy51XmISAu3Ldnn3N7x9udZk2buQ3Y++YHoz4wceCO7Tvd+Lju3TNCGAFcp2OjFitZoqSzROuKgZW2BxikGfyHD3vPznnWzWvMdyMBokG7RUVB2yXffGu3MsTNmzU3Qm3iwTC8ZszDVc7qlatDjAOhZYuWpj7h+4hOiX+l1kGO7DmcTz/51Hs78UAEinX6wrgsu08iiN4PPjjfp/nfqEx1v+cGOKVKX+zkyp3H6XLfA84fs2brgL/HmIZdu/c5O3ftdbbv2G3BGAaPkQgPMBDbt++24/IVq51n+zznXHLpZU6mzNmcu+6+1/n778VKT5ThDc9v+O/zFeRT26ENNtqmaONMANavW2/t/nulS1dp26tTu46temMVgw1+Xr9NTDkR9/Bhw50M6TMYc4s60QZG/Z613cQEa99HEh1oR+vWb3CuuKqSM3T4cKflLbc4rdu2c3bu3u0c1vQc0jgPal45Hj6q8XvXgtftXlhwVR0xao3gdb8oUH389ddspyjjktJ40uOXF/mlz5N3ypmVFBeXudj59ptvjcaxqoE68MsmFk1JRFmfaVh6/bYRCKdPbeHD+EX31JDMJB/mYGn//n0mpsYlMeJMNv+pXae2WcvnzXeR98KZh2VB/0OqtH7DRhO1I3rF+AWDFDYWQ32BsR6GLTgbwrFJhQoVJEtwa3BEXrGl2WcNPh/3uXz4wYe2HSweIQ2aZ+rKRFhIsXxJVnidevhp6lTz2//0071tO2LWnd//wP3K1LsrcTD2YTWBEhEZod/p3ftpWbVypSvC07LZs3evdOjQwcRvH3882hWf6fmvv/wiTZo2lZ9/nirFixW3dNimQPqa+4yfsBj413E0Qz088cSTcsst7u53lnY9YsD43nsjZOTIEWakxw1Ei6F8xoExn4wxZzC4cQ2qTPr1fU4ee/xR+X3G72bZHMTrr74uo95/X8Z+9pl5xvTRt18/Tcf78pu2f3aSRAw6ffp081rK+n3zXZ9AenzgnpatvFEHYLCVmLwkCV65+Qg2gUOHjprjMNL+zTffWF/A9wX9gN0H8XaISgLROnBFxzENydoZ6Q2De429IY6aKgiDaiXbZiSIOoNVQPPmzjUD0WuvrWO7npYrW1bSpIugPjxf4RUjbcc/Ql8RdfuG6hjR4SeB/RTuu+9+7Qu32DbeBreIEwQO1ejPynjIpEmTZebM390biWxn0NCkDD2oDlg5gNtk2gsqDFZYsf+NeXBkdZ61G9cBIUGHPrsWbE+xkuaVTyyxvHcKzfDTV6F8eamodKP1La3N2LD/gAFK/70HPbqDOuGTTz6RZ5991rbjZ5dMVk6hSjC1iv+8pY2jBqL3Lp+tMNoZIZGnX20BpxUWjEPWAFfm+4TAwOTzsZ8rB3eJ07RJM1MHAJ45nbDv+Wn1ABc6b/7fTlflMC+7vLxzxZVXOc8828eZ8ftMZ8nSpc6af9c6q9f8a898rdznLa3bOEWUY61zbV1nmHLrzHgtXqKGqzsLgZHdQw8+pBy2Z2DjB4rfDxGuG2etHDbo16ef8+EHH1kc3bp2s5kO5+SZekbKAEfODOTtt942w8yg5AHfH506dnJKligVMu7h/a+//NrJlDGT8+esP+17+KCw7wP308cicJ317/2f6+/+CFzfrjOEW1re4lxd5WrzLWCzhfjqR29t2bzFJBZFChUxKYJd9mYgXR/o5qROldoMH5ndgSWLlzqffPyJc/lllzsZM2R0Hnn4EeenKT/Zt8kDkh7Wg6PS6Ne3n92/9JJLnVdefsWViATKJwjSaXUVwD2d73Ea3txQ497u5jOerCQFvjEZ37Ty0X+HD+nsS4/79h92fpr6m9OmbQenWPHSTq1a1zkvv/KG8+df85yVq9Y5GzduczZt3u5s3brLpAtIGZA47NixJyRVIHC+Xa/t3r0/9BzHzVu2O3v2HLDjxk1b7V2kFkgwCJs2b3MWLlTa8fmXTqNGTZ0SJUo71157vfPJJ2NNZXj44BEtQ2bjGjTN/yG40uzEkmye6/DzQZ68QD0xO6YfYUyJmm72X3Ocoe8Ocy5RGot6UpkKfdh/lhkyP+xSRAx88y2GPmuTjz/2uIMxXwpPxJ+YYCoESZb4gOoh9NuGXTegojhGTRG8FnY9rhD8lheUEXHSpE7j3HH7nc6KZSucalWrOQ/2eMjKMlS+HPQ30j367QvPv2Dlu3XLVu2zLr0zmug/n0C5nlXQdFofD6bdC6df8hAOnWH6nzdOUf/Y6Q0jSta7spTzySefNGMQlr3kyJ4jlnHJqYYWnrarZLbD6PqNG+TvBQtkyJAhNqNic7B2bduZ8Q7LA8mGUihr0XDJcMNm8KXnLEF7//1RttwOHo59Odq2aysFCxZUztSd2UeqhDPFlHbv2t3cibPNecSExQF/lnP06BGTGjz1VG/bOO2jDz+UO++6U1auWGkuc5lxIi3QZmn1PmTIYOPY2bvE6pey1Hu4nn6g6wPmbrdtm7aybfs2K/8ZOpvHYKqQzmCZsVJOJnGIVGCkn2APiSihNPfZzzz7DHdjoM/gEZVZGEaOLAcrkL9AnNIhjEqZ7TLTxUsbvktwz41hKcuwJk6YKIcOHzJDKXYCxNUyxmV/L/jba/Pu7Ii9YZRhkXz58ym9czeXQ/KGJIs9QVimmDVbVttULE54+VOCL+zSx/LU7777XvvMILnyqivdJaw6+zmpki79JkbPLLFE0vbLb9Nk0KDB5rIeSQv1X61qVS2DwzZTRFpA5jhn2RheaHfpLBIfG0qiNMJk2mdSmCEfm0D5S9roPxhU472Wc67hz4NnKDujG8wSrRBc0O8wFkTiwWwQiQTx3ar9tUGDm8zbXyxpBK96ZWjhXIefnzBQRsqEmvEdfRBD2uXLlulMur8t72PnRrZd9vdciSTF8/H2wLflni732PbPvZ/ubbNx2oGT2PLz0hchmZGh8frPWvaoc0+ykCTQwYIIRRq7DcFOsM9I+1vbaXspKs89199cvrOH04DnnzdDRUCb3LxlsxlMQwNs++rceWxZJZJIpGPEG2v2fvqGsBMD43N42j0geTjjzANiR1qGW6fukXWrMBEQDKyyBw16x1Qa+DQve2nZYy3qj83bSQEdY/KUyWbt/9PPUyW1EvAaNWvZXgOXlbvM0gpRYuMm15WyXrBG6BIwGha/EaXhOwAf9DN/nylTJk+2nUGxjGUPBBiQokWLuB8N4BRlK0EMfmew/DX7L3n99TckFYSEPCQ2NVoM33z9jW2sorNyEy/jjx93zbh+vvfee2zQcUXOlE0yYwyffeYZI2AwD0a49LrO/mXWn7NsoxZ+s85/7tx5ytQ8bn4AYq3eoNAjJdFv3XpPZwC2O1zz5s3knnvuiUUc+SaqFPYNeOihh8zC+aGePU3UnjLVsSs4QIjA+t/2jsqZu0fNH4NlsIvxPIM8j5Mnn5Aoh2+/7RrwDiH434gHOvuR51943vrNU089JRUrVLTyh8E6YZe3MVmwePbt2Sdjx42VCcokLVq0VAoULCTXXFNVrtbAGnLafwrNO2UaAvnTA7uu3taxgyz4e56+V9DUWuxnweoUxNB33XWXufJlxdVXX30lQwYPcdeolywh478Yb3s61K1bV/r06WNiYRtIAgm09qrfQk0FraA8pimjR5g/f74x7aSVFVFFiykR9N6zkxMpo7MFFEWwvgKgnOh/9C1UALY3xqbNttJtyuQp0rhJE7nvvi7G7MaHSMwDk73/tPzi+HQIbivgKf+YMBytT/8Ng99XAn0rMYj8tPYPjTlWP9XTfTqJbdO6tZQpVdpUEW3btJHKlV3mARUqYBv8xx97zOh53359bZvwnLlyavtPSRJDTEYIZCCUibMcCTAPFNiZA+IbTzRi4sMjrogHsRkBURoioGm/TXNatbzFuazc5eam18S3vMvrvOOLVrxriYI+GzTgA4iqTSSl/1gfi3iZNbNtWrdxlEg6K1evcTZu2eJs3LrV2bR1m7Np2zZni6Zx8/btFjgPhR0x59t27nS27iDouR43bNzkLFu+whk85F2nfIWKTvYc+o227Zz5fy8w8S/GOpYePVIOpxv43mBlgom8PZgfBpISX9Bkk15WV+DrAEtjDLUwKqxQvoJTo3pNE68jgndVFm75o7bAsA/jSerSROP6z+pVESyDznd3dm7vdHvMNR7xQxwgHlQltJ1CBQqZqoDfx8CLZ8+uPU7vJ3s7WTJlMZEs7dCPw/LpI3jugXZM2mij5IPAb2vX3rkd7R7tzb1mz3nX/Hf8c75NuyRYmWkaKUeeAbt27HLeGviWkztXHluJ4vuzsPLjES9fSYb/bgDU5xOPP2mqmhLFStj5ooVLnbXrNjvbtu9zduw4EBN2HnS263H79v32m6N7vt+5rt6NSp5T6LG+9oVVZjh5z733K6VKqX3iSmf2nL9NbdGr12NO1mw5nSVLlzvrN2x2xn/5jZMseSonZcq0ztfffG9qi61bd4ZUFwTf8JLgqkD0fPtuZ+vm7c6SxcucQW8P0b5d0cmV8yKn9S1tnRnTZ1ibNBpEmVFsWu4+/DI/7nI8W0DaNVtuWzpqeXaN1Vc78+fOd0aNfN+M1a+rW8/6bCyE5V+ZB0Zao6Gu2iKVlvNOo28urYsnQA81bNu1K9FhayBsiXW+09micSU2bNutbSJCCI+L9K3+d61TvXoN564773ZWKr2udk015+QvvkUAAP/0SURBVMHuPSzPtAkMJ994/Q3zx4AhKqoNyjPYXyP1oXMGmu4QDQkLqC3C2KLTjABDYwwZrJqdu3+4tEb8wyZZPXs+JFdddaWJjn6c8KNxzFqBxhkdL5Lr7Aggal+3dr3M1BkuXDS+CRDhNWhws/w4cYJxmrh9zZSJDVhSGDfJDNI3gnFTG4ZAstxTTameoNpgVoY4u2GjhmZQxs6UGPw0btzYNk4ZNWqULFy02PwamI8Ae0//Q0hDCMR9KoAnQzadIR3aUOzb6dLH3uQpLiAZ+GPWH9JI85I3X16LCzXB1VdfLYsXL7K14UFunDo0CY1mCl8OVq7Mkj0okQuVwbKly+Snn6aa4ZJd85FAedCutMnLSy++ZJtO4aUOt+nHwBqhmETjyaeetLr568+/TJTLNrv4I9h/YH/M90hC2LdpEnzPzwfB2jX/vHM72r0Y4y57zrvmvxP73A0mddO4aIdIaj75+BPXx8TIkfLiiy/IG2+8IXnzY/DppsNAGhMoo3Ao0TCpIOWP97uxY8ZKs6bNpF69elrHc+ThRx6Wn3/5WXp072Hbf2fM4Hr504+6EeiRM36SL/+aXfefUXBOXaRPl94MYNlMDDfdGzduMHUQvh8o+4vyXGQGcqiS6D9Hjhww1Sb1Gtq9NQJC39JDan0/T57c2u8amZHz0HfftTQi6WjQoIEMGTzYPP4hzg+pR7VpWr6OowzPVkC36INITdlynl032Z67UqWrZPiw4ZJSy7d58+a2U6cypjH5Dubfr8KYqowB1+ILJ4hYUWia/KpJTNChMM6g/4553tqsf25H/a3/KL958+aaB0kklcW07eJfwd9mwfqs3/bOUwQo8BkCdRFHIWNLkE6JSqbMmczeAVFzw4YNpedDPeUr7Af0PZdEHR8Yw1auWi2vvf66dLrzDrnv/vtl5+7d5hRp+IgR8kC3rlKgUCHJmCmTEm3EUK4L1JjvBr+dUDogmu67dFoce6RNk9aOrMh4+eVXZIR+s5ESts8//1xat24tDzzQ1azs0VOGWm84gtfjeiaJyJI5i+2shtqC3Soh/oj8EwLi0E8++dg6IXYDwSLBqRNi5JkzZ9pviD4DE+WIrQF7GGzWQQOE6lTj4Xz3rj22AqR1m9Zy7733SpWrq7j3g0ig+CGEv8/83Wwd2CvCEEd5wZiQZxieIe8Osfpi9Q/7Vtx/3/2mgkEfagj/rlfHJzPYN7zv4PYW8fJjjz1q7sKHDR0mN+oA+7EyEe3atTPiZQzmCQKmbsqUn2xnTpi1wUOGSOVKleXNN9+0wZxv2RbDmj6Ybz3x0qunWnYcY5UN173g/ueCdmBHDTt27jBdPHYPrhOjZOamG4bFZxaxGTmi7SZX7rzmtAcmiu/78cQHnkFdBqNj/a5WTXlz4EBzENa0SVOZNHmS7T3SUQOrjXD3exZQyFMGrSVjjOgP2JURcitz1e+5fsa0PdjjQesv2GxZBQXq0+o68Hc6kXBNxw3aQKQQjlg50h/2nP7BwHNh4aJF1geqVK4iVa+pKjlyZDcGmOdC7fw8x1nXNXyC6TfONKlTS7as2SRr1qxmiNKqZSvpcFsH08sxe2DAstZETuKpMGYT4LASHojPAp3Zd7itkxQtUlgZhZHSRGdVk6dMld5PPyNVq9eQnPqt5ClT6SwHb3fayXQA+fa772yQp3O9OfBNZTpek9ffeF1++PEHmz37s0IaDr+tAWlA78tWzM8886wsXfaPHNF7Bw4dtG2nSTrHNGnTKaG8VJpr/gYNeVeGvTdCHGVW2rS7VYqWKCED33lHNmzafEw+Y+mUTxIg/uiU77rzTtsaee6ceVYf1sX4NmmIEFiayeCSJk1q6a0MGMwCL02fNsO2ocZQC108HY/4WEJYWMu//3P9bUZftFhRqVmjpixZukQjdME7pUqVtP0n8EJ6z72dY9s6eGXsJi5wDIDt39mADSPIsuXK2jWbDQfK0d5j0A0MvBCLZcuWmYc+ZhjM6tl6nmWnbG51T+d7ZIbmDTCoI6Ux+GnyAwi/5gcfem5tmWt+HgLPLFq42LxkMpiyhJkZcr++/eS7H76Tu3XmXLBgAXvPDLQgdEiq/HgSCRhETJDmz5svbJKDFAwpwEAdYD/95BNrCyx1ZeDdv3+/MX98xBXg8TEKj2Mg+HnQ4JJf/vQ7KJU51+sHNd+//zFTPhs3zvrNHZqf4uyhon/olpPpB/YfPCAHDh6Ut95+24xH7+7cWQoXLSqHjx7x4tava75tBul++ZhAbzvMHhAajmpGSS3xFy9ewhjTd98dah492SYdJrWoxj9pwiT3Zb+dk5dzFaQ90F/9AHNMmSLlRYpE/lu0aGn7vdCnW7RoIf8qA2G0JpB/n077YFaO9YA4ye0YX4iYEII2CH9AJ8DE6gvat9jrKLnb5qCXOi7wGwkZ9/yQghmh3mfsiBh/hKDU/Zg/8mAjkObPb1PsX0SbwWsn9A2jXTy45s6d22xvXDsfbz8mXgB8IlBm5wwCdDAunFmDSR9xpSBwnYbL2v89u3fbaozPv/hcXn/tdenWrZt0ur2TqQFCmyIFQO5YE4xodM6cOWYhz8xxow7EFSpUlBsb3ORaGCuj4A7E+oLXIdzGY6d2xLKeVQOLFyyQkmXKSPNmzWXFiuXy448/Ktee2Qw62YTGjeuIS/j0RZicrg88IJs3bzGpAjs/Uuyhjmcmyt439RppZQbGM+u007LBDRIArJnZia2OzpjKl7/MDC4ZJFKm9sS2lJcX5QlBGw4d5pAOlGzKhFHc448/JrVq1oop47DvMOg4+h/pZ2Dmt/Vj7dDMbiy/xrXzMDu+sRnWsVbd9pwXeegd/7bfHvgdntfgb+8cnyEY3D3++BNW/vg9iOgyHPCOFz/fJX0wNAzQMDswP8wuGDgxMEN19svPv8iy5ctkvzKmzNiKFikqxUsUNz8ROZWwsLKE2TmB9/D7kSZ1GiNCftVjGIwKbv/+A7YD5u7d7soCjExZnbJy1UpTT0CY2NQGlQuumWG0gJUfkXlpDyJYJAYIWTywuPRv7bq1MqD/ADNWJc0wkhiKXXLxJaZWoH2iYjJmR7+CRM4GBD9TISjh9c6C4LGmTZvIxB++l5x5LpLSpUvJ7NmzLb24H4Y58/PktiVlCnRAQPpDaNasmTKhT0pWHez8ZwDPxQce06oNwd7SC85/uHM+LKtXr7KVVJMnT7bZ9mWXXS69evY0Q02D+5nzD1omVsbaaWn3lAW7crJiBang8OHv2Y6QGAY2bdY0tPoNZpL+zYSA1Qibtm6zOrQo3eqLExRlJLH+NqVxw4a9K7OVVtMWzfhQ6QdG6Uim6ANsYcAs/21lJGmjfr3TDjCkxm35E0/2NmlxYkAqjJcNw14tg3Zt29iKsV69eplUqmLFipJfmavPldFlVVPhwkXMnwN9gj5q9I9gsSoS6HNnLei41GGAHgdx5ldbJISwlNGw2e54n856ILJTp041oo5tQp++z3pPxQb7GnypzMLo0aNNZ02msTUoW/YyKVK0mFkH+4Obq3t3CwwEiyxVyhSya+dOE+dPnTxFrr2uroz++GPjjNF5vT9ihOTJn8+2VkX3ZRyzZmDnrl1G7Jei69fGhfgdRyM0sJDenp7mfc2ua3r4aWJ97ze7pa1ZvVpnutPlC5uhHdXBvKZ00AZ9yaUXx5RVMNHHCVYDIJ5DHHxIB7dhw4cpYzTAVin06tlL8uTN4z2p0O/6ZUfnCZWhdugUqVLYMkGYBAYac5YS3MmPd/W5WAwCIC9evOTfLnEe9m7oHc6B9xuCxvK+7t27u1bQOiDVqVPH0hfLViII75sGfYQ4Vmt5t2jewna6hOFDL8wMjXqxvOozzMypm3Vr18nSf/6RhQsX2MCPIx6YAQZbn3mgHgl+nigrVFIwtzjxoYxQZUEw8+fLr4NWSZ0VF9NQ3La1Z8vlEKMYgEs8IVrub4OflyASQcjIE3HRvtas+df26Rg3bqzMmjXLZqbYPdzUoIEyrhfZIMOH0PG6M8qY+gIwFcwBw8EjPvNQo3YdHXies500X375JSlYsJDZb7gqCbe8AH29c+fOxjiwkgdJJN/yGQfgDyJB8Izfn8PBm/8pTfnh++9k7NixtrSzcOFC+o3mtkQ2f4ECWnfufgSGRJTfOQ23GVk5IjW0yZoOoLTjGTNmGMNw1ZVX2T41H4/+2PZvoA0/9eRT0k/r8GQwD0e0D3z66Sdyb5d7za4A2sPOs+xtwQSgQIGCylwMs77IcuDvvv1W33K/lAypm/ajR554Qrp1f1B/J67CSEVk5mGPtGvXWkoUL2FLMFET0p52aHl079ZdatSorhOKnNZGoHHQBL+phXJ2rraZc555iAPoIpmtYTDFhjmPKUdcTwfovn362OCQKlVq2bZtq4z+aLQMGjLYGh7LIbGZgBBDyF0RlCuSMmqmRysI/6iwIvMaeCqNd6fG0+7WdvKzzkzqKwEd8d57Jq1Ab9r36aeR/8nqVat1wEhjRA9uGe58+7bttu0q3t2QmMAZ85FIzAMIJ3g85xJ1ty0e1sFmwo/f2ywMglfvunrmD6F8+QohvxFBonoysH7dejOiYinjSy+9LNWqVTPdcaytufWUdPq+F/yyCxmWescQ+Om9F8i+ey0m+wbq6RhiE/6eAqkA0h1UIng1pIxY14/EhLT5g9ExCMal36b8sUEhmBFi3rymPuN9ZmgWT1gaw8FMieW569dvMIZinxLjvdpu/Rchjtlz5JA8uXMbMcxfIL95R4TpioUEvnNcCCu3hLDu33XmlZABhAGjqTIR7dq1NWPmZNo+U6RMbem0tqt/bl0jeXA/FKx7JFSNGzeSnyZNkLrX17fBYMvWLbYhHgxbkyZN7DtMFgDXYP6aKfP6dO+njSEjDUj38BPBJ8wI1/tEkImAoJMwJDwsnyNtTCgQPX/15Zfy4fvvy5bNG6Vxo8bGnJQsVTK2Tw2327mIo+mcN/CLzStHJkAsm8czJWoqfKv0fqq3LfFk2/l33hmk9XBUnlTmoU/fPrJ1+85QFMfLPGBQ/v0P30nrVq30hyO/KdNSSploaApM5bfffStvDXxLmccs2v5ulUsvvUTp/+Nu+wpEBwXyqFCC4Km4mIe2bW4xydPDvR6W9u3bmyfZB5R5vVfHEtQW2Bj5jENokLUI3dNzHTa5i5CZc5Z5QDfLTm4wEMwwEXm+9NJLxhjUrlXbRFlcQ3dHI699bR3TUTNTIrs0NOgLwcZtRagQ9L5/bre8Bh7OPPzvxpvkgw8+sP3Uuz7QVT788AMlcNeaUxr0XwcOHrDz95U4oau++667ZdXyZfLF118nyDyEwwiyV032hnYwqBqMCz4QUItwhClCBYPviMsvu/zYQegEsX3rdpO2jPn0UzOyuqH+DcZEXKyzxNSoAyhPDb70wUcsIqGnsTqZj+A5WXWzGwI/g4+EoBeZsc+ZPUem/jzVbCOY6bMC4eabbzZ1ln1R00AyInUEA5f9W5p8HFKxwyOrezp16mSDOnvpu0azccYSG1QWZUJD49tuAuLJTDwIKw9DUuM4UWi5MIigsvn6629MjZc7Tx5T1ZWveIUZxfqOrmxVEjNBe9Etfx8wXz7zcN3/brCVTTAEjzz6iLkJx2U3TBuu3rds2axM/70mAXn22WeMiSM+JCEQ7M7KnJvahIbnfSJcAgGjx7NIHlFL0F9MClm4sLbh/8n1detKgYIFbLC0lRve60YJiNZP+wXGPPAbKdthz7U1tBZfDh999JFJatatX2e7PqKuxUX7th27Q1GcMPPQ0nUfP/XnX3QSUNb8/WTPkd1UJkQMjcHRXtlLLz11zMPePXJr2zY2rjz44IPmJp7vv6WTxdy5ckmWLFnNKRzfNubVh0Xonp7riI95OCe7A4MuOi8GCWwNMOIaMGCALF2yVLp26yrffvutVnQrU2nAnSIK3a8ctN+c3YE4prXEajfaEPw/zkOI1dCTydq1/8qoUSOVA71XPtXBlG1uX3jhebuLrhD7BGZULGXLljWrOcE5XgT5O2uozPSUGEJwcWKEF85XX33NZq+9e/c2hyZ4PTvZQMfM9trMQO+44w6TorDEDRH02M/GWZ6DfSgS3HL1fgDOg7/jwDGP6Hc2bNxgVvFY47e6pZX8+uuvlvdRo9631SowDgxg7ta1Xp0mAkilPvvsM5OywIyyZJhBhUHKJXgMK7FazTGw+zrYGrOaXL8ch2omgWhi43jeOZnQMsdY9eYGN5tEZ/THo0368MMPP8ptt3XQtnGX/Dx1ihFdBgH9T7McQ8Z1puIeNfhtevuO7TYQ0JbxxEmd0bfGj//CmGPsfVgSysD18MOP6Oyvg7RVgo6DKPTxSBN4LtRHwsqGuGE0unfrJs2aNZVBgwZpn7nGGH+kGx013fny57dnfQkfzI3POFzooN2iboTeZlZai7OuO26/Q5o3b2H3YaxR0aVJnbil3ImB30+Ta91iW7Nt23ZTPS5etFgwdocZdBk6P0RCXNeTBpoAEuQhQ96VRYsXS9myZSVnzpy2GihVypSWlhDjEF9yzkOck8wDNUqlZcyQ0QZm1BR4pkuVOrUZtqCXG/jmm8Y4fPzJx2Yxj6gS0Reg4QXG42MRoRHE/unIeu0wGDF+9fVXtnYc9QSSDgjP4cOH5L4u90mpkqVsY6I9e/aaUR2ACKJOWbdurf0Ohz/QQAz94IOBC/E9BBGRLoMbukiYB+wR/vnnH+tkI0aMNFepx404ysb6iAb8NzTSmSMzUDYGw6DoCR202b8e19svvfSi/P77DFm1aqVs3rzJBgj0+qbi8AsyQhnbdzWQZYg3ZYl9C17cMOJbvmK5DiS/2EynXt16tvkM4tIaNWqY62+YuGvrXKtMlOcaFlGi941gecYqV+4He4FexsUzy/ca3tzQJFauxEHrRZ8lXfzjRc7tdwRAALlnhJBHEMZwDD7OeXgZREL4ez7864kJJwteeeH3A/8dGNB9/c1XMk6ZLaQzjz7yiLRo1kyGvjtEVixfZqpF2isqBt49sH+ffPXVlyYOL1H6YrOJQc1Efd14041Ss2YN7TNlrW+N+3ycLF++wtROLP1l4CJgkMpsEMkEUifqmfpEcsAR9dCaVatk7Jgx0qxJEx3sbrcB7uUXX5Jfpk6Vrvd3kVIliintyGxFYwyhnjAI+IMB9ebWud7z8nzeg3wSfJB1K5NkxjQyeUBNhfTnojx5zOU5dYtqjlVISUWwefqBTsY3EV38p/XZvFkLufba60zSxYo5GHkSBs2H/n///Q/aZmpp+ygiZbQ9Pdijp9KdNdoO/Eo7sYA6jmGjUpUqOlHNYufp02e0vMNsWv8GPO6Xn3fpnAc0Kx6ck2qLYKZQGzAwYxiHkQ1r0BHZM9j8NOUnmfLTT7JMBx2IzQ033GDGihh+sWQzhTaAhMRrPlIrccNQxldb3KCzr/feGy5du3aVD0eNkpJlLpZvvv3GxFnjx4+XW9u3VybmSu1o+YSVExN0oIWDxVr+X5tZjbelYAZr6G6Lsxmqwrdx8GFETKsKYrlK8/P9d9/aHggQ52rVqkutWjXl6quvcf3980c8blRJBwUS37t+gfGM9yy2BuzHsHDBQuXQF8myf5aZwdVRZXIyZspozAxEnyNqnUw6w0T1gb4Q6QC6UwYS29tEZ66ISVl1wH4XqBDIJxbNqGZgyLC6LlOmjA0g+AFJMM0JwXv/yOGjVjdY87/z9jumA8+aJaul0x9MQkzByYIfVXxR+mUeRKRrcYG4T2KSj4G2TUgJu2myounHH36UBdoeihYrLlUqXy3X1aunBL4gjxlTyCBhu6pqP6Q8GbA5sucJjAXwmQIGqEigS7h7Y7jPIPn6XZlp1BIYKDPIwViiysMAk70zKDNtbpYOH+xjEC9OddmdzdCip14oY2v7eoSeYXeA+/alS5fIm2+8Ka+89kqS1RZG08JA/BO07bTSyRCzla+++cYkqg8/3Mv88NS9tq49B72Y8fvvJn3CcdiyZUyc+plzsVatbpHnlVFkMpkYWFoiJBYJcvsO7aRggYJmpIu0tXrVqvLiC89LCqWvsVQVgdPzBl7dR6J156zNQ5B5YPMhZhwvv/KK/PHHTHnh+Re8ZWwQpxS2BI41yhjbjNGZCESmRYvm0rJVa51B5z+mkVNMkQoknHm4XhmRDz740JZ3sXwHw5n7H3jA1BR4xsPAMJ0Ojix1W60DYMOGNxvnzCZQVa6+Wht8fvPvYEiAeaCT0WGxa3jz9Tdk5ozpUrp0SfNdwLbDeL5kcDODQOWGQ5lwo0o6EnpX7xsx8dIaDlbEIOVhqSfMAMaC2KDMmTNXZ5LLbdUK0gisuBkoqD/iogwRWzO7ZO00DRQpEnslUKcMJhgt8mxc346FQEWGN/NYhEtP/RUmu3fvkR49ephKDOtuDBoz6Lm77JZHE/HdE4EXfWK6ZZLSwqOnNOluo3GUqIMDBw4pId8k3ypDPfDNt8xoGb8REGFWMbCMjhZO+6CPuAaNro2O5V3TCiNhdc1fhIGGAQS1BcaWQ98dqv3xff3uQbmtQwdp17atScQ8fkHjdN/hqFUZ+g2izEM8sMJzT0PQ8nvz9TeN3iFZZM+a/gOSbvMQJ/PwI8xDc4vg91mzrP8zeWCFDUBNBR2nvUBrU6dKbW3hhRdelOf69ZPcF+WR6dN/l0zmaCxhWFoiJNZsHpTeM/HEJQCrLerUri3P9e0rKX36Yy+7p+cdEmAezk1+iVR7AeIBAzFixHu2WRVSBTKLi1Uyjy61RIni8swzT3v7198nv/76m+nEaRA///yLiTSZIVs70AZNo0R8CYXhN8EnaCCZEj4kADyDOBVvbAf37TO/E3SmtDoIIlVgps3OiOjc0d1BWPkN44DDmxiwKZN+X+PHQAl9MUQTgspGPsOGDTVHLU8+8YTGmUe+/OpLW7p2szIkrDGGcSBtsRiHUwn9RnyDd/oM6SVjpgxm4ISK44orrzBfHK+/8Zp89bWm/ZeptvqElSmE5po3dKfsRrlkyVKzXcA5zWuvvSZtb20rlatUNnfZtqsqgzgJYORJKFAOXuCd4F/wHs/COBzRNrB9+zYzqquhs1UkGji8omLizu1JRhzpjfR3NsL3bQLjXKRIYVvO95cyjiNHjLRVUiy1bH9re/nww49kwYK/jSmmTmEgqAP6HhIJBgRAv6NeAIMGwBgZldiPEyZIly73mg0G6jtsIjDifOaZZ6RMmVIal1ucgL5FoFvH+k0xerQkzsAzFyr88gkeFdQXpcuAjtHgyQJtx617beHK+UEDGcCg60yesCuDkWBpM74ntm7Z4r6oz5MWmFJ7n8o9iYAOMJaAFMEl4+czEsgmzeGcBsu+EJfjBRCVBKJwBlEaXDhyZM9muzqiY2WnTix1X3h+gNx5+x3y7DPP2j4G9poO3gzgru7TLUOI2tp/15oo3VFihuMeCBh327RpKxm14WLr8NLLL+tMaKtej8H8v/+22TjxzvxjponD6CQh6DkMACJcCCe2DEhJUIkQ/vhjltx9912mA8ZwB4c9xjAoQgwDSKCyzzaQdrZsrnvttaa7XLVylV5zMxESVR9bjacMDE4Y2SJeZ7aDJATdZqy6iiIexK4sBn6Y4VSpU5j6ADsSvITC9H7//Xdy1513yUM9esgX2h+xU4AhwnOgzQJh1jXgNZCJAMaWMPjsjPn0U72l020dZeAbb8qll1wqg955x+K4vWNH7eNZhUVG8fC2UZzN0GqHWUyudBCmElUTbQjHgBjF4+APhhMfJE2aNDYmFFrBOMCy9aN6DyNyJnDWHL12FF+wiWEERL4ahY9znnmA4GPbwCwR173oxX1Rpw/O/F8cM2fKKFdXriQPPdhNpk6ZIs/17SOz//rTlm011QY5XQkUokwKx460MW2g/65ZI/Wv/590VYKHYSB6fgb7yhoXjm66du1mYnW2cw4CT4H4Ybj3/gdMFLtr126Pc3dB3HQQZr0vv/SS7anQXePCYQ1i3w8/GCmtWjaXAvnz6WDmcb4x2Tt3oXnAYhm1D7YQeLM0FYYO1lZ/9F4/nGJAsJB84F4b2xg8RrrLDoMtKYq4cWwpWS16euFUaVJImrSprI/e3uk2cwQ0ccIEW5bZo1s3qXzVVfLWwDdl88aNOvinUKbBdUPsMg2H5Yfvv5e6depI/f9dL2u1H7Jc7qfJE6TXQ92lSqVKOlgo02FfigG/EwpRJBJ+YSWh0JJaxvQ1VqXhsfe/QweUETgonTvfY34/qlWrKj/+8IOtroOpz5w5s2TIkNFW3eA5ls3NWP1TVZlUllX6kpFwRiGuAPNxTLAJjN7X4E4g3HP7PykZO09xbto8BLBt6za5/fbbzaitb79+Zlxjoua4EKh0azfeOYPHvHnz5LOxY5UZmWJqBrzMYehVrGhRW9/Lu7buNTATpRFFKsD4hhyaH3HgXRCVCeLb77/9zuwCSpcubYMXSyBZDmRiegYwL7q4Yz03cfjQEVvLj38G/GH88P0PUqFihXjL76SBT3ifwegWV9Qs0WTVxkV585rxKcyeQZ+zej8NybrQsGnjJtsA7nsdHDB8K1WqtDl1Y9UMrtFnzvzdHPKwuqZ5s2ZSpGiRGDfpPuiE0bo5bRj8juueGvUtaiI20Nru2TzEoodaJ54MMU749JRVLzjvQvWEYz0mhj79848sk7z88suNOcDnCBul8SwSClTIefJcFItWJwr6bCR6g+H2re3ampOoRx5+WG69tb1coxO7Af37a1rstfMe8fl5OOeZhzl/zZH2HdpL795Pm7tmDO58G4CI8K/7rZzfGigFGgRHlh79+eefpndnKSKugRnMmzVvbgN6SKSusGgifMstcP8DMTBjH+Vq2Zp61MhRMm36NMmlHaJp4yYmccDRTvp0aW1JUBCIYY+N7RyHl0f2oEANxL4h11xTVevyKVtVQdM8pUyEFzUdhM242rZpa2n43/X/k2w6cGE0Gfq+HqLMw6mBESht4LQDlmaixmKQQP1XpkxpE1ezr0b6DBlcZ2Q+zrsOce4g0cyDgi0A4oPrO8XtXxh988vUsRz1msWn/0EP/MBDPnOATZm/DB+4zAjPue8kCH3cTUFswDzgxwQVprmnbtdOmYdrosyD4uwxmExE/caFVatXmRirvHKjHOFQQ4Y9kYIPzv3nOASODOb16l4nb7z+usz8faYNJuy4x+BOR2HTHAx5eJfvsXFLaI24F9x43UiJE8kGbl3Z9rf1LbeY50JsNVgdwqwLg8GKOuNG7eKzJtZAvUARubGdZ9CM4Q44S9Ys0rNnL2XWJss/S/8JqS9OB1juy0oQ/DlcqwOXz4AGO80pZWIuYLDKxQeGbrgbxuD22T59pF6968x/S7my5VzDvADjEL6UOYpzF7QAAj5szBBb/zHJYuBifx1Uuvy2oH3VGAgGNaUP2KLBOEBzfXrhMhjuMVGw5wPqCqXAFvTcve+FKGLh5DIP4QWcyALHAMbnIu0d6iwh2qDPHTxwyCQEiPoZdOFW41sFkFgQR/KUrJBIaasGHn6kl8ya9YftccDSQtQk6NhGvDdC/ln2jzYyx1Z86IkxEfymURPPLmUYcGyE86am+OwfNEhq165jYvrvf/jeCCQOcmj8dBTb1tsDbd8P9ts9nNsgE179up3cMaNEJDqXXHKxiad/+PFHIxKG0zBmw6iM/ugj83AIA0q9h9QVUZxSYCBrRF/bBW3fnEppP9i/f59tb4xnWKMP1hG8l/RoDHoUZxX8/pzUgCQ3GGws0H+h395zIMjEc82YDO8YepY//3l9PL5wDOy62yZ952EsAz0ddOhcw8nrgdSVW18xoMAjXQ8DAz8Nhj0rEnrWBw2F5To4pMHgLkNG9lN314WfCiBGx5jyheeflw/f/0DatG5trnNbNm9hzAQucP0WRl7YOvzdwYOlVcuWcm/nznrRMQ93H334kfR86CGpcuWVkkrT+582+pRKJJnpGvdsMVx4IP8ZM2aS//3vfzJ06FDX6PRUF4a2NexOWOaHBIu9LKhn3+g2itML6D2MHP2AejHRtV6krx+DaPWcWUQof5PAKi2DDruBXWyVtkHfEhlgGHkvUkip8adUZjMU+B32fijwPO/peXzBf84NxBcTJ/mh/VlWtQ3CuNi5ttNo89MyUA4tkcO1gicDpUZHdzdM2S0H9u83D2+LFy+2sHLVStm0abNs37ZNZw/7bYtX9gxwIxETDTNYZMuWVXLmyClFixWTcmXLSukypU3XnC5dehNVZlSmwGYZYbV19PBR27+B7a6fefoZqXtdXVdHfaqJvlcGeENEzDZ9xnR5Z9Bg+eXXX2zWzBbObNOM0R3qD/xJsEkT3u7IB4QQ4x5EbSbhcGONhUg1EpFLPhcRyFtodqB/lAsurNkAiWWpN914k+1TgRQgvN3Fi7iei1CmgPbbuHETrZ+LpF+/flaHtCOrHx7Q/0KzHQ5xxR/FCePIoSPWd9j+nK3f2cFww8aNtsQTz63hO7gmqV1EcVIxWGkeqxxQx0J/n372Gb0KnYai+ZXid7o4Ol+SQTx+XHzjZDWCYLwam0dsodcYZrIhFrv0QsuvvuZqGfBcf713ot88N2DqoQjlmziDSb3LIxQoR3T9GPv9+suv5sBo2fJlsn37DrNMz5A+g+TLn8/ceebMldOYgyyZ3aU1/v4Afpz4QsfjIl68MJRitzZmf7i3RUzJDpg4RLr44kukbNlL5UqdqbPPAIMJYk1mJu+995588OEH8tZbb+u9oub2+ITb0XEAV9fDhw+Tu+662wwrIXpsX02DY0kR5QbDQNKsmep/8bY9e8g9NUTiMM4HePmkfPhDt8lmV+yoyIZXbLyFsZI13lNRBjqhZX8OHBchEapUuZIyrNl0lqMf88o/1GYBp/HVWxQnBBhyjJVr1aotXbp0kQULFsiKFcvlveHvSR6lBb4RndUN9eAfozg98PoE6tVhQ4fKPffeYztuTp3ys06efjMjb++R0NGQLILkKAEc6/GRC26AsUdNwbjiD1/uXhbHD+anYalWJLPvsLX/FVdcYZNAdhHu/9xzUeZBmQcKP078d9RxdIbvHNh/wNm8aYvz6iuvOVdUvMLJmjmrU6F8RafXQ72c77/73tm2dZuza+cu5+CBg/asj8OHjjhHDh/xfkWATt0d/Qbh8MHDzp7dexxlJJytW7Y6G9ZvcL79+lun2wPdnEsuvtTJni27U6d2Hef9Ue/rc3udHdt3OLVq1HLu6XyPs27tOv32IYvyTOCw5vGj0R87yVOkdMZ/+ZVTqXIV57HHn3AOHjrsHNU8EnxwHvgZGYFysXC+IpBPZRycQ9oGNm7Y5MyfN98pV/Yy58UXXtQ2dDgRBXZ8OLDvgNOpYyfn5gY3O2tWr3H27tlrbf6/I/+FQqx6OEXpiMIF9GP9uvVOqZKlnddefc25/777nWvrXOusXrnaOaK0xOoA+PUQrY/TC8pb6+Co9osP3v/ASZ82vfP7jJlKs/fqNcc5EgiQfQv6/PEEJQehcOjwf0pLjzgHDh1ydu/Z4/Tt19f586+/3DQpSNaJhrhwRAn2gYOHnDlz5zllLr7EefGllzV/8b1xfkEn6jH0LxAKFyzsxDufQ2+PWP6pp54yw77PPhsjTZo0ld+m/SZ//jVL+j/fX+pdX89ch+KkCV1xmtRpTPzILIK9JcwA0GcawwFD46UgZeqUZreQPr3r1piZBmu9X371ZZkzZ7Ztsw3XN3ToMKlWtap5hJz15yzlCi+z76KziviNUw39JkaUSEuYpcKpco7IC5EeE9fg5BUkimflIT+cz/DySNmlwkA1Y0ZTV7E/wcSJE20melLKILwN6jlSM3xr3HtvF3M449reYGnt//GYe4zidADpJrNAd8keImNmuSxtdoPejFbGmQP9UOk19VO+fHmTBrPpWJbMWSR9Ou0/qdMqzU8jKVOm0b7khZSpzSA6VYo4Avf8Z7zAqht2zfQDEgZcQ7PHDBvqPfbYY1KxQgVJlhwnbqx0S6EhZRwhlaY3nsB9fc7iCg8aN+MK32bHYOwurv/f9XrUgoi2wwhqC/2FGuGv2X/JO++8IytWrLDla2zAdEXFirakjoERYm+7ivmEPUjgiTFS4fKMf91/Xn9zKfj6MeCm9wAbTs2a9ad8/dVXJta+6qpK0rPnQ7aMEvEKok305yER5ymGsq22e+RHoz8ytcXHH38szz77rDRs2NDWBmOAB3wpF6I9kCipV3hZnc/QvCKOxIAUV7QM7N27dzf33I0aNdLOHKEQAuVDPSRk72Irr7S58xzqN3YDnPLTFHn5pZclV+5c5miMQYq2HUtV4ktdiT7+T0RxAvDtmOrWvU7a33qrrbygftjUrmDBgkq0dTDw65hDgoQjilOBwwcP66CeShYuWih//TXbBtktW7ZLah3kTZWgf/Qfn/2mz/nXwmETLqXXTBwYig4ePGRMIxMu7sUMT6gr8MK7VQYNGiSNGzfWNlHYJhs8F9NZXSxbtsxs8hLTPhjPSpUq4f2KDBgHdmYtW66sGVVa1i6Atmd0NUJGI9o87Nu735z04OOfTaSQOlBBvM9sgKepK2Mc4hufiTVWzCcIvgUR1yNEBiPM1atXW/pwZ4p76DvuuNPSRkWfroqNxDzgMvXmm28+hnmwIvHKxNq7hziT6pffacrLGYXXXpDWsN/F1q1bbHv1b775Rn6e+rNkzpo59Ew4fMLEu0iw7BqNXgsZSRB2NOzsSWDfEBgHvNKNGDnCZk8wnninK1G8hJQqXcokYAbaG2VPuJDq4gwBaSUeY5E4tmnTxjbAYnttbGAKFy4cZR7OEjhHtW/5xqsBaJc7BpHonP+Y8gx2nyPDUKqU7hOhaPQk+P4h7d+LFi2wrbEH9B8glStf7bmhBjEP+rSWdwOvRwRp9se0sKHwGND2EorvfEOimYfZykUy8EGE2XGyerXqNovngVQeUY5FUH14g3os8FJ4XfjP+NfD7wPvGRoot22trV6DcfGlCZwfNidCeq7pY7OdIe8OMQLz+GOPS/ESJfSeZjk8TXGBDx1bPolCiHn4CObhLvnkk09CzANbZsM8WFq8+P0O5v8GcX7aL5/jTNs5BfKqgZk/g8juPbtNpdCpYyd54sknpX37W80lMXUPaAu0EfxrII1atny5MgkrbHOtNf+u8ZiF9cooHDBVGOJHmOA0tjOeY6s6YCLw6OmqmI7aiqG9+/YaEcGHfkltRwV0xltIA3sywGAULlxEZ1fs2uem94Kom9ME1J1bt221FVQtWrTUK475Q4F5YJda26I7XGQcLf8zA6/tM7t3jdj1p9LbIF07WWCEIrA0f968ueYFtm+fvlKjRk3t2+7k7LTjAun7iWIeWD3RqdPt0rhRI5M45CuQzwqIl0EkTjMifEaC19xXYxAczCPdB/qMDRB6D6KOs6Cg4yQD7wWSw/Pr1q6T/v3721bPrMIoWqzoMc/FieBzCb0Tdp/yYZfMGObhU2UenrVVFy7zkN46lC9S5/VwxPe5Cwpe4cC87t2zV3bs3GEqhblz55pk56K8F5nIlPbw779rtaw/ll9+/sWYhc2bt9hGYqVKlpKSpUpJqVIlbXmsu+w3XWg7XSQR7HDKjHb7jh1y0003Su7cubUOkpnlOPYrfHvrtm22qgiGhD1PVixfYXHl0merVKlsS0mvqVo1xKBaJ/NnxVEcF/DzgtrippsaKPPdwGaV7DUC81C8eHETlVsZ+50oWtxnFxKinfEg3v6j8TJMQRdYgXNbh9vk9Tdel4oVr3CZh2g7OGVIkHn47ddp0qNHd9uQ6fHHnwgRxMSCJXYMoOxPcMmll9hgblICd5IYAgZPbL3LDBLdWKix+cQA6GsQdwYDtrguXryEcZwRN8IhkFYvngP7DxgDhNvnL774XPLny2+eIhOE9z6Dxtix42SRvs/GSB06tDdDUPDlF1/K9OnTbYB56KGHTEcOgswDHPGnn4yJMg8nCi0k2hQ77LFp0k0NbpLn+j0nVa6uogP5fNt5dObMmZI1W1apdFUladqsqdSqVcukBfv27TVGEpsJ9LF//z1fli9fbkuBd+3a5XYGrZBkypg6ZgQhNqOFIcmRPYcxnZdeeqm5RC5foYIULFjAmFgkXEgrGMww3mVrdga0Bx54wL6dK1duZVC0TUcr87hBnVOuDW9uKP+rX9+YNYy08fPAkl1zGR5lHi5MaFfFTxCSh463dZQ33nzDlk+mS6vMQxLHqygSj3iZh/179zsdOnSQHDlzyptvvJF4CUMAeAPESBBDFja2yZvvIreDazB9tBJrRMQTJkyQgW8ONB3zE08+4b4M/E/q84sWLpKPdUaJ0RwzDewGbAD3CUYQ3jXfyA3ulG2y2f4an/jPv/D8sUxHBDCGMJAQx08//STNmzU35gZDrdp16tjgP18HrVta32LeLAcOHCgZM2X03o3MPNx0003yyMOPSDrljN3Bys1kpGwkvcTPczCmK0HYs3uPDSY4b0L6gG8PBpDqNaqbN0j8fmC7wL258+bZfv4bNqw3fx+ZMmaSQoUL2QZLrAbKkSOnreJIly6tzmjTyNGj7t4ZbOxDW6MOYT43bd5kO50SYDhYOYPFN3susN4bvyMlShQ3exs8U7LrIzsB1qpV0zbWqnhFRWNGogQt6Thy2N2Wnv5HHeM8buSokSZJLFO6jMs8BNUW0Y5zwQAVJVJo+vptt91mDCUqR7Mpi7aDU4b4mAcZ/eFop0L5Cs4/S/9BCJFkuD4gNjtVr67qZMmc1XnnrXdszT5rQQn4edi+bYfzcK+HnWtrX+soYXUefeTRmDX0LJnVwO+JEyY6l5W7zBk18n1ny+YtRG+wtfdHlUUIrDn1z2NdB3pc8PdCp+o1VZ05s+eYn4oEQRp4TMOKZSscJVpOzRo1nUYNG9ltrhNP61taO28NfMu95oFv45ti8KDBkDRHmQfn8ssudx575DG7Tv4tfR4sqV7gasydKELwCmXblm3O448+7igj6KRMntLp16efs3L5Smf2X7Odxx59zKlY4QonX958eqxov3/4/kdn0YJFzr9r/rU2uU8ZY2uLfkHHV9jePepq/74Dzq6du501q/91li75x/nl51+cfn37Wfu9KM9FTqkSpZz27do7036b5mxYt8GZ8OME57q69ZzcufI4d95+p7N181aLi/Xw1s6jSBTw6YGPl+vrXe/06vmw8/ZbbzvlypZz/pz1p6OMo5VnouoyivMLWtfQX/zAzPx9plP20rLO4oWLnb2790bbwSlGaGwNC+bn4a2335Kbb25oxmCxEGmKHAHsiMjOk2V1Vla+/OWmmw4tkdHZF1zLt998Y+uBuQdsqaev3/K+g4EbNgvsE3HddXV1tpjdrmvjcMXL+pwm2x53/1doFDarRzRAdFzWbzIzRJyNNCBRaosA4G4xnsOiF0nJ+C/Gh2aRadOms3XIUZwCeFUKUBGgSmvZqqXVIS6/b7/jdmtrSKyUqRMdsE0vPnnSZNFBXPr07SN1atcW3JsjdULSgJTB1Ge0DT/EB00D7TJtujSCW/R8efMah125UmV55NFHZMKkCaa66Na9myxfsdyWi7Vo2cJWcIwcMULefustmTZtmtlC0G4OHNhvkg3LG9KUQB6jiB8syzNJg/7RHhKuvCjOf7gdyB8/zJg/2qfOGJJjnc720IhaTQVMZSS2QvQ59qx48aUXpVmzprbEaumSpaZjRn8JIN633HKL3HDjDbaE0q1wGAJ9OUDUv/zqS7N1QCSVPXt2Ix4uXN8NPMN6YntcG44xH967oeClHXXHVZUqmQoi0Xnx4rANXbRxMmAwOKDTXrlipTEoGNuFGJfjBHyIH/xkR6Hw6o42MGzYMOnQvr0UL1bcbAyuuPIKs6fBLwMrJt4Z9I4ZPD75xJNSrHgxSaGDDEiRyl2i6xIXvZCUwg1WhpcW2h1uxbGHsMvKyKICubvz3ca8jBs3znbi7Nu3n9ldYOD52djPpF27dpY2rm/fsd1t61EkDlpUMA0wXaif6HM6+3EnCd4jUVyg0LbhTibdnXj9qWQUZwbJ8ZeAPhddIt71QnWRyJ6KDmr1qtVSpUoVc+bDUitWPBw5esR9gHgg5Bp17O6v5/z0Lr3//vumLx70ziC55uprzFCy2wPdZO+ePdZgeDf4dkJgX4w1a9aEmJh44aeDoA0To8hMmTPbqpONGzaajQNMD+t8IWwnhOC3oggBuxXGWByTde/WXbp26yq9Hu5lhlE9evQwacIUZQZfeP4FqVevnu0ZwoDiGjvSwAI40bLV90237tWTLyUzplX/aI+p06Y2A85HHn1UJk2caG0fhgFms13bttLvuX4miejRvYc5O3IjcA9RRIYrWdSBQZl/pJfos6EjtI0ooqD/QIdxJsfyUCaT0U515pAczn779u22TCok4k0kqMgxY8bYBilYRl9y8SVSunQZWz4HMICC0IavugjHoYOHbTOp2bPnSImSJeSTTz+R1197zYylHn7kETOUSxQCaT9w4KDNUv87gVkfLknxMfDVV1/J3wv+thkQy4WiOPmg7X388Wh59dXXTLJQs2ZNuffee833CA7L3njjDVv5kCFThtBgHif821T98Vd/ZFjc+l+oTTtmFIs3zC/Gf2H+R3BhC2Pz7Xffyp9//WnLTX3VVxQJQOsLyRFMA7NLBgj6HYxFgvUexfkL7U9Irl0pnmNOCpEQ6+UozhCSs/Plb7/9Zh3W9LM+4iO6eo8ZPVtuo+OdOHGSOfNp36G97NnjurbGxbXtN5EI7Ny5w8STTZo0kYaNGkrhQoXNyRJbof7xx0zZuGmjS7T9EBe8+zA1S5csMWbGdkg8TsD4dOvaVS7Kc5FJHxBZMyicENy2H3/5XkCgjGlLU3/6We6/735lGO6RMmXKmO0LqyOwk2nVspW7asZrd/8djbvwuI9HygV/L3DLOJ7qWvbPMtm1c5f3y8XOHTttxcwXn38hn4/7QsZ/Pl6+HP+VfPbpZ7Ji+UqLjyYAEeNbtAf8EUDYUK98qowv7bZXr16yb98+eeWVV2TsuLEWz4Va5wz+gCW0rEBav26D/Y4EigiJA7SIOj986JDZIYVunmD3i+IcRKjPuT5gUiR3x5UoM3lmkbx69Woy9N2hsn//fiOEfkePE1qBDM7ogRcuWGAOdiCYzAyRFOBhEc+Aa9et00cjL/MIh9k4OP+ZfpkZHYwM77KOd9u27baEzqLxQwIgL9g7NG7S+IQGe5v9KAG78847ZfToj2XJ0iXenRMABNAPFzI0/zAOEAPsZp4fMMCkTjANbFRFG8DGoWSpkjZr9wVIzDjiq1EcOmFz0LNnL/c9bU9I1QASLr7LsV/ffsaUwEAY9BHSgxQOuxsYgMZNGknDxg3l5oYNbJnulMmT3WdJiybCTUsyTau2W65pHOyP8eijj5pqpX79G2w5KeetbrnF/IhcUNAyMYmm1uWM6TNsee1rr71mhqQRoc/TXVENMpmAIfNtHmzG6Vf88XfpKM5RQMeNYVdGEqYhNLbQ76I4I0jeu3dvWbVqlUycNNF0SVQMxzih9WUVqYRy0uRJJl6ms+P3AOJboEBByZs3n0zWe34lJwSYkWpVq9naet9WAlqB+iNfvrySM1dOu5YQ+P6+Pfvk888/NwdD9epdf0LcKfmCy617XV2pes01OnhMCQ1iUZwgvHaEfnvO3DmyaPEieeXlV+SDDz4wvwsffvChZMuRzSUOGkJ7GiSA+fPn2w6ZU6f+ZA6mUIv6K25Sp0llUrInn3jC2oj5cTh8yJVk6CO0lfXrN0jTpk1k1qxZyhwvlEULFsmPP/xom+LQ1hOC337Z+e/qq6vIE/otVu6k19k0fkMuNGIHsX/11VdtUoFEyd99Nj4wKMAw2MomfTYkeTj+rhzFuQ7ohR4YK1zVBU3DuxjFGUFyvOTd/8ADtsX1+vXr3AEfzsAj2pECFbhRB/rRH42WTJky2QALUaBSU+tMHWkEFvNYztvgrf+YYS795x+TMLDN8qFDB22wZ5Mr0KVLF/nuu+9k6k9TZc/ePfL999+ZrUGzZs1ti+5YaYgDEB28/0G4O3fuLNmz6+CTGGicfjqwbUAcPX36NIuPf9mz57BBgFnQCXMPNHY/XOCg/imHP2f9KSVKlLBNqsaNHScPPfSgOXgKLfnV4NZFIESCRsfy2k6dOtpPGIUgmAXjrZTVEkgWWKXBrDh5wDFamTKlrS/ALODVkKWfn346xmbN5hglHCTHO+UEKQQMESoupHEsY96xY6e0aNFCpmmbwv31BQPKQ7k3duVl5UmVylWMRsTVhbB7YUDAfgomDJfirLqC3thL/nucch5HPFGch7A6d8ymyDY+BDHdNopTAS1zo7txwKZkbdu0MU+KNWrUkMWLlsQYBfodNBDotKxAwL6BlRrMEP9d+6+3CiGZ9OnTV/75Z6l5BnzkkUdl/979smnTJql/Q31pqQS0QP4Cpk+uXLmyEWmYC1QDLIvE7fPTzzwtpUqVNl0xs5Uu992r8brfDoUIYM+DSZMmyWOPPyb33Xe/NNHZIxa5iQXpQP+NV8NHH3vUZr+7du+2BkrxYTz54UcfStWqVd0XjhdE5ocLHMZYKvDWiIpq566dsmHjBqlRvYYRitDKFq/O4ys6GJGFCxfZDpodO3ay1RjfffetXTcmRIEEAhVCkaJFzGsk8cA8BJFNGU62fyZtzH7nzJljUrTOd3dOlM8Qd+c9jVnTXLZsWduPY82a1VLn2jq25BefEBcSWD5b7rJy5rrbum88oz7GkdQH9OColr2rvsC6XmebwXfsNHIcUZyn0Opm4smW/b7kKr6BLYpTD6OGzJQe10G39S2tbffCsWPHysFDkVc4UF358uWT73/43tbecyxYoKDNMKjYl15+UdZvWC/r1q+TF198UdJlSCe58+SWHyf8KCtWrbBlnRs2bZDZc2bLk72fDDWE1GlSm1OgiRMm6mCySn744UepfW1tu3cMnQjSEZ2U4JJ62PDh8uRTT5rEoVu3ru4zei+xgHAx42mhM1KYB7YEzpwlk3dTC0pnRTAkzEijOEnw+j6bIWXJksUYzowZvBUy1B/3OQbqOxa478XBoPTKyy8bE5o5cyZp1aqVMsKLbWdNd9c/NxKfYYkT+pg9o8ejOmghyWLvCrbqdnxDzQSi8MGghxQOhgGpBbPpBG2KLmBACmAeoAlMYIyx03qFgYAJNMbDq4IoLizAPNKfYCBcBjSKMw13KqWdFpuFZ/s8a2vqBwx43lY+YCBoHD/Ekifpy/x237LrVKQRW70WPtNPFWnmT1wB+MyDD+KwNbz+N4A+chA1h/5xRH3Ats3MKP/8c5YZuPV/7jlTV9x15132wjGzlfig8ZMMZjqh5HDkdbLLjMhPkH//eOHFmdiknffQcmDFz86du2x1BVtxY2Fvy4aTUE7r16+XyVMmyy2tbrGBpsu9XcxZ2coVK+x+UDXhw6KPgxBxmX0WMLy9p/M9bhsJxBHvrMeS7q7G2Lp1q6RPl96kb7SvkDQlimNAmVIfqEJNRahgGazVEeVP54yn2KM4n+FWPO3CpdOuxNouW0f2QhSnDe6I6HVIBm2YhvHjv5AMGdJL40aNTVe5dOlSE+mHZk2BSgoNqpEQoaMnOPOL43ZKW/OdzDaswmqd3RVx4sQMs2iRojJ9xgxTjaRNn9YYANKVJLEWj/ohCD+v/vUkRBkR0YYegm/zgGv0uXPn2KCRI0cO2+AqVBfxlXegHPE4yYZXbM7Wf0B/eW/EezbT//Ovv9wHfISXe/hv/Z4xxHr8Y+YfxtggFYmF8HeC8NILkVu9ZrX8u+ZfKVq0qEyaOEkKFChgeYwiMnxmH8dfbFzmG0rGxeBFceHAJwO0BWwekEoZ/aBp+CGK04pjRn6WYGKshtX7Sy+/LCtWLDcdMuvWUWfgtTEWiCFUs94xqUjEexhOsWPn0KFDzSlV164P6GeTmWfKl195WXLncrfIJi5jUEiTn64ozkpQTzCk2JMsX7bcVFrsRjpgwABbKXHk0BG3bUSqy8DvA/sOyM8//yK3d+okNWvVkjp16pirdAz1Jk6YEFqqmRRg2IiXyOvr1ZOChQqaw7N422kgjahIkHzdf//9pu9HdTHmszFSpcrV5uTqggHllYi+7YOBwVQVyrnh58HsVY4c0WNU1XPBI9Df3S0EUtjkIMpXnjnEKTbADuL66+uZc6QPP/xAcungjOtdLOJbt24tE36YYKoDYBwgRyhFIgkGgwZEnXdNRBmkD0Tjxbl963b59JNPbTDAJ8Ubr79hgw3L3l57/TWpXKWyia9C6g+/kQWI+XGD9ymhIIN0ovDji7PkLyBoFcMAmmHhRRdJl/u6SNu2bW3g7aSMwIGDAf8ekeDVz/oNG2TVqpXSrHkzqVatqm35jmFrgwYNzGZh5y7PERRNindoX0p18CtiOtTgDMYDjDI2PTc1uMlVo+l7NgMOPEOb489myHqfFTu0awa+559/3pxVsRT6o9GjZZemoVnTpt6bFwC8crKy1b5NnVLeiJxtxQlF6fXxEPipIVPGjKaSZHBA0njEU2FEcQHDaypmzK/9kIkH/dHIvk9POY/itCHuIUwrAsKYNk1asz5/5plnZMniJTbzR/T68CMP286VN9a/0ewk3h0y1JbJ4WZ62bJl5k1uy+YtsmfXHjmw/6ARA1N7wCRogPCyh8SOHTtsR03emTVzlhlMDh48WB56qKfUvfY6qaYMw5tvvmmGiu8Nf0/++OMPeaDrA67FPDovH9HB+NyEtjOWNbJKBlfUX335lTkSwvcI7YqVPYCBBmLhi7b9Aw6mPv98nBlbgpCLdQ14KuT5IUOGGKPLoE57JO5l//xje06sWLFCNm7cZMuK7T0FSytp52zoxmoJwEyH/uB/NwikdUgb+DbGke+887btBvru0HfNloNVQ/369ZN8BfLFZpLPZ3hlyXHFypUyZcoU+eWXX63Ps6EYfjQoZ0OgTKkvBgYYMitzpRO2dDyKKBQuDYjibEAyJcraW71f4fD7rN43B1J6hIBSfRiAQYRx7LRw4ULT7a75d40xA7jlTZ0qta1eSJsurS2LQ0+FL3LiogEcPHjQ9qzAAPIQEgy9xiwjU+ZM5p4az3zsmMjKDmwa0mdIb26A40zrGQKD2t69e22wuPOuO821cZ8+z8pNN95kDBYDmFmQJ2TrcSECKuBTAi0emMaXXnpJXn/tdclzUR558MEH7dZjjz5my4iTe+u7rSS1KbH64bdpv5mdA4wpLs3xp8A9mIGXX37ZllriwZS9J0qWKCkz/5hpW3iz2odnChcpbO2t3vX1bEUFgEkmHU899ZTky68DfjCdikCSDfxGrYZL7D59+ti23Y8/8YSUK1fWDHjLVygvr736mrvr5wWGo0dY7jrbmDQ8vzJzZEKSIWNG26Y/a9YsbgFqnVGHLJUeNnyYfD7uc1uu3aZtG+nbt6/Ur1/f/D5YoStdMibDJUhRXAjQOkcS+fXXX2u/fsUmDNginY1jwnmDMLoXBKvH4mcewsBAabMvntdgS9e0A9OHg3HgTpp9L5YvdyUQMBPstgkDAvFgFQaW9RjH5c2bV4oULmKDRSxJwjmCJDMPwUmUEswoPGhTQn3V59k+8lz/56w8sV3oeFtHmTR5srkI7/PsszEW1pEQ3tiD5ZvQ5DWsDYcQiJOu4q/aoO1bneo/pBoff/yxu/untucvvhgvW7duMQ+nVapUlpEjRkr2nNntvQsG4XURXr7h9415cJR52C0ffvihSX5QS6K+QuqJCirKPFzA0LYC84lnWLZTYM8bXMHHSw+iODGE99EAYB6SPHyhI/bB0jVbbBFWeUgbChUuKLVq1zLfCB07dZRu3brJww/3kieefNxsJ1he2ahhI9NNFyhU4JxkHKI4iaANaUNFJYU3zwd7PCgvvPCivPraa/LWWwNl+vTp5t64f/8BtgoCp2A8z2yVgdyCDu4WDyExLdt/lpAIwDjY97QLoI9fvHixDB402AwzSWu3bt2VcfhCJk6cIB07dpRmzZqaNOWCYxxAQuUaLHvvOQ5WhwroDGoL4F+LIgof0TZx5sF6xiTD9r5IZN0xW2DmjRMof/bN2u00adO463Wj4vwoPCDWz5wps6kr2JYbG5ob6te3pbnDhg01I0T2rGDjqwY3N7CBGe+UxsQaI6ttieYUbFLh7dS/7z8T/nw8QATPkuWxYz+TNq3bSNMmTc0Ne4sWLeWTTz6W8uUvl7vuutuWNz9w/wNmqxNSe0RxLCLUhUkTFDBp/nr+6EARhd9GaAvR1nB2IEmSB4gzRmEmuvU7fELguTieDTrdOetBi0XoQgi0XoibG1y/Esm933GCEvdDFMcAF9BsiHRdvetsBl+9RnWTRLDbJit+3n//AxkyeIjkyJ5DnnzySbn0kkulbp268vyA52Xh3wtDLsZRnZmUIDjwUOZ+e/SDD/9cH0cNsX/ffouH+NDXsyT4VmVasMNBqrBv/z5Tr3z7zbe2CghvqjA1GTJksH1Zbut4W4zTtOB3LiSQb7+tJ7YM9Dkc1gGGCRgIf9+cKKJg1Q77J1l7oE0F2tWYT8ZI92495NWXX5V9e72dW/UxVOdPPv6kPNzrYZnw4wTXXX20OZ0wkmklRIsxMaCU/JIKNlq95to8jJY777xDxnw6xjx13njDjVGDyZOEab9OMxsIXKFjU3BD/RtM3YUhJMaJGD+yFTdSCJYB5syZU3Lnym0rclgCmjNnLsmSJbMN7CxBTps2nRuxNn1scBiceG/b9m2yfdt2220T41+WamIYDDNYuHBhKVO6jBk/litXzt7766/Z8s03X5vBcMWKV5jDsvr/+58ZdqbwV31EkWj49kPjx4+X5/o9JyNGjJDb77hdunbtJs2bNTN1qDHm2ueiNg8XHmDox4wZI6NHj7a2gcFkUN29dctW+Z/2P2jBwIFvyW23dbDr2Nx179ZdFmg/HfHeezoBKK702G5FER+CY14YXIPJKPOQOAQLEoLlEy29FmUeThEC5Y1PENyl4y4aHx8M7DhfqlWrttxySytbTsxSTJZfcg9pwd/z/5blK5bbOUs5GfDRo7O0EikR/xiw2MeF2mFTrPz5C9hKnzKlS5uNBd4h2WSLely7dq1MmDjB7BpgVPB6Sp03bNjQVgWxhNkMgvW66exZHRKt9sRD6xtCP378l9K791PGMLJaBf8fTZs2DfUlnosyDxcekCbi8+fTTz+VESNHSKaMmSRl6hh379AIJH5z5861vorbACYQ2CgNGzrU6ECffn28p6NIENBfnwaH4bgMJqM4QfiqD0IU8YOBwRscUGeUubiM3HX3XfLrb7/qDOQzqVmzlkyaONEkEezK2f7W9jJs2HDzgorjKZ5lueY333wjf/31l81IWNr5448T5N1335Uff/jRDDHnz59njMnvM37XAetDefTRR6R2ndrGFH429jPp8eCDUrNWTbnhxhuMcSlbtpy8884gWbDgbzPsRCKRJXMW17YndWob1MzYLzqwJQ3wAlp2adKkth9Ma9g2fffuPRJrcyzvuWj5Xlig7rdv324SKCSFMJCxBjdtD7QTJICAlVsYVlsz0f9QeURx8hCVPCQWlJJfUrRGn3DptSRJHoLtN8q6nTB27tglixcvMknA6tVr5J+lS03lgJ6TTbbwKYBEgKXB+ArBgJcZzKw/Z0nlSpWtbiAqe/busXoksCQMqcFFF+WVfPnyGpddrGgxKV6iuKkvUIXQbUKbd/nw24Rfx9H6TRq03JA8/Pjjj9KzV08ZrX2qy333ScuWLeTWW281Y1qTPPjl7B+jOP8Bnd2zVwYPGWwSBRzJobbEJsZvB9g43druVmnWrJnRgP79+yuzP0quvbaOLf1d9s8y6de/n/twFAkjOOaFISp5iOKcBbNQkCVrZnOZDsHo3r2bvPLqq/LJx5/YDpvTpk2Tzz77TPr07SNt2raVa66+Ri6++GJb7YMaI3uO7FK0WFGpeEVF2xDuoYceshUc33//vXlEHDPmU3NAxW6tzGYqKbOBzYVvOGyAcPkhihMCM0n+KF8YOlQ/yf1zHRiMAY+W84UJ7e74gaEdwEDC3Jv0KQCM1lnVRxu66667TEL4xuuvR9vMKUKUeTjdoMT9EMVxw2wWmOFrsJ1dPS45TerUJu1hlsqKjJIlS0rtWrWl9S23eL5GHrZVEWlSp5Ee3XvIo488at4n0ZWyK+vl5S+XvPnyKlOSRTJkzGArJmAUWEaaqFVGpCNav8cFq1PvaPvdaFlmzJDRJEEYupqMlBDFBQcYAph+3Juzey7twG8vfpuAl8DmCKkg6kMmA9OmT5OPR39ijEbU7uzkIkriorhgYPNaJSy4pYYpwFLbGAPP7fVJQZQ+nRSYjYP+Mcv0BwSWQUfL98IEjOORI0eNqWSDNeMUfERqE3qtcuVKUq9ePXnwwR6yefPmEJMRxclBlHmI4tyEP7tPKIQRFgahvfv2Srq06UJiT18FEsUZRqCu/G24YR4YMGAkoozDhQxHjioTiQoLOwfbLI32EEebOHTwsGTMmFF69exlS69xec5eS1GcPEBeozid8ETtFqI49YC4eEwEsxdjHvbsNQ+niDZDulP4h2CI4vTDK3e/XvidOk0a88MRVE1FcWECJpLNFNl0EdCfj0Uyk1DgSIq2UvaysmaztHTpUtnPVvBRnDREmYcoLiC4agt25/NnISGjKw7BcK7AH1ATGlQTun82Qcvf9uvTuqF68N9he+qca3UTxUkD9g3YO7BVu62w4FpYW9i8abPt4IrjOCQUvgdjbJquvOJKPTuXOsHZjyjzkBScDOLlx5HYeIKDgx9ONU73904jmK1ggIdIE5G4zWhPtE7PIFzfB+QrCRV1FtcpDAP1Qn5c5sEznrSb7iEE8hEpRHH+Qeve35U5OTYPETBx0kRp3aaNZMiQ3vxAGLQ9ZMiQUV586UXzPhnFyUNyOmk0JCKE/8XxzFHleDkHx9wnBP8i3Q8GzylOoq+fjEDc+nfokM72NC9mrBZPOvz9I86JQHp15oIvB7xG+lIHvRP5+bM1UB9enbjw2lt4Pfm/A88f80w8gdn/qQiRvuUHZpisrMA48tDhQ+ZKnDYIrK0F/yK8Hw3nZ6DdpEydSnbv3WOOwxyYSr12VNuzH1q0aikP9XxIHtTAygx7V//o5ldVukqqVqt6TLzRcHwBRCUPUcSGN7vbs2e3TJ40WepeW1dq1aol69aud28o2DCqWtVqckXFK6Rr167e1bMbtHcYO6z4cRKF5MGYBy+/5xRIswa85yHGtd/05/C86O99e/bJwQMH5TDGZkf+8/mMsxNevhBLI304ePCQpNJz1BamutD6O6vTH8UpQ4jR1/qnbdiKi8QivF9EcVIQlTycpBADPedfhGcsMPPzQ6T7wcBfUq6fxJA1W1apUbOmXHrppebR7c477rBBiHv4P+jQvoOtm8aLW/i7Z1UIlfd/Nvj8d/So7D+wX9Knw+bB3e75nAte29m8ZYt5XiQvFSpWkEMH3N0n/Twf1N+33XabZM6Sxepxx44dOmPTe6eh/RxvcOtE/9e2deTIYT0mN8YBxu+I1l1CkotoOP6AIfHZKklEZQFQYblqLY/GnsVt+XwOICp5OMmwwtW/OMEtPyQG3mwsVjhNYGdIvDCygyUug7/4/ItQunPlziWXXHyJuXs+F+A2eNdYErVF1mzZTJx5rgLmIG++i+SVl18xFczixYvlu++/0+tuXmGU/vlnqe04mipVSnni8cclW45sofo7K2H14S7JS5HC3YqbGeaBgwcljbYzku6qPtxsWFaC/cIPUSQI2o8PmM4PP/hQnn/+BdtY7uyEm17cl7MaxwwitQNblet/53JfPldx/jIPMX3jlMInYo7XeDlnFeZ/+jt0T4MPrvvhrIemkQ7aqFEjKXdZOXl36Lu2Y6VBMxXM11kLytkLkBpmLhCgnDlz2G3DOZGRAMgL3vI03bly5ZJSpUqZr/k333zTiCjMA3YCX375lXTq1MnqkH0A3FmlF8cZRFxJYHYJc5DCc951QJkH9NuHPLUFM05ffB3FieHoEdcIdfk/y6V1m9Zyzz33yO+/z4gxTj0bQEPxGotNymAclWnAJsZfcRHFmcP5qbaACGkjM/FtpPsnENyZz7HBh7V3/e0/67d//7m44gpeP5sCnRT7APbPX7pkqe1QyXVbOqc5s7+wd87O4KYWorl//wFzX+22D60bBlXO/RDrvbM46N++/fusjm688UZZtGiRLFiwwAbhnTt2ytKlS6RRw0aSJk0aYzZc97z6VhLzSHzu8eSJtINtPzzAJCRPkcIYBpgHvnv0qOtlEoNXBjhsV6i3SIF7kUKkZ2OHyGk9HwPb0pPnt95+S+69t4vUr1/fJD30j0jPn7YQ3jb1j3RS5zDEBw8e1DaszLMykdw3dUbw+Wg4LcHqQCvEPTufYO3JXepF47I9CU4RjihhwwDv448/ls6dO5sns759+5pb1F69epm+2dzqKsInTefCHKr3U71tR0l060/1fsr20v/pp5/k119+lfHjx5s0IrRJ1NkKGAStJ4jjpk2b5P777pcWLVuYRMVXu1ge/J5wLlSMB1xtwzi88PwL0qRpE3nkkUdsU6C//pptDF/Png/JpZdcKh98+IHc1OAm763EwS8OaAXSmqlTp9oy11MJBge2VB8yZIg0a95cFi5cYOv3kaCgQkN65BMv+pVfVf41/vfTHQ5rpXHdBBoZjFbVa6pKpsyZzql2kCRoGfj0cffu3ZbX2zveLqtWrZIPP/rQVJJnDNQP5a5zE2MmlVmkav+a/Zd8OmaMjB492jana9OmtTRt2kwK5M9nr4Fg1Z6vVXdaQYEGCzWA4sWLSzLl7uO4fW4DDvbjjz+RO+643fTcpww6Q0I/iyGeuUz1iJgLbcImXo6jiOEm7FbgPs/6XAaXA+/6Ilv3Ffc6MzS2iF62bJmkPAWDeO+nnpZixYvKrW1vlSU6k23ZoqVccsklNlB9/fXX8vbbb5u3xrMaWlTu7Pk/JZCrpW3bNtL1ga5yc8ObJVWq1JLCDLCUmAaZTIo38PNsxf59B+TmmxvIe++9Z4wDwyk7g/bp00fKXXaZDoTX2GZfo0aNso2/kgK/5VEMv/42TdorA7lq9Wr34okiUtkqg2dInkLPI4jPrf0TYlLmR+MzD/Eh0ieD0BZix1UrV0m+fDooJfTCOQ7naEybv73T7bJa+wZM5plkHlgRlDxlDB1jkvLkk0/KtOnTpeIVV0iHDh1k7dq18sYbb5iEqrkymI8//rjkyZMnRDbBeV51pwd0hzi6VYkSJc5f5gG8PfBtE8uxk+KJwi9H37YhBC4qg4BTksM6s/XB+vSUOrAfUSLIMRKO1d/q72AH0Ljj6gQ+sURU/eqrr8q2bdskdapUsTrQyYBJHooVs50oSe9LL70kTz/9tNx9992yfft2GfLuEO/JMwiKws+3VRKzFnfrXgCx+X3G7/LNt9/YjDxjhgyydetWy1f9G26Qa3SALVO6tKROmzoUF3xgrLI8yeV6soDUC5HziBEjdca+2qRf7w55V57t86wMHDjQ2mHp0qVk5MiR0kCZjKTAbWF61JPpSrzZ9nzhwoXe1eOHV0WxYAM3/7TgEU+TL5aXompJoRWBm2qkAu4mZm5lwJf77EOimAd9JL5q3Lptq7Rr287KChuSC8GcnEkWuOOOO84s8+BVH5IQVG+//vqbTJo4Ufbs3SNXXXWVNGzUSIoULWoSRNR0HJGATtRn5s6dK0X1XoMGDaRSpUrWr1Oi+sIBHHVI3FS8f4wicaC8vHoJhzEPhw4diuP2OQ7NFcRz9OiP5euvvorcaJKQc5gG0/KHxcOAip4QxgFi54N95WnkKXQWlRBh85mIkGTBe55fvsqDa7FjcX9NmTxFOna8TTZu3CSpIKxh6TtRPN376RDzQNyb9DuNGzc2w8ka1WvIqA9GeU+eOdhA7xF6m025o4rMnzdfhg8fLr/8/IvtoHnjDTfq7KWiGRkihl+xYoV888238teff0rFihXNcAwvdAxQECeOlLvVy0ku15OFg/sPyo033WjqMrYqbtSooaY3uZQvX15eeOF5Y5JKK2P0/qj35aabj19tAfPQokULmT9/vnf1+EG8xzDhAfgDmtsPHNN3Y/tAXwrWQ3I/gYlEQrwAZYV67v3335eCBQt6NiLnPyjvO++4U1avXi3vf/D+aWMesGVAXcj32bzq22+/lc8++8xoCwxDkyZNTEVRvFhxUw9H6oMH9u+X5dqPcUn9+efjZN269XLFFVdIm1taS/Xq1W2lUQgXRnWePLjdLyJgHi4E3jr0P4O/H5JIdxS0PC0uJ3ZwWDahxDplqtSSLl16SZ8+g4VUKVPrG8lNXJ5w0Kg0QccG9LtuMGqr1wh0tlDgwVMI4ieNPnLlzCX9+vaTLVu2mK/54yjIkw6fcSAt27Zvs9lIo5sbSZ3adXRWMk969upp9hld7rtPmYQrpHDhIrZCAWPCIYMH271s2bPLfXq/XLly8s47gzR/WzXf7nKws5nokD6IMMcsWTJLjRo1ZNasWaauS85gC05qHVEYFHgwnNwC8o07GVhQy6VMlcoYOfJ4FldFFEmBtkmktRhho5aoXLmy9H+uv1SuUkXGjRsnr7zyqtSqWcsYXxyhWd0now3EDmnSppMrr7xSbrnlFrPHGjRokNk2tWnbRt+vaZPHPXv2WB+J4uTivHUShbENNJPwn/4ftOZ2A9eV8CY22CCu8UUIkDSXULOUzA3uYO8GmIj4Aom0NGuiCME8mFdEgp27wb/vBxB+7UTD4UOHZdk/y+W3336TKZMny/r16917+sfsvU2bNmYNH/7eqQxHsYanDAJW8ZTX3j375aefpsrTTz8rLVu1khdefEkq6OzjkzGfyshRo+S6667XQSiltYVUqVPbgJQ6dVpGKSvX3BddJH369pWvvvpG7u58j0z9+Wczxrr33vtkzJixsvZfN+9mja/fC9VRhLo43YHtxTEyxJ24NibTAT/3XD9ljkobU4VBJcT34KGDbtqViB5fumlj2me0PevrYcHtH4kNFhcMc3gIfSt2gGFwy/0/t+y9QN0d26/9EJ5G0ecjBP0uzLsf+Jr/fKS0nE/BX11CmR45csT6NmVs9/Va8NmkBla3cAzSM//64sVLZPCQIXLHnXdJh9s6ybp1G6T308/IhImTpEuX+yRrtuy2PPeQpmnffm23SiMJfr0Eg/4zPyA4EDuicZdSZuPNgQPl2+++k8ZNm8pnY8dKvXr/kwe6dpXPPhsnmzZujpWmIC2JhsQHkEwJj3t2HiA8IwMHvmXWuV999ZUyAIrAtCWZ4w3ciQRxh8dPIdrM1EPwd6yY4ythfdyN21KYKCj5tQAm68B+++2dZMOGjSdPbaFRIyrGIyGizHTp0pnoMFWaVO7go/nctn277NeBqVCRQt5LiUd8xZEQgtnbsnWHfPHFeHn33SE2u6hWrZoNngULFZJsWbPadzCGhFnQRFvd+A0/EiCcMEQMxthJIMH4/PPPbYVBw4YN5baOHaVokSIWR6qUbkpixxb716mcJ6Oe2bJ1i9x//wMyZcpk6flQT7m3y72mLvOxQYlyjwd7yJjPxkjtWrVtRofP/8TCzw1FNm3GDGnRvKXMm7/Au3oiIObYZeVCr2GYEAcozbjvBoBUMJEgTr+WUFtgkIdxacGCBXRC4N0I4NTV6OkHDJvNc7QtMXPfun2bjBwxUi66KI9JfpKKYN3AJOBkDrBFNpIjJiJDhw41FViB/AWkWbMWUufaOrbDLTSG/omdUkjiR3PQo88k6A+Lz6exLniIu0zxPBAPDIe+iA0FKhGkEqhFSMfNN98sd919l+TJk8vaNjajxOC/b99SBL8ScxXEvnM+gzKMRMdKliwpyQ4cOBAslXMa4Rl586235GNlHnCWoxOeWDge5iEc4cxDEElpXkmvAFceAmAeEFGvX7/hpDIPccXjzkiUOfLsCrD3YM14UhBXfokXxFGkdn/njl2y5t9/TTf69Vdfa1yO3HDDDSYJweLafxkmALG36cmTAAz2qFckFQBvlD9P/UlGjBxlS9mwJWjXtq2ULVdOsmXLKhnSu0s93a/GztmpZB78T/mEFmLvi2Zd6ZedWsKOHlFCnlKJst4PLUlNRNL83FDu03//XRmzljJ/3t96nZeDEcQws4kDbcgbIGJB44iHeUg0ksA8BAHzcNttHWSk1jXMgzf2xUIiiu2cwi8//yrTdFBnWS9u56+77jq55uprpGatmvY7KQjWHMzDrl07ZdOmzfLnn7Nk+PD3ZOXKFVK5chVp3769XK3fQLqJxJY+7LeFEOOgMPpqJa6MgF3zSj/UbmjvfpsJm3xB8LlMHFaR7rLUb77+Wj4a/ZGmZZXUqVNHbrrpRrnsssulYP78kjo1Nk5u9Bxj809E5iPWjfMacTEPqH0vDObhK2Ue9HfwPpxpkmYoyhEj2jNCrYEGzz/O/QZvFv4+4fbu2bveMb5Zb9JwapmH4BIuH9aI6E362WBnP57vRSoFotFPGPxOy2/Ojx4VWbJ0qUkCMBDduHGDVKhYUapUqazE6GrJmtXzpaHBorBTZRy0PGwFjP6mXpBA/Hf0iPuc/zEFdQvwXEcdk0Ku4SYZ0HkQo2Is+MsvP8sMHUgx1MIw64Yb68vVlSpLWp3xH/3viMeseBk4lSD5cX2GexrskUATTyqj55cQzTaceSD4cM/CiHc8YO0+z9MfMCq2tqWRuLptjY/60XussDii5U5CWLUEu2/9TmGOpLx64+jXlaUrmOkEYGn3MrolwDwUKqTMg5uxWIhw6czCryRwHIlbvHCx7NRBHsBc0scxvGWFTvoM7P8SP4xWUGlekZOcPXv2mjt7VkOwL06BAgXMxf3VV1+tM9YSmky3nyaTFMbM+vU4fvwXymj8ZXUP8++7oc6Xt4BUqnK1XK6Mu6NpNKbCGAI913Zx9L/D1i/nzJ0rpUqUlPo33qD39L5+hD1tAH3fzjWp+/bt1+/8aZKQmX/MtH5Rq0Z1M5auXOlK0Z+aJg2Up5tQ+06I5nEhdH5+I8o8RGAekDogfUgsDh45JGnSpLUGSCNCx0Yj9sXiDDYHD+y3ZyBkELog6CSIv9NoxzxxnFrmIV74hXgC34mrwaGLRKKhxRpiIGbO/FNefuUVmTJlilnAY/RY6apKxjBQlhA7vA8C6iVFqtS2kgKvmKheqC9sRhikIFIwEzB56MVTerMefD0AnkFlQV1CpKAPyShTDySJukXHunDRInlv+DCZMOFHKVq4iHTufLc0btxQMmbI6D58JhFs7CT6OOvKj4L6iI95cE8Tzzwk0wghxg8/8oh5LLVrWtiUNwyYA7eoPzD8xInXihUrZezYz8xJ1ZIlS3RgLywtW7WUW9vdqv3PZeZjZdLqNXGwN72HfeZh1LkieSDdfkbDiuB0AxUIG7W9N2KEDBs2TPvRAWnRoqW0bNnCmAf6XohRtM4dk2DLhraHbdu2m/pk3tx5UuXqKqaOnTr1Z/l83OeSMnVaGfjW2yYtcDe5O2orqObPnyM9enS35Z34M2nSuIlJBpPBxFu78D4QhLY/mBJoOHt5rFi+XN7WsWLGjN/lkosvlu49ekjt2jWVvqTWCYjGQQcgLjJp0HM/7vMc8TIPOqCFF+05i/CMDNQGMfrjj+XLL7+M1c9AUpkHdiPcu3+f6ZaxoTiijELBYsUkW7Zssl85WZb90UFWrlhuzATTZho5DEbvp5+WwYMGyd06wDz5xJNejEFQOYlvjDAOIeZBB1WYh3Xr1inzkDIp0ZwxRGpwJFuLzBgs7A1mzJhhXjvRV5YufbE0b9FCKldhho+aQMtWn2Wm6jMcMHHE8syzz8rw4SOUUCWXTJmySI4c2WTXrj1mA9G4SWMjaJkzZ7IBB2LxySefyL69e2THzl02MLEstVvXrnJN1WtMmpEiZSqrR0s1M1r98JGjh/V9VCJa3yuXy6efjpFJEycYPcGz6HXX1TVHWlkzZ4m/PiiIU1VfwUI+zm/4UVDW07WsWrRspYR9vl4/ceZBa8/qhcFl3rz5ckP9+nLfA/dpvaXQvjJYmYWx1g7++ecfaduure34iP+FvPny2nLKObPn6OByuzzx5BPW7/wlzYZkJ8A8dLxNRo0YKYU8m4dYWbOH3dOzAqTbz6ifNn4nNY3BeIII5jeOeDdu2GgD99dff6O06CdbBn399deb/xRoY2od4HGiZ4z74UN6TGHnDEqmItQ43OAaaTdv1kwnDDOlQYObZMiQwab+6Nz5HhmvNLyMDuyTJ00x5h7m5LfffpHu3XvY2wOe768Dfm1NYjJzlodhrkWscJkVD6F8YnD7n6SgrWh7JD1LFi8x+6CpP02VtOnSWJu8XvtzsWJFlJa4NMMGUqKLUBbnI+JiHlgFk/jR8zxETMONPzAq0HDSpk0jN910k6RPn05SpUsv9+ssGC572PChcl3dunJIO8cenfXC1RIO64z4U50x4XiFaQxrla1NRwph30woBGGrO/xGfQ6AZGJExezfxhHFtu07zB/Hgw8+qMzQHea9EvfRgwYPkdfeeN2WIPpSG3tP/1ARMNgYMdLrXGvduo0ZfO3du0+aNGkko0a9Ly+9+ILs2r1TnnnmaRk48A1iMLHo4EHvyNzZf0mvXj1lxHvDpZ4O+jOm/Sb9n+snmzdtsnS6dEdjJ6HKrMSoJpT46Hl+HWS6d+9mou6Hez1iItvHHntCZ7CdzOp71YpVoQrDuj0EN8GnDn5bOAnfcMdlSvckQMuRIYOi2LVnj0auxFvbQpbs2aVMmYulXNnL5J577pU2OnukjjJmzKQE/Hqzwi9brqzkyJ5DqletrhElM8aPNmHOgCzDxxeCv5A4ASaZzlGr8tgIFgLnwRAfIt0Pv5aYOLxg6eOY4Ese4nosode5z3f8juphwfwF8tQTT0kb7W/P9XtOsmbNZpOkd5Tx69DhNrkoz0Xunio6xDAAYXeTPDl2RDrtIe165tM9V3IEHEmZComBu/cGGcTosnjxosYAYHOEBNfRijmitLV//wGyefMm6T+gv1x3bV1lBPRr+pxN3oKwgvKCnyEFjAPfhn6g4ixzcRl59PFHZejwYXLX3Z1l3fr10uW++5WhvF3eHTpcf28wGn4Y2qX5Ab6d0YWI83appgUvk5Hu2XIufSL+wJ8e4ZD1eYtLryAmZ+DImCmjFMifX0qXKi0P9XxIunZ9QFKlTGnichiHVWtWSz8diHIqNw4V8sXlxwbvO4kMwb8jR9zNYkJ5U6pMoFHTwM90OHJYO7qGw4eO2MwCpoF0MjuA5KNiePXV12yd963t25uYGpfXOPhq1qyp+VBnsHZzq/mCalIPXrmF8u0HLSF3KvmfMXl5lZGoULGCXH755TpIHZYvvvjC1BQQpZt1dvPAA/dLyRIlJFPGDHJxGeWmlfhs2bLZVFD/aR0fxZeF1h0E6z9GE0uDewTuwCW2SycMzuOPPW5u0W9ucLN5/sQu4rbbOsrKFStdNUoonXGk/2QG/rQsjrnOrM9rJ3GGwPP6n0l4TJIW6S/wbEKB9q7/tCwcOXAAexQdOJR4AxxBcQ+1BGv+OWdQelTLlAHp8CF3QyzW9msHlAoVKmralPjb7NGSeVxB/7fAEIaoOnVKZsv6W8sOGQt5t/z7f375WZkEQoSyCwX+wq/xjn8kRHomGAJ/1sYtkHL9876P/t7vc/S/0Df0D5pAH7R+ePiI+5w+T7v0Jzxu/XjBT5cG3mXZ768//6oD9XUmmfv555/NNwp7TtyrDF/1atW0vrJ6KgPqVIMe9XVSrHG6gR8c3eveH9/TP5gC8gTTTv/Yt2+vrF37r/3GuPG/o4c1PUflqy/Hy5w/Z8qVV14hNbXfHdJ+akyIxgPT6ebFD267Cw/8+c8cpX/rH3Ggsrrxphvk8SeekI8/+VgqXnGl0vHnpHyFCkrne8m//661d0gzz4fK6wIKIJkSb/fsPEB4RgbqIIToGydA3It932vc8YI3tEF6jUpLTb79/lvp+sADsv/AARvgENHNnTPHGIRiRYqYQxucnzCoP/b445Jbr8+bN89crd5x113ypDbIY8E3wrjleKDd0QJ1OOWnKdL+1vaSK1dO6+DaqjXVXgXHzvCZgWbNyo5TJSS4SO7YqZOpeX74/nv59bffzBUwxkrsvcDM0jWos+I2QgSRYdgKgjyGg68sX7bcxNqrVq40KUaP7j1kz969dv7FuLFSq04d+fCDDywt9h2N3BdrPv/8C1anECOc1FCmwDqM/0UvL/xizmpHveGLzZlpwVyQ5yOHDhmB/fabb2T27NlSuEhhqaez6KuvrqJ5LioZMiZskBaCl13KhB8Q/IMHcYeuKdA8QMzsjj5AO3BVOqi33HTxm+eA5cWLhzjsOX2Mo1uKroGiD4jxnLnztAwfkkWLl+hbYWoLg/v9hED6+BaDFvuMMPjMmzNb6t94k/ar++XTT0bbPi2j3h8lqVOlMeYN1REib+pxwd9/2zuZMmeWF194US67rJwxl37+DUlUW+jbdr516zZThQx6+x3JlTMnpWR1S5p9xo9yZOIAbIDyyvSIptP6H+d63y9ru6YfOWyDtTKiQH9bWesj0Ani5RrOjdw6cHHI6teFDapAH+U5Szjva7r8urNBk8FQv0mcBJ5lF1ke9wc8gJT0qDIP7jmDrXuO2pC8AtKMagHA5O/auUvmzZ9ny6I7KkOMOgk7JBi6VNSVfZPB1E2eD7//B2FMrffHbVQIRzWtLVo0l5nTp8tVla4y+wdUIqiwatSqLU/17i15cuXWfDhGK+bNniPX1r1WcufJI3PmzJXVq1bKlVdVMkliuXKX6Vfc70b6Pghe98sF2ISAW14+KIe/58+XgW8N1L78rdSpU0ve1nNWd9nqpfMYtONIaosyZcpIsr1798aU2jmO8IzAPCDa/CIi80CBJFDxvGDl5nYgTr/99hvp3q2b7NfZPju7XXppWXnzzTflIR2cGjdpYp2YNon/gXHa6F988QXp2ethmfDjj56O9kmb3RpxCTXeRKQlgOTa0RDU0+AxmOzYsaPpgw8hgfAImJvX2Dk+00A8iEX0BGWk9u7do8ShtVlhFypUSDLrYADIE5061LG1Iys9cmsgkJ24crZcBx6Wgq1W5qGHDnb33nuvltEkeUxnr3jEZLdGPNJRB97EzQYNVnK88OKLUqJ4cdtgCpsFpBMMDjFpcQ/ACKT+tqP+9m/ZfiaINbWOUqfScyU8GGmu37Be5s//Wz54/33znVGseDHJny+/OyhoHOTbAn/6e8+e3W6Ees4zRtzsn/sc7Yzv+A/ZfQ+c22xS24I7YDC4xEg9/GfIF4OXD3/ggljAPHhPalmlkH06ALH3wZq16/SK5tYvEx8UZnyIdZvZIczDKmUEusjf8+ZLnrx5pXLlq2SK1lW5smXlo49Gh8qfulqyZKn07NnTbCDA/fffb+6y2RESxs3LlgtPjZUYkGyf1XCZhzu03lIy0lr5Wi4Z2GxAdpkyAnmwP/qxgjryB23K0S9Lv5GYsaD+weggkvfrghU+3KPMU+p3/bbGb9or4nTKP8bNsqs+9c9R2wH6FqsT9BN2jhQHsN+Nv3FdSmXCkIwCGGbSwrMWtKxJB+nhmwQ/XSB9hgxmpJw9e3b566+/5JOPP7FyqFLlauvHF198samiUqZIbYyJu+pM3/XyHw76tJaUMRF8gno+euigtGzZUpmHaVLu8stsNdVobQfE82yfvmb3hPEzKKRMi6Ntt0GjxnJP586WH9Qm06dNk0Z6DUdxZlBtabB/du63fxDbFsK9zoHyIHVsOkd8LAtfvHixuWTGFuPKK66U4sWK2PP2bCCa8w1xMQ/UdzLlIo+t2XMU4Rl56513jHn4XAdy7sW+b83JPU0ItCh9lHb4nTIPqCjQqVe4/HLJnDWrWYEP6N9fGjVuJOnSpJUFCxdKq1atpF+/fnJdvXrmlGSuzjxvv/MO6dq1m1bIfybeg4N2QTqSwjwoQaXj6ZFVCHdqvJdfXt4IHmk8mxDsrBDBHDmzy+YtW20QuOyyy2zPDDazMXGnJp7BjKN1egVN14L+9OOKXY+xAfPQAeZBB6a06dObimL3ju1Stnx5ee2116Rw4cJGUK0+NSIsuzvffbcc1AGedeC3tL5FOnXsJPnz57f4+KafFv8IGAjoVHZff8fc8QZhvc5KAIg+/gPWrV8nI0eMkq+//sqc4lSvXkPjc+M34q3EFgJuHVX/4eqcr/BNiCB5ZpCEuAMj/krgAdf8rcWDyKAEH+c7IGUKHQg8osig4BN34uGexau/GbBJDwOZX85srvW3zgAf6vmILVe1+oiVY9ITX60ovNtueTLjdiUPXZR5WKCzxma3tJIXnx8gb7z+uknqYPJCbYAy0nTt3rVbZvw+Qx5V5m7jpk3KxHc3KYQNAsHPa/oTSE0ILvPgYpsneaj/v/qSOVNGW7JICmAIOQfo5FOmZgD+z8rNX/qaAZf0qd26SaWDNGXNuwzcpJ+6snxoubvMg8agDJ7PSKBusDLnhofAqZ57zIjCtXFyr0HcQ1IXfZ526cPqNxBM9cKzPKKJc9tcCpNYcNFNI8VHG9A6DsTNPVYwEWhX+D9h4vLWW2/JksVLdcZ/lXToeLvN+FNrnzNbJH3H4gym0QPptD+tAKrZvOcq89AK5mHGdPMU+/zzz1t9TJg4QYoULiLjv/pacuTIYQwEztqQ7L2q7YU9MCi3kaNGylM6OStevIR8/vkXZi8DrB1ZfumvdsngFaMB+wckhju1jSFlmfDjBHMwuH7tWjPEfOCBB2zVCP0Z1VYqr97DusF5h7iYByZXFwDz8Kk2JGUeNP/HZjSxNe+/6ch3330rDyjBSpUmjbykM9Ubb7xB+g943nTbtWrVNJEe2z0vW77cnmOt+ksvvyzLli41RqJosWLW+Hr16hXiot10JJ15oENO/eknZR7usg4EMdKLdEnvyTOPIDGEeUAc2bRZM5t1Mtv/5ZdfZOfOHXLVVZW0/GqZbQKDq8v9kx0GKhfExTl1GReCzEOrNm1s9UP37t3lgBIE1EaP9HrY7FGARUN5abys6sDwauwno+XqajWN0cifP6/OOGPSb0TIAymhU/GuqSxIm5dXO2pYuHCBEsIZ5lHv37X/6kyqitStW9fsO5BIICLGbTSZspzFfMoGS/839yxqP379Iy2UUaxvhsE6vZdkG0BIr/4FAaPDYBQjDaOeUL3EPMnZvHl/myTH1uFbPDFlAZLEPOi3mMljB8Lg//fsWdKmQ0fp0+dZ2bl9m9XFpZdeas9QtKSHlS30F35/OuYz6dqli6TRdjJNZ4Y5c4Zt5ES5eKcJIcg8uE6iblMm5kXJkT2bXeN+TFY50dJI5jLudu6Ve7CsY4A9Rsx1e1b/URe8ZWWuf64BLg/QHLnjlj2vWT1r/bhXXMSqR+9Bt23qHfuc/WdwGYHYtCXYVqh7ezUC3DhdECfeS5FuEGifvqTlj5l/yOQpU23bdhgU+jjOoMqWLSuZM2e09IeDFOjbIeYB19Iu89BK+8w0adi4iS2fxB8Du7keOHjIbBDuuaezfYP4sYVga+4GDW60fLBrbuc77pTSOrCNHTsuNvOgsPKOyXos5mHz5s3y26/TbJXXnLlzJF/evFKzZk25URnJQoULaR25aQYInpQnuiAQL/Ogs61AcZ7bCM/IW+8Mkk+VeRgXJ/OQOLgNzm3kxjzcf79x1HDG7GgIp4o4ENE7G0YNefddk0zApVLwYz77TDZt2GDeCcvp4IirYHR1MZ2Yyjm2gsJhT+grtHmWajKLQKcOd470w3WoEzmXfCuOW8eA2WckhESxCj8uS1NCSddnIYpYX7N5E+VkPjP0Gi6W16xZI+O0s+MkJmeunEosmsvNNzeQTJkyG1FJ5c36LA8WHf/rR/VfeJZWLl8m7Tt0MOahiw4w3R/sIa+98qqGVySlzgKZkTAwQUgwHEurcaOvhsDO0EG+edMmklxnTogqqyiB2ndgv808gU+g3XPOIEaaAq8wiBPCxowMW5vZf/0pl15yqdzeqZNccukltkMgBPjIoSPGNNBu/AEbxCLWeu7/Dpa7D+vQMY8nCIsv9CH3AEJtkGy4Z3bbPXf/R3oxc9afclvHTvLnX5GYB30usWnhUX0WRgCmsW2btsY8tLilrRkX88CmTZtsrxEYOKRBkyZO0rqobBuaUVfot1mJo6ONTP7pFyleokRMPhT+zDwIu6vfjXnKBcyB//TWbVtM6jRk0GDJnTu3lTvZiska9U2/81U6wDvTgz+gB8saOhFLPO6DR73Lbj37z1hE7m295NazhkD+7LcXgZ164BH7qf/BqPvnbhz6L9bDGgI/E4b7LWM27Cf/QxM5arvXfrpl23ZZ8PcC+VgZ8J+mTJF8+QvILa1ayfX/+59kypjR2j6G05QhUhp/9Zmp+nTis2/vXmmtDP+sP/6UG274n9kf0S9v79RRJxpTTHVC38LW4L3hw81+7M67dULwyMMmTcOo8e03XpOmLVrZiilT45BKzSs0jboAMKWo8Ug7e/ZgA/X9Dz+Y9K1p06bmZZMl2+k9qZ29H5kknt+gjRAiABp6njMPgz3m4QuaeYQZa+KybhI3m4I48v1338uDOiChx35NuV4aOcAf/mPaiJf8s0zSpU0rBw8etgZNJ7vpxhtlvg4k7W+/w4woabQ07BiCd0zCIsK6qb7idlfedfe0v/POO2XWrD/cgciPMgSfafBJ2zEPHAOf8IUjSKBD0Efjej4I3nVFn5lsMLLOjOhPo0Q/z72dO3bKiJEjzF4EQoLfeza3yZMnr7mChiCy7TneL7EUJzWx69QxPxvtO7iShwce6Gq68U06q7hR62CbMnaNGqMPfdHqqL8SGyQdSDyQBjEoodPMkCGjbU18dZUqZnDmZ9ulk94HtayZDTPA7N+/zxzcsMcEu/gh0kXUeUen280HPK6hQ9C2ZOnWRmWGaRGK1BAo1zjL3U9LohCopcBrsQbd4A0FLca/PeP33+XW9h1kFsyDfjeuZCcGfAXizVI4ymjB3NnSvFVr6f30U3Lw8CEdKCbI4489JosWLza1EgN61arVrL7SaL0NfXeo9HnmabmyUmVj0qyfBRCJeQCRJhCkxfU7IVqHW6WTpmf40HfloovyWtlwL1gqMAIxxR64o8/5PcwfUIFNIJJUTzEI1k2segrEFzw/5pngZ/WWezvmmeOFlYsfeeAbfBM+lz6x9t9/bYk6EgCYA/aGoU8UKVrUJIukwpyx6RHGgb6wadNGadu2naxYsUqKFi0in3zyseTLm08mTZ4kHbUNYLiIWgO7MeocG5g/Zs4I0VQmc9myZ5Pn+vWT0qVK+hkO0RfeQdq3bds2kwR+rH31jz/+kJw5c9rycKTIpCm9tjFIKTYdSIX8Ig4W5wUBis8twmNwgTEPYaJMjxlIDMKZh4ceetBWVGD9W1cHuE2bN5l9Axa56GTRV8PdpkgO4RAdnGrLymX/SAMduDCuRL8ZEiVai0xcs+SpcOZh0qRJZhSIhTrSj/CYjKDoPxNDkxFeSwA+EYwPQeIRJGCREeMFEqYJpoGZCjCRZoDWwwDh9W3mzD9sMP71t+m2kqVChQpSr9515igGESbEwFKpn45JrTIPy5V5uM1lHjB+g7DAiPTVmSwOw5B6DHrnHaly9dVytc5m0aG+8MILtuT2Hb3+ps52b2jQwAhRlixZXDGy9wHLppdX5l+7NJ3fffed/Prrr+ZgCoMq1BJs0FVMiZ+9x+McLRo3Lrd83RIMlnX44B0v9NGkPO9+JeZbPmLFERad0V7ajR6mz5hhzMPMWbNOCvNAtY8aiQ+OF2XH9m1SsGAhuezyciaRwSBvnzJkGJj+q4NQ/37Pybw5rtdBbA/mz59neu37unSRosWLHZOtE2UeRr73nuTPn0/jgXkgvrCC8RG8HIw4jsdjITwhkRCMx+0u7rXExA/0G2Qtwe6ZVJB2P85IcZNWrwo2b9os036bZquqZs78XfLkzmOeIFl1VKJUaXuUQRp6wERo6dJ/bIIBQ37NNVXNqp8Bf9KkieZFF6dTvMtyyu3KsM/4fbqsX7fOaFvuPBdJxYoVre5wQ+86d4P2KaOuNJd2hdtsVnBAP5g0YG9VsWIFY2iA1xQM4eV2sovxrAdlESiPIIx52LVrVxy3zz2EZ+TtQYOVex0j48Z5kgfvusGYgaTAkd27dsrtyqH+/ssvdiWVzqBTamOmoR7ct0/y6gD0gzbOrNmyKfetX9TW17dvP53JDLN1xBgS9e/fX25WLhzuPEYXSbNMuGnaU5pscuIzD9gNMLtm6WPIiCcuJDXLiUVC8WrC/U4Z6pDBd/zscy1wHWvzPXv3y88//yJvvPmGdfqqOjDfededUrZsOdc6XWcGtsxMI06XJo0yDJ3k+++/U2JxxCz43x44UMpddpn52Mf2YePatXL5FVfIW2+9rYTkB1tGuVIZDexFsCSnbpo1bWpiawahQzqYsfyWQZYkUmerVq5QhvRzswRH1MnSUCz/Eaf6EiUCDIab39jDvInDvYKIa2A6ZhYZDi5FfjVhhJd9IjBtmss8/K4zNZd5ON6P80m3/WIAiatvPybYFCzwKTRUQNmz56Ag5MD+A7Zs0V3xwAqFlGbEiRqMN2KXLkgq8+AOMsxI8dY6cvh7UqBAXrt2TsLvR5GqKNK10wCWhe7avdvUGTDra9etl9o68cLdfFF27E2VQuvXTTTGtAzuNHvoKMaXvv1LEHQRGDzy5Pc58k1/oX2hLcIYlL4/YMAAM9Kud911tjsuTEYGb4dZpAx+3G6c7jngtw//euD2+Q3yHsh/EJeWjTIPiQKNxcga3KyexxaTuoQHMCiY8ZO2Mhq9GZvYecwzcM5uR9DrwZaZiCbJEyfEPJwKkIxgNo4XbiEfA9aO41/+wMEjMmfOHPnwo4/kl19/MSM5WzZ1VSUl9PlttuLqMd1lipQvBMig8UJEzJpd64TB59Ah15GMW5dKaGDkrAq0ZK3eEHe62wojVmV2M3/efPnqqy9l0cJF5puicePGtqMnywVd99juKgKM5Ew3rHFEamZxMgaBU9JMmwPHDo4KLkW4fKoA89Du1vYmeeDDtMAEoY9EyL77dqy278Jf++/D/4Ll/1idYzyIg3nwjuHQnmjH8455iFwMZxxIASZP/kk+/vRT+ePPWabKaKRM+2XlLpOLlOF3Vxq5oC+7y1G11QTajH9q3cfrZK7aFsnlDlm7Zo0ZY7O0nveuvfZaad26tRQtWszoiY9Y8URA4JOxENfz5xXIexz5N+Zh586dcdw+9xCekbcHDbF9B8aO/VzvucNtCJGoehxwBwMGGJcpiFklAYjHJaUwAyzT4gpe73gOl8ThDQ3dnXHWkQyp4gFPk2yXdPOV/8yACIv15cuXn5fMAwTwyBHNr5YVRkuHDv9nouw58+bIF198KUuWLJZiShDwpV+jRnVh3wo8bkJw8KnvGri5QxIMAkalZkym8SHW5Br1ilqFuuUezzOowzywNBHVxO+/z7BNr+rUqiXVa9Qwa+N03vp5lpnxPPXsM4zxNa84mYcgsecRQlxNJK7rpwjTp/0u7dor84DkwT6euAT8F+Exa78RqHIk5sFeN8Yhcd9zkdRRM4Z5YNnziPeUech3kV07J+G3nbOUeaCP0NeOaFj6z1KZ9eef8sP3P8iKlSulXLlyUr16dRvsM2ZMr33f7b+mpgw0Gc5juo57A8+wqJUnT5ok2/T8Mo0LZ1JIGdhzw/q1R3NRk4SMP0FcZRUk9T6S2hzPVfjtKAJYSXNskfFwpAK7gAFToG1NDusgxtFtaW6gAcIoJNOAjYMvcXCN4RiM3EYeDKlTpzTul3aclBATBwOVG2jE/mB3RsBnY4rj+ENc8ShSpnQZB5A6VXKdPRSShg0ayPChg21DnhIlS8qzzzwt11xzjQweMkR27dpp6gO3fJKZXwckA9RLBlsGqkygEQ8+y4Y8h+zzMF/p0qTWZ5PJ1ClTpHEjVBhNZOmSJfLKSy/LmDGfyj1d7jX/FKgrbG26BkAdUPex6iE8L17A4NMPse7Rtvzgd1q/A0cKpxG+q2Zy5zKuiQus4AwP8TFWPtzvuDB1Q1jwwWmwCN1bfgGGh8QhEP25Cb9QzlLYRCBlckmTOoVcekkZubVtaxk58j0Z+9mnxpD3fPBBqV2zpgwbOlwOHTigVad1p30Lvw6HdWJAOMISZ2X+Uylh2Lp5szzcs6fUqFZdhgweLPXr15evvv5KXn39VbOPyMVSXo1Ce1yoaTBpiFXPwb4XDFHEiWQ7duyI3av4RTiLG19ciJ0RkXcGDZFPPv3MLH5d0heAtZzwN5IOI6gRqc2pKcBIkgeWJKK2YL+ICwVII5Lr4HvkKNKeZLJx01azYfj6m69l3dq1ylCUkGvrXGubKRUsUNDUE6xNZ/WEq0+FgcCDoCtR2r5ju0kZ/vhjlvw89WclbimlWtXqZiXO3hd49fMZhXBGzZckcBUCFbp7HlXHjOkzzHPnjJmzktBr3JZ6LIjh2FjM26B3PfiW29pjrlg5e6/buXsaQuTYeS5yhZidhQLJw1133SEjhr8n+c9lycM5BL+evC5ktPTff9ebtA8jSfaRuPzyy2wrbuycsCuiv2GgPPuv2TJx0gTZsmWrGfCxoooJRIYM6WLah984vN8nZaIVqdGdj6DM/AoKAxKi85J5oF45d5mHuNQW/BfrynFCB5+IDSnKPJxKeJMRk0hQEn4VsOfIokWLzWfDZ2PHmp8AnDPhRAuXqr69iq+u2LJlk3z66Se2RwjPVlWGod519eSSiy+RXLlzm8QiCL7lwyd4PvNgs+ogYTqPqiPIPCQW4YN+DCivYEm68JmH8DfC4+EsqcyD+9yxFeI+G2UezhSC9UQdmQpQ+yU+WPCDgjoWL7rffvOdPYu6EEd8eCEtXryYMfcVK1Q0z7GpWMnlaW6tTegLdE3OY9RhAeb+eOE2pvMfFJlfbGEw5mH79u1x3D73EMwIdTts+Ah5/8MPZdy48aZfQ6wcAz33KVASgVEkOnWM44zwYK3NoEF0erDZJ/o07QS4sLXVAAnAH4ASgrVbkm4fc2xNPAaTLNW8oJgHgv4H4xZXyVHf7GvxztvvmJ8CfDrcfffdNkvZtWuXDH9vuO3OlzZtarnjzjuladMmki9vAY3TLUf/G0FYNYd/kAv6z+omrllNYqomKWJS+5h7mihYZtzTRCGYXn0PT46dOnWSiZOneBcTRvigH4M4EqOP4gQKyRAGrv7eC/6GS/jiYNmdxRyohPBuTDcPqjaA22ciF9h/XgQs/bvnnnvk049Hy0V5clkKk1LEUZwcBMudc+jsL7/8Ks2aNrelm0yU2t3aTp55+mmlsTh/chur3/XsSH1rMKaB87j65fGAqE5idGctKHxCBKC6PW+ZB8Ae7OyO2P7W2yS5DvaxDR3B8WWdhghTYBvAmO0CQRuw36A0WvOr4J3HC6+hx+ot8cAf1nzmAc4cXfzatetslnwy+8jZDMu9/hdffv1bhw4fkb///ttWpmCBrW3eJBCXaweoe921Uqt2TSs71BrYrVikVg8Jj/h8w0ShXr2dEPPgxZFoxJP3Y3AicWu3wWVvmzZtpXDRYt7FxCDxzAPlZkXnUnwdMI4Y48DKGEcL7/BRVrG4DLnLCLjvGGJHpfXxX/glfd7ecH+EAXfTgBU4y5f9o+1kkhQqkNfiiPxGFKcL1AH1MmnSZPPb8qFOBl977VW55JKy5lmS5braTAyxuh5tJLwRnCzE3ZTOL1B+cZShMQ/btm07VUV82hHKiJ5wjpOZd4cMVc5UZ/92+eRkFcM7Nn1h58MJE36Ug/v32y6E/+Ee2pBMrqle3ZYF8UmejR9KYmn5iUie22Z5kOBaIue9KI9tlxyXW+nzFQkVF2XlP+P39R07dso2ZR7SKtHJkTOHSZD8vQWO/nfYY0hgwngj/vLkieDsxq7FomABnItV4xeeghUsK1euksM6C0w8rITc01gg4kDkPvRRR/sRniWfffZZcx3sbiAnsn3HDlObNG/e3LyDxjcwRJbixZUWfT4QGe9WqKCE0fsd+Y0oTheoGRzyTZrEBoB3ycCBb8rQocNMAvHYY49KpkyZjGk4ptvpi1Hm4QRB+cVRhkhxzyvmIU5oDsPFmHEBQoURPKsqGIt10mqGdWymtHXLVtm0eaPMnTPXZieLFy8yvfkll1wsl5cvrwT2gIwd85kULFRI/p6/QF586WW5tm4dnT25W+XqJMrij4SI9C4ITZPfZiN1FEP49SiiONOI1K7jaKd79+w1j6m9e/eWsuXKSd1rr7XVMz169JCF2tdYWYP0gY3PatasYYaw+E3x47M+pP+FPqkn/tK8iOnw4NOGYL+KI4lRnAb4VUUdYAPB8uoffvhBOt9zj7z66qu2FQB+VmgnmTNnCUkeYoG6j6fOj8GFNe9KHCi/OMrwwmEekgAIkO/hjL0WZv05y4xz8G64YvkKczTE9rBY83PMmy+v5MmTW1azvXCXLtKwUUMzuJvy00/mbvUu5ZZvad3S4j7q+SuIhMTYPJhoN3TunehrPrm0WW/k6KOI4uyE1+xXrlwpL7/8ssyePdukCxAnltM+1Osh6f1UbylUuLDs27tP/vxrlsyY/rusX7/OXJazLO/KK6+0baKB2434j46A0iT+DsGTUebh7ILXJKwO4mYeCkvvp5+WzJky2wTuGGgkUebhBGGdwz0NhzEPW7duTUoRn/dAuvDjDz/K9z98b25NcY3LjohszwqRwgd62nRptdHC8eI74D+UB/KuzpBYXvTGG2/qM+lMp/7rL7/KSy+9JI8+9qi0a9fOGBLDyaRMwQom3ijVi+IcAgzCtOnT5YEHHpBCBQtKjwd7SM4cOc2maN/+/caQP/74Y2Zl725S5pi1PZtqjfl0jPz266/GyD/zzLNStuylIRWU3w8SZB70dqj7BB6NdqMzhyA5M+bhCMzDj7aHz8uvvCzvj3o/JHlAbRFlHk4RKL84ypAdos9/5kFzB8EJn/FjtL1n925Zu26d7QCHhGHWrFmyauUqSZ0mjRnTla9Q3tYN+9b3ZsCVOpUxAewMmdZ2zzwoq1atkoceesgs+atUuVrvpTUnUSaGnTxZhgwZLB3ad5BOd3Sy/S1sX4sUynjgfZJ0+UkLryyuR+gXUURxruK/I17b1z65ceNG+eCDD+Wjjz60HVRvaXmLZMmaVQeEjJI2TVrZsWOHzTbvuP12qXtdXet39DeW8KEHh7Fnd8SvvvrKlpIWLFTQpBZXVbpKChUo5DLr2nXx8moDTBx9KbzLRXFmEawP80SpzMOECRONviKdYrdONthi87qMGTNGmYdTBcovjjI05mHLli1JKeJzE+RQ2xeEC0v7mX/MNGdAixYudI2ysmU1HwCFChaSAjr7KViggGRUAnbk8BGTMuCyGI+Crle0NEaU2BmSWQ5Lyl595VWZO2+ucsJPS968eV09rH5w+/ZttiMcuy6+//77UqFCRbMQNiMfGrxXOV7y3P+CtcFvuxFFFOcH2CCJvjN79hzpP+A52bdnn7Rs1dJcCKfPkF4yps/obdmeQnbv2W32Dtdff73cdNNNtucBkr4jR4+YFIKwa+cunZ3isnyNzNE4p/481Zj22nVqS+tbWkuhwoW0C+kfhkxxILzLRXFmEawPn3mYPHmK3K5M5CuvvCKjR4+23XDZ7IpdcqPMwykC5RdHGaIyPO+LDAnDxo2bZPiw4dK8RXMjUnCwf8ycKVWrVZUXX3pR+vXtJx06dJAaNWpIqVKlbKMj1BMwFejUcuTIbrOhTHoOpwtxS50SN8YpRJkv+Wj0R6Z7TZMmtS0t4zpW/OzSyPvshdCtWzcZP/4L29mRGdVRZWSMUmkNeIKNOCsqiijOC2j7TpEqhXz55ZfSsmUL2wem99O9pVr16qaqyJ0zt2TOktkkeu6OqeysmV3WrVvnSv1SprTrMPLplZFgrxG2a8+aNYsULlxEbr75ZnnuuefkwYcelKk/TbV+d5f29RUrV3gJiAy6oR+iOPMI1odfJ9Q/huu2zbbj2NE/D3/efyeKU4tkmzdvPneGrGBKaSHe76BaYuuWbbJ82TIzwGJt+uJFi2Xzls0224dbwn6hXNlyJkHAwQiNkjX+7IWQVpkCCBRLK5EysGcFXK2pLYJsFt/Vz+3ft1969uxp4tfHH39cihYpapIKE5fymKaL9eq7du22/RbW/rtWXn/9dROv9urVSy7Ke5F2AE07ytaEaoHsuVmMIopzB9qusWtge3Wc+2Ds9uuvv0nTJk1s06I0adMoE5BJMmRIb33Qb+NICXfs2iEjR46SJYsXy4svvmhr+pFasO4aI2H6DlII+hgSwIMHDsrBQwfte0gt5s2dJz9O+FHWrFljkwKkF1dUvEKyKUOCTVKIaY/irAV1TN3iJOruu++Sp59+WsaMGSM5c+aU/v37S5YsWUwN5j7s7p6LNBn1FswpkmDaTQj66Lat24xm004weM+aNZvZu4TsY6LtwgVjUhzjEpPwc4950MDBxlsdnLEt2Lhho0yfMd3UAzgDQlWAQU2F8hWkcJHCki1bNhNzYZHtqhyQDijDkCq1zWTwA8HmSea62GtEMCOhNfveIQi2lWVZGZIEGvHll5eX3HlymdQhxDxow+cP9cfefXvN/fHSpUtl0KBBZvQFQSxZsqR+N1WkT8QGDyT4UBRRnGWwzioyccJEMx6GiUf8XLx4cSPuWbJmMUlDkHEA9B1UjEgpvv76axky5F3bMTVWn/TowVF8rOgslN1qUWWwQypHs4vQAPOAqhJpBFILXBo3adxEcuTKYVFFcfbCZx5+++0383CKYeznn4+T7NmyS/8BsZmHw4eO6JjwnzKcI7W9DJECBQoobR5ge9N4zdC2139Z2+GYz8YY7e3Tp68U0slcyNAWRJkHF17/igRjHjZt2hTH7dMIv2b9xHLu//ahv1FBHD58yPyew13+8OMPZkjDrocAQ6lq1arJVVddJenSpjPjRhofhCV12tQmbYBBMPsFmAgN4UQrMeD7DP4PPfiQxY3oFWc2qDOMEfAbn6af78OIQMx4Z+/evaIMmzz66KP27ptvvmmzIv/5OOGXSRRRnAvw+vHePfvk3XeHGDFv1ryZGQ7TJ1D/ZciYwfqpSQ0jtG3sGVjBNGzYMDOszJEzu3cnDF6/oT8hiUBSSH9DCkF/o78yALEEe+KECRrXByYJ6dSxkzRt1tRUI9CEaP86++AzDxjE3tq+vTz77DPy5fgvjekc8PwAyYKfB1/yoECawKZZjRo1ssnhU72fkqZNm9o9Jpuspmvfob3MmvWn0uBHpHPnzjZOhI81pwxev4gTCd0Ph59u3gm+m9R4IoE4/PjDUPGKs4V58KHMAQTAV0EgVWCmsW7dehN5YuA4/+/5to8D0oH8BfKbF0ecNCFpYAZjW2Tr+6YXTe+KQiEmSBhQUbghhV7Tb/iFm9RC1nROmz7NRGiPPfqY7dyI4Q5pjaXiCBQ+PvkhYvsP7DeiuHXbVhk+fLit1Hj0kUelUuVK9lxIdBYOLic1nVFEcYZw6OAhmTt3rrz99tuyY+cOs0eoXKmy2QChqsD4ES+fqA5NmBDWtlmJtFuZ7ZkzfzdGe9y4cbajoqkt4oP2N1ci+Z/SkqMm9YOJOHDgoDIUHA9YP/z1t1/NVTmTkMqVq8i119axSQf2TlGcPQgxDzPcjdmgud98/Y0ZyQ4a9E5stYWC5/HJ07hxE2nY8GZbmTPwrYHWLmgT7LyLi+uZM2fKww8/bHFqc4mZ8J0C+BNIgMTapBz8ZGzQIwwuUmnaJuklv7yDEwCQJlUaG8cYYzAqZlzz+8GRw0dd1XpAdWNxu6+64Lf7+aSBuAgRYMzDxo0b47h9GuFn2AOE499//5Vffv3FfJovXLjAiABrvStUrCBlLi5jS7loOGn0iDoCAsTacJgEky6kTOVylHrDLTv900JmgI9PHZEYQBjb6wyqdKlScufdd0rWLFmtQkMIxutVgCkwtJUSaCBIITZv2izDRwyXKVN+kheef17q1K4jyVNqIwhWvA83E1FEcfYgSDn8tqnX0DdjoPzRRx/Zcuc2rdvYTJH+arN87Zsw06bei6NNQzwhqsuXLZd7u3SRV199xbXwDgwU8YI+p3HEqDQO2xGVJpOSPXuRAu6TDco8sGvjZKUzuCu/4447pEGDBpY2n+BHceZAHUL7Z/z+u7Rr11aeefoZ88EDDUb9y9Je9hfywfMwDzfUv0HeHfau9OjeQ6ZPn270mfpv17ad1KhZQ95RxuO+LvfLrbe2szHjlELbInY5jAFbNm+xyS9hyZKlsnTpElO7IwnjGXtO8+CPF/64RT9Jkxr1XiqT2pUuXdrULiVKlJTixYrZRJpxz1e9EwfvGjh4p0kC/TvYxwO44oorTgLz4H8g2Kf9GEkw5/4xCC8ziJnwHLdz505Z///2zgTQpur741uSJpVCZjIloRSiaE4o9at/UZo0a1AaNJNGTZQ0aE5pFEUD0jxQQgOZ58qUKTIP/dfne86+79z77n3vPt4z1P0+xzn3nH322ePaa6+91trz5hpnOEyVjXIhswCUGw9rdJi2AMXagfVMChZGAW4MsSebXu2xezHNMJA48IyGok+HzIOYCC7C724K5JfBIhn4/kA14u6PdBdxRPObZZGUsITQEPw1m2ax/EKjWbt+revXr58b/NFgd+stt7oTTjxB6Qexygebke7NejeDDFKBJh02a/o/BGvevHmuZ8+e0nG4xAZiZvQAvSNmTiJuBjHwObVLi5cBHzpw2WWXuSuuvMJmkv+LGyjSAv3N0oUUAqnghlACuHLlCjHxPIdgo1+BIh5+WfYqvqe77NLL3BFHHCFpRyITwfLp5tKSDNIDbQpdFiQF555zjiQPKMEyZjz/wvOauEXNcD3zwBb8eKXEig4HfRe2u1Bx3HzLze7uu+9Wm8I3D7tzwsxuVl36PgCIx35D75cvW+6WLF3ixo0dJ0k1psQLFy0UYwoDUL16DRv8q7oaNfZ3ZcqUFnNdfO/iwZhmTLIkFBYX+nK01bnWt/78c4GbO2euvB5PnTrVLVq0SBKLnYru5GpUq2H97ThJ0GDWsWCKSerCdOUpn4SP5i2CfGEeqCw6J9YJwW/9b2m0VIYMBc5clixZ6pYvX6ZC4DdD+5LFi924ceNUCCgSMhPYf/8a8ofAmc1PxH1ZT5V/hSKFNbCy9KDfVjAUMLP1woWCmYKXKmis5r9IYflneSrACOCA0dK96KKLpLXN9r1U9s5W2T7/KRFWRJCsQLSAqAoJBGfWdvv37y/O+Jxzz5GjKuXNp3lzQBT5EE0GGUQh50vWPpndM5sfOmSoCDpKkfhYQEKIHhCzPolaac9IDugEHjm0zXVr1on40s9wh3vLzbe4IkXxobIZCPshM701NnvFhwCSEilY2vnPBQvcyO9H2kz3e+uXf7tGhx3mTjr5JFe3Tt1AUmLJx8w6tgldpl8VHMJ2gpThxx9/dGe3Pdt16dzFffXVV7KgQzEyFfNwSqtT3MRJE2UFh7IljsRgGhrUb+D2q7Kf9F2uu/567ZNCm9wcKROTyqgkDSYB78JISxZaOitUqOBq1TrQmIVqrmzZsq506TIy/2ccA9qIj3jsj3GTs+6H13GTSI+w+a1eudrNmj3bzf5tlvv9t99lMMASP+khr02bNJUuIFaAGnYYT9NlwMO+kgxiHmymkOJxGuDNMB2YLbKEMH/BPDdhwkQ3eeIkN2HiBFUk4nlmEew8KftcjexGdDaslxgRHQRmBsxKqABMa9Cmxe1s1arVjDOrLuJRqVIlSRbgFCl4CACWEtlmIzlkOlk9pAMxMdbA+rzcR+u4zz3/nCtfrryWTOD6coVPk31fcdnfug3rxEitsmP+/HkyK33o4Ye09Wybs1qLE026hJFXkOdNzHcGGWRD2Ld8n2APmJdfetm9+NKLYn6PtdnPPnvvLckhzAMzqRhoh9G+mUPbhNhh4nxnlzvdMpt4YOaM87bNQtgPIcoMNBv+2SAmhe310YtYseJvSSZgKGb/Nlv9HQW8Q+sfqjXyGjZbFPH1eUjMj0eKPGWQB4TlCvPw088/ubZt27rbb7/dff3111I6h3lIpfMA8zBt+jRZxLU9p63r0b2HdCVoowzuF118sevU6UZ37rnnWlXZX7oDagqgezBu7FjpV5A+nA4i3WCQ1fK6TXb9gA9gOICYloT2E4yPBmPMU6UKZh2XAl5XQ4y85WHlilXS7ZltDAU6dUxKYV5w/37CCSekN1Z5kIyEtHmwVUPuzEP0aaSjsCzALBwRypgfx0iCMG3qNNlX7757Mbe7DaoVK1YUl8fud6VLl3Z7G7eF6JIBl/JhF8q//17hli9bFnbe1VIoYfligc0AKIAFxngsWrjQLVq82O1msxcYCFxGs4xRslRJV8a4OD8bgdgwUffMSU7I+Wk8iA1pwWJLwzXXXKO1VxpyyRIlxcyk1fB8OUaC0oCCNdl/3FKbYeEP4kcryyeffNK1bt3aGvZ5msXplbwkOBk29/0MMvAIu9fa1Ws10+neo7vNsBa5yy69VERzF+unuGhHvwFJYTICGQPtMlXbtHeQzLFfDIpu7773rrTrN6sth+mARkAmoBfQMg4ki957JXQJIgyRnjRpkvvwgw9tAPvZNWhQ37U+s7Xbv+b+omlKSyxO+wkx5/fmpDGDAGG5IiFC+fass9pIeRZJwoL5C9wrryYwD4S3Y+yv49yZZ5whycOyv5a7Zs2aaWLK++yPMeqHURrYcSZ2zjnnqC3kSfJg39A71nhY8poyeYomk0hH6tStq35Qs+YBbsciNinewOwPRfpCkgZEGZ0YfHsJ8xs75wTCJ0kyzJNYjvAzLI3jW4UlHMZdNmrEInH3PYwJT/yuh4+X+ynSIuZh7ty5OSc1+tQixfUrWsqffvqp9t3HX0KVKlXEYTGw43Sj2O572KAX+KdPBextvdnlKtZsdioiHQYvfUCyoMqxzrzcGgAzDxiVOXPnqCGhSMUe/1WMOTnmmGNdi+bNrbKKqMJgQGT1kBuSFH4qQETQ0n3//Q/cTTd1ctWqVTNGaM/clytyQihVYBYE4xSskS11v44f554wgoktLQ28dKnSqRteBhlsaRhNQJL41ltvuZdffll6Py2at9TGVhCoXTl2YSkvWFbMEfTBVP3Q+sfKVStd//4D5Ir4k0+GudL72oCdH90g7HtRQOqQhjIgrLX8rV2zRlJBljZQ3vzjjz80QIwYMcJCFhLNwdSTSQyA7kgEbXQrHfKTQS6gQuxACjR23FjtW3LHHZ1lgYMuTJ8+feQF2NNFmD+UH3/+8Wd5E548ZbLef/bZZyUtZnv3BjbojRo1Sj4jcPDHJFDL2XkYCwCDNN9jl89PPv3EHXnkUbLuOOCAWtnHhDAfgn/k2x/f5Vn0lSRtM0cka2uRb2KZwi60w4Z94j744H05J+x47XWueo1qQRhLQ4zpAJx8usI4EoFeRXbmwb8QTZD9pvPgrKXX473kLrZFy5buiivbuwMPPDAIghiGSgg5spwQcP3BZxk4xSj4hCcizAjEijAyxbT4mSmg5ESjeP2N15U+/OBjeqPZSQjPIW4u/pjzh8Q+7S9vrwaHQgqMzmYN6JFGAnOAeA6ven8v/1vKnx2u6mAVXF2SiALXCM4ggzTATGrZsmWuY8eOGkg7XttRzEOpUqXUH/beZx+3I+JUddw0EPbvpLD+wcQCBeqrbcaI9UadunXyNktMhVwINJMWmIFANyLQifA6EtArBiD2WUB7/uxzzhZdYD07ZV4Ccpf6eQbZQZnZQfkj4YJ5uOW2W92Y0aO1vo9YHm+hWfp2RuutbUycMFHLFsNHDHf77L2PW7FypQbNk09u5djxmMnv1Vd3cNdc00EOy/SdPJLxRX8ucq3btNbY8tRTT8npmXQeDLSZbEqYuTEE0e/nM/NAOpSmwkU0ZnayyS+GCX37vuaaNm2SNUZGwuuIxpEAmIfCNuB2DX/HoHE9zDjiIdaKUDZBDEQF4lHxzDPOdCVLBhw3BAUmIFiHsZyk+KBHlHlQ+DCx3NKz8I9CwU0t96LSCH6jJInNa9OmTaVNi58HGsVLL70sKUWJkiW0REK8NCj/PSHMW27QOxYW6QjOnFjbbX9FezmE8i5P84WQGSC2zNS89IV8s8769dffuI8++sjVqVPXFbfvCpGsZJBBQQBCnNhP6Aefff6Zu++++6QB37Hjta5+g/qSNrC8hvIae7rEYVPaKu/YwQQBmgLhY/+YY445xlWuVDkrTAECWgNtQh+LPokUFdNv7tFXoS/sZ1OlWhU3etRo9/rrb7iJEydqzxvoQ6DsHKHqBZzefyXCMkMShF8crNIaN2oki57Fi5e40047TVsKxGiwndauWSdGYcGfC1y5suVc5SqB/x988SDdJq7vRnwnfRaUeOvWPUhLbOmCpXGU+7GMY0n+4Yce1oaKGmPoM1bltJ1siPQlxkulmXv+fqR90O4Bt5hUxk1+/aWdY2OaneLGN38ZueUnuZRF8+Yt1GdffrmP9oVhgipEwgv8TrwXAqdvhebMmZP1OAyMKSFr/KwtoaREB8bCoJFVHOuY0cLxieYcm23YKaeZB2H9ez5TPpGKZxMlBTANP/30k8Sp06dPd5decqn732mYd7GpSmQb7DTjZ/ZBeiZMmKCZFutkMCv4VZfVB4Qkn5gHcZthVHDamCKRH/RKEA1zxjXrgbVrBYEyyKAgQX+MNO0lRqyRgLH2j/UB+0Tg8h0laZw97WIzurTcrCeCFxJfCvsCTn1YRvjTZvennnKKlvDQN4jRnyQ0ukAATYSRwapk/QbpZ2kfjTXBzp5s7Y8LbCw08IS4Z/G93Kk28z31f6fKJM/HkTSvGaRGWGaUNX4R/nfq/1zH6zrKTBFGrd/b/eIkD4D6QRqE5HannYq60qX3Dco8HF8Yy9Cj22BMBLSbCbD01tKk4yzbX3zxJe6gg+pqTNAk0uKOjWNpRPPngoVu1KgftNTB8p7XmYP54EDKjjNEJPzodLD9NRvGeaAciT7OqNGj5DGT7cmR/mFR4fMZOwOfJrvH2M4Ffk4+HvKx+nTXrl3dUcccFfQ7QHiOIGhSNGzY0BW+/vrr4yQPDJbs+viBEQl2m2zZsqUUoqpXre523X3XYOZvGURnAcsJMQn2AUkK0kSUeYgN5OHr/n4y5PYNKpK9LFqe1FLX999/v/tt9m+BiCWUXOQhmcob0oBXXn5FjATKNVQmM5F8ZRwSwIyF9BI/DRt9EjS+cdOLsiiKpxlkUKCgn9gB0z11ylQpqv38889aGsSWHIdKWFEEG1oVdWwol28I+yiKxJADdA++HfGtRNCYnYmwgYLpfkkBnaJfQkOQDMrqS0egowVdwCfNcccf5xYYo8/MbNDAQWKqmGzgVTMtPawMshC2A6QFKKu//fbb7rDDDpM0HFNN9Brk3pwxxAY+wiHx2a3YbtpxtdjuxbLaSBgX4wsMHZIyBmTp5KTRjjSor13n7rzzTjGNt956SzCg/2OjRB4tNVjmQJLftOmR8iPiGQ8Y1AHvviunajNnzZQLACbvgwYNcscee2zM0ujVV151HTpc7ZYuWSoG+4knn3BDhw51J590stqmz2s22H2EAnyP8RFHU7gJ4P1mxzdTmcSBeFLE9fzzzwe8u+d4AOvtJLhv31fdXffcJRtrKQJZAcme1RJLBdAR0D/wUAVShhxElayfRO/58laGwmsQrQfC+zjtmnAK6u/5Iwnwo//iiy9JfHVH5zvkElpIEd6D+GFSODN4T5442X3x5RdaLyOPiH38wJ6viOSF70CYfCPHzAePlnQcFH1wwKMtveEUPbeYQQabCUSyHgzcWE4hKr7qyqukmHb//d1kMg1hFuOw+27qD3FLFb4dR9pznhHpB5AYNrJDNIx5HkpqOU0wChSWLggvUkcmELtZOcA0YFaOEhpSWfory6gvvPCCa3VKK0lBkVj26P6ozTZHaxbNzFHLseiJWZl72hsFdNYD+puBwco/EPnvoDaQKN2mXkS/rTyZ9Gn80A2eBhADZ7+h38FYFj7IBbRFNlf7/PPP3XXXXSfmObivU9pgfGWzN4wLUAD2umykhbb13YgRrlHjRmI+r+14jfR8kLwNGvS+2gHtho3BjjzySE2Or+14rbuza1dZBPUf0F9xxcGnj7Ou7b8wzyzJtW9/hdLy3sD3AlcKwaO0EEgeIgUAVzR69Gj3eM/HXe3atcVpR2fsVFjwFyJS+v7u8hXL3QeDPpCWZ6lQL0LgMcHtTOXRAFBu2d2IkDimJIDLGzMGU9BfXdWqVaxhhOtFHsTnk+Cvw2/sW3pfd1iDw1Th7777nkSfYnJ8+CQQ28A/+w4Orbp06aKG0rx5cymFsfaZ74xDFD79Br4DoyKpiTWsA2sdqPXUXr16ubLlyso7WVjkGWSw+aAthe3vr7+Wujtuv8MNMELFVsjNTmwmj3V7FNtD4tGAaQj7bNheY/BtMtKWNwWFwvfRecDxze+//+GOMqK5406Bo7itCvJohyZSMBRWFpSJGB7722W3Xdw+e5eQ2BxfFyz3vPfee+777wPHQVOmTnFTp011s2fNFpPGrNZ7FlT0cXTKF6hhM8pzu0OY16jk4ZBDDrUZ9xJJH1BYLEqZR8uH4ov81OQqbEdxZWfXvCd6Hw2fAkzW3nzjTTGKbc85O09SJAZ8P2YM+3iYJrT1D60vT5nnnnOenqm+DRUrVJLVhpcyrFm71n08bKiWCI86+iiFrVmjpjv+hONd8b2KWz8oJEV72hdMQOPGjfVeDAl5S2R2WPJBko2UDJ0iJGWxckosswhikgcqh4/gPOM9G2QRTe5bunQg0rGXpcCRJBLSoc4SdhiPEcO/c527dDYGpKfWBAX/2M58b8b0GdrO+qabb5ItdxwUcaCghXIK6cHchoLT3g9REJZbiUeY8VKlS8kkZ6YRn6ef7q01L8GnJwkgCCxTYA+MN7MTTzxRswoUNNW5c3g3P0GZorW72667qaHg4vfoo4+WD4g7br/dvfnmm9q1MC2E5RE7MsggAczYIESs3bMTIf5W7rv3Ptew4WHyp8I+AvSBYPfYFIxDfoKuRp+3Poc5+OLFi7SWva20X+gTliczZ8wUrWBw69Gjh3Qzzj/vfNfh6qvlqnvw4MGikQwIM2fOUL9lCRIl7G4PdHMdOnRwbdq0cU2NMTrz/85013S4Vq7v2T1y7C9jjWn6zSYyqwIJBbTnP9p/gzEmkAp76VM2UuyZhXwG7swxGDj9/04P2n5exoAwLI4UBw8ZItfnKBrPn7fATZs+NXhogMlgKQFFTi+NWr9unVu0cLH0DZFYkbeD6h0kXQ3KAIkF7QN9nGNDV/B5BcyILPzWWN8Caeat0G+//aZU4mOgTes2UvJBzEZiKCQtVfyzMVd7baqUjo5Y8eGHH5ZSCzvWvdq3rytfrlwsQRQK/hLmzZ0nhY+FCxdqu904CQWDP7CGgDkUmtY4nGIP9jyBnNkB88Oa6YMPPKjOjFlN7HkCyAcMBiYteLbDixeeyEqUKKlKzQPDuemIpsuuaSR4wkPkiTSEfUDwnIaGNz7cr7iifbAJWCqE5RCDbxx56QAZ/HtB27C2gJIuAxrLdEccfoRr0byF22OvPaRrQPuCkUVcTz/PtlwWbUvR62i7S4Wc2qG9jxfa8b+O1zpx90e7u8oVK2spo8D7ou83ke/4ic8PI39w48aPE+OAdBSJYDmjc2XkDG8fV6pUSc0WYbSKFNnJ+nCw3Cs/GEZHKEfigl6y0y70l91HcY7HLBulvtmzZomBo89XqlRZkuADD6ylpSOWSyg3thnPZuHyLwMMLRIattnGMySDJbtsogug2XcorRHCthxrU5vb/kIsXrRYDqZYKqhgY9GmlDmMIFJjpPvoNLDfBkw6SqCkk6VCmMwNG20yb4BZuP3221T/fJc6h2eKtnuYh6uN+SxZooTremdXvR8H/zNZHsOyYX8Mxnx8C7H8JiaNb/A8Rfkh4YglA1vqGbNmuLPOOkvEofAOxjiEnC5i89wggmLA38Jffy3TOimKl9OmTlWn8YC7wfnR5e0vF6ckD3SRjMG0eOC5ki2r8Vq3SWJK4rXXaFyNGzV2pfYtpSWQpAUZAkYDpgkXp+y5ccklF6uzSyS5CUnYJJC+SBppEDBvKLkghcAEFQWa66+/TqJQHOisWol3zuQSIspfh3/IKUm4DP57YPChreF0jdnvJ5986q5of4U744wzREhwUEabo/2j9EdbhC5E+7Tg22yk3QrR+6mOnGDP+SaurpnEoO0eoIAbsEXv+w1EnEEes+lLLr5EZurs4VFm3zKui00wXnzxBff44z1d5853iK6deeYZ7qijjpYXXJzJla9QTs6tkF7CPMBMQKDpz+SL5dCq1apKMRpviGzWhA+CBx96yL34wovyENiyRQubkP3irr3mWg2iOCfCeZ4fxKL6Kv82iP6RT2sLTOwYjyQt90hsR9Gm4Z/ldKQBxh+YZyRAmwokF7QJ9Byq7FfFmJAK2lGZtgU08Ft7g9YzBj3//HPyb9H5js4Bs2j5UnLD/EHvYSpQKEZ3IaniZi7dhPKkLPkm46TG8XTLJDyLK2rUsJEGJhqiBkolNs2YSKQdv4wdaxndwzU8rKG4cTS0UfQQI2LxQoQQzUCQiDuOazR4RmXe3Pmx/dblcGMzAAGgMo468miZ+Ph7cQizSQUiikQESUem0lBcZG2pQBGWXypQVpQNvslZd95ll10lyr3oogvdgAEDXLdu92vrctaGmRlNnTzVzjPFMbMshMe8bHnO4D+P1Tbrfbf/uzI7K1++vA2Gnd0BNQ+wgW4f0QLamzaes8kEUBvaws0oIGyBtRSTj6AdF1B/JOpI/pj59+v3tvbsuO/ee91+lfcT44CTnQ7XdnA1a+4vGoHyKErOHowD0BKIMbSHtWTCMRGRhYYNhvRnwngrDmihJIj2fZ7tvEtRuRFmufLE5ie6p55+yn351Vc2ULTXDpHMWrveeZcb/u1wmzykuXy53QOGLrzcgoDpq7xfZffxx0M3ueV9+fmXmpCyzwYmkrvuvKs8P06ZMjVsd/afRU77Rqly5Mgf5AirdNnSQQQGTQHtOVJojBpwp4BuUsmSJcIQ6YN4aIdIujgjDfMCg3RQ+LrrrutKwuX72gb0Y48/NhZB0ElDRC5TAS7miV69ZAPKjnrYqbJ8cdRRR4nLJuN0JpgTZhG/jvvV/TJurDvNOGk6VRDHRnFCcNZIKFq0bCHxPPnBgiLPIN12IFFgqeQX495Rfow98yc+YAdioI8/HqZ1SmYAeI2j4SQyOfmOMC3MckhKrBLtgNtl17Rga9fv3BBL26D3B6rOKF+00FFyxUkWRG3w4CHS5GUWOXjIR3Il/vXXXynM1OlTxRxRtZjXQdjQ75BkhzRwMIux7yoNwN/PYPtGpA5p5zCZrK0PMkJ12v9Oky4Na6nMhnEvr6WKwoFjpOAli8LTBNpmFIm/8xHQFXQdvvziKzHMlSqyQV5yBevNBrTJaAVMCpYSD3R7QN5lTzv9NFmeQY/YEE8zNN8vwr7i+6wmXMnKg9swFBzRAIlhI/F6GIuhc9Gdd5JXX/Sw6h5U1/3222z33LPPuSnTpoix2ZNdJiPv/Rv6MPWPxAldEfK+dt0a6cJh1eKlYbG8+XNimW4moI8sF7/yyityX8BYma08fRkn3KcOWBrob5M80ozfBtoxu0ZjTYFknQk1fYvvYETQu3dvd/XVV7sa+9eIa1t0Pyb2bL6Fx+du3bpJggFibTIPQM+i9zO9tU8L0uyoBWWyvHjAQO9AgvnDppQOihKQ3iGV/OM5ieecw6HBef48rcWzaQaimKOPOVpiF9bxAgIUmHsSsd7jLywYHw87g+HHnA092MOfWQdtY/Wa1bEweTr4KxQwLawpMmuP3Q/DoNbNmTTTSB966EF3xBFNRKQoFwrUhy3Qw/4oG5yEsM71hjFNF5x/gTFi+0sTFjPN22+9zX362adupyJFtRSD45Tbb7vd3XTTzTITY93szju7yAMaCltn/N8ZWiOlHL8yBuKurne5c8871x1r8R1U9yDF/06//trkiHpAwZXyIj1qrL5+InWUOba/w0v/9Nv6IP3yoosvEvPJjPqEZs3kjwBpIaaY9Fe2ubfQ2eLiT/8S7xfQQTvccYcd5WGV/SXkxC5Zujb3sPLBQoz9NCDcjzzyiGgQZpennXqaK1O6rJGKcNnGyjBantni4kiVxsT7/i/yG14hGoYCjz5HcRUPtCicv4Hi9PIVWnL+6qsvNSBwkD6gdPq0bpdHMDCSB5he2gIMRey5z18B5xFldWbn6C2gh5P0e0nT4uT5uEyZ0q7x4Y1d9erVxSwwyd5vv/0k9Wf8ZPbPxA4mHqkSSpW8z6Zz6AmS9/Ub1knxEqYBaRjSEN7FSVnvp3pHvpnzwZIHZ/QO0R1Byi4mTK0rPmyyA4jNoKHVrn2gZq5sEe2XLPKGQq7/O/1FgDBpQXKAWQqVzNKFQoRMTRzXneRDTz7xpNvFOsfA9wZq+WDu3HlyiPHwQ4+4rl2yedPOGUQffoINbag4IUn+ILDvvPOORIasW2I6VbQoCmJhgPxCwrdpaDBYn336meveo4c7+6yz3QnHnyAbe8qTNS+2PO7fv78b9sknUmo7p21bbQ9czJghiB3awKyn1aldW+Iu1tcQudLY2awFT5s9H+vpvv32WzdkyFDXt29fWcRgzjrg3QHumGOPkfJl9+49tBc9Xtr+zeuo/zXADFi3l0e6p3s/LeWvY44+xj388CNytYyzJ5hPKfjtVEQEOq6beti9+P5b8OB7hYsUVludOXOW0ZT16jP5DYgwe1ac9r/T1a+wPGveorkGLigltLXAJZCpQJGnKHZE1ug9sc8I3gJ7PNpDs+SQxv8rQLlrv5F/gi0QGFcCbLm2SP9gyQEvxjhRTPfT06ZNdW+88bp0XehX6otWOUyIoe8jvhshZ4br1q53Lzz/gjyYTpo4SczrI9Y/cUiF/h/tkEkg7uFhMhjP2GsKIwC2Kp80eXL4xZxB32GPFsZlVAMuvPBCSfkD5iF9FJo5c+Y/cCF//rlAvsIxG2L/cyGXwQNihIIjnZt9Hy686EIp9OArmxkwAxqNGhEgSj+IyNeuXed2CrfQfu3V19xrr7/mXunzigiYYOkf+f3IwL2oFTYz4XvuvkcFfuutt0qjGSWkGHLLL6JWO02ywZR1XRzdHHJoPRVgjAgaPeC3lYW72Wbwp5x6qnFiJ0jXQR7MIB4gb2WbGiQojGvuH3O11TAewlh+qF+/gb6NQg2zC6xR2EWUxsSOokhGlixdonIhbaxL49+9qDEJ0kCPpJGdOjHBgUvGlhxPgIg9i+9ZXMsxWJ0we0GTe8GC+e7333/XUgidg2WkZic0k7iWtXAabcr851e5ZJCvYKYiEXnYfrEMgGGESW7duo3W61mS8xYArNnL+RuzPCNu9A/6uCcq/l5SFOSYav1l0aLF7u1+b7kfvv/BPWoTE3zDSIkun8Aa8s+//Ozuuesed3bbs92pp5wqPQYYCs8w5MiwhI98eRE20axcumRWfCzNshuxZnH25+MXIrQh7joNUN+4cWbQKVe+nLvj9s5Oulo+2cSVh/i2KiJpRiKMR8kTjm/mzmrTRmMOEyvM6JGUacnVw79XEO0xrI/PP/1cjhRpJ/iaQPJEn2G/l5in1bCskRKgv4B1CD4iGKjx0QMj9PHQj3UfnbRatWpJcvRa39eMCZikd4OlqiBDhxx6iGt7dltt8vXYo4+JOQS0p4BJ/EcuqtueFY7dUYRpYUkcyT7pnTFzhhgOpNeXXX5Z4No6EcTryzMBRxxxRMA88AM9A2b67KPweK9ebr/9KscPsIDLaGRKuDV/O+CCYBQGvT9IjyBQ4JHuj8hb1meffObKV6igzCpOK5eXX3zZCEI/aSvjpjM2SIegM8B44K6Tz75rM2SYEnbVjCGNRoIJGhrKOOa45957RHRgmGh0isn+g6np+1pf98nHw1yXrl1k1w5RxRpEIGB88jYZ5ItBvd87/bR2RDmTR9xfI5KdMH68GzJ0iPviiy+Mw1wucW2VqlUk6qq5f023vxF9llRwwwpzFLVQ8ZDiqRUajZQzBAplHZaEJk2YJCc148aNU4OHwBxz7LHulFatXN26dfU+a3uvvfaaOu6l1rjotHDeUvKKFkQ+lksGBQMYzk8++UTMN+uaWAzgGEbte8cijo2BpOxn7STKKKhe6XgGDYj2558L4TOhIIi1h7VxlhzZIO6tN99yfV7po7QrzZvb9sL+g9gX5WxEwUyC/IAkmhTmMyfmgX6L85/+77wTs1RJhTm/z3Hfff+dO9UmKX6XYJ8P+iv9i4nEmNFj5Gof2hyjQ6lAMi0NpHfK5Cnummuu0do8Vm+xwZVvhN/Z5mH1IljSoUFMotjVGJE+7ZB2APOAMmmM+aJ6fBUVRHskbsrPzvSnTp06uf/7vzPclVdeoUmcJlgEsfpEp09nYz51z/580mAcuS/W0eqssLc4TFY39pKv11g7yKkOfbklIiwPyhJ9vrvuukvWVVdedaX0EZnYZwMJ9olOgJiHGTNmBI/DQBCY1TZg33Hb7SIwGih8YjlHE2e/6XhwV/fec68b+cNI98EHH8gSgKBID9Aq5WDWjwkY3uHYzhT9CBw/ffvtcHevDej719jfmIvyAUHwsEiWLV3m2l3YTiagKJdg7gRdI8EiZHzIg/vR34a/l69wPXp01+ZWeM1k730xRXBglheC89qcOX+IeJx77rla/8G2nUJVI+APIpIQ96YApuGjjwZL+Ydd3lq1OsU1sYrA7hdmAZNZlhpq1jzA1alT29U6oJaUT5FCkNCgMRpP6okaafKZAP46TKvyGg2rOAIO9K8lf7kp06YasZksEda0qdO0GRebf2HHC6OCYg6uSzG/vdDqgQ4Mt088sfIPv5XBVkak3j0wdX7huRfEKGIazb4U+PxnpkGbQncmzmadODjRycL2EjANIaMdJcpRWlAQxDoEExE87X391dfuvvvuVd8pWaJkYJmQD21v+bK/3c033yTag0gYKYzyS9x2eAlOSlBU1sfu7HqnDWpvu7vu7irCrL4XeY99BFDCZJJSoXwF16dPH92Peiucv2C+BkYksvTBx3o+FjwI6yUleG6f8gMNy5NIkbHdJ54YHc8hG9sUrG2p3VleqH/W/U844Xjt6szkr++rr7kvjV7i/XeLMw8hfhrzk3v2+We1hMDk7/DGh2u/C5W1fV/1b39KktWL/0OXiHHFp5v2FWsDCfUjyVeE+fMMbDAG2i27J/ruEe2THuFjJPrQciaRKEj/3xn/J4aHJcGk4BvhdxLRpEkTV9gGdVlbwASQSJTo0M6nkR98yMGqHN8gga59aiigDf9Ii59tUsuUKSMROeJQws/5Y478JTBjJpGIazBXQlTDujxxoXWK2AZOG+nD7mxmEoLvsLsYIno8Xu5l77JG5LnwbB064Sczrptu7qQdKR968KHYbEB5sTxTX37WjmMrGJRzbeaBmdouO+8sxcEgFfanWlLQTQKVTtnceutt7v33B7nzzjvXdbi6g1vy1xLZc6N3gKb7ZZddLgamVatWrt4h9VSmsRkWSbB0KP0+LcnSFLkXK6NIeF+XDCAsX6ArgV36sTawNG7cSPXD7I52gGczdlSlU8AE/vLzL1orL2IMDrOk/BQdZ7B5gCmEKNHWbD4ry5vOnYNlissvv9wdYR2egRF9ot1t5s6eKao/moM/AG2EP9pa8CP39p/Ts82E0mC0Yrkxtu+//4EcWJUyWqHZUj58d8TwERKDs3YsxtgiFXNO3CHxDEoi/k8MFlcWDjHy3Xfdbf3lMPfngj9lDUEYZosMGOyRI814YxpYHsXNPUuCGhj4jh1SXr3/PlfDJlLffvuNHONh3SGEYXI9oGv/FNJSI4MaJp3MEmG0fL/fLuDL3QpXtNMmqK/2fVWWCUg/f/rpR9ElTGBjA2/4jlAQWU2IEwsFFOt3tckybQezScY3tuomrKe9Olna1F647//CPhWj5/6Ig4Uje9zndQurfsk5vAZIFGBGwk8EzFMY1+Qpk7XJ5TM2WcfJ2LXXXqtdNCnHOMYrimzpiAceUgtNnz6dtq1BlMhQRPnbOPEuxkXj0hnxF1uHFtkpItYIuRteJDx7qy9ahIKdolKHYG8I4gs6mCFMjGXX/rPD7uvPznBXnsPyDcHHg2IHYABlrXDjPxtc2TJl1cljsyEP+0E8OL5hJs0sBfHmHXfc4Q6odYA8laFHIfAZPmLv4C3uxhtvdB2u6SDuEamDCJOFIb368xW8KbDyogJvvOFGOQi5zRgINhpCa5d0oqyCdjemVsywAiXNND7mucxkQTchrTCC1CczJESwaJmPGPGdq1fvYFlzQCC7Wrv4w5jCJ57s5WofWMfqBZHbZpRNBvkDa8u+ryHix3fDa6+/Lv0ZNLcZrGAW/VJFYSMaGrgAdRf2hRhoW/4+8M/870SEURUUII6zZs5ylxkTdO2110gChnLn5rY71oFx8MRAC50QYSZS4uXw5ZAElDdhObNcy+DRpGkTTVSGDfvEyrtoGDLY0hyJImBjJZZjWSKO9R37DjpNWLrAALLl+aGHHOp69uqpd9IFNNjHuXDBQpVX9+6PBAPa9gQrD8YH6CDML74ITmx2ojwgU+8MXixb4MXTLxfEoYDbYwzWH5h0MrY88+wz2kcJBuKMM84UI4mUrxhLGtbfqBfoqx+3YnXPARL7YF4Qvkv9Y6mHh2TMWTE4YALPcjTS/8qVKmdJGvz3OHN4+DQl3o8A6XSMedDgbRlU5sKSf/utt/TxajWqSZkS05IdCrHmHcIuMG0a98tYzVYZGImHzhQoR641ApVVsRuNQfHLEoQJaZ0GoMD5C7/EUijRhPFb2RKv0mkdi4RjacD31dFBmNlfx/8qn/BoTbP8gGhmr+LFw3DoS4Styk7kdfWqNTLNxLrg+htucCVK7CNFSavZMFhw3hzmAXt69teoUKGCu/TSy0Rk+hjhYKtwzCa91zFAR4HpSutbEDaDypLMRxAjgobEZ8lA/hCfAXGwRlRZ2hk1cpR709rB6NGjtKxzuM36nn3mGelMoJiFYmdKsVcGeQPVFK33xN+pEIbbsM6Y5l9+tvp5VgpmZ7U5S4wpjp7YARIlQzS+eUFtw8fNOfFbNAV/H/hn/nciCpx5YABZJAnKscce5y6++KLAN0w0zZuAtWvWuU43dXItm7dwJ7Y4MdanhGi5JPtO+Aw/LPffd59E10jjmAjAiBx33PEK5Okq0iCWBVHKxiW1mIdwkhAd9PEc2ax5M9ewfsNNYh4A8a5fu95d0O4C7SGEYvR2BZH7LOYBazs2Z0MiC31Gjw7mAUn0VmUeDJo0W7EjrWJiNWLEcI2HLBniPRQLP8zl5Xxtn73VHhiHVN8gPMXa2iYA5hRlWfwYTfh1gr4N09KgQX3txqwxBol9snLhu0GzCUAaOBLvR5DFPAD73w/oepeM2YdIFL64Bw4c6A4+6GApWMDFkHk6Cu8k6in4uACDfRSxwT4OrAtlhYuGgUsLIqQ92Z8NcIjg1El0jzWkHdzCRYvkoIoZAEwO3L2sMiwqDaOqrCAqD6QtWBjgse3mW26WfgFcY5Af3rFTGD6vzIOIgf1BJPDPsG+pfd2DxqRQlhCNhx56yB115FGuqM1OKCJlMyeQDv99fx0tWnufb6K4hQIWfx7R9bVssLhQmhRnbH8+at+weRfG7quvv3a33XqrnJxcdNHFrnOXO2Rz/06/d2LpUp5DYphBHmEFT5fRHghWjlGGzK+5J5Yt4TzjCMM58N2BMtNDTH3WWWfbrGd3WQxAbNHfAUgb/CCVKt4YaAwcgCD+2iO3NpuPgHlY/vcySe3IC25584N5WGOTB3w5oB/AMmFe4Ns7+y6wpIeZJH2FjY9YVkGiQQIpbuqJPohUF2YFJe6X+2QxDyrb8HLZX8vkyK5B/QabJnkgIqsbBt2rrrraGIjzpfew3SEsE9opWx0wGWzRooWkzujLffnll9Jh02TLh/dtNFXbTGzDHmHZbxKicRKP/WaJGlPM0T+M1hYCmGPiQ4mle6/4TnurVrVazNLQS/9zA/FI8X3iJHlMRrKAO4MVK/4Wo3JSy5O0Ayf7fsBAaAkOkE4u080r4VOUl5gH41ZSPA5AxUGcJk2a7F568UU3cdIkrdu1bNnCVala1ZW2QXHvEnvrI55hoEPQiHVNStNNbE4gukjGWQPD8xsFiObrjz/+KO6OwQ0nVaQFaQVruhqceYn/wtzynIEdHwpIT7B7R79gZyQdxsn68Ep/eO0v0wFiVsRHz9gsHd0B/Cd88cXn8oFx19132+zpmKz4fN5ywJJFS9xLfV5yFcpVcGe2PjMW3jMezGz4JszQTz/+5I5ocoT86QsWFqL266/jZbIKcULPBH/6rNlhJ666C8vGMw6Auqc+iRv/D2xRzlrtcTb763TTTdaImkjJNiVzkkH6CMtfmx0Z84D5IEtFaJojVkcviNnF9BnTVYeIS5n1srTH2jrhYQ4Q62K2i+8GGAdmZ5jl7rdfFVdin320uyPO0krarEg1bf8l1V0hPWGakmILVjlSFcyNn376afV1ltSw/smt3+QG2jU0AHf6WD9sSjtG0oneF2Z49B381Hzy6SduyJAh2sbcA0keCtOdbuykweWll1/KYh48rLyp2xYtWxodO9T1FAOSPsQ8hP0XBqX9Fe3d9dff4A6ud5DubVeg7VlWPPMAQ8XSRXGbvSP9/Pyzz7Vrcn4yD9HHm9m0YpFBW+mr06ZNdz///JObPn2GmzV7llu44E/1W1B8n+JaWoQxZnmLOoQkc95gYdiWHhqwWpsjrlA4+jC+T3A0hbdKPFeyjKNVBL8kaXEEyQiZSjKVbsZ4McxDIo488sjcmYcoaJjsnYDmNgMiohFMVHBCVPegOsZNHWADUpUwdBA+W+fIC3zKOFtZ4F56kjEv+CHAegIlTRT+UKCqd2g9t3/1/eNmbLGO5OPh0mqEQoTLg3O9o/MdrkvnLhLvosFtLwRhLGyMcQBcRn6mgwnjJ2qDm4ttpl6iVAl3/XU3SA8D86u4Bu+RQ/xomt98880aGPAIxowSeMYInw7sOoqiKw2V7cf3r1EjCGN/OCFp166dzNDYE3/mzBnulltvkWgbsSY+IwgHfL712/75OqSh4wcCpc+7775Ly1LseooI8cDaBypMBpsHnLSxgySWS7RxpDtI+RjwMUurWLGSHRViDp04qB8ILAMSgyGMAHUI27/BfsN8/P7H79rlFq31pUuXSLrG7oD771/DHdawkRSp1CajbZDmEG2fidiSzIMxVOji0PaxukJ6h4J1XHo3AfQfJkXM3h56+KG8Mw9WPszud9l1ZxFxaA50EaszdJrk8pdE8s/qCeYB/SrqORXzAMOImSWToLwyD7wf0K9CGqzYrIvlReiksJnltUVB27P00rbxI8T+Hs2MeYABxtEZzAODZ4zxJTwH2NrMQ5h2f475WLD2Qf1wwAzQN2nXuApgnxnaDq4S0H1pbZNElrrplyw5oLQO08AzdOb22GNPYzgCi8A4/SWDvscglghuJbmdFKQ9RXmJeZg6dWqKx7mDmQ4mQXhlxDslbpXhtJnl4IugXr16WudBVEOn5A/QsP3AREZ85/KZQiyDwseE8RNEQNls66eff5R3PAZ9zETQwWhyRFPNrijQHJmUsBCCjAYXi5csdld3uNpVqVxFyxasRclEyycCRNKUV6Az8Pobr4vIDeg/QPoU++5bSo450BBOCySY7xuBe6THI9LiHjJ4iMSdtQ+sHTNVY8C4+ZZbxCzQkDBle6b3M6oDj8mTAm3vXr2e0No37yFe/f33P9yTTz4hZc0oqJ+4sqDqLD1IaR5/rKfqpXuP7q7Vya3cpZdd6tq2PScaeosOLNsdKMcNG4K12rCcGPjlw6BPH1kHYbp82umn28De0FWrXk0EEiIa09kJIUJkf1ImtjgBhESDYIR4cOXrkxnwzBmz3IcffqBN1ZgF0U/bX95eHhXj1mMNfjDKhi1Yx5QXO8f+YEwVzP5zzz8n0e9mp8HqYsyYH92111yjTYgoa4opnYkPSynz589TPyI90DmAq2ic+lx04UXuxk43Zq3JW1p5xj3qm34ct/QILAyMBQqhOIx79LEeMf2jdEE7ob5YLsViA/2LmH+A9KMpWEDbOHKDlYeYB2Oo8J/BmFK5cmV52R0yZKgxwOXzJnkAid8NyyTF7XxHtG3BFDMpY7l58uRJ7pabb5FE/OGHHlY+veQqrv+Rt0i7Ea3mORkgGEe0LKLwz9NBqjgM7Fe1WcyDB4XBLBRxKpt64HAlmOUslAgO3QgUtbAioBGjHBhUeJALFCkhfuvWr5V4HRElBQJnVdw4LJYTKlaoKI1h1oj22htzKl60I6dG4hEWgsisVRJiHRxlsE55z733umpVqmozIG8CGkNeCjoBEAfMY9hFFM9hbKrzwosvyIQKpCROpDXhNks0SEguaneRfF5gznlhu3bymSHYOyh8wo0yM3v6qaelW1F9/4gr7iSfuvrKqx0btlAO+M/IFWF54KejdZs2+gYbcCGN6nZ/t0BXJJ36+K8irAe/1EQbGT1qtPv0k0+lYEX7hqNnyYnNl4Sw3mIzFv3Q/1mwn4ra4sxi+OzKXxp038cFM0DbC9MDY8kkAB8j9Fl0cXBXjkSRcOgUJcUWrGsGUNz2MjND5wYlZ/kvIJNhvjYVMN8PPPBATPrg+2iusPLDvw1Lhb2f7R3csnTCwKMIjSksJuCYYCuNFp6lBEzlyAv7HXA7OjAwiCxb/pec2h1c92D32OOhn4d0ENYnAxLr7Pi1IV0whjFsZlnlG0irHf/kkh6KhrEB5uFMYx4O9syDzc6HDv04jnmI6xYp4k31ueirHvleVGH9xM4GJARMFpBUDRo40DU9sqmWZ4oX39vGv2JamgC5Mg8+Qk7+G6kyFYkqR6SKwyDmYcqUKSkepwH/ZjQx3At/M+j9veJvieoQq7New/os6zd0MpFC+yephM2WGHw4EMUimkFUizSAxsGATwHFOPDId3IFYTl0+kdpQVTPOhFmbAyc2OrGgbjTjT8J8DFx2223ucaHH+6qV6smBS/2k0DqIMaByJMR32i+7BpC8PkXn0uzmLXZq66+SuZ22JQX27OYZmTE5cWtH7z/gVynPvHEk66GZx6SAHE4m2rB2EDMsjFOHqTFpylMF/WKjTUSG0RvAwcOcj17PhZIbnKZrf2nEZYjdYZUjXV7dIlatTpZG59VMqKIt0fC4bMBJWJtTuUH+xD8jiI2gEJQUhV/svthNGpDFgfiU6xohg0dps3XULzU7NUY9xii8aT6VkHA8obUEYkk7vOv6RB4UJS4djPTwcyWvOMxEFoAQ1DI+hNKxDlh9KgxrkOHqyVphZFmKYk0sg0+fQNGB6dTSBGoTXYRZnL1VO+nJF1glslyX/VqWf2UjYrw90AfRska83Ge16gZLEHmBgaj77//Ti792bfgyKOPDJ9sY7C2R/OLb8nZQdOW5MHoDA6iWNdneYjywaV/hQrJmYfoWBtFqqaSmA7CcW8zm1Y8oh8JIx71wyjXo0cP5eHss8+WMqVMqnfdPTCrDvOWE/MQgw/iz9Hv+WueRaLKEbwTjSMCNgnLuXfkhmQJifxmoITrZkaFn4V6hxzsGjRs4A63AfWIpkfIJrrJkU3c4Ucc7ho1biRzIraZZW+MMuXKSBqg9SyLk8ExTnSX+N1UiBQAJ5gQbHGZLZAOJAMse/gyEkOTD4Agr7djN2NK+KZsvMMGkJJxAD69HBYMHQ7EqQwuO1hZtGndRjsisr8FIC7NSGlM9k5cI0sBGJKXXnxJZpYQYd/5koLowrTyHt9gYMMUl+UlmD0+CRHPMA45g3YA49XvrX6SRGFCiWt2zA/RksYxma931ke9uFt16tsEdZzwp/uemETCZTsSQXXZQR+jf+25155aZ7/19lu1i9/8+QukBPjFl19IshjXZnl3S4G027dZTqEM0U1ir4v86qs+7yzrzZ79m+t6V1e3csWKWJnB7Hvo2v6xhIruyGWXXSavnfPmzQ/K0voSjtROPulkd/VVV7s5c+Yo3axpo7CM0uf5557vLr30Ujd/wQIpWsZg7+PUCWDueUbrM93cefPcV998rXup4NOH2fmYH0drknHJpZeIxhY4+HRW8WTB3091pAFPyqCjSHNE52Ck7T50B8uksAfogPz4I0ckSYuPw7+ajA9PfC3xyBUWKJAgBhOwV155RRO32rVry5SfMRIdQibOTMTiPL+mC5/oaMI4CgCFJk+eXEBRbwNIUnBz5s1xF5zfTrM9XHSWKFXS7WQN0RNqCJKaY7QlbQLWrVnn7rzzTq2DYl6EKRjr2ZgWqWXmxDxEvstMBY6bpQVs9SFYd9x+h8ShbO+qsHonEC9/NPgjubSV5MGYsGRgIzJE1N0eeMDtaY1VcSTjZIFPi50lMbGeycwKqxb2MkEiAiPW9c6ubqedQwdcGSTFH7/PsXrpJYsJBg+YV5kbhm00xviFJ0kYIs90yb104evOkI2pJBp/K1mU1j6zXKm/Iedp6LZgyiwkRJdviKYrATDIOAvq1u1+bZBHn2KwzpFpzSG+bLCwLME92uNR+cmgjjBJk25RXpBQtjA81KWY9PA+efEDYTD8GTj59/II9KGgL0yMWNZp0aK5JkZeIllQgD6x/EaWg1lykAEG9tygECnyq7bP2WgOelarVq50d3bt6ipWKC8lQnYYfuDBh7SknUxCxPJPInAYnPg5yp6lE4VOeMhPvs9eFPgKYr+nnJAiKwKTSeqfnTPxmQNzjiM+9saod/DBogNIGqDxOFhkaV9pC/MR13/JbrLiJYgPxmvZiyA+TG5IFYfh6GOO/m8xD2zn2vvp3loPZMtwNJC1oQkcXlgZKZkH4km30EP0eamP/E6wXMEGNZiDYTqVNvNg4bo/2t39OPpHrYPTADmGDhmq5ZDbbIYYa2D2j9n/4CGDc2Qe3hvwnnvzrTfdPffc66rXiOxOmqwxAp8WO3vm4fnnXnCfffapxG242G524oly2lPQhGq7htUPs1Rs1PHaWqZsGUlyiuwYcRusaqQBhIhc5gh73Q9Aej/Zez5M+CmF4TrFNzSwFS4k/aOZs2Zp/xkYX/yTxN4tCOQUt7VRTIyfee4Z6d10ubNLesrSeUzrqhWrNDjRTw4+uJ5j4yOvDOmhvhAl6NFvJHzT95uUaYn2PbqQhfNjX+wTyd4zsPzBejmWVphms6sxOgGEz7Fc8glYugHKwrdBENeOk8A/TUV2smAhLW6kN4sWL3LsILxh3Tq3ZvVqV3yfEgHjkORTftBNBClMLBVCBkfWO7yu4rMzcdWoXl0u+3NC0tIOoyQOTPcZCzgwdW950kmulPUpmAYYPQ6v2Brrz2E+tknmYdKkSSke/wsQZl4VYIU/Y/p0d8ONN2idn0bPvh2IvxDBxyrJl2xiIfM43UI3MDBgUopLahxQYT6JWBS/D2gMpxxoSa8RG/5QEkKchYmm34YcfQ0sKdjgZNjHw6Q0SXhmN+Rx8Ecfucd7Pe6e7PWkq2YNHl03xWf5Y2tv1llxVnXQwYHd94q/V0ryQjkkRSSZaJePGzdW6+CYmzH7Y50Y23u0yzNIQNhmlixe6tiTn4EOPRjW1eX+XM3SAvi2FiEI1H+UGAs+nL3Hejoz4jL7llFYrf3zPcMGm/XhkW/JkkC0j7MYOT9jBh2mKa+YPnW6Mau3udq161jd36B12U0Fk1KyHRuALekyLTNqHXTDf6Q4zVIJ7Z1r1r3Xrl8raQgm1j+O+dF1vL6j221X3G3vKCaMMmAGx74rLBMmuk7nG7rkVi4DK2nDvS8MMpI19BZYiihRsqSVZSCtS2kFkVDGCsf3cvpksrq3f+hQJC4rsjyBjgZ9EdE3SyNnn3W2vOmy1EtZbSlGvsGhDaRkeljDw3LOXwIoIqQD2RQm7QH5D67tKrxcZe1g1aqVwfKZgfrFLwJ1L8ZF5WtnO7yTPNV9AlIlUZ9JeKitjSwBA9591w00eotlUk5IGrfVK0suWLXBeE+3Mej888+Tufyuu+4ixmFX2nCRwmKQYmmOFUHYR0C0SiPtJQaC+UQo7cFlHKJhckOqOAwoVP97mQefKzurAqxxsf31dyO+k5c6bGa1nSsVBgFIrIzEQia+xN8gRUXQgVnXYqBGm/3ue+6W6Sba9ffcc4/chUrikYgwXogX66EsDfTr3y9G+GiIgwYOUny9nnjCHd64cYxQ8M13B7zrej/T2/Xs+bi4Zb5B3pcvWy5nTjjSat68hTh2TGtff/0N16ZNa+k/JIV9FGkHZxS+UCaraowMa+Fd7uwsZTqYohiBS1Ee/1V4/ZKBgwbKvAyRK4gjbpw4fJsyQDSzFWUYjjhPOeUUbcyDBU8M9g5mX0imPvzoQ20ihJXT2LG/aEdNlIN5Nyo+Txe0LbZ6vtGYxas7XOWandAs1wE4Jcinf9Wu6Z+///a7mzptqps7Z66bO2+uNNAXLV7sVq1YGbRh66eIj9fbYKrCMVB+/sBigkEHJhpHOTjGwjUwZcRMvFKlyrLcgsEgTE7Mu9Kmsgy+hRk6Sssw39QfHmwbNGho8VaS+3y9w+Gj9HGEiDFJORVXToMB8RmwhGEvnBEjRmjDwD2K7emOsRkgviQ8Q7rJdbKJ2DzmIcxa9D3uhfXLD/UDew5DTBukfRMeRWJ0wLwvA/pTFMFtH08Wkt62m6Ku8VEEzIM96ffOO6K57733ru6nQsLrYhph8j748EP3cp+XVEb02xIlSorJxfqQHag5x73Md8M0ZpiHrQGfKwrKrnHf2a7dBXLYdORRR2n2gFVHrCDzyjwQPjFMBH6NC1NVXAXjmwKHUcxkcLDFskKdurXD0BGE38GN7XXXXyflyDfffMtVrBQMOsw6+vR5We5ZMcF6undvV6zY7iK+34/8XgMVJrOnn/5/7sgjm2r/DETlEEA0wHc1TpdZ2rp1bMBVVKJOBn8U9pLCGiyddsLEie7aDtdI4RU3vGg74zDqjTff0EZiW5pobS+YOWOmLHvYP5/BnMplbTiOKPiiixZhEuKgd4zRxTkOdYbS7FdffhXnN4QZOaJrXCDDJKJ4iYMxmD4YGGY6wiZUF4NgYFI2SE56/H4saSGhP3KGGXn//fdlqoqOAYS0cqVKkrLVOrCWzmXKlBWjC/OAAhlme2vXrlFUMBVFdkTKYO157bpgbdxmp2w5jNRg8uTJsh6hbyASZrdKPOOig5TU10o0jR5WD8z+Ma3EUREKjW/3e1uMdMWKldwxRx8tiwZ8TsTizCOtEFLQn/nzFrjvv/vODftkmPv5p581ecBN85lntnaV96ssqSGM047Sy2B9Pu+M4eYgnnlI/8MUUYx5SEAW8xBcx/qJIfqM+9FncfkOw0XDg1QplLQj4SEMCbfY3+mDD97Ps+SB9nL7bbe7OcYMX37pZW6/KlXcrjbmZG1Qt2Mg8U180dqCT3dc/rY15mHixIkpHm9nsFxQ3ioX+y/W6OwfzqwwXWLXOsyXmI3goTFOHJisFHIq5JwIgtISRmgnNivCUQsWE+y29vbbb2kLYJZPWrdu48pXKBeEBbxmcU6cMElE0DMhJ7c6Sc9gRr7++msREcCAhDULbrpR9tKsymZXiPfgbmvVqqXZEnGNM0ZEhRQCQlzSZmj4WGf3N8G+rbIzZoBPzLOG/957A8Ww4JgLcyLsq/sZAUWCwqYrOZbTfxxDh3ysARIFVwa52PKClVnibCk38Br1DiFCw7/fO/1caxtEzjr7rFgAxNgPPvyg+27E967YHruL8aNdoGeBaPucc88J+oVvBiQhnWSEaUYxDwsdvoEDohwR+QYSD5YcZv82Wz4lRo4cKeXHSsYsYBJKO8VR2c42AGs2GX4vSjx9n6IMmNXpubVTNvJL6k0PWHFjGTFhwkRtWIR3XCQamE+zbTbLMGXLlslZzB+mhbPvG+zw+dnnn2tgx9Mt6USSicSDPHHgAVPr2Mas+2UUDxgx+ip5YSfd1atWaZZKvPKTY/0Od+Ts1shSRE2bKDSxcjrk0ENt4ImYRAdFkh0piiO/weZdMA8NGhxmSTGaEd5PB+mEjZCrAgQfyf4h5cbKsZ8xDx8a09x/QP/wSTx8GilyDszXv/7ma/nbwYwXpcgqxjjQ/1lmw8qK9hZbpuClaBJyaIpbGpKaKYHxQJK5fTAPpDB7+gUvEpRo3cCZg3uslcLZQTAgnlgpHNboMLfnHnvKMgCChhiMGXhMlJnDt+KQC/PAIW7W/uHXAmLZuUtnd1Ddg9wll1wip04vvvSS+/vv5ZoJMTBDfCBOWg9PiJeB3Npa+MP++RZrJ2ajlEMMXOp9q3Y7kzfCw4RE3yN9MaIZ8CJ6jw1d0NH46MOPNNOkfM4//3zNdJ579jlt093ZmCEaUNKllwwEZoRIaPAhgqUCjAMdMVY9eQTvTZw4wd1+x+3uhedecHd2vVPr8Xh4hRCBZ597Vptj/WSzVPZpYddItsvveF1HuWC/6cab7OMRcsBFHhIDI853GzdqrO2RcwM7O9LO2OcB76h/zJnjDq1/iA2ETeS/ACVM2pfS4AsmbKJCsrTRdq2980c/T0bcYogQYt5BaQ2PmkgO0J1gKaBunbrujDPPdBWNyS5S1Bg8iHpUkhZJl2cePPMCDflr2V9yigczhK7JvAXz3B+//6HBn++xPIhkBGd5ioN082fx0CdhMLyr8TJly7ry5cq5kiVLyRKq1L6lxJDAQMQhTEsyxAakLYAo84DhZByU1xyQRhpTZDEOZDcxXKrXUn/SE8AsBGE3aqKXG/OAdApX8PRH9t1AJ+mUU09xB9U5SEvk6ByxxIXUNzZpjSaGBPtER9rs1kaOzMOECRNSlfO2A1KYutbVYWfPni0FRfa+QIEIKQOOmnznZQD1nZRBGksL1kQR/TMo4niEmUKMGPG9HL6ZDvMQXAaFj6UH3uXaXdBOrrHvvfdeV+/geu6dAe+4Ht1xErKjO9dmhWx7jatsKg3GhobG+8xQGKgTla+kaJZMaSsEM89UsyrFBePBmR4YgiURNIsXL1niburUyZ1++unBtuI33yTOGZOwPfbaw9JoydiGGvq2BgYMJE54bMShkeqMI9I+8gLaUu/evTVzubDdhfL/gRdBliPYpx+gSHv33XdLMZclJqRL7GNy/XXXazfcu+66O5ilU28+DambTzbQntDDQex6zbXXhHdTwOJHTwAdo7+NGT3vvHPdxZdcHLRJJDB5+G5SpFOO9hksRvyeN/q2NVrW0OlXCxbMl3dUdBpOO+10d63lae/ieycn4OG3mJwwcGvZhnu+Tjc1P9aPRCdChsUTbL7BX7T/Jvb/rY2GDYx5eCg185AKepQkD9FiVJgc4vBIyjxwL7z2ULx2M8lnDcmZB3aIeRvm4cMPXf/+7wQPEoDfG2j18G++1Z4/eCjFjwvjS9GiO2t3211321WWFEkVbAGJ9QlO1va2ElIxD0g+t2nmQQkPOxQc/oL5CyTSwzsiSwEoV+F0Ba6PQY1OjwUFa/y49cQD48b1G/VcsKggHMyqES1hzYB7ZrzWsWvbTkV2kldLGAscd1SsWMlVqlzRlbJZgCd2eRowIw1CZMBa+BL7zuuvvaalgEMOqSdfE1WqVnHDhg1z33z9jZs5e6arXrW6fADA0JAWbJkZMDTriQzySeo0G2JlSDoi4SWpsXvsTDrnjzliutitEOVOzNLQ0TjmmGO1bDHQ0jri+xGuZfOW7vwLztdmNNG6ySA5kDw8+OBDrkqV/bQBGeWv+stjj/MDC/417r3vXnddx+vllpfteHEahj+R0//vdMWLCJ3BnY3QWrRsoV012YeEpaaz254lx0Vqyx55rELE6HhNZEdWpFHZYGmgbcz/c4HEvejaNGjY0LU9+2xXpnSZLOVkkuAHTRKxNQhmWA/Qh5Hfj9SmciwdtG3bVksp3qIkrq0n1l0eyy/fkaotJbtPWvM5vSmZh8j3sw/LhkhaCKrBP/IO7UJnJk07BBJTrHEYqOlDkaDBfU2AAidda9evi0ni0oGSAmFPQJDE7MxDlFEhXTNmTDea/robM2aMlFebNTtB0kYYbDYcxMopKeOQkOcYtkZfSAG1fV9REYh5GD9+fLLkbzPApTUWEsOGfRzTAUDcyTo960kM9sV2K6aKKrpLIBaSeDjs7DhrYtYPKARv2qPfdoZjxMkJRAMbcqwSps+c7sb+MtZmTWOlpMV38DfeqFFj4yDT3NQKJDQO/bRGiiRkiuXlrTfedMOHDxfz0KpVKzEMc4whGjNmtPv22+FyJoR/8+J7F3cH1jpQkpEaNWqIoSgNIbZseBGYH5QC5yj+o+STTreDGjmKY6w5I1LDZAhpDWLbv/9eoZ0acYhz6KGHSjKDl7wB7w5ws2fNdofWr+/OPvssKVVujonefw3McllSQOkVJ1pUR56ZB6owqEbFc/0N17tyZctJ1O8HPaQa6J9IMmWdHQaVumbrXlwmwyTDYLB/A15cNwfoD9x6y63uyquudAfXOzi8ayBPYTphRNnYZ4cdd5B+RC1ru2Q72wBs563KPHhYOqArmIV+MuwT98yzz7qWLVq4yy6/TEy70hsmXddR+PtbA6QlMT05gbTmc3pRlIRZjTEPCelJmcRIWvxzxm9o/PTpU41GBltVgx3EPAT6IfWNPqFEG2MurA9gUYTCLUqy1avXcMVt8oiCbdIPZ09ikJQcmAd0iz788CPry/10HwYmOG90X3zxhaR8+GtggsDSF2MRdBLGIU46lQjuJ0vjdsA8HH/88dsQ8+BTYemkI+N/4P1Bg+SohQEdju7kVidr3TbQLg6Uj5Q5o0ycgQiUz6vdIi7PLHiIK6WC7DmDKo2AMFHxIO8RJwSbLYC/+fYb2RVjooiOAu5sY2tXuSGxhCPJQdHx+edfkDIXilWnn36aGAnMzVgjRXse5ZtxY8fJfA3GA4YHhqBc+fKuVMmSml0ieYF58p4yIYRIWFjSgUGYv2C+lCjJKyK04nvt7Q46qK58lOOSGKaKgYENw97q95aYLnw3YKHB7pzKK/mIL8oMcgFMKNYpfV/tK4Ki9pl0KpYcIpL2b83aNe61vq+JgKI/gSQOAtntgfvdz8bo9eje3ZWvUD5WR+oX9i3a8dDBQ+X7Y8jQIZu9ZEA77NbtASOYvcW4xxC2cdb5O17b0dWuU9t16nSTpdEe2TO52g2/qTR4/SLAOeyPCuPvA/87WXp9uOizaBzJ3skN9h7STdwGM2GAgcggNWLMg503hmsFvlo8En8LBPX1YwFoq9Bl9vaA0f7T6BX0rUqVqm7NmtVu2vQZbvGihdK3aX7iicY4o8cVbNX90ssvu6HWtokH3bHL0C8qZJPEhAagdARJjAOhCmnSlYBCNvGy+2+/87aYh/7GPCiU/QdtffTRR0Uv27RpI+XboihEGuOA1DvOki8ViCzJZ7cb5sEGx2TJ3+JgUKPxzJg5Q3bquFlFXM8ug8yImQ3L+5Yv2Giqc6skD3tHon9eUIsJbgvEl0M8CxcsdN8O/1aWDr/ZrK5p0yaa8aFFq/cSSzGHuBJBBcFxf/vNt+6Xsb8YBz1VM0YGd/wvlChZQrPNHYsEJpZLFi8Rp417U6wv5FBnzVoNFN4tK5/HWQ6a2SiIorTDGhxx7VSkqDoeYnBs65FC8H10Mfhe/UPru0aHN3b7Va4cOBaKwuczD/n7LwO9G8w0aXdY/Oy86855Yh58OaM/cUG7C9zl7S/XjnYeeB9tf8UV7okne9nsr4HihsHwjPD8efO1hfXxJ5zgzmx9Rqyf5bV9wlxDMHFahq8QlH7jdGmsXbBkcsutt2preMxFsTAgDExOAv+e9X3aEwdR2Zn0vfbaa5aXhq4mW8onhLMhw5ifQmKkMUFlsPDmiWr7lla+iUklyzWkASa4erUaNkAFUeUIvmOYNnWa69K1iwaFc9qek1EMToFGhzUS81Df6gvmQdUUlmFu2BipWy9JwOoEXZoJ48a5Zs1bWnvrJEXDUaN+kKM1nNOdeGJzhWVi1ePR7tIlO/+CC7TUhNSBSRixqd3ZOc3kZAPvInl4p9877sPBH7r+b7/l1qzb6IZ/+7V74/XXldFWp5zi9t+/hk3gimlvGkwx1e790qDPoweJyS1B6bTTLYRUzANO07YZ5gGHSuwICRd5QM2a2nqaNX82CUnKMPjrvBa0fy97eeQKZkwQ0JkzZ7o+L/dxkyZPkoLjGWcaUQ4VsWLIS7p8muy8ctVKiZkZ0LFqQOFsypTJki5gOUJ5VKxUUTswIiJDQsEzRGQQOF/R2KXjuhadEPQ5ILY4lpk3d56WacgHZ5ZAmD2wDIRdPTojMC6kxUtk4sTNHPzchPL7z8HKCkI6zRgzNipCR+Ciiy+ygg2fpwGIKkzhgAHvypPngw884Bo2MkINE2AE6vfZv7vmLVrIax1KkV4ih3QOh2TdH+3hjj32GNfu/HZSGN4kwmR5QNr1wIMPaDdQXLtjARBrFwbSc9+997tJkybKGRba5bwDIRfjYHFstD/apySB0fYTtini+P677zXbxx8Lm0PF+ZKwcltncaLrwZbc9A2cJul9Htv7ME74Hxk06H13/nnnud//+F2uprt7yUwu8OUK0Rzx3QhjgjoqP4dZmWeQHQXJPJzYoqVM67EawsMkugXl2DDRBmp2a25/eXs3a/Zs96i1cZZbYRbYFwJG3RUKHIuFTW+TwLsx5uGjD92zzzzrHn3sUe1NccrJJ2uZWZIGm5ihb1c4lJ7EJqgg2t98QnJL0Kb00QJCjszDuHHjNrVsNxtKmBU4szO2tB0+YoS71GY0KGMw492BUow0sKQIaniLg5n+x8M+ds8/97y2ib2i/RVSJMwVydLq82bPYEJEbcOyoSGi0Mmgj5SAZY6Zs2ZqKYKlCb+MIaVQe9V3QqQ0zMDoR9iXI0bDmRNbvuJxD98QMAveBMwTzaRIVvZbocy3ZzDIdel8pxgIlqWw+RaRiU7Jk5Qz9YkVUa9evUQwcavOoMp7+FzAFHSiDdjUHc6oYATRNXjk4UfEhF544UWuStX9wtgMkbaWDdFnkWtmdi+88KL7/PPP5K8CZclEjP91vLv99ttltieHY9G82DWDOm0RqUFOzMM1V1+j5ToUmV999dUsHRtr2yzdwAh8//33gbfFX36Wbo4kIOH30F06/vgTZCWER03KDPfuMCGPPdpTXStp3qMI0wvRRJcEhv6+e+8LpA9hWjMIgMkuujQB82D0xu55GpQbfKjgHPy/auVqd23HkHlo2dLq8SZJtMb9OlbLSJAollBfeP5598Kzz7pmFgYG42+rd+psjz321CQrGIFhHmBo0ktPIoKmEugtvWyT2qpVqko6296Y21o2waVNsVyMc7CdMTf2YHLg20i0rZCMdJKSggxvDaRiHnBUttWYBw2SBtYXH3nkESmAIQqtWrWaddKg0pMlOhuCGs4dlkuJc1MNkImgVNKIlzXtN15/QwSG9bg9i+0p4q0GlAz50TAsbegvLFuGkudyMREwEOK4Q3BNXtH6ZRaIUyyUv3yZxg1aUSTe9lFyP3qdQZ7AsgPKsU8+9aQN8I3cWWe3kfWBZrkwEcziU7QZbMfpJyr3TS37kKCVKVsmMOtMFg/1y2HPSBN/M2fMcn37virzZ0TGLNPFLVcAe4eBHkdMbKAVex7GF8TED6K2vwjzAHEC3MMbJGad199wg/ZgwTEZZtQeWFeh5IsJaveHu7tXXn1FTBnfg54QBzb5Dz70kHaOrVXrAOmG4K6d30M/Hqrlz6R5TwTJsnD4Y0H/ARPXatWrWnrtdn704X8JNod5CDg5C2/B/TtIQzGXhXmoYO2U2f3ESZOMISjsHnzwATHd64z2sdPwoj8XuJNPPdWYzn/EYCChO6RePfe/005ze+9d0mJLp6JTQ2//s0HMA+brLJGxjMXSyO677aplip1s3JJfnjB87IuJnw77X1pFsw21r5yYh62WTDo8MyNEXnvtuZds02vsX8MV2clmzBI3ZU9wMuCtjm2hc6wUe4aoE+9tUVAwiHdx6PLuu++5V18xAjh+ohGckIqnUdF16tbRxleIhBG1shzgCWKBwYoGRqBEyX1EXGseUNPVOqCWvPSh2c6B50nuVapcSdYaNHIR7vDPx5PtSET0fqowGeQKBuMjjzzKZr+PuV9sxsyM6lebrVOeKRm5EDgd+unnn9yY0WOk47Apx5gfx+h9zHJzAgw2jChpYuO1K65o7xYsWCD31ujDZGMcQqCr1NAG9bjnkfZCm1O/hkmKZJfffAupw3fDvxNxrla1qqtUqaJ76823svqgnZHs4dFUjIKXYIQIJgWFtEX0rjvv4vAaCSDseFhlcJo1a3bct3NEGE7Lgrvt7pYZrcJBlj6ZgsnLIH+ByT10rFTJEnLpLlg/oj0uWriQQUTXrVu3dmeecYas01564QU3dOhQC5e/lYS5/hn2jX1L7StF4T2KFZOr/52KYL0XBgIFTPq3JeygGUZBHjaQJruP85oXX3xRhY3zIUQ/hIUwQEiSvaMj/BOR27BeUouHH3xYM4xk4SGWvZ7o5S44/wIxENFn6FlgSobDpg1GMDHVvO66ju7xx3sqDSwFEK+3vIi+Gz3QOWD3TJignj17SoExLkz0L3o/Hw9siCGgiIU5ZJLKtRFziKxv3xY66y9JPJmjYA6W4TZae0IJGC+dRxzRxHXucoc0y9FNWP7X8qw6KaSr2N+hhxzqLr/8cnfl1Ve6K666YpMOTCt5v/HhjePTpj4XXtsf+jFjwv0x2Cfl3HPPs/7Qy+1jjCqNCIdLce+HB1Y9rP3ixCjZc961q6TP+GO5gWU5NtxCn4IltY+HDbOZ6OpYnLRiwrJ8IOVp2nMkDr7AYMKUyDMk3Ee8DL1YvXpVVl7TOSgbew+FPRSU8QNjd4P6SRb+P3gA7Y4ZHlyne8TisT+7yDpCsI1A48aN3YU2KcONeFD/zujrWj7qcKx3/nnny9U4GwQ2qF9f91lCW7t2XVb8aR2MOVmHVX7kOlDSpX0XKbqjrCkCaUOYl+jY4Puu/+0Pfy+dv8R3t9YRzVfCAba85CFsG8OHf+sGDRrkLrn00kAp0urISxyyhrrkgMGwLMipEQ2ItdDJUyaHT7OAe+VXXnlVm8tABCAmURAHa/7MAvGiyLIJiiDst467WaVEA68oX0owQENckZ6MnzBeSmVxIDv+KEhEvxP9XqrrDLYcwvZNO2JN9vLLLpNnQ9wQd3+0u1xOo5g1n8EPJNSXZuz5BN/5fZs28ud+m/WbmAV2Xn36qae0NPDAQw+4s85qo+eEFTPKklwSQFix3qGfbQoY9OnXSMnIb/36Daws5gX9mk/a95Xs8MBULxnWbwz8A9BvgyUh53bcITDbk4OhvFA8yt3+UD5mW/NtSZy8bYFBPat9Rqop5REFb4rO2hFFIE1y8m+DrtCY0aPVxvYpDiO7gyu6U1G3sx3QdQ7M1newQR0JUdBY8oLEFJIjmAcGyw2WFqelCpYsioR9IPYJ2kl80tOHMp9wbCeIlzzkwGnky2FcP50ef/v9+/XX7Ktu3TpWTQnhcjogALhUtuuX+/RxZ555hjjU9957L1tYrDVQnGrRornNVoxTtMqOPkeJsNsD3STa5zeNlZ39ovBh4zjlFAemkHhm/PSzT5M+zxyZwx8QCfxnsCyAy2nMLF/t+6pr0by5u7bDtXI+w/ovuhKxfpmXWXOKg/iQjLFJFYQY76Ht2rVzp51+mvoQa5lPPf2Ua3tOW218JQseo4z2dtL4dNjf/jX2l4c9MfakN11aEob78suv3LsD35O53cEHHSyzPPojG08pTgtj/2XFa3/R/snBAILOEUuRKBIH9zfK4ohnexXfK/10hQdLq4sXLhbjlOz5f/0IkHAvjSMaPv4IggCk00wMixjtnjtnjuvcubN2FmX7cWj7yhUrJClbb3WNc0CUbDdu2OAqlK9gEzqUW+O/mZfDp0fXJMaYFZh+xvY4SYMP8x87QDwvHdwrONjXKPyFC/90v/3+uxwiMWsnLZakIExuUO0FWx3jghdfC+xP8eEHH0pTNwp0AQgv/wfWEPVuFPZb0ojw/vRp07WJFso4MCS+kIA4S37mkEzEo+gdEEcGGcSB9uMPTtag/FIbu5/iS6Df2/3cE08+IVNc9G8uvfRSd93117sHHnjQvfLyK9p/YdQPo9zUKVMlTcNBDoxAdMDmmsGTJbmli5fKYykWOniiZHMq4oVhvq7jde7ajh211TNKbyiEoWx46qmnSkyfV9SpU9dNxBJo9szwTti3PHLoN1guDR/xrTYUQrdjtM0wR48ZLcVOFJJRCBalCstP/dL3zbA8g28VkiURxB1nVdwjLEsi2N7vW7JUEBj4vpwqXXYf1/aYaaIkipdZ3ba4M8hf+BKFQWOTMZxCgSVLFlv9/yIHen1f66u2zgDOcvXNt9ziypYv5/oPGKCt17/6+iv5fahp9Jfdi5FI5wvUvgo5BH/sCaMmQ9uza40JEST83L6gjAWXMeSSoUI///xz8Ir9T6Hkp3g0G8LEoXvQ6cZO7q2335K3w1Aqmn7hGyHBYx9E4YorrpBLWZzT9H76aXdI/UNi4i7BIkapslOnTuJc8fcfBQR87LixctD0gxFmli3+979TpYOByJI/gVMuCURi+6sxDlhd9H8nsgNbPIuWwX8dkTE1GegLfy1bKgdgiPNnG5M8bdpUOQXDCyizYdbfcQJGWy9sDLhv8xpXbdBEX2e9te21RnCZvWGmy9JaxfIVxZzgvW/fUqUkjod5Ud9Hb8Zz+GFfFdJovxD2no/1VN/u0aOHljFy7T98g/45fLg06Z9//nntIunxzNPPuMHG8OCjgf1BJAEhnXbmG2+++aYb+cPIMLTByhXfK+ecc4677bbbtBQJ44G5JeXDsmKMvvk6SEyXaFFAB7/+8mspQz/55FPu4IMPKljauJ2iyeFN3H3dummZCeNWijXdiaBvG4RWNdh/6NvgpwNdF/SEsGiACVy/Did466XjQPsF+E/5YdQPbsWKvyWlKFumjDybVqq8n8WZV6KbvVOSJiRXA4yWDx4y2L1l7U05MwaSNpgn5iFVkeT40haET19CemCWY304guYtmm9Z5kEJsfinTZmmLYJfeeWVYC0xj/hr2TJ33333yt4d5SoUHU855RR33vnnuauuvCq+ACxfWcxDF2MeAu9kHszSaIAo2fww8gdxsYRtdmIzpVXEFBBnLkXDTGX8+PEZ5iGDnJGdTmWHtRnfXwBbW0tJy+6zpsuGZojTFy1erPa/1hgE2id6FYTD0RfiXXQqcATGPQihmIxk7RgqEL0fTWNu7Zd37VixaoW75OJLXO0Da7urO3TQviwiPLyfGL+B/LFBHVKQJUuXSPqBdYNnhGAO8CvBVvannnKqCDbWTLLSeuBBeXxFMoC0D2c9LLEgxejZ83Hrh79Kf2PGjBnyWPngQw9KWTUGnz/SFEkXAxVlSD+G6cBXBEeGcUiO/GAeAOUr5tDK35qFtdfCbvWqoE1jacFAzT4WhEECgMR6nfUJdhSGeRbDbOMXWnOFdyzi1iHVC+NODxnmQUhIT07MQ+H27dt31S97ORDH6FfBwOJmgF21epX79LPPtG4lLjJVwSYiJGJ4eBw8eIjWMsePG+8m2Gznjz9+1/IEdsGsf8UybHHjhezjIUPdUUcd6apVrxbcDwF7UKFceVfv0HruuGOPc4uXLnbPPfecdpTcG+WtdNMWAikGm0mddNJJ4R1DQZZpBv9KRBkHIBPI8CeDJP4KSpcp7apVreYOOPAAzbjYCfbA2ge6A2odIDF72dJl3R577mnhA18SMXDpj/yCxQWD0rBhQy2PsHxB/94NZWjSDW322Qm/zRILyxRI/1ga2GW3XVy5cuX0jM3b6EvoUjCg45gKXzAffzxMEkLcrsOk4DyNzd7q1Kkjgo4DIfRHkKbgTAq9EZTtyleoEE/sk+U9TBfv4c2zYcPDtI04dMUruyZ97z8MlGyPPe44Mai+eNJhHqJVwQ/aJxM5wQZs2gYWDoWNkUQJ9x+rA+qXwDRlDurEK8Lru9ZnYDzXr18XRKP/00V86Fj67EMoweO+/wxjIhUq0pcIx6+4/CRDssTk+tIWRLL02b1IVuMAQ17op59+Ch4rYDzBKhDYd1BmYlvfhYsWukd7PKrBPleEjAMNhSULZlvY9woW52dffKb7T/R6QiJZuFFfszjnueH6G+Srnk2tssHCqLEakf3i8y/kkY70HX/C8QHRA8SVS9HQ+HGYgr4EM7AYwrRnkMFWg7VxHfnZvZPFZd9AF+mee++VaSSbY9WpWzv+21yHZy0R+FE9/O0fJwMhNTEILrJAP81LP/P92tMV6/98GGkoiqu4EWe7fJgQwScq8bv/cTQ9oqm79/778yx5CIowLMjwBBMJw5BtSm8olDJKHiR5aIxF7qmIwjeIALEUGHOCV1MY4jffeCOIMyJ5IBz3/DkZsudmG4XPiIf9Fk+QJAcs/xe8n4fEw/6YobRrd6EUuVhSEGeZLGySA7HkJ598olkH+zAgmmUtF/twXNay5klL059/z/6EsDD8gYIkTnv++muZ1nshIIsXL5YNeVmbAeXJJtwO1nvxeIfCTrLnmSNzbNUj2icK8Chbrqzr9cTjrm6duu62227V7BRPjSy9xMIZAeYPuhRc2R8jhP0WUU5xBN3Y/iLf05HsXhoHfR7LE5ScO93USTuPduvWzbVt2zbwPZPkncyRdag+7JyONVrqgzjiafO2dFjT4l/kd9bhfyfejx7+vX/TAQpffvnlW27ZIgK2tGYzpwEDBkjkuMdee4gAJHI5JJP7gLVefEOw4+ZhjQ6Td0VJSuwxfhkwO0NbF3MvRJz45IeZ+Oabb+QTgg1VSu9bWltro7WL29/uj3SXi2c+O/bnsXJhy/bfzZqdGCNW6WDypCmuS5cuWq7g+37dVthCZZpBBtsCtHywQ2H5iqhStYr77rvv3Lvvvuv+mDPH+uDuWkphFaDQPwkdg8kft4JOnz8I44FJiEk4DExYli79S/5mEMGykRbpvfKKKwMrrfz6/r8cr77a1x1j9FKTrTyVWXzd8yuonvj7HsnvpgYjSQyKODjy8gcFZ0Fkwvhg2QLdF2XRxklJQhITxb1kx/aCxLTab88oJOL11153hcaMGRM8DQNuScWgNavWaG1x+HfD3eM9H3clS5TU2i4Vl4iN9oc49PPPPner16yW61K0qTGPXLF8hRtoTMWSxYtlxlO/fn13RJMmbuKECdoZD2kFSyUM6IgheV73oLoON9S41UVrFz0FGBq5ea59YCA+Cz4cIGh7ASgxu2b2BHB7zWyFXftQ0pJiW7TM8yJOzSCD7R2+7dNf7BqpA3oJLAlgp0//wp3w0cccHUggoDtG4D3t8QP9JtEi+x7xcdDfOctDrJ3Rh4C+LF3yl+vf/x33/vvvu5UrV2r5EzFsyZIlZcWSSH6kf8IAtAnJ+bfjyKZHuvvu7+YOObS+W7tuvao+kSdMhrwWZeplC5D94T8BJyJEmUZ22swOpTo8QsQuN7qBAwe6wYMH24D5mm4XsvbAKJWNrkdez4a8ZnhrQJkLLgX7rb6ZJPFMkrce82CDMgwBCk3M/uHs2rdv7xo1ahQoJyWAmYLOGzeKAMRm9tEMEyTyKkSIsOr80XyFMxx0FGA+QDTv/j0hKJ2sb4TfQ/ETE7hJkya5J598UrtV3tjpRj33GtsxZM9OBhn8txD2m3G/jJNviZEjf1CXqnVgLVev3iEyxcTyCo+v7FS4OX0GUkH3o9+zI+1iO5AuwrjgJ2Pe/HnaqwBX3Se1PEleLT0tMDKgdz1EO3znz/TjbGhyRBNXp+5Bbq+99zbmYYPupcU8eLq62SCiZJGRiCAhccyDr8tEFArGl0RgzTFrxkw7F3Z9X30laMb23w66CA9/7c/bKxLTb79zZB5Gjx7NKwH81RYqAA2yxgSwvPDRRx/JnfSBtWsHOw6WKWshjMMTFbBLO2WbkWSlPG+V58P5s283XIfvxxgOC+MZlijmz53vXn/zdffN19+4Nq3buJNOPkk7V8aQmLb8RDTuDOKR32WdQb6A/gTUp6y/4SgOi4qZdrCttnYNNWDeuedee2l5sfS++7py5cvJRwX6B7sXK+aK4tvC+mLhQoVF2PBYu2rlSvl8+Wv5Mm1TjuXV/HnztR8FzAP0BQahRo0a2jMDz5mVKlYKfMyE6fFLo7GBhlNiP8u0rWxg8zRJdux6Q17pUl7DJ4PqJFlE9sDfjmMeUsECJzwUI2mcAueSJUpo4zeihHmIBeVCN/Xr3wPyxCkF83DyyScnMA9gSxZEpNNCXGbNniUfC7gcZSOgM1ufqWcxWFBJBVL4199kkARfCj7v/Paf4bshA4HnvoGDBronn3hSO2p26dxFyy0xBzu8w7sFWYY+rRlkx7+tE29PyGu79OH/QQK5Wg6dJk+a5CZPmSIFRkyw5879wwLg2S+gFJEuaXfRqA/M9GTfv0Nh+QeoUb2G2/+AmjrXrVNHulHY/qttcMDI+AkIsJ8aKLj2YTLIF1A3/zbktXkUdBkUSHNlQm0R58g8jBo1Kj5v/NpSncd/2b6nwdn+4GJRWhw2bJi86TU9sqns19matVixPSSpiDGSienchLRLxMk7CTUcZWqW/rVU273+9NNPUv5iTwz2AMCqgh01mU0pnvA9FXY+8zdxSEhrBhHksf4zyCdsSpv074QMtyYG1B/SxrAeV/69Qm6KVxljscKu19h5vdEIljGRSmKSjeI1/ZCj+D57uyJFdwoYBECEXBp9Me4iuE5sIz4dHpk2lK9ILN7/Ggo6/wUy1ISJTsU8tGrVaiszD8kQpgYvcvjw//TzT92Y0WPk7hYmommTpq5mzZoSY8Zg72AqBPA+5pdDZAJqRKRQqB8RzZYXT6pwwsGfiHxBrVi50o0bO9ZZ+bhfxv4i3Qw82WGJgfObEkgbLKjetwvOHhnmYSsiWsnbG7ales1rOW5u2vkecXBEv+3vJ4O/78Nw9u9Gn6lvG+iTifEnIp3nGSRHTuX2L0Nem0FBNRuKvMCK3RKdI/Pwww8/xOeLX9tQI8BSAmkEvh2QRuAbAsUmGAgUnqpUriK7cqwoJJXgz5gBwuCvQYqVCfmBoaBQiBef/JzXr18viwtEpXiYmzp1inYgxCqDzbfwXMnmOjAmXskyRpSSIcM8bB1sQ203z8jUaxaox/wsj1R0La/tJVNHqbE9973/Ony7TqhDTb6TVCzbQWzzzIMHmWDgxhEUSwhYZ+DbYf78+cGue5ZuBnWUFvHngAiT3QF3LFwk8DZJHMYwrFu3Xp7vEIMuXbrELV+23K3FjNMyjaY3bn9RqNqv8n6uSrUqbt9S+8YzIL604kstOzLMw9bB9kzAMvVzdJCvAAADmElEQVS6dZCXNpOpo9TYnvteQaKg20x+lLtPY0JcOTIPI0eOjM8av7blRhBJH+ZV7JOxdvVamU0uX/63fD3gKIodCHFhvWbNWgsZZBGFKqQHO++8s9tzjz1dmXJlpMnNb/QYOIoW3Vl7ASSFL6n4Essb8lq2ycLn9fvR8Mmytjn52ZKIpjNaLrnlLxW2l3xH4fO9PaY9g/8mUvXVgkRev5NXurwtoQDTnop5YOv+rcc8RL+TH9+0OJAseEXHIMP2fzTe8Bof6jL55EChaiOvB+8F/8eDuDY3ebki1QeS3U+WyJwQDZ9hHrKwveQ7ilT5ziCDbRVbo83m9Tup6O/2gAJMe47Mw/fffx9fzPzaEgUZ/U5+f9PiiyowRiFFyYRveWXJ4I3s7/nCiytELn1Qfzv5J3MH70eiTgvJvmVxJLsdLQppsydgU5Odn0gr+yTUJzbKJER1TzLMQwaAsslrn8pg87AtlXeUVqSDvNCN/xBSMg//O3XLFBkz/RjCSpXHSDuTOA30vqL9OQrCY2oVRfgu9zX4R973jANSBf4CecQ/bh1btYblwLseGzfi5IRC4rH9b4+CNwvJhbWsMbhJaXEEAQXi5Huy9gif+e+hhOmv+eO5zrwbXuNlU++Qlw0bVVZKG//CLHPfg+t1lqa1hLXfG+zdjcTH2U72msArsWINn8M3ESbbQfrtmzjcIXwYXIf/nRVvEEaH/bduw4bYPXRHCOvBPZ5zjsbBeb29wz3eIR7SwX2yHj24xyHwgpXbRso5BGH0Be75+/4F/7L/nQifWBVUGIiT3d9Im7XrWLsjrD8sbJQ5/YcwYVwbrM43Wp6DOO2G3ed5LEwYLpYmnlPR/lmKY53Fq+soEsLEHcDOsVTateqZdIVhYlkIw+unfydyTnaQ/+jzoA8E+fD3VXaR37QTvs93fVh/j2t/BOkMnvs4FE5hrSwj4RPf5afuB1/Nlgfi4UzfDL4T1CXtUGEMPs7od/xBfBzr6ae8a9f+md6L/N6UgzgwRY1+238j+q3oteCvI4cvQyF6tkN9lkjsmhNhfb5jz+3S/44eQfissP6Ahqjf2s8NdkEfj8L/8s89CKc4IwfPOaL3dFhA7q8zAuej8O9y1rWlDS+X0MV/jCasI29x1xa3heTw17wT/Q4gfq75lm+n/hkgHbFv6k4Awvq0e/iyiIYnfu4H10F4nsXy7dPEzfB3cLbDzr7c+M+PGVsOzv0/psCqfMA39KwAAAAASUVORK5CYII=;" vertex="1" parent="1">
          <mxGeometry x="120.3" y="40" width="463.64" height="300" as="geometry" />
        </mxCell>
        <mxCell id="dtEqAcXGCRU7ycoyWSir-23" value="&lt;u&gt;A22&lt;/u&gt;" style="rounded=0;whiteSpace=wrap;html=1;" vertex="1" parent="1">
          <mxGeometry x="135.3" y="680" width="50" height="30" as="geometry" />
        </mxCell>
        <mxCell id="dtEqAcXGCRU7ycoyWSir-25" value="&lt;b&gt;E6&lt;br&gt;&lt;/b&gt;" style="text;html=1;strokeColor=none;fillColor=none;align=center;verticalAlign=middle;whiteSpace=wrap;rounded=0;" vertex="1" parent="1">
          <mxGeometry x="120.30000000000001" y="650" width="60" height="30" as="geometry" />
        </mxCell>
        <mxCell id="dtEqAcXGCRU7ycoyWSir-27" value="&lt;b&gt;E5&lt;/b&gt;" style="text;html=1;strokeColor=none;fillColor=none;align=center;verticalAlign=middle;whiteSpace=wrap;rounded=0;" vertex="1" parent="1">
          <mxGeometry x="425" y="360" width="60" height="30" as="geometry" />
        </mxCell>
        <mxCell id="dtEqAcXGCRU7ycoyWSir-33" style="edgeStyle=orthogonalEdgeStyle;rounded=0;orthogonalLoop=1;jettySize=auto;html=1;entryX=0.5;entryY=1;entryDx=0;entryDy=0;" edge="1" parent="1" source="dtEqAcXGCRU7ycoyWSir-28" target="dtEqAcXGCRU7ycoyWSir-9">
          <mxGeometry relative="1" as="geometry">
            <Array as="points">
              <mxPoint x="465" y="500" />
              <mxPoint x="160" y="500" />
            </Array>
          </mxGeometry>
        </mxCell>
        <mxCell id="dtEqAcXGCRU7ycoyWSir-28" value="&lt;u&gt;A7&lt;/u&gt;" style="rounded=0;whiteSpace=wrap;html=1;" vertex="1" parent="1">
          <mxGeometry x="440" y="390" width="50" height="30" as="geometry" />
        </mxCell>
        <mxCell id="dtEqAcXGCRU7ycoyWSir-34" style="edgeStyle=orthogonalEdgeStyle;rounded=0;orthogonalLoop=1;jettySize=auto;html=1;exitX=0.5;exitY=1;exitDx=0;exitDy=0;entryX=0.5;entryY=1;entryDx=0;entryDy=0;" edge="1" parent="1" source="dtEqAcXGCRU7ycoyWSir-29" target="dtEqAcXGCRU7ycoyWSir-10">
          <mxGeometry relative="1" as="geometry" />
        </mxCell>
        <mxCell id="dtEqAcXGCRU7ycoyWSir-29" value="&lt;u&gt;A8&lt;/u&gt;" style="rounded=0;whiteSpace=wrap;html=1;" vertex="1" parent="1">
          <mxGeometry x="490" y="390" width="50" height="30" as="geometry" />
        </mxCell>
        <mxCell id="dtEqAcXGCRU7ycoyWSir-30" value="&lt;u&gt;A20&lt;/u&gt;" style="rounded=0;whiteSpace=wrap;html=1;" vertex="1" parent="1">
          <mxGeometry x="540" y="390" width="50" height="30" as="geometry" />
        </mxCell>
        <mxCell id="dtEqAcXGCRU7ycoyWSir-31" value="A21" style="rounded=0;whiteSpace=wrap;html=1;" vertex="1" parent="1">
          <mxGeometry x="590" y="390" width="50" height="30" as="geometry" />
        </mxCell>
        <mxCell id="dtEqAcXGCRU7ycoyWSir-39" style="edgeStyle=orthogonalEdgeStyle;rounded=0;orthogonalLoop=1;jettySize=auto;html=1;exitX=0.5;exitY=1;exitDx=0;exitDy=0;entryX=0.5;entryY=0;entryDx=0;entryDy=0;" edge="1" parent="1" source="dtEqAcXGCRU7ycoyWSir-35" target="dtEqAcXGCRU7ycoyWSir-9">
          <mxGeometry relative="1" as="geometry">
            <Array as="points">
              <mxPoint x="310" y="430" />
              <mxPoint x="160" y="430" />
            </Array>
          </mxGeometry>
        </mxCell>
        <mxCell id="dtEqAcXGCRU7ycoyWSir-35" value="A7" style="rounded=0;whiteSpace=wrap;html=1;" vertex="1" parent="1">
          <mxGeometry x="285.3" y="390" width="50" height="30" as="geometry" />
        </mxCell>
        <mxCell id="dtEqAcXGCRU7ycoyWSir-41" style="edgeStyle=orthogonalEdgeStyle;rounded=0;orthogonalLoop=1;jettySize=auto;html=1;exitX=0.5;exitY=1;exitDx=0;exitDy=0;entryX=0.5;entryY=0;entryDx=0;entryDy=0;" edge="1" parent="1" source="dtEqAcXGCRU7ycoyWSir-36" target="dtEqAcXGCRU7ycoyWSir-10">
          <mxGeometry relative="1" as="geometry" />
        </mxCell>
        <mxCell id="dtEqAcXGCRU7ycoyWSir-36" value="A8" style="rounded=0;whiteSpace=wrap;html=1;" vertex="1" parent="1">
          <mxGeometry x="335.3" y="390" width="50" height="30" as="geometry" />
        </mxCell>
        <mxCell id="dtEqAcXGCRU7ycoyWSir-45" style="edgeStyle=orthogonalEdgeStyle;rounded=0;orthogonalLoop=1;jettySize=auto;html=1;exitX=0.5;exitY=1;exitDx=0;exitDy=0;entryX=0;entryY=0.5;entryDx=0;entryDy=0;" edge="1" parent="1" source="dtEqAcXGCRU7ycoyWSir-42" target="dtEqAcXGCRU7ycoyWSir-3">
          <mxGeometry relative="1" as="geometry">
            <Array as="points">
              <mxPoint x="260" y="650" />
              <mxPoint x="60" y="650" />
              <mxPoint x="60" y="405" />
            </Array>
          </mxGeometry>
        </mxCell>
        <mxCell id="dtEqAcXGCRU7ycoyWSir-42" value="A1" style="rounded=0;whiteSpace=wrap;html=1;" vertex="1" parent="1">
          <mxGeometry x="235.3" y="610" width="50" height="30" as="geometry" />
        </mxCell>
        <mxCell id="dtEqAcXGCRU7ycoyWSir-43" value="A15" style="rounded=0;whiteSpace=wrap;html=1;" vertex="1" parent="1">
          <mxGeometry x="285.3" y="610" width="50" height="30" as="geometry" />
        </mxCell>
        <mxCell id="dtEqAcXGCRU7ycoyWSir-44" value="A16" style="rounded=0;whiteSpace=wrap;html=1;" vertex="1" parent="1">
          <mxGeometry x="335.3" y="610" width="50" height="30" as="geometry" />
        </mxCell>
        <mxCell id="dtEqAcXGCRU7ycoyWSir-46" value="&lt;b&gt;R2&lt;/b&gt;" style="text;html=1;strokeColor=none;fillColor=none;align=center;verticalAlign=middle;whiteSpace=wrap;rounded=0;" vertex="1" parent="1">
          <mxGeometry x="425" y="525" width="60" height="30" as="geometry" />
        </mxCell>
        <mxCell id="dtEqAcXGCRU7ycoyWSir-52" style="edgeStyle=orthogonalEdgeStyle;rounded=0;orthogonalLoop=1;jettySize=auto;html=1;exitX=0.5;exitY=0;exitDx=0;exitDy=0;" edge="1" parent="1" source="dtEqAcXGCRU7ycoyWSir-47" target="dtEqAcXGCRU7ycoyWSir-9">
          <mxGeometry relative="1" as="geometry" />
        </mxCell>
        <mxCell id="dtEqAcXGCRU7ycoyWSir-47" value="&lt;u&gt;A7&lt;/u&gt;" style="rounded=0;whiteSpace=wrap;html=1;" vertex="1" parent="1">
          <mxGeometry x="440" y="555" width="50" height="30" as="geometry" />
        </mxCell>
        <mxCell id="dtEqAcXGCRU7ycoyWSir-53" style="edgeStyle=orthogonalEdgeStyle;rounded=0;orthogonalLoop=1;jettySize=auto;html=1;exitX=0.5;exitY=0;exitDx=0;exitDy=0;entryX=0.25;entryY=1;entryDx=0;entryDy=0;" edge="1" parent="1" source="dtEqAcXGCRU7ycoyWSir-48" target="dtEqAcXGCRU7ycoyWSir-10">
          <mxGeometry relative="1" as="geometry">
            <Array as="points">
              <mxPoint x="515" y="530" />
              <mxPoint x="198" y="530" />
            </Array>
          </mxGeometry>
        </mxCell>
        <mxCell id="dtEqAcXGCRU7ycoyWSir-48" value="&lt;u&gt;A8&lt;/u&gt;" style="rounded=0;whiteSpace=wrap;html=1;" vertex="1" parent="1">
          <mxGeometry x="490" y="555" width="50" height="30" as="geometry" />
        </mxCell>
        <mxCell id="dtEqAcXGCRU7ycoyWSir-54" style="edgeStyle=orthogonalEdgeStyle;rounded=0;orthogonalLoop=1;jettySize=auto;html=1;exitX=0.5;exitY=1;exitDx=0;exitDy=0;entryX=0.5;entryY=1;entryDx=0;entryDy=0;" edge="1" parent="1" source="dtEqAcXGCRU7ycoyWSir-49" target="dtEqAcXGCRU7ycoyWSir-13">
          <mxGeometry relative="1" as="geometry">
            <Array as="points">
              <mxPoint x="565" y="590" />
              <mxPoint x="160" y="590" />
            </Array>
          </mxGeometry>
        </mxCell>
        <mxCell id="dtEqAcXGCRU7ycoyWSir-49" value="&lt;u&gt;A9&lt;/u&gt;" style="rounded=0;whiteSpace=wrap;html=1;" vertex="1" parent="1">
          <mxGeometry x="540" y="555" width="50" height="30" as="geometry" />
        </mxCell>
        <mxCell id="dtEqAcXGCRU7ycoyWSir-55" value="&lt;b&gt;R3&lt;/b&gt;" style="text;html=1;strokeColor=none;fillColor=none;align=center;verticalAlign=middle;whiteSpace=wrap;rounded=0;" vertex="1" parent="1">
          <mxGeometry x="425" y="600" width="60" height="30" as="geometry" />
        </mxCell>
        <mxCell id="dtEqAcXGCRU7ycoyWSir-56" value="&lt;u&gt;A14&lt;/u&gt;" style="rounded=0;whiteSpace=wrap;html=1;" vertex="1" parent="1">
          <mxGeometry x="440" y="630" width="50" height="30" as="geometry" />
        </mxCell>
        <mxCell id="dtEqAcXGCRU7ycoyWSir-57" value="&lt;u&gt;A9&lt;/u&gt;" style="rounded=0;whiteSpace=wrap;html=1;" vertex="1" parent="1">
          <mxGeometry x="490" y="630" width="50" height="30" as="geometry" />
        </mxCell>
        <mxCell id="dtEqAcXGCRU7ycoyWSir-60" value="&lt;b&gt;A12&lt;/b&gt;" style="text;html=1;strokeColor=none;fillColor=none;align=center;verticalAlign=middle;whiteSpace=wrap;rounded=0;" vertex="1" parent="1">
          <mxGeometry x="125.30000000000001" y="730" width="60" height="30" as="geometry" />
        </mxCell>
        <mxCell id="dtEqAcXGCRU7ycoyWSir-65" style="edgeStyle=orthogonalEdgeStyle;rounded=0;orthogonalLoop=1;jettySize=auto;html=1;exitX=0;exitY=0.5;exitDx=0;exitDy=0;entryX=0;entryY=0.5;entryDx=0;entryDy=0;" edge="1" parent="1" source="dtEqAcXGCRU7ycoyWSir-61" target="dtEqAcXGCRU7ycoyWSir-17">
          <mxGeometry relative="1" as="geometry" />
        </mxCell>
        <mxCell id="dtEqAcXGCRU7ycoyWSir-61" value="&lt;u&gt;A14&lt;/u&gt;" style="rounded=0;whiteSpace=wrap;html=1;" vertex="1" parent="1">
          <mxGeometry x="135.3" y="760" width="50" height="30" as="geometry" />
        </mxCell>
        <mxCell id="dtEqAcXGCRU7ycoyWSir-62" value="&lt;u&gt;A12&lt;/u&gt;" style="rounded=0;whiteSpace=wrap;html=1;" vertex="1" parent="1">
          <mxGeometry x="185.3" y="760" width="50" height="30" as="geometry" />
        </mxCell>
        <mxCell id="dtEqAcXGCRU7ycoyWSir-66" value="&lt;b&gt;A17&lt;/b&gt;" style="text;html=1;strokeColor=none;fillColor=none;align=center;verticalAlign=middle;whiteSpace=wrap;rounded=0;" vertex="1" parent="1">
          <mxGeometry x="305.3" y="730" width="60" height="30" as="geometry" />
        </mxCell>
        <mxCell id="dtEqAcXGCRU7ycoyWSir-71" style="edgeStyle=orthogonalEdgeStyle;rounded=0;orthogonalLoop=1;jettySize=auto;html=1;exitX=0.5;exitY=0;exitDx=0;exitDy=0;entryX=0.5;entryY=1;entryDx=0;entryDy=0;" edge="1" parent="1" source="dtEqAcXGCRU7ycoyWSir-67" target="dtEqAcXGCRU7ycoyWSir-56">
          <mxGeometry relative="1" as="geometry">
            <Array as="points">
              <mxPoint x="350" y="760" />
              <mxPoint x="350" y="690" />
              <mxPoint x="465" y="690" />
            </Array>
          </mxGeometry>
        </mxCell>
        <mxCell id="dtEqAcXGCRU7ycoyWSir-67" value="&lt;u&gt;A14&lt;/u&gt;" style="rounded=0;whiteSpace=wrap;html=1;" vertex="1" parent="1">
          <mxGeometry x="315.3" y="760" width="50" height="30" as="geometry" />
        </mxCell>
        <mxCell id="dtEqAcXGCRU7ycoyWSir-72" style="edgeStyle=orthogonalEdgeStyle;rounded=0;orthogonalLoop=1;jettySize=auto;html=1;exitX=0.5;exitY=0;exitDx=0;exitDy=0;entryX=0.5;entryY=1;entryDx=0;entryDy=0;" edge="1" parent="1" source="dtEqAcXGCRU7ycoyWSir-68" target="dtEqAcXGCRU7ycoyWSir-57">
          <mxGeometry relative="1" as="geometry">
            <Array as="points">
              <mxPoint x="390" y="700" />
              <mxPoint x="515" y="700" />
            </Array>
          </mxGeometry>
        </mxCell>
        <mxCell id="dtEqAcXGCRU7ycoyWSir-68" value="&lt;u&gt;A9&lt;/u&gt;" style="rounded=0;whiteSpace=wrap;html=1;" vertex="1" parent="1">
          <mxGeometry x="365.3" y="760" width="50" height="30" as="geometry" />
        </mxCell>
        <mxCell id="dtEqAcXGCRU7ycoyWSir-69" value="&lt;u&gt;A19&lt;/u&gt;" style="rounded=0;whiteSpace=wrap;html=1;" vertex="1" parent="1">
          <mxGeometry x="415.3" y="760" width="50" height="30" as="geometry" />
        </mxCell>
        <mxCell id="dtEqAcXGCRU7ycoyWSir-70" value="&lt;u&gt;A18&lt;/u&gt;" style="rounded=0;whiteSpace=wrap;html=1;" vertex="1" parent="1">
          <mxGeometry x="465.3" y="760" width="50" height="30" as="geometry" />
        </mxCell>
        <mxCell id="dtEqAcXGCRU7ycoyWSir-74" value="&lt;b&gt;R6&lt;/b&gt;" style="text;html=1;strokeColor=none;fillColor=none;align=center;verticalAlign=middle;whiteSpace=wrap;rounded=0;" vertex="1" parent="1">
          <mxGeometry x="125.30000000000001" y="810" width="60" height="30" as="geometry" />
        </mxCell>
        <mxCell id="dtEqAcXGCRU7ycoyWSir-75" value="&lt;u&gt;A7&lt;/u&gt;" style="rounded=0;whiteSpace=wrap;html=1;" vertex="1" parent="1">
          <mxGeometry x="135.3" y="840" width="50" height="30" as="geometry" />
        </mxCell>
        <mxCell id="dtEqAcXGCRU7ycoyWSir-76" value="&lt;u&gt;A8&lt;/u&gt;" style="rounded=0;whiteSpace=wrap;html=1;" vertex="1" parent="1">
          <mxGeometry x="185.3" y="840" width="50" height="30" as="geometry" />
        </mxCell>
        <mxCell id="dtEqAcXGCRU7ycoyWSir-77" value="&lt;u&gt;A20&lt;/u&gt;" style="rounded=0;whiteSpace=wrap;html=1;" vertex="1" parent="1">
          <mxGeometry x="235.3" y="840" width="50" height="30" as="geometry" />
        </mxCell>
        <mxCell id="dtEqAcXGCRU7ycoyWSir-78" value="&lt;u&gt;A22&lt;/u&gt;" style="rounded=0;whiteSpace=wrap;html=1;" vertex="1" parent="1">
          <mxGeometry x="285.3" y="840" width="50" height="30" as="geometry" />
        </mxCell>
        <mxCell id="dtEqAcXGCRU7ycoyWSir-79" value="A9" style="rounded=0;whiteSpace=wrap;html=1;" vertex="1" parent="1">
          <mxGeometry x="335.3" y="840" width="50" height="30" as="geometry" />
        </mxCell>
      </root>
    </mxGraphModel>
  </diagram>
</mxfile>
